<?xml version="1.0" standalone="no"?>
<!DOCTYPE svg PUBLIC "-//W3C//DTD SVG 20010904//EN"
 "http://www.w3.org/TR/2001/REC-SVG-20010904/DTD/svg10.dtd">
<svg version="1.0" xmlns="http://www.w3.org/2000/svg"
 width="173.000000pt" height="360.000000pt" viewBox="0 0 173.000000 360.000000"
 preserveAspectRatio="xMidYMid meet">

<g transform="translate(0.000000,360.000000) scale(0.100000,-0.100000)"
fill="#fbd400" stroke="none">
<path d="M1235 3465 c-23 -8 -60 -35 -87 -65 -153 -165 -92 -454 101 -477 138
-16 245 100 245 267 0 194 -123 324 -259 275z"/>
<path d="M767 3199 c-42 -42 -53 -95 -37 -173 31 -150 211 -159 227 -12 12 98
-46 201 -119 213 -33 5 -42 1 -71 -28z"/>
<path d="M496 2979 c-49 -57 -28 -195 34 -226 42 -21 94 -16 124 12 21 20 26
33 26 75 0 64 -18 109 -59 143 -46 38 -91 37 -125 -4z"/>
<path d="M1021 2800 c-309 -86 -626 -402 -702 -698 -40 -155 -27 -229 110
-637 147 -436 135 -376 136 -705 0 -323 2 -329 81 -452 55 -86 119 -147 192
-184 52 -26 66 -29 157 -29 92 0 106 3 168 32 123 58 226 183 242 294 14 97
-29 257 -159 594 -69 179 -88 256 -88 356 0 111 16 143 157 305 121 139 173
225 211 349 25 82 27 105 28 255 1 181 -8 236 -55 336 -37 79 -115 154 -192
182 -72 27 -193 28 -286 2z"/>
<path d="M310 2752 c-49 -40 -31 -155 30 -187 62 -32 120 6 120 78 -1 51 -17
82 -56 108 -36 24 -65 24 -94 1z"/>
<path d="M161 2474 c-25 -32 -26 -55 -5 -99 20 -42 63 -62 96 -44 59 31 64 85
14 135 -42 42 -76 44 -105 8z"/>
</g>
</svg>
