<svg width="65" height="77" viewBox="0 0 65 77" fill="none" xmlns="http://www.w3.org/2000/svg">
<path d="M4.2254 47.6923L7.63311 50.2541L9.63521 51.3386L10.1889 54.5238H13.4518C13.4518 54.5238 17.8562 55.3778 17.8562 56.2317C17.8562 57.0856 18.7081 60.5014 18.7081 61.3553V62.2093H30.3965L31.487 64.7711V70.4497L33.1909 72.4566L34.0428 75.0184H36.5474L39.1544 75.8723L41.7101 75.0184V68.5455L45.1178 64.7711L50.2294 61.3553L55.3409 59.6475C55.3409 59.6475 55.3409 51.962 56.1929 51.962C57.0448 51.962 57.0448 49.4002 57.0448 49.4002L60.4525 47.6923L63.0083 46.8383L63.8602 41.7147L63.0083 40.0068L61.1255 38.914L58.7486 36.5911V33.1753L59.6006 24.6359L60.4525 23.7819L59.6006 20.3662H57.096C57.096 20.3662 55.3409 19.5122 55.3409 18.6583C55.4885 17.7647 55.7761 16.9001 56.1929 16.0965V5.84918L55.3409 1.57947L54.4293 0.896484C54.0034 1.57964 51.0813 1.57947 51.0813 1.57947L50.2294 2.43341L45.1178 4.14129C45.1178 4.14129 42.5621 2.43341 41.7101 2.43341H39.1544L31.487 4.99523L23.8197 6.70312L20.412 10.1189L18.7081 13.5346H14.4485L12.7447 15.2425H10.1889L5.92926 14.5337V26.3438L4.2254 28.0516L5.92926 30.844L8.48503 35.7371L9.63521 38.914H4.2254L1.66963 41.7147L1.50781 41.8002L3.37348 43.4226L4.2254 47.6923Z" fill="white" stroke="black" stroke-miterlimit="10"/>
</svg>
