<svg width="108" height="91" viewBox="0 0 108 91" fill="none" xmlns="http://www.w3.org/2000/svg">
<path d="M100.767 11.5635V5.16139L97.7906 3.85034L95.9608 1.2793L93.1132 3.85034L89.9751 5.16139L87.1617 3.85034H84.9129C84.3742 4.16743 83.9893 4.46739 83.9893 4.70735C84.1375 5.60415 84.4261 6.47186 84.8444 7.2784L83.1342 8.99242L79.7138 9.84944L78.0036 8.99242L75.4383 8.13541L72.873 7.2784H68.5975L69.4526 8.99242L70.4615 9.84944L69.4526 12.4205C69.1867 12.5614 68.9657 12.7742 68.8146 13.0348C68.6634 13.2954 68.5882 13.5935 68.5975 13.8947C68.5504 14.6265 68.2477 15.3182 67.7424 15.8485V17.0914L66.8873 18.4196V20.2964C66.7656 20.8883 66.4674 21.4294 66.0321 21.8476C65.2274 22.2669 64.3616 22.5562 63.4668 22.7046C62.8184 22.7946 62.2175 23.0957 61.7566 23.5617L60.9015 24.4187L60.0464 25.2757H56.4293L54.9158 26.1327L54.0607 28.7037C53.5998 29.1697 52.9989 29.4708 52.3505 29.5608H46.4332C46.4332 29.5608 45.5096 29.5608 45.5096 30.4178C45.5096 31.2748 43.7994 35.5599 43.7994 35.5599L42.9443 37.2739L42.4911 39.1595L38.0275 42.2444H30.3743L24.132 43.273L21.5667 44.987H17.1885C17.1885 44.987 17.0944 49.7006 17.1885 50.3434C17.2825 50.9861 17.1459 53.9685 17.1459 53.9685L15.581 56.1282L10.4504 57.8422L1.45464 58.6566C1.45464 58.6566 1.85654 59.4619 1.45464 59.9333C1.05274 60.4047 4.46462 68.1264 5.31973 68.1264H9.10778L10.4504 71.5545L7.40613 74.554L5.31973 75.8395L6.92722 79.5931L7.88504 79.2676H19.8565L19.0014 77.5536V74.9825C19.1496 74.0857 19.4381 73.218 19.8565 72.4115L20.7116 69.8404L23.2769 70.6974C23.2769 70.6974 21.5668 74.1255 21.6609 74.554C21.7549 74.9825 22.4218 80.1246 22.4218 80.1246L24.132 80.9816L24.9871 79.2676L25.8422 77.5536L27.5524 74.9825L29.2627 72.4115V77.5536H30.9729L31.828 76.6965V73.2685C31.828 72.4115 33.5382 73.2685 33.5382 73.2685L33.8887 74.554L34.3933 78.4106L33.5382 80.1246L34.3933 83.5527L35.2484 86.9807L36.7534 90.4088H39.5239L42.9443 88.6947L46.3647 86.1237L47.2198 84.4097L48.075 81.8386C48.5867 80.7651 48.8775 79.5992 48.9301 78.4106C48.7825 77.0417 48.3294 75.7236 47.6046 74.554L51.4954 69.8404V68.1264L55.7709 66.4124L57.4811 67.2694L58.3362 70.6974L60.0464 73.2685L62.6117 72.4115L63.2359 75.8395L66.742 74.554L70.3077 75.8395L69.9315 74.554L70.3077 68.9834L68.5975 66.4124L69.2987 60.4133H81.424L83.1342 58.6992L85.5628 54.4142L87.4098 52.7001L89.9751 54.4142L91.6853 50.1291L89.9751 47.5581V44.987L92.8995 42.416H95.1057V37.2739L94.8149 33.8458H91.6853L94.2506 32.1318L97.671 30.4178L98.5261 26.1327L97.671 23.5617V20.1336L100.236 18.4196H106.222L107 15.2828L100.767 11.5635Z" fill="white" stroke="black" stroke-miterlimit="10"/>
</svg>
