<svg width="76" height="66" viewBox="0 0 76 66" fill="none" xmlns="http://www.w3.org/2000/svg">
<path d="M14.6557 53.5659L18.0888 55.7751L21.5219 55.9123L25.8132 55.7751L27.5298 54.0626L28.388 50.6376L30.1046 49.7813L30.9628 48.0688L33.5376 47.2126H36.9707L36.1124 49.7813L34.3959 50.8002V53.1892L36.1124 55.758L37.829 59.183L39.846 63.7725L45.5534 62.6081L49.8447 63.4643L51.5613 65.1769L56.7109 64.3206L59.2857 62.0687L63.062 60.8956H65.2936L67.0101 54.9017L66.1518 49.7642L71.3014 46.3392L74.7345 42.9141C74.7345 42.9141 73.0179 39.4891 73.1466 39.061C73.2754 38.6328 71.3014 31.7828 70.4432 30.9265C69.549 29.8488 68.7398 28.7037 68.0228 27.5015L63.062 25.6518L56.2817 29.214H52.4195L45.7422 22.458L43.8369 19.7951C43.8369 19.7951 46.4117 12.0888 47.2699 11.2325C48.1282 10.3763 47.2699 6.70289 47.2699 6.70289V3.5262L46.4117 2.66994L43.691 0.529297H35.7948C35.7948 0.529297 34.619 3.5262 34.9365 4.38246C35.2541 5.23872 33.5376 7.8075 33.5376 7.8075V9.52002H25.7617L19.8053 9.57144V11.284L19.359 15.1371L16.3723 18.0826L15.514 23.2202H11.2227C11.2227 23.2202 7.00858 22.3639 6.52795 23.2202C5.31322 24.7239 4.00913 26.1535 2.62279 27.5015H0.90625L1.76452 31.7828L4.33932 33.4953V41.8354L7.7724 43.7704L8.63067 48.0517L12.0637 49.7642H13.7803L14.6557 53.5659Z" fill="white" stroke="black" stroke-miterlimit="10"/>
</svg>
