<svg width="85" height="94" viewBox="0 0 85 94" fill="none" xmlns="http://www.w3.org/2000/svg">
<path fill-rule="evenodd" clip-rule="evenodd" d="M55.525 22.2342L56.7153 21.3717L55.5677 17.7377L54.8026 15.6338H52.428L49.097 14.0869H46.5987L44.1005 13.2209L41.6054 11.8085L40.4578 9.13078V7.02687L38.2712 6.29334L36.6057 5.42739C35.4496 5.38249 34.3152 5.08757 33.2748 4.56145C31.6093 3.6955 31.6093 2.82955 31.6093 2.82955C31.1604 2.35877 30.5752 2.0545 29.9438 1.9636H26.6128L24.9473 2.82955H23.2818L21.6163 1.09766L19.9508 1.9636L19.118 3.6955L18.2853 5.42739L16.5033 7.59226C16.5033 7.59226 14.1215 8.89118 14.1215 9.75713C14.1188 9.81954 14.0984 9.8799 14.0632 9.93049L14.9543 10.6231L15.787 14.9528V25.3442C15.3796 26.1591 15.0986 27.0359 14.9543 27.942C14.9543 28.808 16.6698 29.6739 16.6698 29.6739H19.118L19.9508 33.1377L19.118 34.0037L18.2853 42.6631V46.1269L20.6087 48.4825L21.8565 49.1017L21.813 49.1438L22.3235 49.4309L23.1742 51.1208L22.3235 56.1903L19.7715 57.0352L16.3688 58.725C16.3688 58.725 16.3688 61.2598 15.5181 61.2598C14.6674 61.2598 14.6674 68.8641 14.6674 68.8641L9.5634 70.5539L4.45934 73.9336L1.05664 77.6681V81.5378L4.45934 83.2277L8.21926 84.9175L12.1154 86.6074H14.4122L16.7941 84.9175L19.7715 82.3828L23.1742 82.915C23.1742 82.915 25.7262 84.9175 25.7262 85.7624C25.7262 86.1849 25.9389 86.3961 26.2579 86.713C26.5769 87.0298 27.0022 87.4523 27.4276 88.2972C28.2783 89.987 29.9796 92.5218 29.9796 92.5218L30.9154 86.6074V80.6929C30.9154 80.6929 30.992 78.6483 30.9154 77.5583C30.862 76.6127 30.862 75.6651 30.9154 74.7195L28.2783 73.0887L25.7262 73.9336L24.8756 71.3988L24.0249 70.5539L25.7262 68.0191L29.1289 63.7946H31.8681L37.6357 64.6395C37.6357 64.6395 43.5904 66.3293 44.4411 67.1742C44.6799 67.4115 45.0529 67.8485 45.4847 68.3545C46.5907 69.6506 48.0826 71.3988 48.6945 71.3988C49.5451 71.3988 54.6492 73.9336 54.6492 73.9336L60.6039 72.2437L62.3053 68.0191V65.4844C62.3053 65.4844 62.6625 63.8536 63.7599 63.8536C64.7355 63.9697 65.683 64.2557 66.5587 64.6985L67.7242 63.8536V60.9132L66.7713 59.629L67.7242 58.3872C67.7242 58.3872 67.724 58.8434 68.8384 58.3872C69.573 58.0585 70.2417 57.6004 70.812 57.0352L75.9161 55.3454C75.9161 55.3454 80.1695 57.0352 80.1695 57.8801C80.3168 58.7643 80.6039 59.6197 81.0201 60.4149L84.0656 55.3454L82.7215 52.8106L79.3188 51.9657V50.2759L80.7393 46.0513L77.2432 42.6716L74.2147 41.8267L70.812 40.9818V38.447H66.9329L66.5587 35.0673L67.4093 31.6876H63.2835L59.7533 30.8427L61.4546 28.308L62.3053 24.0834L58.4602 21.3712H57.2012L55.525 22.2342Z" fill="white"/>
<path d="M55.525 22.2342L55.2316 21.8293L55.7539 22.6787L55.525 22.2342ZM56.7153 21.3717L57.0087 21.7766L57.3007 21.565L57.1921 21.2212L56.7153 21.3717ZM55.5677 17.7377L56.0445 17.5871L56.0413 17.5769L56.0376 17.5668L55.5677 17.7377ZM54.8026 15.6338L55.2725 15.4629L55.1528 15.1338H54.8026V15.6338ZM52.428 15.6338L52.2174 16.0873L52.3175 16.1338H52.428V15.6338ZM49.097 14.0869L49.3076 13.6334L49.2074 13.5869H49.097V14.0869ZM46.5987 14.0869L46.435 14.5593L46.5145 14.5869H46.5987V14.0869ZM44.1005 13.2209L43.8542 13.656L43.8938 13.6784L43.9367 13.6933L44.1005 13.2209ZM41.6054 11.8085L41.1458 12.0055L41.2122 12.1605L41.359 12.2436L41.6054 11.8085ZM40.4578 9.13078H39.9578V9.23341L39.9982 9.32774L40.4578 9.13078ZM40.4578 7.02687H40.9578V6.66722L40.6168 6.55283L40.4578 7.02687ZM38.2712 6.29334L38.0406 6.73696L38.0752 6.75496L38.1122 6.76738L38.2712 6.29334ZM36.6057 5.42739L36.8364 4.98377L36.737 4.93212L36.6252 4.92777L36.6057 5.42739ZM33.2748 4.56145L33.0441 5.00509L33.0491 5.00764L33.2748 4.56145ZM31.6093 2.82955L32.1093 2.82955L32.1093 2.62941L31.9712 2.48454L31.6093 2.82955ZM29.9438 1.9636L30.015 1.4687L29.9796 1.4636H29.9438V1.9636ZM26.6128 1.9636V1.4636H26.4906L26.3821 1.51998L26.6128 1.9636ZM24.9473 2.82955V3.32955H25.0695L25.1779 3.27317L24.9473 2.82955ZM23.2818 2.82955L22.9214 3.17613L23.0689 3.32955H23.2818V2.82955ZM21.6163 1.09766L21.9767 0.751079L21.7174 0.481513L21.3856 0.654036L21.6163 1.09766ZM19.9508 1.9636L19.7201 1.51998L19.5723 1.59682L19.5002 1.74693L19.9508 1.9636ZM19.118 3.6955L19.5686 3.91217L19.5686 3.91217L19.118 3.6955ZM18.2853 5.42739L18.6713 5.74516L18.7097 5.69851L18.7359 5.64406L18.2853 5.42739ZM16.5033 7.59226L16.7427 8.03123L16.8278 7.98483L16.8893 7.91003L16.5033 7.59226ZM14.1215 9.75713L14.621 9.77937L14.6215 9.76826V9.75713H14.1215ZM14.0632 9.93049L13.653 9.64461L13.3816 10.034L13.7564 10.3253L14.0632 9.93049ZM14.9543 10.6231L15.4453 10.5286L15.4097 10.3438L15.2611 10.2283L14.9543 10.6231ZM15.787 14.9528H16.287V14.9052L16.278 14.8584L15.787 14.9528ZM15.787 25.3442L16.2343 25.5678L16.287 25.4622V25.3442H15.787ZM14.9543 27.942L14.4605 27.8634L14.4543 27.9025V27.942H14.9543ZM16.6698 29.6739L16.4445 30.1203L16.5508 30.1739H16.6698V29.6739ZM19.118 29.6739L19.6042 29.557L19.5121 29.1739H19.118V29.6739ZM19.9508 33.1377L20.3112 33.4843L20.5009 33.287L20.4369 33.0208L19.9508 33.1377ZM19.118 34.0037L18.7576 33.6571L18.637 33.7825L18.6203 33.9558L19.118 34.0037ZM18.2853 42.6631L17.7876 42.6153L17.7853 42.6391V42.6631H18.2853ZM18.2853 46.1269H17.7853V46.332L17.9293 46.478L18.2853 46.1269ZM20.6087 48.4825L20.2527 48.8336L20.3115 48.8932L20.3864 48.9304L20.6087 48.4825ZM21.8565 49.1017L22.2044 49.4609L22.7129 48.9684L22.0788 48.6538L21.8565 49.1017ZM21.813 49.1438L21.4652 48.7846L20.9836 49.2509L21.5679 49.5796L21.813 49.1438ZM22.3235 49.4309L22.7701 49.2061L22.7016 49.0699L22.5687 48.9951L22.3235 49.4309ZM23.1742 51.1208L23.6673 51.2035L23.6944 51.0421L23.6208 50.896L23.1742 51.1208ZM22.3235 56.1903L22.4807 56.665L22.7668 56.5702L22.8166 56.273L22.3235 56.1903ZM19.7715 57.0352L19.6144 56.5605L19.5808 56.5717L19.5491 56.5874L19.7715 57.0352ZM16.3688 58.725L16.1464 58.2772L15.8688 58.4151L15.8688 58.725L16.3688 58.725ZM14.6674 68.8641L14.8246 69.3387L15.1674 69.2252V68.8641H14.6674ZM9.5634 70.5539L9.40625 70.0792L9.34295 70.1002L9.28735 70.137L9.5634 70.5539ZM4.45934 73.9336L4.1833 73.5167L4.13155 73.551L4.08975 73.5968L4.45934 73.9336ZM1.05664 77.6681L0.687051 77.3313L0.556641 77.4744V77.6681H1.05664ZM1.05664 81.5378H0.556641V81.8478L0.834247 81.9857L1.05664 81.5378ZM4.45934 83.2277L4.23695 83.6755L4.24558 83.6798L4.25438 83.6837L4.45934 83.2277ZM8.21926 84.9175L8.01428 85.3736L8.02031 85.3762L8.21926 84.9175ZM12.1154 86.6074L11.9165 87.0661L12.0117 87.1074H12.1154V86.6074ZM14.4122 86.6074V87.1074H14.5716L14.7015 87.0152L14.4122 86.6074ZM16.7941 84.9175L17.0834 85.3253L17.1015 85.3125L17.1183 85.2982L16.7941 84.9175ZM19.7715 82.3828L19.8488 81.8888L19.6221 81.8533L19.4474 82.002L19.7715 82.3828ZM23.1742 82.915L23.4829 82.5216L23.3803 82.4411L23.2515 82.421L23.1742 82.915ZM26.2579 86.713L25.9056 87.0677L25.9056 87.0677L26.2579 86.713ZM27.4276 88.2972L27.8742 88.0724L27.8742 88.0724L27.4276 88.2972ZM29.9796 92.5218L29.5645 92.8004L30.2744 93.8581L30.4735 92.5999L29.9796 92.5218ZM30.9154 86.6074L31.4093 86.6855L31.4154 86.6467V86.6074H30.9154ZM30.9154 80.6929L30.4158 80.6742L30.4154 80.6836V80.6929H30.9154ZM30.9154 77.5583L30.4162 77.5865L30.4167 77.5933L30.9154 77.5583ZM30.9154 74.7195L31.4146 74.7477L31.4314 74.4507L31.1784 74.2943L30.9154 74.7195ZM28.2783 73.0887L28.5412 72.6634L28.3427 72.5406L28.1211 72.614L28.2783 73.0887ZM25.7262 73.9336L25.2522 74.0927L25.4106 74.5648L25.8834 74.4082L25.7262 73.9336ZM24.8756 71.3988L25.3496 71.2397L25.3119 71.1275L25.2279 71.0441L24.8756 71.3988ZM24.0249 70.5539L23.6097 70.2752L23.3798 70.6179L23.6725 70.9087L24.0249 70.5539ZM25.7262 68.0191L25.3368 67.7055L25.3232 67.7224L25.3111 67.7405L25.7262 68.0191ZM29.1289 63.7946V63.2946H28.8896L28.7395 63.4809L29.1289 63.7946ZM31.8681 63.7946L31.9406 63.2998L31.9045 63.2946H31.8681V63.7946ZM37.6357 64.6395L37.7722 64.1585L37.7406 64.1495L37.7082 64.1448L37.6357 64.6395ZM44.4411 67.1742L44.0887 67.529L44.0887 67.529L44.4411 67.1742ZM45.4847 68.3545L45.1044 68.6791L45.1044 68.6791L45.4847 68.3545ZM54.6492 73.9336L54.4268 74.3814L54.5998 74.4673L54.7857 74.4146L54.6492 73.9336ZM60.6039 72.2437L60.7404 72.7248L60.9762 72.6578L61.0677 72.4305L60.6039 72.2437ZM62.3053 68.0191L62.7691 68.2059L62.8053 68.116V68.0191H62.3053ZM62.3053 65.4844L61.8169 65.3774L61.8053 65.4303V65.4844H62.3053ZM63.7599 63.8536L63.819 63.3571L63.7896 63.3536H63.7599V63.8536ZM66.5587 64.6985L66.333 65.1447L66.6052 65.2823L66.8521 65.1033L66.5587 64.6985ZM67.7242 63.8536L68.0176 64.2584L68.2242 64.1087V63.8536H67.7242ZM67.7242 60.9132H68.2242V60.748L68.1257 60.6153L67.7242 60.9132ZM66.7713 59.629L66.3746 59.3246L66.145 59.6239L66.3698 59.9269L66.7713 59.629ZM67.7242 58.3872L68.2242 58.3873L68.2247 56.9135L67.3275 58.0828L67.7242 58.3872ZM68.8384 58.3872L69.0279 58.8499L69.0353 58.8468L69.0426 58.8436L68.8384 58.3872ZM70.812 57.0352L70.6549 56.5605L70.5435 56.5974L70.4601 56.68L70.812 57.0352ZM75.9161 55.3454L76.1007 54.8807L75.9316 54.8135L75.7589 54.8707L75.9161 55.3454ZM80.1695 57.8801H79.6695V57.9215L79.6763 57.9623L80.1695 57.8801ZM81.0201 60.4149L80.5771 60.6467L80.9901 61.4358L81.4487 60.6724L81.0201 60.4149ZM84.0656 55.3454L84.4942 55.6029L84.6397 55.3607L84.5074 55.1111L84.0656 55.3454ZM82.7215 52.8106L83.1632 52.5764L83.0586 52.3791L82.842 52.3253L82.7215 52.8106ZM79.3188 51.9657H78.8188V52.3567L79.1983 52.451L79.3188 51.9657ZM79.3188 50.2759L78.8449 50.1165L78.8188 50.194V50.2759H79.3188ZM80.7393 46.0513L81.2133 46.2106L81.3139 45.9113L81.0869 45.6918L80.7393 46.0513ZM77.2432 42.6716L77.5907 42.3121L77.4996 42.224L77.3776 42.19L77.2432 42.6716ZM74.2147 41.8267L74.3491 41.3451L74.3422 41.3431L74.3352 41.3414L74.2147 41.8267ZM70.812 40.9818H70.312V41.3728L70.6915 41.467L70.812 40.9818ZM70.812 38.447H71.312V37.947H70.812V38.447ZM66.9329 38.447L66.4359 38.502L66.4852 38.947H66.9329V38.447ZM66.5587 35.0673L66.0738 34.9453L66.0518 35.0327L66.0617 35.1224L66.5587 35.0673ZM67.4093 31.6876L67.8942 31.8097L68.0508 31.1876H67.4093V31.6876ZM63.2835 31.6876L63.1671 32.1739L63.2245 32.1876H63.2835V31.6876ZM59.7533 30.8427L59.3381 30.5641L58.9371 31.1615L59.6369 31.329L59.7533 30.8427ZM61.4546 28.308L61.8698 28.5866L61.9251 28.5041L61.9448 28.4067L61.4546 28.308ZM62.3053 24.0834L62.7954 24.1821L62.8598 23.8626L62.5935 23.6748L62.3053 24.0834ZM58.4602 21.3712L58.7484 20.9626L58.6188 20.8712H58.4602V21.3712ZM57.2012 21.3712V20.8712H57.0801L56.9724 20.9267L57.2012 21.3712ZM55.8184 22.6391L57.0087 21.7766L56.4219 20.9669L55.2316 21.8293L55.8184 22.6391ZM57.1921 21.2212L56.0445 17.5871L55.0909 17.8883L56.2385 21.5223L57.1921 21.2212ZM56.0376 17.5668L55.2725 15.4629L54.3327 15.8047L55.0978 17.9086L56.0376 17.5668ZM54.8026 15.1338H52.428V16.1338H54.8026V15.1338ZM52.6386 15.1803L49.3076 13.6334L48.8864 14.5404L52.2174 16.0873L52.6386 15.1803ZM49.097 13.5869H46.5987V14.5869H49.097V13.5869ZM46.7625 13.6144L44.2642 12.7485L43.9367 13.6933L46.435 14.5593L46.7625 13.6144ZM44.3468 12.7858L41.8517 11.3734L41.359 12.2436L43.8542 13.656L44.3468 12.7858ZM42.0649 11.6115L40.9173 8.93382L39.9982 9.32774L41.1458 12.0055L42.0649 11.6115ZM40.9578 9.13078V7.02687H39.9578V9.13078H40.9578ZM40.6168 6.55283L38.4303 5.8193L38.1122 6.76738L40.2987 7.50091L40.6168 6.55283ZM38.5019 5.84972L36.8364 4.98377L36.3751 5.87101L38.0406 6.73696L38.5019 5.84972ZM36.6252 4.92777C35.5414 4.88568 34.4772 4.60922 33.5004 4.11525L33.0491 5.00764C34.1531 5.56593 35.3579 5.8793 36.5863 5.92702L36.6252 4.92777ZM33.5054 4.11783C32.7334 3.71646 32.3902 3.3377 32.2384 3.10091C32.162 2.98178 32.1303 2.89292 32.1174 2.84591C32.1109 2.82208 32.1088 2.80793 32.1084 2.80486C32.1082 2.8033 32.1085 2.80446 32.1087 2.80852C32.1088 2.81055 32.109 2.81331 32.1091 2.8168C32.1091 2.81855 32.1092 2.82049 32.1092 2.82261C32.1092 2.82367 32.1092 2.82478 32.1092 2.82594C32.1092 2.82652 32.1093 2.82711 32.1093 2.82771C32.1093 2.82801 32.1093 2.82847 32.1093 2.82862C32.1093 2.82908 32.1093 2.82955 31.6093 2.82955C31.1093 2.82955 31.1093 2.83003 31.1093 2.8305C31.1093 2.83067 31.1093 2.83115 31.1093 2.83147C31.1093 2.83213 31.1093 2.8328 31.1093 2.83348C31.1093 2.83485 31.1093 2.83627 31.1093 2.83775C31.1094 2.84072 31.1094 2.84391 31.1095 2.84732C31.1097 2.85415 31.1101 2.86187 31.1106 2.87045C31.1117 2.88762 31.1135 2.90823 31.1166 2.93204C31.1227 2.97971 31.1337 3.03998 31.1531 3.11086C31.1923 3.25328 31.2647 3.43502 31.3965 3.64063C31.6611 4.0533 32.1506 4.54049 33.0441 5.00507L33.5054 4.11783ZM31.9712 2.48454C31.4466 1.93435 30.7597 1.5759 30.015 1.4687L29.8725 2.4585C30.3907 2.53309 30.8743 2.78319 31.2474 3.17456L31.9712 2.48454ZM29.9438 1.4636H26.6128V2.4636H29.9438V1.4636ZM26.3821 1.51998L24.7166 2.38593L25.1779 3.27317L26.8434 2.40722L26.3821 1.51998ZM24.9473 2.32955H23.2818V3.32955H24.9473V2.32955ZM23.6422 2.48297L21.9767 0.751079L21.2559 1.44423L22.9214 3.17613L23.6422 2.48297ZM21.3856 0.654036L19.7201 1.51998L20.1814 2.40722L21.8469 1.54128L21.3856 0.654036ZM19.5002 1.74693L18.6674 3.47883L19.5686 3.91217L20.4014 2.18027L19.5002 1.74693ZM18.6674 3.47883L17.8347 5.21072L18.7359 5.64406L19.5686 3.91217L18.6674 3.47883ZM17.8992 5.10963L16.1173 7.2745L16.8893 7.91003L18.6713 5.74516L17.8992 5.10963ZM16.5033 7.59226C16.2639 7.1533 16.2638 7.15334 16.2638 7.15338C16.2637 7.1534 16.2636 7.15345 16.2635 7.15349C16.2634 7.15357 16.2632 7.15368 16.263 7.1538C16.2625 7.15405 16.2619 7.15437 16.2612 7.15477C16.2597 7.15558 16.2577 7.1567 16.2551 7.15813C16.2499 7.16099 16.2425 7.16508 16.2331 7.17034C16.2142 7.18086 16.1871 7.1961 16.1529 7.21563C16.0846 7.25466 15.9878 7.31096 15.872 7.38113C15.6413 7.52096 15.331 7.71826 15.0184 7.94557C14.709 8.17051 14.381 8.43663 14.1251 8.71566C13.8917 8.9703 13.6215 9.33743 13.6215 9.75713H14.6215C14.6215 9.76148 14.6212 9.73064 14.662 9.65648C14.7016 9.58437 14.7671 9.49517 14.8622 9.39144C15.053 9.18337 15.3204 8.9624 15.6065 8.75436C15.8893 8.5487 16.1744 8.36715 16.3903 8.23637C16.4978 8.17123 16.5871 8.11929 16.649 8.08391C16.6799 8.06622 16.704 8.05271 16.72 8.04378C16.728 8.03932 16.734 8.03601 16.7378 8.03389C16.7397 8.03284 16.7411 8.03209 16.7419 8.03164C16.7423 8.03141 16.7426 8.03127 16.7427 8.0312C16.7428 8.03116 16.7428 8.03115 16.7428 8.03115C16.7428 8.03116 16.7428 8.03117 16.7428 8.03118C16.7427 8.0312 16.7427 8.03123 16.5033 7.59226ZM13.622 9.73489C13.6234 9.70406 13.6334 9.67276 13.653 9.64461L14.4734 10.2164C14.5635 10.087 14.6141 9.93501 14.621 9.77937L13.622 9.73489ZM13.7564 10.3253L14.6475 11.0179L15.2611 10.2283L14.37 9.53571L13.7564 10.3253ZM14.4633 10.7175L15.296 15.0473L16.278 14.8584L15.4453 10.5286L14.4633 10.7175ZM15.287 14.9528V25.3442H16.287V14.9528H15.287ZM15.3398 25.1206C14.9094 25.9815 14.6128 26.9072 14.4605 27.8634L15.4481 28.0206C15.5844 27.1646 15.8498 26.3367 16.2343 25.5678L15.3398 25.1206ZM14.4543 27.942C14.4543 28.321 14.6385 28.6462 14.8305 28.8885C15.0278 29.1375 15.2786 29.356 15.5102 29.5313C15.7447 29.7088 15.9764 29.8549 16.148 29.9559C16.2344 30.0068 16.3067 30.047 16.3582 30.0748C16.384 30.0888 16.4047 30.0997 16.4193 30.1073C16.4266 30.1111 16.4325 30.1141 16.4367 30.1163C16.4388 30.1174 16.4405 30.1183 16.4418 30.1189C16.4425 30.1193 16.443 30.1195 16.4435 30.1198C16.4437 30.1199 16.4439 30.12 16.4441 30.1201C16.4441 30.1201 16.4443 30.1202 16.4443 30.1202C16.4444 30.1202 16.4445 30.1203 16.6698 29.6739C16.8951 29.2276 16.8952 29.2276 16.8953 29.2276C16.8953 29.2277 16.8954 29.2277 16.8954 29.2277C16.8955 29.2277 16.8955 29.2278 16.8955 29.2278C16.8955 29.2278 16.8955 29.2277 16.8953 29.2277C16.8949 29.2275 16.8942 29.2271 16.8931 29.2265C16.8908 29.2254 16.887 29.2234 16.8818 29.2207C16.8713 29.2152 16.8551 29.2066 16.8339 29.1952C16.7916 29.1723 16.73 29.1381 16.6555 29.0942C16.5054 29.0059 16.3083 28.8813 16.1139 28.7341C15.9166 28.5847 15.7386 28.4243 15.6142 28.2674C15.4845 28.1038 15.4543 27.996 15.4543 27.942H14.4543ZM16.6698 30.1739H19.118V29.1739H16.6698V30.1739ZM18.6319 29.7908L19.4646 33.2546L20.4369 33.0208L19.6042 29.557L18.6319 29.7908ZM19.5904 32.7911L18.7576 33.6571L19.4784 34.3502L20.3112 33.4843L19.5904 32.7911ZM18.6203 33.9558L17.7876 42.6153L18.783 42.711L19.6157 34.0515L18.6203 33.9558ZM17.7853 42.6631V46.1269H18.7853V42.6631H17.7853ZM17.9293 46.478L20.2527 48.8336L20.9647 48.1314L18.6413 45.7758L17.9293 46.478ZM20.3864 48.9304L21.6343 49.5496L22.0788 48.6538L20.8309 48.0346L20.3864 48.9304ZM21.5087 48.7425L21.4652 48.7846L22.1609 49.503L22.2044 49.4609L21.5087 48.7425ZM21.5679 49.5796L22.0784 49.8667L22.5687 48.9951L22.0582 48.708L21.5679 49.5796ZM21.8769 49.6558L22.7276 51.3456L23.6208 50.896L22.7701 49.2061L21.8769 49.6558ZM22.6811 51.038L21.8304 56.1075L22.8166 56.273L23.6673 51.2035L22.6811 51.038ZM22.1664 55.7156L19.6144 56.5605L19.9287 57.5099L22.4807 56.665L22.1664 55.7156ZM19.5491 56.5874L16.1464 58.2772L16.5912 59.1729L19.9939 57.483L19.5491 56.5874ZM16.3688 58.725C15.8688 58.725 15.8688 58.725 15.8688 58.7249C15.8688 58.7249 15.8688 58.7248 15.8688 58.7248C15.8688 58.7248 15.8688 58.7248 15.8688 58.7248C15.8688 58.7249 15.8688 58.7252 15.8688 58.7255C15.8688 58.7263 15.8688 58.7277 15.8688 58.7296C15.8688 58.7335 15.8687 58.7396 15.8686 58.7479C15.8684 58.7645 15.8681 58.7896 15.8673 58.822C15.8657 58.8868 15.8626 58.9804 15.8563 59.0932C15.8436 59.3203 15.8184 59.6174 15.7694 59.9097C15.7189 60.2103 15.6491 60.4685 15.5633 60.6389C15.4683 60.8277 15.4374 60.7598 15.5181 60.7598V61.7598C16.0242 61.7598 16.3123 61.375 16.4565 61.0886C16.61 60.7837 16.6997 60.4083 16.7556 60.0752C16.8129 59.7338 16.8408 59.3972 16.8547 59.149C16.8617 59.0241 16.8652 58.9197 16.867 58.8459C16.8679 58.809 16.8683 58.7796 16.8686 58.7591C16.8687 58.7488 16.8687 58.7407 16.8688 58.735C16.8688 58.7322 16.8688 58.7299 16.8688 58.7282C16.8688 58.7274 16.8688 58.7267 16.8688 58.7262C16.8688 58.7259 16.8688 58.7257 16.8688 58.7255C16.8688 58.7254 16.8688 58.7253 16.8688 58.7252C16.8688 58.7251 16.8688 58.725 16.3688 58.725ZM15.5181 60.7598C15.2593 60.7598 15.0823 60.9083 14.9853 61.0238C14.8885 61.1392 14.8212 61.278 14.7718 61.4043C14.6712 61.6612 14.5947 61.9991 14.5332 62.3652C14.4089 63.1062 14.328 64.0792 14.2746 65.034C14.2209 65.993 14.1942 66.9502 14.1808 67.6666C14.1741 68.0251 14.1708 68.3239 14.1691 68.5333C14.1683 68.638 14.1679 68.7204 14.1677 68.7768C14.1676 68.805 14.1675 68.8267 14.1675 68.8414C14.1675 68.8487 14.1675 68.8543 14.1675 68.8581C14.1675 68.86 14.1674 68.8615 14.1674 68.8625C14.1674 68.863 14.1674 68.8633 14.1674 68.8636C14.1674 68.8637 14.1674 68.8639 14.1674 68.8639C14.1674 68.864 14.1674 68.8641 14.6674 68.8641C15.1674 68.8641 15.1674 68.8641 15.1674 68.864C15.1674 68.864 15.1674 68.8639 15.1674 68.8638C15.1674 68.8636 15.1674 68.8633 15.1674 68.8629C15.1674 68.8621 15.1675 68.8608 15.1675 68.859C15.1675 68.8555 15.1675 68.8502 15.1675 68.8432C15.1675 68.8291 15.1676 68.808 15.1677 68.7805C15.1679 68.7255 15.1683 68.6445 15.1691 68.5413C15.1707 68.3349 15.174 68.0396 15.1807 67.6852C15.1939 66.9758 15.2203 66.032 15.273 65.0899C15.3259 64.1436 15.4045 63.2155 15.5194 62.5307C15.5776 62.184 15.6407 61.9278 15.7029 61.7688C15.7349 61.6872 15.7548 61.6625 15.7514 61.6666C15.7479 61.6707 15.6706 61.7598 15.5181 61.7598V60.7598ZM14.5103 68.3894L9.40625 70.0792L9.72055 71.0286L14.8246 69.3387L14.5103 68.3894ZM9.28735 70.137L4.1833 73.5167L4.73539 74.3505L9.83944 70.9708L9.28735 70.137ZM4.08975 73.5968L0.687051 77.3313L1.42623 78.0048L4.82893 74.2703L4.08975 73.5968ZM0.556641 77.6681V81.5378H1.55664V77.6681H0.556641ZM0.834247 81.9857L4.23695 83.6755L4.68174 82.7799L1.27903 81.09L0.834247 81.9857ZM4.25438 83.6837L8.01429 85.3736L8.42423 84.4615L4.66431 82.7716L4.25438 83.6837ZM8.02031 85.3762L11.9165 87.0661L12.3144 86.1486L8.41821 84.4588L8.02031 85.3762ZM12.1154 87.1074H14.4122V86.1074H12.1154V87.1074ZM14.7015 87.0152L17.0834 85.3253L16.5048 84.5097L14.1229 86.1996L14.7015 87.0152ZM17.1183 85.2982L20.0956 82.7635L19.4474 82.002L16.47 84.5368L17.1183 85.2982ZM19.6942 82.8768L23.0969 83.409L23.2515 82.421L19.8488 81.8888L19.6942 82.8768ZM23.1742 82.915C22.8655 83.3083 22.8655 83.3083 22.8655 83.3083C22.8655 83.3083 22.8655 83.3083 22.8655 83.3083C22.8655 83.3083 22.8656 83.3084 22.8657 83.3084C22.8659 83.3086 22.8662 83.3089 22.8668 83.3093C22.8678 83.3101 22.8694 83.3113 22.8716 83.3131C22.876 83.3165 22.8827 83.3218 22.8915 83.3289C22.9093 83.343 22.9357 83.3642 22.9695 83.3915C23.0372 83.4462 23.1345 83.5258 23.2514 83.6239C23.4858 83.8208 23.7966 84.0905 24.1058 84.3843C24.4174 84.6804 24.7161 84.9904 24.9333 85.2687C25.042 85.408 25.1216 85.5283 25.172 85.6263C25.2263 85.7317 25.2262 85.7721 25.2262 85.7624H26.2262C26.2262 85.5415 26.1465 85.3345 26.0612 85.1687C25.972 84.9954 25.8522 84.8207 25.7216 84.6534C25.4603 84.3186 25.1211 83.9696 24.7946 83.6594C24.4659 83.347 24.1386 83.0632 23.8945 82.8582C23.7722 82.7554 23.67 82.6719 23.5982 82.6138C23.5622 82.5848 23.5338 82.562 23.5142 82.5464C23.5044 82.5386 23.4968 82.5326 23.4915 82.5284C23.4888 82.5263 23.4868 82.5247 23.4854 82.5236C23.4846 82.523 23.4841 82.5225 23.4836 82.5222C23.4834 82.5221 23.4833 82.5219 23.4831 82.5218C23.4831 82.5218 23.483 82.5217 23.483 82.5217C23.4829 82.5216 23.4829 82.5216 23.1742 82.915ZM25.2262 85.7624C25.2262 86.4175 25.6003 86.7646 25.9056 87.0677L26.6103 86.3582C26.4398 86.1889 26.3509 86.0972 26.2934 86.0076C26.2509 85.9411 26.2262 85.876 26.2262 85.7624H25.2262ZM25.9056 87.0677C26.2103 87.3704 26.5914 87.7482 26.981 88.522L27.8742 88.0724C27.4131 87.1564 26.9435 86.6892 26.6103 86.3582L25.9056 87.0677ZM26.981 88.522C27.4177 89.3895 28.0664 90.4624 28.5994 91.3095C28.8672 91.735 29.1081 92.1072 29.2821 92.3731C29.3691 92.5061 29.4395 92.6126 29.4882 92.686C29.5126 92.7227 29.5315 92.7512 29.5444 92.7705C29.5509 92.7802 29.5558 92.7876 29.5592 92.7926C29.5609 92.7951 29.5622 92.797 29.5631 92.7983C29.5635 92.799 29.5638 92.7995 29.5641 92.7999C29.5642 92.8 29.5643 92.8002 29.5643 92.8003C29.5644 92.8003 29.5644 92.8004 29.5644 92.8004C29.5644 92.8004 29.5645 92.8004 29.9796 92.5218C30.3948 92.2431 30.3948 92.2431 30.3948 92.2431C30.3948 92.2431 30.3947 92.2431 30.3947 92.2431C30.3947 92.243 30.3946 92.2429 30.3945 92.2428C30.3944 92.2425 30.3941 92.2421 30.3937 92.2415C30.3929 92.2404 30.3918 92.2387 30.3902 92.2363C30.3871 92.2317 30.3824 92.2246 30.3761 92.2153C30.3637 92.1967 30.3453 92.169 30.3215 92.1331C30.2738 92.0613 30.2046 91.9566 30.1189 91.8255C29.9473 91.5634 29.7097 91.1963 29.4458 90.7769C28.9154 89.9341 28.2882 88.8948 27.8742 88.0724L26.981 88.522ZM30.4735 92.5999L31.4093 86.6855L30.4216 86.5292L29.4858 92.4436L30.4735 92.5999ZM31.4154 86.6074V80.6929H30.4154V86.6074H31.4154ZM30.9154 80.6929C31.4151 80.7116 31.4151 80.7116 31.4151 80.7116C31.4151 80.7116 31.4151 80.7115 31.4151 80.7115C31.4151 80.7114 31.4151 80.7113 31.4151 80.7111C31.4151 80.7109 31.4151 80.7105 31.4151 80.7099C31.4152 80.7089 31.4152 80.7073 31.4153 80.7053C31.4155 80.7012 31.4157 80.6953 31.416 80.6875C31.4165 80.6719 31.4173 80.6491 31.4183 80.6197C31.4203 80.5609 31.423 80.476 31.426 80.3707C31.432 80.1603 31.4393 79.8683 31.4441 79.5417C31.4537 78.894 31.4541 78.0915 31.4142 77.5233L30.4167 77.5933C30.4533 78.115 30.4538 78.8798 30.4442 79.527C30.4395 79.8478 30.4323 80.1351 30.4264 80.3421C30.4234 80.4456 30.4208 80.5289 30.4189 80.5862C30.4179 80.6149 30.4171 80.637 30.4166 80.6519C30.4163 80.6594 30.4161 80.665 30.416 80.6688C30.4159 80.6706 30.4159 80.672 30.4158 80.673C30.4158 80.6734 30.4158 80.6737 30.4158 80.674C30.4158 80.6741 30.4158 80.6741 30.4158 80.6742C30.4158 80.6742 30.4158 80.6742 30.4158 80.6742C30.4158 80.6742 30.4158 80.6742 30.9154 80.6929ZM31.4146 77.5301C31.3623 76.6033 31.3623 75.6745 31.4146 74.7477L30.4162 74.6913C30.3618 75.6557 30.3618 76.6222 30.4162 77.5865L31.4146 77.5301ZM31.1784 74.2943L28.5412 72.6634L28.0153 73.5139L30.6525 75.1448L31.1784 74.2943ZM28.1211 72.614L25.5691 73.4589L25.8834 74.4082L28.4354 73.5633L28.1211 72.614ZM26.2002 73.7745L25.3496 71.2397L24.4015 71.5579L25.2522 74.0927L26.2002 73.7745ZM25.2279 71.0441L24.3772 70.1992L23.6725 70.9087L24.5232 71.7536L25.2279 71.0441ZM24.44 70.8326L26.1414 68.2978L25.3111 67.7405L23.6097 70.2752L24.44 70.8326ZM26.1156 68.3328L29.5183 64.1082L28.7395 63.4809L25.3368 67.7055L26.1156 68.3328ZM29.1289 64.2946H31.8681V63.2946H29.1289V64.2946ZM31.7956 64.2893L37.5632 65.1342L37.7082 64.1448L31.9406 63.2998L31.7956 64.2893ZM37.6357 64.6395C37.4992 65.1205 37.4992 65.1205 37.4992 65.1205C37.4993 65.1205 37.4993 65.1205 37.4994 65.1205C37.4995 65.1206 37.4998 65.1206 37.5001 65.1207C37.5008 65.1209 37.5018 65.1212 37.5032 65.1216C37.5059 65.1224 37.51 65.1236 37.5156 65.1251C37.5266 65.1283 37.5431 65.133 37.5648 65.1392C37.6081 65.1517 37.6719 65.1701 37.7535 65.1938C37.9168 65.2413 38.1514 65.3102 38.4356 65.3956C39.0044 65.5664 39.7706 65.8026 40.5622 66.0647C41.3554 66.3273 42.1671 66.6136 42.8296 66.8845C43.1612 67.0201 43.4482 67.149 43.6737 67.2663C43.9111 67.3898 44.0395 67.48 44.0887 67.529L44.7934 66.8195C44.6301 66.6572 44.3862 66.5098 44.1352 66.3792C43.8722 66.2423 43.5544 66.1006 43.2081 65.9589C42.5148 65.6754 41.6784 65.3808 40.8765 65.1153C40.0732 64.8494 39.2975 64.6103 38.7232 64.4378C38.4359 64.3516 38.1986 64.2818 38.0329 64.2336C37.9501 64.2095 37.8851 64.1908 37.8408 64.1781C37.8186 64.1717 37.8016 64.1668 37.79 64.1635C37.7843 64.1619 37.7799 64.1606 37.7769 64.1598C37.7754 64.1594 37.7742 64.159 37.7735 64.1588C37.7731 64.1587 37.7728 64.1586 37.7725 64.1586C37.7724 64.1585 37.7724 64.1585 37.7723 64.1585C37.7722 64.1585 37.7722 64.1585 37.6357 64.6395ZM44.0887 67.529C44.3091 67.7478 44.665 68.1643 45.1044 68.6791L45.8651 68.0299C45.4408 67.5328 45.0508 67.0751 44.7934 66.8195L44.0887 67.529ZM45.1044 68.6791C45.6545 69.3237 46.3158 70.099 46.918 70.7129C47.2184 71.0191 47.5166 71.2981 47.7885 71.504C47.9244 71.6069 48.0647 71.7 48.2041 71.7691C48.3372 71.8351 48.5079 71.8988 48.6945 71.8988V70.8988C48.7281 70.8988 48.7183 70.9079 48.6484 70.8732C48.5848 70.8417 48.4995 70.788 48.3922 70.7068C48.1777 70.5444 47.9191 70.3054 47.6318 70.0125C47.0587 69.4283 46.421 68.6814 45.8651 68.0299L45.1044 68.6791ZM48.6945 71.8988C48.6916 71.8988 48.6985 71.8987 48.7178 71.9014C48.7363 71.9039 48.7613 71.9084 48.7938 71.9155C48.8591 71.93 48.9428 71.9528 49.0449 71.9848C49.2492 72.0489 49.5055 72.1429 49.7992 72.2596C50.3855 72.4925 51.0942 72.8052 51.7825 73.1207C52.4696 73.4357 53.1309 73.751 53.6209 73.9877C53.8657 74.106 54.0675 74.2046 54.2079 74.2735C54.2781 74.308 54.333 74.335 54.3703 74.3534C54.3889 74.3626 54.4031 74.3696 54.4126 74.3744C54.4174 74.3767 54.421 74.3785 54.4233 74.3797C54.4245 74.3803 54.4254 74.3807 54.426 74.381C54.4263 74.3811 54.4265 74.3812 54.4266 74.3813C54.4267 74.3813 54.4267 74.3814 54.4268 74.3814C54.4268 74.3814 54.4268 74.3814 54.6492 73.9336C54.8716 73.4858 54.8716 73.4857 54.8715 73.4857C54.8715 73.4857 54.8714 73.4857 54.8713 73.4856C54.8711 73.4855 54.8709 73.4854 54.8705 73.4852C54.8699 73.4849 54.8689 73.4844 54.8677 73.4838C54.8651 73.4825 54.8614 73.4807 54.8564 73.4783C54.8466 73.4734 54.832 73.4662 54.8131 73.4568C54.7751 73.4381 54.7195 73.4107 54.6485 73.3758C54.5065 73.3061 54.3029 73.2066 54.0559 73.0873C53.5623 72.8488 52.8944 72.5304 52.1992 72.2117C51.5052 71.8935 50.7784 71.5725 50.1684 71.3302C49.8639 71.2092 49.5819 71.1052 49.3442 71.0307C49.1257 70.9621 48.8862 70.8988 48.6945 70.8988V71.8988ZM54.7857 74.4146L60.7404 72.7248L60.4674 71.7627L54.5127 73.4526L54.7857 74.4146ZM61.0677 72.4305L62.7691 68.2059L61.8415 67.8324L60.1401 72.057L61.0677 72.4305ZM62.8053 68.0191V65.4844H61.8053V68.0191H62.8053ZM62.3053 65.4844C62.7937 65.5914 62.7937 65.5915 62.7936 65.5917C62.7936 65.5917 62.7936 65.5918 62.7936 65.5919C62.7935 65.5921 62.7935 65.5922 62.7935 65.5923C62.7934 65.5925 62.7934 65.5927 62.7934 65.5927C62.7934 65.5927 62.7935 65.5924 62.7936 65.5917C62.7939 65.5904 62.7946 65.5876 62.7956 65.5834C62.7976 65.5752 62.801 65.5615 62.8058 65.5434C62.8156 65.5069 62.8311 65.4527 62.8529 65.3868C62.8971 65.2532 62.9646 65.0802 63.0582 64.9118C63.2604 64.5477 63.4944 64.3536 63.7599 64.3536V63.3536C62.928 63.3536 62.4347 63.9748 62.184 64.4262C62.0511 64.6654 61.9606 64.9002 61.9036 65.0724C61.8748 65.1593 61.8538 65.2326 61.8397 65.2853C61.8327 65.3117 61.8273 65.3331 61.8235 65.3487C61.8216 65.3565 61.8202 65.3629 61.819 65.3677C61.8185 65.3701 61.818 65.3721 61.8177 65.3737C61.8175 65.3745 61.8173 65.3753 61.8172 65.3759C61.8171 65.3762 61.8171 65.3765 61.817 65.3767C61.817 65.3768 61.8169 65.377 61.8169 65.3771C61.8169 65.3772 61.8169 65.3774 62.3053 65.4844ZM63.7008 64.35C64.6185 64.4593 65.5096 64.7283 66.333 65.1447L66.7843 64.2523C65.8564 63.7831 64.8526 63.4801 63.819 63.3571L63.7008 64.35ZM66.8521 65.1033L68.0176 64.2584L67.4307 63.4487L66.2652 64.2937L66.8521 65.1033ZM68.2242 63.8536V60.9132H67.2242V63.8536H68.2242ZM68.1257 60.6153L67.1729 59.331L66.3698 59.9269L67.3226 61.2112L68.1257 60.6153ZM67.168 59.9333L68.1209 58.6915L67.3275 58.0828L66.3746 59.3246L67.168 59.9333ZM67.7242 58.3872C67.2242 58.387 67.2242 58.3876 67.2242 58.3882C67.2242 58.3884 67.2242 58.389 67.2242 58.3894C67.2242 58.3902 67.2242 58.391 67.2242 58.3919C67.2242 58.3936 67.2242 58.3953 67.2243 58.3971C67.2243 58.4006 67.2245 58.4044 67.2246 58.4083C67.2249 58.4161 67.2254 58.4247 67.2262 58.434C67.2278 58.4524 67.2304 58.474 67.2349 58.498C67.2438 58.5457 67.2606 58.6058 67.2922 58.6706C67.3603 58.81 67.4842 58.9433 67.6739 59.021C68.0098 59.1585 68.4544 59.0847 69.0279 58.8499L68.649 57.9244C68.108 58.1459 67.9955 58.0721 68.0529 58.0956C68.1034 58.1162 68.1577 58.1639 68.1909 58.232C68.2052 58.2612 68.2132 58.2893 68.2178 58.3137C68.2201 58.3261 68.2217 58.3384 68.2227 58.3504C68.2232 58.3564 68.2236 58.3625 68.2238 58.3686C68.2239 58.3717 68.224 58.3748 68.2241 58.3779C68.2241 58.3795 68.2241 58.381 68.2242 58.3826C68.2242 58.3834 68.2242 58.3842 68.2242 58.385C68.2242 58.3853 68.2242 58.3859 68.2242 58.3861C68.2242 58.3867 68.2242 58.3873 67.7242 58.3872ZM69.0426 58.8436C69.832 58.4903 70.5508 57.998 71.164 57.3904L70.4601 56.68C69.9326 57.2028 69.3139 57.6266 68.6342 57.9308L69.0426 58.8436ZM70.9692 57.5099L76.0732 55.82L75.7589 54.8707L70.6549 56.5605L70.9692 57.5099ZM75.9161 55.3454C75.7315 55.81 75.7315 55.81 75.7314 55.81C75.7315 55.81 75.7315 55.81 75.7315 55.8101C75.7316 55.8101 75.7317 55.8101 75.7319 55.8102C75.7323 55.8104 75.733 55.8107 75.7339 55.811C75.7358 55.8117 75.7386 55.8129 75.7424 55.8144C75.75 55.8174 75.7615 55.8221 75.7766 55.8282C75.8068 55.8404 75.8515 55.8585 75.9086 55.882C76.0228 55.929 76.1864 55.9973 76.383 56.0819C76.7768 56.2514 77.2996 56.4851 77.8204 56.7437C78.345 57.0043 78.8509 57.2819 79.2194 57.5381C79.4052 57.6673 79.5374 57.7783 79.6179 57.8662C79.7145 57.9718 79.6695 57.9702 79.6695 57.8801H80.6695C80.6695 57.5788 80.4915 57.3396 80.3555 57.191C80.2034 57.0248 80.0033 56.8652 79.7903 56.7171C79.3614 56.4189 78.8039 56.1156 78.2652 55.8481C77.7226 55.5786 77.182 55.3371 76.7783 55.1633C76.5762 55.0763 76.4075 55.006 76.2891 54.9572C76.2299 54.9329 76.1832 54.9139 76.1511 54.9009C76.1351 54.8945 76.1227 54.8895 76.1142 54.8861C76.1099 54.8844 76.1067 54.8831 76.1044 54.8822C76.1033 54.8817 76.1024 54.8814 76.1018 54.8811C76.1015 54.881 76.1012 54.8809 76.101 54.8808C76.101 54.8808 76.1009 54.8808 76.1008 54.8808C76.1008 54.8807 76.1007 54.8807 75.9161 55.3454ZM79.6763 57.9623C79.8324 58.8988 80.1364 59.8047 80.5771 60.6467L81.4631 60.183C81.0715 59.4347 80.8013 58.6298 80.6627 57.7979L79.6763 57.9623ZM81.4487 60.6724L84.4942 55.6029L83.637 55.0879L80.5915 60.1574L81.4487 60.6724ZM84.5074 55.1111L83.1632 52.5764L82.2798 53.0449L83.6239 55.5796L84.5074 55.1111ZM82.842 52.3253L79.4393 51.4804L79.1983 52.451L82.601 53.2959L82.842 52.3253ZM79.8188 51.9657V50.2759H78.8188V51.9657H79.8188ZM79.7927 50.4352L81.2133 46.2106L80.2654 45.8919L78.8449 50.1165L79.7927 50.4352ZM81.0869 45.6918L77.5907 42.3121L76.8957 43.0311L80.3918 46.4108L81.0869 45.6918ZM77.3776 42.19L74.3491 41.3451L74.0804 42.3083L77.1088 43.1532L77.3776 42.19ZM74.3352 41.3414L70.9325 40.4965L70.6915 41.467L74.0942 42.3119L74.3352 41.3414ZM71.312 40.9818V38.447H70.312V40.9818H71.312ZM70.812 37.947H66.9329V38.947H70.812V37.947ZM67.4299 38.392L67.0556 35.0123L66.0617 35.1224L66.4359 38.502L67.4299 38.392ZM67.0435 35.1894L67.8942 31.8097L66.9245 31.5656L66.0738 34.9453L67.0435 35.1894ZM67.4093 31.1876H63.2835V32.1876H67.4093V31.1876ZM63.3999 31.2014L59.8696 30.3565L59.6369 31.329L63.1671 32.1739L63.3999 31.2014ZM60.1684 31.1214L61.8698 28.5866L61.0394 28.0293L59.3381 30.5641L60.1684 31.1214ZM61.9448 28.4067L62.7954 24.1821L61.8151 23.9847L60.9644 28.2093L61.9448 28.4067ZM62.5935 23.6748L58.7484 20.9626L58.172 21.7798L62.0171 24.492L62.5935 23.6748ZM58.4602 20.8712H57.2012V21.8712H58.4602V20.8712ZM56.9724 20.9267L55.2961 21.7896L55.7539 22.6787L57.4301 21.8158L56.9724 20.9267Z" fill="black"/>
</svg>
