<svg width="90" height="110" viewBox="0 0 90 110" fill="none" xmlns="http://www.w3.org/2000/svg">
<path d="M8.03189 78.8815L5.45398 81.4239C4.07859 82.4346 2.59108 83.2875 1.02004 83.9663C0.882553 83.9663 6.54531 85.4577 6.54531 85.4577L7.64525 87.1952C7.64525 87.1952 6.31333 90.746 6.57972 90.9071C6.8461 91.0681 7.17259 92.441 8.03189 93.6783C8.82817 94.7294 9.6891 95.7313 10.6098 96.6784L8.03189 100.068L8.8912 102.611L9.7505 106.001L12.3284 105.153H14.9063L19.2029 106.001L20.9215 107.696L24.5305 109.06H30.9409L32.9517 106.958V106.001L37.5319 105.687L38.9669 104.306L39.8262 101.763L40.6855 99.2208L42.4041 94.9834L45.6867 94.136H48.677L50.1378 90.9071L49.2785 87.3562L44.982 86.5087C44.561 85.6968 44.2243 84.845 43.9767 83.9663C43.8306 83.1188 46.7006 83.1188 46.7006 83.1188L50.9971 82.2714L52.7157 83.9663L57.0123 84.8138L61.3088 85.6613L62.1681 89.0511L65.2873 92.441L69.0425 94.136L72.832 90.9071L75.917 87.1443V84.8138L77.5323 83.9663L80.2135 81.2373V77.1865L81.0728 72.9492L84.51 70.4068L88.8065 70.4916V67.8643H87.0879L86.2286 64.4745L79.6722 62.4067L82.8774 52.6099H76.4582V42.8639L68.1316 38.4147L65.2873 22.8126L59.1519 25.7618V15.3211L46.967 12.1178L41.8112 4.23609L37.5147 0.914062L30.9237 4.23609V12.1178L27.074 15.3211L33.6994 20.4059V25.7618L27.074 28.9655L30.9237 35.6604L27.074 38.4147L29.5145 44.9826L27.0912 50.0674V61.4491L24.1008 65.2371L20.9215 67.8643L18.9708 72.1017L11.4691 75.4916H9.23483L8.8912 76.3391L8.03189 78.8815Z" fill="white" stroke="black" stroke-miterlimit="10"/>
</svg>
