<svg width="109" height="107" viewBox="0 0 109 107" fill="none" xmlns="http://www.w3.org/2000/svg">
<path d="M18.5947 97.0839C20.5066 100.374 24.1944 110.625 26.2422 101.334C29.6411 100.756 29.2501 103.307 29.1567 105.704H31.3405C30.8222 96.6505 32.4281 104.607 38.2486 99.3623C38.0447 96.2765 38.0363 94.8058 41.5372 95.3838C43.9419 94.2617 49.1847 92.1791 51.5639 91.1335C55.1497 90.717 61.0467 92.5618 63.3919 89C66.298 89.3741 70.0198 87.7841 72.1271 85.8289C75.7724 83.2022 70.3766 78.1785 67.8785 76.6824C67.5726 72.7891 64.777 66.6347 67.0288 63.0814C70.4276 67.2807 75.2115 65.283 78.8228 62.5713C77.4292 52.7956 86.6403 62.4183 89.181 65.5295C93.4806 66.5156 90.2516 60.7607 95.0695 55.4308C98.7233 51.8606 99.5646 42.6798 101.697 38.149C100.567 36.7719 98.8338 33.5161 99.3181 31.7054C101.018 16.4043 108.733 28.3053 107.815 17.178C106.252 16.1494 102.02 21.2667 101.018 21.9807C101.969 13.4801 99.9554 14.2623 92.5204 13.3527C93.8629 20.5782 89.1215 16.9656 84.8729 16.9061C85.0938 5.80427 81.7459 9.31487 72.9768 8.4478C71.9741 10.505 72.2205 14.2453 72.9768 16.3279C70.5126 18.9631 67.5726 22.3804 63.6299 22.2784C56.4412 27.1237 57.8178 15.3503 53.4332 11.2275C50.7906 11.1765 46.7884 13.7777 44.936 15.4778C42.0555 10.437 36.3029 11.8226 32.1902 14.6278C31.4425 13.2252 31.1876 10.2415 31.3405 8.67734C29.5816 8.78784 24.5428 9.17887 23.693 6.97721C22.308 6.36516 21.6877 2.8799 21.1439 1.87683C14.9324 -0.188827 12.6977 -0.469348 15.1958 6.97721C17.0312 10.25 13.7088 17.178 10.0975 17.178C7.70131 20.4252 6.63916 22.2784 9.2478 25.6786C6.63916 40.0532 26.1402 21.6068 23.693 51.1805C21.9936 54.8103 20.0817 56.1194 16.0456 55.4308C15.3573 56.4424 12.9611 59.3241 12.6467 60.5312C11.3891 60.1572 10.4289 61.0498 10.0975 62.2313C8.9504 63.9315 6.2228 62.1378 5.84892 64.7815C5.63649 71.208 10.0975 70.783 4.9992 77.5325C10.0975 84.112 10.4375 86.0331 2.74752 89.8584C-0.974249 102.04 4.02202 92.4086 7.54836 94.5338C8.99288 94.5338 13.7342 91.2355 12.3407 94.3553C16.3854 92.5106 17.4391 92.8336 18.5947 97.0839Z" fill="white" stroke="black" stroke-miterlimit="10"/>
</svg>
