<svg width="98" height="110" viewBox="0 0 98 110" fill="none" xmlns="http://www.w3.org/2000/svg">
<path d="M95.1759 109.192L97.2859 105.805L92.181 99.8763L88.7778 96.4887H79.6315L81.2056 94.2358L82.4818 88.604L85.8851 82.0914L82.4818 73.792L80.7802 70.2348L85.8851 67.9989L90.1392 70.2348L92.2577 67.9989L90.5561 62.1384L88.0036 59.0982L88.9905 56.6844L92.2151 54.4572L89.6627 45.2513V41.4402L83.707 33.8182L80.4398 29.5837L74.4841 28.8298V33.8182L69.3792 27.8899L65.0825 18.3283H60.4286L57.5104 15.1864H54.1071L52.4055 15.5846V16.8802L50.7039 20.2678L49.0022 18.3283V16.8802L45.599 16.0333L43.0465 16.4315V17.7271L39.6433 18.574H36.24L34.5384 19.4209L31.986 20.2678L27.7319 19.4209L25.1795 18.574L21.7762 14.3395C21.7762 14.3395 20.9253 12.6457 20.4489 11.587C20.1362 10.3477 20.0101 9.06913 20.0746 7.79295C20.0746 7.79295 20.9254 6.71739 20.0746 6.09916C19.2238 5.48092 20.0746 2.47461 20.0746 2.47461L17.5221 5.01531L16.6713 6.70911L15.8205 9.2498L14.9697 10.9436L13.2681 11.7905C12.7326 12.3169 12.1643 12.8089 11.5664 13.2639C10.7156 13.8821 12.4173 14.3312 11.5664 15.1781C11.081 15.6177 10.7777 16.2216 10.7156 16.8719L9.86481 18.3201V21.9616L12.4173 24.5023L15.8205 29.5837L9.014 32.1244V34.665L9.86481 36.3588L5.61074 38.0526L7.31237 42.2871L8.16318 44.8278L5.61074 47.1485L2.20749 49.9092L1.35667 52.4499V54.4572L0.505859 57.5313V62.528L2.20749 63.4596L4.75993 61.7658L5.61074 60.9189L8.16318 63.4596L9.014 65.1534L12.4173 67.6941L14.1189 68.541L16.6713 70.2348H18.7984L21.7762 69.3879C21.7762 69.3879 22.9843 73.9613 22.8057 73.792C22.627 73.6226 22.8057 74.9519 22.8057 74.9519L26.5408 75.7397L28.5657 73.792L34.5214 70.2348L38.0268 74.4693L41.8299 84.4543C41.8299 84.4543 45.6841 83.4211 47.3347 84.4543C48.9853 85.4875 60.4542 88.604 60.4542 88.604L67.2607 99.8763V105.805L72.7569 109.192H76.5685V103.4L85.8766 105.813L82.9158 109.2H95.1929L95.1759 109.192Z" fill="white" stroke="black" stroke-miterlimit="10"/>
</svg>
