<svg width="61" height="79" viewBox="0 0 61 79" fill="none" xmlns="http://www.w3.org/2000/svg">
<path d="M19.9094 73.2331L22.1368 70.6288V67.5695L23.9202 65.0891L24.5578 62.6087L26.1718 58.4747L29.3998 60.1283V63.4355L32.6278 67.5695V69.7935L35.9606 73.2166L38.7692 75.8375L41.0933 73.2166L43.9905 67.5695H47.6058L50.3819 63.4355L47.1538 56.8211L47.9608 55.1675C48.7678 53.5139 47.9608 52.6871 47.9608 52.6871L49.5749 49.3799V46.0727C49.5749 46.0727 48.7678 41.9387 48.7678 41.112C48.7678 40.2852 50.8177 39.1689 50.8177 39.1689L53.626 36.6142L56.047 29.5368V27.0564H60.082V22.0956L56.047 20.442H53.626L47.6058 22.0956C47.6058 22.0956 51.1889 18.7884 50.8338 17.5482C50.4787 16.308 50.8338 10.5204 50.8338 10.5204C50.8338 10.5204 47.977 13.8276 45.9918 13.2075C44.0066 12.5874 45.9918 8.04003 45.9918 8.04003V4.73284L40.3428 10.5204H32.6278C33.4348 10.5204 32.6278 4.4022 32.6278 4.4022L25.8168 0.863281L25.3648 2.25245L22.1368 3.07925V8.04003L20.5228 12.174L19.3123 13.2075V16.3326L16.6976 17.5482H10.2416L9.12782 19.2018L6.82798 20.442L6.02098 20.9547L6.73104 24.576V31.0333L5.11704 34.4976L5.92404 36.1512V38.6316L5.11704 40.2852H3.43053L3.50304 42.7655L2.69604 48.5531L1.08203 50.2067V51.0335C1.22185 51.8987 1.49421 52.7358 1.88903 53.5139L4.31004 55.1675L6.73104 56.631L9.95905 57.6479L7.53805 60.1283L6.73104 63.4355L8.34505 65.9159L9.15205 67.5695H13.1871C13.1871 67.5695 14.8011 70.0499 14.8011 70.8767V72.9768H15.7696V77.8633L19.8046 75.8375L19.9094 73.2331Z" fill="white" stroke="black" stroke-miterlimit="10"/>
</svg>
