<svg width="90" height="93" viewBox="0 0 90 93" fill="none" xmlns="http://www.w3.org/2000/svg">
<path d="M14.3569 82.8922L18.6225 85.4317L22.035 88.8178H26.4882L29.3462 92.2039L31.4193 90.5109L34.7549 88.8178H41.4434L43.3629 85.4317L45.2653 82.8922L47.6285 79.5061V76.12L43.6701 74.4269L40.1722 71.7435L41.6567 65.1152L44.216 63.4221L45.0691 60.036L47.6285 58.4021L50.1878 54.9569L51.9453 53.2638L60.536 48.1847V44.5022L65.3136 42.1321H68.8114V38.8729L72.3176 37.5014V31.6857L74.9282 29.5694H78.042L80.9001 27.0298L85.1656 28.7229L88.6889 24.7275L87.725 24.482L86.0188 22.7889L83.4594 21.7986V19.4028H81.7532L80.0469 20.2494L78.3407 21.0959L72.3689 19.4028L70.6626 17.7098L68.1033 18.5563H65.5439L63.8377 16.7446V15.1702L60.4252 14.3237L58.719 13.4772L57.8659 10.9376L56.1597 9.24454L55.3065 8.39802L53.6003 10.9376L51.8941 11.7841L49.3347 12.6306H44.216L43.3629 13.4772L40.8035 14.637V11.7841L39.0973 10.0911L38.2442 9.24454L35.6848 8.74522V4.16539L33.1255 0.779297H31.4193L29.713 1.62582L26.3005 0.779297H24.5943L22.035 2.00692C22.035 2.00692 18.6225 3.31887 18.6225 4.16539C18.6225 4.73257 17.0954 5.2997 16.0631 5.61292V18.1922L10.9444 15.1702H6.67885L8.87142 18.1922L3.26638 22.7889L0.707031 27.8681V33.7938L8.38509 42.1321V48.1847L10.1426 53.2638L4.62291 56.8194L2.40473 60.8825L3.7698 65.1152L5.89405 71.6249L4.75934 75.4003L12.4374 77.2542L14.3569 82.8922Z" fill="white" stroke="black" stroke-miterlimit="10"/>
</svg>
