<svg width="94" height="95" viewBox="0 0 94 95" fill="none" xmlns="http://www.w3.org/2000/svg">
<path d="M43.5458 90.04H47.3683L47.7949 87.4658L48.6481 82.6949L49.928 80.5497L54.1087 78.0271L54.1599 80.5497C54.1829 82.032 54.454 83.4999 54.9619 84.8916L58.3748 85.7497L59.6803 87.4658L63.9464 92.6142L64.7996 87.4658L66.0538 80.6013L64.3474 75.0665L61.4975 71.214H55.8151L59.6803 68.1593H61.4975L66.0453 65.1217L68.1613 61.5264L70.721 58.343L72.4274 61.5264H78.7924L81.7616 58.343L84.7309 61.5264L90.2514 64.401L92.8111 61.5264L89.9442 56.5753L86.8385 51.3326L86.5313 48.8527L89.8077 40.272L92.7769 36.8397L83.4425 34.3941V40.272H79.62L74.1082 36.8397V30.8332L67.2824 19.4123C67.2824 19.4123 55.781 16.2461 54.1258 15.2078C52.4705 14.1695 48.6054 15.2078 48.6054 15.2078L44.7915 5.09113L41.2761 0.800781L35.3035 4.40484L33.273 6.37823L35.3035 6.80727V15.2078L34.3905 19.4123L30.5681 19.5325L22.5393 20.5364H13.4184L13.1538 22.2525L12.3006 25.6848H4.06706L4.50222 30.8332L2.0619 33.4074V39.1395L3.28195 40.4178L4.50222 42.5031L2.0619 44.2619L1.00391 46.3899L1.20867 50.5688L1.00391 52.4224C1.00391 52.4224 3.76835 54.8592 3.76835 55.7172C3.76835 56.5753 5.14213 58.2915 5.14213 58.2915C5.14213 58.2915 9.02431 59.0122 10.2615 59.0808C11.2512 59.1409 10.6283 60.8485 10.3638 61.4749L14.0327 62.5818L21.4045 73.7367L18.2134 79.7432L25.5512 82.3174V85.7497L29.041 90.04H35.3377L36.7029 93.7555L39.7317 90.04H43.5458Z" fill="white" stroke="black" stroke-miterlimit="10"/>
</svg>
