<svg width="84" height="100" viewBox="0 0 84 100" fill="none" xmlns="http://www.w3.org/2000/svg">
<path d="M17.4334 0.517578H19.7286L20.8762 2.81276L21.8325 5.2992H24.5102L26.9967 6.06426L29.4831 5.10794V2.81276L36.7512 6.06426L40.5765 7.59438H43.0629L48.2271 3.57782L50.9048 3.96035L51.8611 4.34288L53.0087 5.2992L53.7738 6.63806L54.3476 7.59438L54.7301 7.97691L55.4952 8.93324L57.0253 11.4197V11.9935V13.7149V15.4362L57.4078 16.01L57.9816 16.7751L58.9379 17.3489L60.4681 18.3052L61.9982 19.0703L65.0584 20.4091V24.0432L68.3099 24.617L67.5449 26.9121L65.8235 28.8248L65.2497 30.3549L65.0584 31.5025L64.8672 32.4588H64.2934L63.337 32.8414H62.3807L61.6157 33.2239L60.2768 35.5191L60.4681 35.7103L60.6593 35.9016L61.8069 36.6667L62.572 37.4317V39.1531L62.3807 39.5356L61.8069 40.492L61.6157 40.8745V41.6395V42.9784V44.126L61.8069 44.5085L62.1894 45.0823L62.572 45.6561L62.7632 45.8474H65.0584L66.206 46.995L66.5885 47.5688L66.3973 47.76L66.0147 48.3338L65.8235 48.7163L65.6322 49.4814V50.2465L65.8235 51.0115L66.0147 51.5853L66.206 51.9678L66.3973 52.3504L66.7798 52.7329L68.3099 53.498V57.3233L67.5449 60.1922L70.2226 62.1049L73.6653 63.4437L76.5343 67.6516H77.8732L80.3596 66.3127H82.6548L83.4199 70.7118V77.0236L81.6985 80.2751L82.6548 82.1877V85.248L81.6985 86.3955H80.3596L79.9771 86.7781L76.5343 87.3519L73.6653 86.013L71.1789 84.2916L68.5012 82.9528H67.1623L63.5283 85.248L62.3807 86.013L59.703 88.3082L56.6428 92.3248H53.2L50.7135 87.3519L47.2708 86.013L45.5494 88.3082L42.2979 95.7675L39.4289 96.7239L37.7075 99.4016H32.1608L30.2482 97.6802H28.5268H26.0404L24.1277 94.6199L26.0404 92.8986V90.7946L24.1277 88.3082L22.7889 86.013L24.1277 80.8489V74.9196H26.0404L28.5268 73.3895L30.2482 71.2856L32.7346 68.6079L30.2482 65.7389V62.1049L28.5268 57.8971L26.0404 53.8805L20.8762 52.3504H19.7286L17.4334 53.8805L15.5208 55.2194H12.8431H11.313L9.20905 53.8805L4.80996 50.4377L1.36719 46.2299L2.70604 43.5522L4.80996 38.388V36.4754V35.1365V31.12L5.38375 30.1636H6.91387V29.0161L9.20905 27.2947V24.4257L11.313 20.9829L12.8431 19.0703L14.5645 12.7585L15.5208 9.1245L17.4334 5.68173V2.62149V0.517578Z" fill="white" stroke="black" stroke-miterlimit="10"/>
</svg>
