<svg width="103" height="83" viewBox="0 0 103 83" fill="none" xmlns="http://www.w3.org/2000/svg">
<path d="M99.3665 37.4738L98.511 34.0453L97.6555 31.4739L98.6052 30.2054L90.6747 28.2082L84.8231 28.9025L83.1121 34.0453L76.4221 32.0397H60.0138C60.0138 32.0397 60.8692 29.7596 60.0138 28.9025C59.1583 28.0454 56.318 28.5254 56.318 28.5254H47.1813V17.7598L44.1871 15.1884L38.6264 12.617L30.0715 10.9028L28.8653 8.05723L18.95 6.6171L15.4424 3.18858L11.2249 0.617188H7.80294L5.53596 4.20852L4.42378 8.05723L0.958984 7.25995V20.3312L4.42378 22.9026L5.53596 27.7796L10.6689 25.474L13.646 22.9026L16.6231 26.9313V31.3282L21.7561 34.0453L24.4251 31.3282V36.1454H29.8405L31.9706 39.291L29.8405 43.9793V51.6165L32.8176 58.0449V60.6163L34.9477 66.6163H41.3297L46.0092 63.3765L46.8647 67.4734L44.2982 75.1018V80.6304L48.131 82.0446L52.8106 80.6304L55.7363 79.4732L61.1002 78.7274V73.2933L60.8692 69.1876L63.333 63.3765L67.8074 60.6163L69.3899 58.2936L70.2454 56.9819H76.0714L77.9791 60.6163H82.77L88.1937 56.9819L90.6405 51.6165L92.4883 47.7594H94.9008L100.188 46.1138V41.3309L101.471 36.7623L99.3665 37.4738Z" fill="white" stroke="black" stroke-miterlimit="10"/>
</svg>
