<svg width="60" height="72" viewBox="0 0 60 72" fill="none" xmlns="http://www.w3.org/2000/svg">
<path d="M57.8799 37.6561H44.7828L42.3838 34.8993L38.8489 29.5364L42.2397 25.3597L35.3225 21.5591L37.1535 17.0063L38.0012 10.3235L35.3225 5.04432H29.3885L26.2266 1.13477H14.2992L12.5359 8.65285V14.7009L16.7745 20.3477V28.8349L14.6552 33.6462H10.5777V37.6394L5.75423 40.0533L9.14507 44.5726L3.2111 49.5847L0.667969 53.7614L4.4065 65.0968C4.4363 64.0915 4.31912 63.0873 4.05881 62.1148L5.75423 62.6911L10.5777 65.8155L13.2566 71.1115H20.1992V67.9622L24.3614 61.2795H35.3225V58.0217L39.6966 57.9381L43.0874 59.6088L44.7828 56.7768L49.0214 61.2795L50.7168 57.1027L54.1077 54.5967L57.4985 47.914L59.1939 41.507V37.6394L57.8799 37.6561Z" fill="white" stroke="black" stroke-miterlimit="10"/>
</svg>
