<svg width="114" height="101" viewBox="0 0 114 101" fill="none" xmlns="http://www.w3.org/2000/svg">
<path d="M18.7407 65.1085C19.7009 67.4008 21.5703 72.9532 20.0748 75.2965C27.0169 73.7089 22.6918 65.7537 23.3886 60.8634C24.7141 57.0429 27.5438 54.878 31.6309 55.7694C33.0415 54.1648 34.112 50.9724 33.6702 48.8584C38.5135 44.8766 38.9129 47.4915 38.607 52.4327C39.0998 53.7486 40.3999 57.5946 40.0855 58.9785C42.6346 62.4764 46.0334 59.7512 48.9649 58.3164C51.3866 58.69 53.5534 61.067 55.7626 61.933C62.025 60.7529 70.2077 66.6621 70.2077 73.123C64.4126 73.3183 66.231 77.4784 66.8088 81.2395C65.0506 82.008 63.1322 82.3402 61.2177 82.2075C60.0451 85.9856 58.4222 91.8181 60.0112 95.6726C63.257 97.7611 68.5082 98.1347 71.9071 99.9176C73.7814 98.4631 75.0033 96.3265 75.3059 93.9746C83.3272 89.5088 82.8853 100.172 88.9013 88.0316C87.7117 76.0776 85.273 73.2928 99.9475 76.1455C115.463 70.5251 89.1052 56.5335 111.419 45.1569C117.367 38.3648 109.558 9.90605 98.2481 14.4227C98.588 10.6107 92.2321 7.12997 88.9013 9.07419C85.0096 6.89225 82.1037 1.26347 77.4897 0.703125C72.2555 3.52182 77.1074 8.81949 70.9385 9.07419C65.3304 7.17242 57.0712 23.5837 52.7886 16.9615C46.7472 11.2647 43.4843 12.3598 39.6606 19.2622C36.4572 18.7783 32.659 22.2507 29.4216 22.6583C29.1242 28.007 25.3006 33.3131 19.6925 33.5083C20.5422 34.9347 19.3779 39.1035 16.7863 37.9403C9.89518 36.7008 12.7078 40.6232 8.17887 43.0343C5.81667 44.8682 -3.85296 50.0301 4.42322 49.8264C8.39986 53.2224 10.762 58.3163 9.87828 63.5207C13.8039 59.853 15.6732 61.8992 18.7407 65.1085Z" fill="white" stroke="black" stroke-miterlimit="10"/>
</svg>
