<svg width="218" height="103" viewBox="0 0 218 103" fill="none" xmlns="http://www.w3.org/2000/svg">
<path d="M73.594 95.8752C73.0587 90.3948 78.9303 90.9301 82.0913 88.2281C84.9294 89.8 88.3453 82.8497 89.7389 81.4307C101.304 85.8405 97.4373 91.8732 109.41 81.4307C111.483 77.6072 115.876 78.1425 119.479 77.1823C119.175 75.7681 119.301 74.2949 119.842 72.9531C120.382 71.6112 121.313 70.4624 122.513 69.6543C127.101 70.2236 130.041 75.8314 133.925 78.032C137.239 76.1033 143.637 79.5528 143.272 83.3848C158.788 86.5626 152.16 77.7516 158.567 67.8359C162.51 63.0523 160.827 68.9405 168.764 65.2869C197.017 72.4921 180.796 52.3209 204.452 56.7902C207.435 53.451 202.999 48.8967 205.99 45.3196C211.335 32.3281 218.507 41.2923 216.765 24.8511C217.062 22.2596 216.11 22.03 213.799 21.1039C213.166 19.496 212.061 18.1177 210.629 17.1501C209.197 16.1824 207.506 15.671 205.778 15.6831C203.73 16.9661 202.702 18.4019 201.053 16.0058C200.416 16.4477 194.179 12.4287 195.955 15.1562C178.578 27.5104 189.378 12.2503 179.81 17.7052C181.756 22.064 177.176 23.1516 173.649 22.8032C172.069 26.032 171.67 30.5947 167.914 32.1496C166.214 31.0451 163.155 30.0339 161.116 30.4503C158.83 28.1986 158.694 22.9732 156.018 21.1039C152.619 21.0274 150.707 23.1855 150.07 26.3293C149.432 29.4731 146.059 29.8725 144.487 32.1496C140.901 35.4973 136.763 35.3784 133.925 31.3C131.554 26.7202 129.523 21.8856 132.225 16.8555C124.161 11.3751 128.826 15.5045 120.329 13.4568C118.562 12.7431 115.35 11.1372 113.531 12.6071C109.436 10.5424 104.669 7.39864 104.184 2.41105C93.4352 -3.66411 92.339 10.2535 89.7389 17.7052C83.128 22.9477 86.4675 30.6966 82.1508 29.4985C79.6017 27.043 75.8797 21.4694 71.7925 22.3191C72.0644 24.5707 71.9965 27.332 69.3454 27.9013C64.0601 33.4241 60.1598 23.9842 58.9022 29.4985C59.3101 32.26 60.3213 37.8934 60.8481 40.6464C69.9742 45.5235 65.5216 53.3917 56.3615 52.9583C54.0163 56.51 48.1192 54.6575 44.5334 55.0908C42.0777 56.0679 36.9623 58.3026 34.5066 59.3392C27.9637 58.583 34.549 63.4432 26.859 65.8478C22.8058 62.3217 24.8027 67.5047 24.3098 69.6543C21.3613 70.572 22.2279 67.4452 22.126 65.6354C19.1944 64.1995 18.2258 67.3346 17.512 69.5353C11.8443 67.581 10.3488 48.7438 4.7661 61.0385C5.74328 67.5725 1.48615 73.6647 1.36719 79.7314C2.93918 81.4307 9.93244 84.5405 9.86446 80.581C11.4535 79.7314 13.6458 79.1196 14.1131 77.1823C19.7298 79.6634 24.7517 83.317 29.4082 86.5287C31.7619 94.3033 40.7945 93.4281 47.2525 93.3261C50.8128 96.9033 49.6827 96.8353 54.0503 95.0255C59.2676 101.576 69.8212 106.071 73.594 95.8752Z" fill="white" stroke="black" stroke-miterlimit="10"/>
</svg>
