<svg width="69" height="55" viewBox="0 0 69 55" fill="none" xmlns="http://www.w3.org/2000/svg">
<path d="M14.3205 37.8877L16.0037 38.7317L17.6868 39.5757L19.1764 41.6857H20.8595L21.903 42.9517H23.5862L25.2693 43.7957L26.9524 42.9517L31.3117 42.8672V48.1084L32.835 50.5476H34.5181L35.3597 47.1717L37.0428 48.8596L39.6852 53.9236H49.6663C51.0257 52.595 52.3044 51.1858 53.4955 49.7036C53.9667 48.8596 58.0988 49.7036 58.0988 49.7036H62.3066L63.1482 44.6397L66.0768 41.6857L66.5145 37.8877V36.1997L62.3066 34.5117L61.4651 33.6677L62.3066 31.1358V28.6038L63.1482 24.3838L66.0768 21.8518H68.1807V18.4758C67.4687 16.9952 66.6236 15.5827 65.656 14.2559L64.8145 13.4119L63.7541 8.7699H61.869C61.869 8.7699 60.6066 5.81582 60.6066 4.87055V1.59595L58.082 0.751953L54.7157 1.09812V3.28394L52.6623 2.43994L48.8247 3.28394L44.6169 5.81592L41.1495 6.65992L38.0105 7.80763V16.7878C37.46 16.3048 36.9684 15.7579 36.5462 15.1588C36.0497 14.3654 35.3597 13.4119 35.3597 13.4119L33.6765 14.2559L29.5445 15.1588V11.1667L31.3033 6.65992L30.3524 5.52044L30.3103 5.81592H26.4558L22.7362 8.3479H19.2773L16.0037 10.8799L10.1127 12.5679H4.52479L1.69703 15.0999L0.855469 19.3198C0.855469 19.3198 2.5386 21.0078 2.5386 21.8518C2.5386 22.6958 4.22173 22.6958 4.22173 22.6958C4.67926 23.1507 4.97497 23.7438 5.0633 24.3838C5.26094 25.8058 5.54195 27.2149 5.90486 28.6038V30.2918L5.0633 32.8237L5.90486 35.3557H8.42956L10.9543 37.0437L10.6177 37.8877H14.3205V37.8877Z" fill="white" stroke="black" stroke-miterlimit="10"/>
</svg>
