<svg width="103" height="79" viewBox="0 0 103 79" fill="none" xmlns="http://www.w3.org/2000/svg">
<path d="M28.7714 71.1493C37.0207 62.6451 28.8905 60.9443 32.1732 54.141C43.229 55.6037 35.7621 64.0483 48.3316 62.6451C47.4216 75.699 55.824 59.2435 61.9387 69.4485C70.8173 60.1789 73.5642 69.8227 76.1836 77.9526C81.2352 76.2008 86.8226 75.0952 90.0033 70.2989C89.1528 68.1899 89.0678 64.482 90.0033 62.4155C95.7182 62.7217 104.792 64.6096 101.059 55.8418C97.2831 52.9504 96.169 47.3972 95.1059 43.0856C93.4561 40.7554 93.405 36.3418 94.2555 33.731C94.3831 27.7781 91.8487 21.6806 89.1528 16.7227C89.9182 12.1304 91.0918 5.45463 90.8537 0.777344C89.484 1.23493 88.0452 1.45076 86.6015 1.41516C82.5874 1.16003 80.776 0.0714983 78.0971 3.96641C75.9114 -1.51878 66.5736 3.26906 62.7891 4.81682C61.8366 8.28652 60.1272 12.9213 55.9856 9.91932C52.6348 6.51765 47.3196 7.86982 43.229 6.51765C41.6811 5.5822 39.385 0.913493 37.2759 2.98851C38.2794 9.63026 35.711 7.35106 32.1732 10.7697C28.2867 13.6867 33.1682 15.4812 25.3697 15.9914C26.8069 22.1399 21.0239 22.6585 17.7157 25.8306C17.367 27.6845 18.5661 31.5964 16.8652 32.8125C13.3444 33.7564 17.9878 37.0646 16.8652 39.6839C15.4705 42.7029 12.613 44.7267 9.21126 43.7487C8.26727 48.8937 4.17663 40.917 1.11504 47.3376C1.11504 48.1881 -0.492317 49.4297 1.52323 49.0385C2.02499 47.7714 2.6203 47.023 4.07456 47.3376C6.24319 51.5302 5.77544 58.1124 5.77544 62.6451C10.1637 72.51 6.71093 74.551 19.3825 75.4014C25.8884 78.3353 24.3917 71.3194 28.7714 71.1493Z" fill="white" stroke="black" stroke-miterlimit="10"/>
</svg>
