<svg width="88" height="116" viewBox="0 0 88 116" fill="none" xmlns="http://www.w3.org/2000/svg">
<path d="M49.167 112.131V115.376H59.7788L62.7473 112.538V107.904L65.1871 103.803V107.904L68.6847 103.803L70.3908 98.1691L68.2667 91.6539L66.9017 87.4177L69.1197 83.3512L74.6389 79.7927L72.8816 74.7093V68.6516L65.2042 60.3063V54.3757L67.7633 49.2923L73.3679 44.6916L71.1584 41.6672H75.4236L80.5419 44.6916V32.1019C80.0386 32.2544 79.6888 32.3476 79.6888 32.3476L80.5419 31.5004L77.9827 30.6531H74.5706L72.8645 28.1115V26.417L74.5706 23.0281H77.1297L78.8358 22.1808V19.6391C78.8358 18.7919 80.5419 19.6391 80.5419 19.6391L82.2479 17.9447L83.101 16.2502L86.5132 15.64V12.014L83.954 10.3196L79.6888 12.014L76.2767 12.8613L72.8645 13.7085L71.1584 11.1668L69.4523 9.47233H68.5993C68.5993 9.47233 65.1871 8.6251 64.3341 7.77786C63.777 7.04635 63.4773 6.15334 63.481 5.23616L60.0689 4.38893L57.5097 5.23616L54.0976 8.26932V12.014L52.3915 12.8613C51.468 12.865 50.5689 12.5673 49.8324 12.014C48.9793 11.1668 47.2732 10.3196 47.2732 8.6251C47.2732 6.93063 43.8611 6.93063 43.8611 6.93063L43.008 8.48113V10.3196L40.4489 14.5557L36.1837 17.0974L33.6246 17.9447L26.8002 19.012L24.2411 17.9447V15.403L26.8002 12.8613L25.9472 10.3196H23.3881L22.535 8.68425V5.23616L19.9759 2.69447L14.0046 1L7.18028 4.38893L4.1434 6.79494L1.20898 9.47233V10.3196L2.9663 12.014C2.9663 12.014 3.76811 15.4028 3.76811 16.0636C3.76811 16.7245 4.62115 19.6391 3.76811 20.0627C2.91507 20.4864 3.76811 22.808 3.76811 22.808V24.7225L6.75376 27.8657H11.4455L15.7107 37.431L20.8289 43.3616V38.3713L26.8002 39.1255L30.076 43.3616L36.0473 50.9867V54.7993L38.6064 64.0088L35.3307 66.2369L34.3156 68.6516L36.8747 71.6931L38.5808 77.5558L36.4567 79.7927L32.1915 77.5558L27.0733 79.7927L28.7794 83.3512L32.1915 91.6539L28.7794 98.1691L27.4998 103.803L25.9472 106.057H35.1686L38.5808 109.446L41.993 113.462L47.4523 109.446L49.167 112.131Z" fill="white" stroke="black" stroke-miterlimit="10"/>
</svg>
