<svg width="161" height="90" viewBox="0 0 161 90" fill="none" xmlns="http://www.w3.org/2000/svg">
<path d="M40.9852 21.6024L45.2551 19.0759L49.4823 20.3392L54.999 19.0759L58.9189 16.5495L64.0429 14.023L66.6048 11.4966L75.9987 13.1809L79.6367 11.4966H85.162L88.8086 8.128H98.7574L101.618 2.23295L104.18 4.7594H109.304L113.626 2.23295H123.822C123.822 2.23295 125.462 0.548653 129.8 2.23295C132.226 3.23766 134.895 3.53009 137.486 3.0751V5.29849L143.037 9.0713L149.732 11.5472H154.002V16.6001L156.564 21.5942V24.5668H159.98V35.0768H156.334L153.772 43.4983H148.092L146.94 48.5512L146.086 53.6041L140.962 57.8148V59.4991L138.4 62.8677H128.545C128.545 62.8677 127.298 65.3942 126.444 67.0785C125.59 68.7628 122.174 71.2892 122.174 71.2892H118.357L111.926 72.9735H100.517L94.8463 77.1842L91.4304 79.7107L90.5764 82.2371L87.1604 78.8685H82.0365L75.0253 82.2371H61.4296L60.6867 80.5528L56.7583 82.2371H52.4884L52.1212 78.8685L46.5361 82.2371H36.7152V80.2835L33.2992 82.2371H30.7373L28.978 86.4479V89.0837H20.9677L17.9274 87.29V84.0563L13.6575 82.2371L8.53356 79.7107L5.1176 75.4999L2.55563 71.2892L0.847656 68.7628V57.6631L3.40962 56.1305L5.1176 51.0776L6.82558 49.3933L10.8222 45.2837L12.8035 43.4983L16.2195 41.814L19.6354 38.4454L21.3434 35.9189L20.4894 32.5503L25.6903 29.1817H30.3616L30.7373 22.4445L34.1532 23.2867L40.9852 21.6024Z" fill="white" stroke="black" stroke-miterlimit="10"/>
</svg>
