<svg width="30" height="42" viewBox="0 0 30 42" fill="none" xmlns="http://www.w3.org/2000/svg">
<path d="M22.2082 40.6835H24.5204L28.8003 37.3356C28.8003 37.3356 29.9942 34.7733 28.8003 34.722C27.6063 34.6708 23.7554 33.9364 23.7554 33.9364C23.7554 33.9364 22.4015 32.2282 22.4015 31.3741C22.4015 30.52 19.6773 28.0946 19.6773 28.0946L19.8791 26.2496L19.6773 22.0902L20.7199 19.9721L23.1247 18.2214L21.9222 16.1458L20.7199 14.8734V9.15094L23.1247 6.5887L22.6959 1.46422H22.5025L20.7199 5.73462L19.0383 6.5887H16.44L17.3566 3.17238L18.1974 1.46422L16.44 1.84872L13.9933 2.3183L11.1933 0.900391L8.97364 3.17238V6.5887C8.97364 8.29686 11.4961 10.2356 11.4961 10.2356L9.04098 12.5673H4.76954L1.40625 14.2754L2.44886 17.7772L6.45118 21.1081L4.55933 22.0731L9.81447 23.6703L11.4961 28.6067L14.8594 31.357L16.4653 37.8652L18.1974 37.6346L22.2082 40.6835Z" fill="white" stroke="black" stroke-miterlimit="10"/>
</svg>
