<svg width="74" height="72" viewBox="0 0 74 72" fill="none" xmlns="http://www.w3.org/2000/svg">
<path d="M72.9393 41.0556V35.9548H71.9077V33.8041C71.9077 32.954 70.1881 30.4036 70.1881 30.4036H65.8892L65.0295 28.7033L63.3099 26.1529L64.1697 22.7524L66.749 20.202L65.8204 19.9214L60.7306 24.4527L58.1513 27.8532H56.4317L54.7122 27.0031C54.7232 26.1649 54.5775 25.3318 54.2823 24.5461C53.9394 23.7873 53.6882 22.9912 53.5342 22.1742H48.2123L46.9742 21.0521C46.5536 20.2521 46.2634 19.3913 46.1145 18.5017C46.1145 17.6516 46.9742 13.4009 47.834 12.3383C48.6938 11.2756 47.834 8.30013 47.834 8.30013C47.834 8.30013 45.2548 2.34904 44.7131 1.55842C44.1715 0.767796 42.1338 1.55842 42.1338 1.55842L39.2363 4.04946L35.7972 8.30013H32.3581L31.4983 6.59986L29.7788 3.19933L26.4257 1.55842L24.6201 4.04946L22.9006 8.30013L21.181 11.7007L18.6017 12.6612L16.7447 15.3561L18.5931 16.8015V21.0521L16.8736 22.7524H14.6125C14.6125 22.7524 12.5747 22.7524 12.5747 23.6025V26.1529L10.8551 29.3069L8.87763 32.9029H4.77649L2.26602 34.6543L1.40625 36.3545L3.1258 40.6052L4.84534 44.8559L4.34661 49.7865C5.04261 49.4393 5.79237 49.2097 6.56489 49.1065C7.42466 49.1065 8.28444 50.8068 8.28444 50.8068L9.14421 53.3572L11.7235 52.5071L12.5833 51.6569V50.8068H14.3028L16.0224 53.3572L18.6017 55.9076L16.8822 56.7577V59.3081L17.7419 64.4089H18.6017V66.1092L20.3213 66.9593L22.9006 67.8095L28.0592 69.5097L30.6385 71.21C30.6385 71.21 32.3581 70.3599 32.3581 69.5097V66.1092L35.7972 65.2591L37.5167 66.9593L39.2363 66.1092L40.096 66.9593L40.9558 65.2591L42.6754 63.5588L43.5351 64.4089L45.2547 66.1092L47.834 65.2591L46.9742 62.7087H50.4133L52.9926 63.5588C52.9926 63.7843 53.0833 64.0004 53.2445 64.1599C53.4058 64.3193 53.6244 64.4089 53.8524 64.4089C54.7122 64.4089 56.4317 66.1092 56.4317 66.1092C56.4317 66.1092 58.1513 66.1092 58.1513 65.2591C58.061 64.6144 57.7589 64.017 57.2915 63.5588C56.8709 62.7587 56.5807 61.898 56.4317 61.0084C56.4317 60.1583 58.1513 59.3081 58.1513 59.3081L59.0111 58.458H59.8708L61.5904 59.3081L63.3099 60.1583L65.0295 59.3081L66.749 58.458V56.7577C66.749 55.9076 68.4686 55.9076 68.4686 55.9076L69.3283 56.7577H71.0479V54.2073C71.0479 53.6462 72.1741 53.8246 72.9393 54.0201L71.9077 50.8068L71.0479 48.2564L71.9765 44.1078L72.9393 41.0556Z" fill="white" stroke="black" stroke-miterlimit="10"/>
</svg>
