<svg width="85" height="72" viewBox="0 0 85 72" fill="none" xmlns="http://www.w3.org/2000/svg">
<path d="M35.6817 71.0127V57.2222H41.2183L44.5943 56.0516V47.8236L48.3584 46.1148L50.8904 44.4059L57.2963 47.8236H61.7019L64.9007 42.6971V38.553L67.0527 34.9731H75.2058L77.4423 28.035L83.7046 25.1985V21.6611L81.4681 19.3969L81.274 19.5935H69.9982L67.0527 15.3213H49.4219L45.6492 10.1948L39.2517 8.48596V1.00977H32.3057L28.0858 3.4704V8.52017L21.3339 10.229L14.582 12.4932V15.3555H10.362V17.9188L7.83004 25.2327L4.89297 27.8728C4.89297 27.8728 2.7661 29.0263 2.7661 29.8807C2.7661 30.7351 3.61009 35.0073 3.61009 35.0073V38.425L1.92211 41.8426C1.92211 41.8426 2.7661 42.6971 1.92211 44.4059L1.07812 46.1148L4.45408 52.9501L3.61009 54.1379L6.98605 54.659L11.206 52.9501L16.2699 57.2222H21.7221L23.8236 63.058V68.5604L32.3311 70.9956L35.6817 71.0127Z" fill="white" stroke="black" stroke-miterlimit="10"/>
</svg>
