<svg width="75" height="85" viewBox="0 0 75 85" fill="none" xmlns="http://www.w3.org/2000/svg">
<path d="M5.62572 79.5901C4.14929 88.5593 13.0927 80.7208 15.7061 78.0513C25.3029 80.4998 27.4751 77.9748 32.2184 69.9749C35.3495 78.8505 45.7948 68.2746 48.7986 74.6507C52.2436 75.6284 53.0413 72.7039 53.7456 69.9749C59.1083 70.927 58.0391 63.9304 58.1324 60.5638C59.0488 57.0442 56.1469 55.7773 53.0412 55.9474C52.9903 53.5414 54.3904 50.5149 53.0412 48.296C55.748 42.4555 61.0599 49.8516 59.6513 40.2619C64.2249 30.3831 57.496 27.0251 68.2892 18.4556C65.4467 11.0507 78.1321 11.5864 72.5319 2.38778C69.579 -1.86298 64.6491 2.22625 63.1981 5.78839C60.0585 6.375 55.5613 8.68741 53.0158 5.78839C48.8834 0.687478 53.8644 11.884 49.0787 10.4642C47.2883 10.9743 45.4809 9.7501 44.5305 8.33885C35.8246 2.63433 42.511 15.0721 35.1967 11.7395C33.6863 10.3027 29.1552 -0.162657 29.0279 4.31764C28.0945 7.62474 24.4799 6.47701 21.8494 6.63854C21.0433 7.39518 19.4057 8.46615 19.9233 9.8179C17.1656 9.72438 13.6611 13.0402 13.1351 8.33885C9.80035 7.99029 8.62949 13.9924 4.54808 12.5896C4.90446 14.885 3.61459 20.547 2.95274 22.7914C5.22679 25.7925 8.08633 23.089 5.49832 27.8923C4.13219 30.6128 2.81707 36.972 7.50093 36.3939C9.32526 40.6446 5.60027 44.0452 1.38309 43.1951C1.17945 46.0601 6.11775 47.2078 4.6498 50.8465C8.32391 51.8921 5.66803 59.229 2.95274 60.1981C0.763547 58.9994 6.03299 69.8474 5.60024 69.9749L5.62572 79.5901Z" fill="white" stroke="black" stroke-miterlimit="10"/>
</svg>
