<svg width="110" height="112" viewBox="0 0 110 112" fill="none" xmlns="http://www.w3.org/2000/svg">
<path d="M106.08 81.5527L105.23 79.8517C108.085 79.7326 108.306 76.943 106.08 76.4497C103.353 76.909 102.257 75.7012 102.681 73.0477C104.856 70.1305 104.032 66.7625 102.681 63.6922C104.525 62.7141 105.774 61.5659 104.381 59.4397C103.531 58.0108 101.764 54.3367 100.133 53.4862C101.322 52.0658 100.982 47.5327 98.4333 48.3832C100.795 44.9812 96.0798 48.0089 95.0347 45.8317C95.6295 42.6083 94.0747 41.0263 90.7866 41.5792C89.5724 40.7682 88.6628 39.5753 88.2012 38.1892C87.7396 36.8031 87.7524 35.3027 88.2377 33.9246C84.6862 31.4752 83.3013 27.801 84.8392 23.7186C80.7355 20.4442 75.6972 17.5015 72.9443 12.6621C71.8398 9.53228 72.5025 3.69784 69.5458 1.60561C67.1244 -0.750277 60.9391 1.47804 59.3503 4.15711C57.8379 2.25199 54.5838 2.61771 52.5532 3.30661C50.6245 2.45611 46.2574 2.36256 44.1758 2.45611C38.7636 2.03086 34.9489 14.5162 31.3124 10.1106C26.9623 9.32816 24.7449 4.93957 20.1399 5.00761C18.0243 7.46556 11.9833 8.27354 11.7709 11.8116C13.0964 18.7602 6.83458 15.0095 4.97389 19.4661C3.74192 24.4671 -3.94723 34.52 4.97389 35.6256C5.63652 36.6294 5.93631 37.8298 5.82352 39.0277C3.03673 43.3652 3.65705 49.5569 9.74041 50.0842C7.6928 52.4656 9.01813 54.9745 10.9213 56.8882C11.0997 59.4397 12.2723 64.0241 13.9971 66.0227C17.3956 62.3911 20.1398 57.2454 17.557 52.2104C20.3353 49.88 21.5332 45.1001 21.1169 41.6215C23.5468 38.4066 27.8374 33.967 32.349 34.8175C36.9964 32.9379 34.8299 35.158 34.2521 38.1348C27.8799 39.1384 35.705 40.3204 35.5606 43.7054C33.6829 45.3469 32.8758 48.4768 35.5606 49.7611C34.7046 51.4538 34.1306 53.2751 33.8613 55.1531C29.6132 59.7288 30.6922 60.3753 35.5606 63.5817C31.0066 66.3714 33.5555 71.1596 35.5606 74.7998C37.1154 85.8563 48.8658 75.8968 51.7036 85.7711C51.2788 98.4606 51.3722 94.6504 61.0495 101.08C63.1274 102.778 65.4112 104.207 67.8466 105.333C69.1805 106.693 70.6928 113.412 73.794 110.436C83.1824 109.424 81.4407 114.578 80.591 105.333C76.2834 101.71 83.9301 100.281 83.9895 96.7425C89.801 98.1969 85.3744 93.145 89.0873 91.7247C92.044 91.0357 93.9302 94.3614 93.3355 89.6071C95.1197 89.0798 98 88.8415 98.4333 86.6216C99.3339 85.8562 102.197 85.5585 101.832 84.0701C103.777 83.5003 106.93 84.9206 108.629 84.9206L106.08 81.5527Z" fill="white" stroke="black" stroke-miterlimit="10"/>
</svg>
