<svg width="61" height="86" viewBox="0 0 61 86" fill="none" xmlns="http://www.w3.org/2000/svg">
<path d="M34.8412 81.8005L36.0111 80.0915H42.793L45.5396 78.8352V75.6054L46.8112 74.5373L48.5066 70.2649V65.1379L51.8975 64.2834L52.7453 61.72L57.8316 63.429L59.5271 61.72C59.5271 61.72 56.9839 56.5931 56.9839 55.7386C56.9833 55.5052 57.0704 55.2802 57.2277 55.109C57.385 54.9377 57.6007 54.8329 57.8316 54.8157V50.5945L55.2884 49.74L52.7453 46.3221L50.3801 43.3314H46.1414C46.1414 43.3314 41.6994 42.9041 41.9028 41.836C42.1063 40.7679 40.8856 39.4862 40.8856 39.4862L36.6894 37.3754V33.9575L34.8836 28.2239L33.256 26.9421V23.5242L34.1038 17.6542H36.6469C36.6469 17.6542 36.6046 13.8175 36.6469 12.9032C36.6893 11.9889 33.256 12.9032 33.256 12.9032L32.6879 10.9293L31.5606 11.2539C31.5606 11.2539 26.4742 8.69039 25.6265 8.69039C24.7788 8.69039 22.2356 5.27244 21.3879 4.41795C20.5401 3.56346 14.6061 1.85449 14.6061 1.85449L8.85844 1H6.08636L2.69545 5.27244L1 7.83591L1.84773 8.69039L2.69545 11.2539L5.23863 10.3994L7.9004 12.0487C7.84719 13.005 7.84719 13.9634 7.9004 14.9196C7.9767 16.0219 7.9004 18.0898 7.9004 18.0898V24.0712L6.96803 30.0526C6.96803 30.0526 6.45085 29.2664 5.84049 28.2752C5.70485 29.9244 5.65405 31.8898 6.1203 32.4538C7.24692 33.4918 8.48016 34.4055 9.7993 35.1795L13.7498 36.8885V40.5797L17.1407 41.1609L16.4371 43.2972L14.5636 45.4676L13.7159 48.0311V48.8856L10.325 49.74L9.12977 52.3035L11.4101 54.0125V55.7215L10.325 57.4304V60.8484L11.4101 62.6087H13.8684L15.4114 64.2663C14.8611 65.0059 14.5636 65.9054 14.5636 66.8298C14.5636 67.7542 14.8611 68.6537 15.4114 69.3933L17.1068 70.2478V73.9307C16.8997 75.0008 16.6164 76.0545 16.2591 77.0837L18.8023 78.7926L22.4136 80.0744L23.4648 81.7834L25.5841 84.7741H26.5251L28.975 83.0651H31.5182L31.62 83.595L32.4677 83.0651L34.8412 81.8005Z" fill="white" stroke="black" stroke-miterlimit="10"/>
</svg>
