<svg width="87" height="69" viewBox="0 0 87 69" fill="none" xmlns="http://www.w3.org/2000/svg">
<path d="M8.71066 27.2735C8.89748 27.687 9.3477 28.1851 9.70437 27.8982C9.80782 27.8018 9.87644 27.6741 9.89967 27.5351C10.0398 27.0355 10.0398 26.5072 9.89967 26.0075C10.0521 25.9587 10.2173 25.968 10.3633 26.0335C10.5092 26.099 10.6255 26.2164 10.6894 26.3623C10.8095 26.6574 10.9033 26.9621 10.9697 27.2735C11.3348 28.3706 12.5831 28.8686 13.6871 29.223L22.4765 32.0759C23.2492 32.3291 24.2682 32.5061 24.7268 31.8393C24.9058 31.5058 25.0074 31.1369 25.0241 30.7593C25.1636 30.1269 25.3891 29.5165 25.6948 28.9449C25.7759 28.7108 25.9386 28.5131 26.1534 28.3877C26.5865 28.2105 27.0026 28.6831 27.4697 28.7928C27.7555 28.8121 28.041 28.752 28.2945 28.6193C28.5479 28.4867 28.7591 28.2866 28.9048 28.0416C29.4285 27.3591 29.7757 26.5594 29.9155 25.7125C29.7316 25.6977 29.5575 25.6237 29.4196 25.5019C29.2817 25.3801 29.1874 25.2168 29.1511 25.0371C29.0947 24.6697 29.1238 24.2946 29.2361 23.9401L30.7815 17.5936C31.1976 15.9057 31.7497 14.2852 33.4142 13.6607C34.2549 13.4584 35.074 13.1758 35.86 12.8167C36.3101 12.5382 36.7091 12.1246 37.2526 12.15C37.7961 12.1753 38.2717 12.8673 38.5859 13.4328C39.5024 15.0606 40.9063 16.3644 42.6026 17.163C43.231 17.4584 44.0973 17.6275 44.5388 17.0958C44.6969 16.8664 44.7986 16.6032 44.8359 16.3277L45.7617 11.8042C45.8349 11.3615 45.9662 10.9302 46.1523 10.5214C46.409 10.1069 46.6927 9.70923 47.0015 9.33131C47.3625 8.82447 47.6168 8.25034 47.7489 7.64341C47.8932 6.95982 47.9782 6.09886 48.5981 5.82035C49.0227 5.64313 49.5236 5.82031 49.9907 5.76967C50.4578 5.71903 50.9503 5.22145 50.6616 4.85855C51.0587 4.01421 51.5394 3.21102 52.0967 2.46146C52.2967 2.07073 52.5889 1.73411 52.9482 1.47987C53.3075 1.22564 53.7233 1.06136 54.1602 1.00144C54.2877 0.99377 54.4152 1.0168 54.532 1.0682C54.6487 1.1196 54.7512 1.19794 54.8311 1.29691C54.9325 1.51101 54.9875 1.74397 54.9924 1.98055C55.0937 2.33096 55.294 2.64509 55.5694 2.8859C55.8448 3.12672 56.1839 3.284 56.5465 3.3392C57.2743 3.42782 58.0124 3.37651 58.7206 3.18755L63.6375 2.19978C64.1233 2.05554 64.6388 2.04115 65.1321 2.15775C65.5212 2.30527 65.8599 2.56007 66.1086 2.89208C66.8089 3.85611 67.3163 4.94467 67.6032 6.09892L69.5479 12.1669C69.8446 13.435 70.4447 14.6135 71.2974 15.602C70.9577 15.6442 70.9321 16.159 71.1444 16.4459C71.3567 16.7329 71.7049 16.8424 71.9003 17.1209C72.5117 17.9649 71.2209 19.1296 71.4842 20.1592C71.6625 20.826 72.4182 21.1552 72.8343 21.7037C73.0677 22.1112 73.2133 22.5626 73.2616 23.029C73.3098 23.4954 73.2597 23.9666 73.1146 24.4128C72.9109 25.4153 72.6558 26.4068 72.3504 27.3835C71.8069 29.0714 71.0935 30.7593 70.652 32.4979C70.1337 34.227 70.1337 36.0685 70.652 37.7977C71.1954 37.6373 71.6624 37.5531 72.2059 37.3844C75.5293 36.3823 78.7111 34.9643 81.6746 33.1646C82.9138 32.2619 84.2783 31.5424 85.7254 31.0292L86.2603 37.4346C86.3534 37.9766 86.2977 38.5336 86.099 39.0467C85.9228 39.343 85.6844 39.598 85.4001 39.7946C85.1158 39.9912 84.7924 40.1249 84.4516 40.1861C83.7892 40.3549 83.0842 40.3884 82.4303 40.5994C81.7693 40.8417 81.167 41.2194 80.6623 41.7079C80.1576 42.1964 79.7618 42.7851 79.5006 43.4354C78.983 44.7411 78.7236 46.1336 78.7364 47.5369C78.4717 47.8559 78.3 48.2407 78.2401 48.6499C78.1802 49.0591 78.2344 49.477 78.3966 49.8577C78.8035 50.5393 79.442 51.0543 80.197 51.3095C80.5533 51.4068 80.8936 51.5542 81.2075 51.748C81.3625 51.8438 81.4855 51.9833 81.561 52.1485C81.6366 52.3137 81.6614 52.4973 81.6321 52.6764C81.5454 52.9069 81.3953 53.1086 81.199 53.2587L77.5644 56.5924C77.3496 56.8045 77.1134 56.9939 76.8595 57.1578C75.798 57.7823 74.1592 57.5883 73.6242 58.6854C73.4034 59.1242 73.4628 59.6727 73.2081 60.0947C72.9694 60.3735 72.6661 60.5906 72.3245 60.7273C71.9828 60.864 71.6128 60.9164 71.2464 60.8797C69.7348 60.9641 67.9515 61.1753 67.2381 62.4918C67.0162 63.0362 66.851 63.6018 66.7455 64.1797C66.6912 64.4643 66.5698 64.7317 66.3912 64.9606C66.2126 65.1895 65.9818 65.3728 65.718 65.4959C65.4038 65.6056 65.0555 65.5719 64.7498 65.7069C64.0704 66.0023 63.9856 66.9138 64.0026 67.6565L59.5103 68.2894C58.9922 68.3654 58.3385 68.3572 58.1262 67.893C57.9139 67.4288 58.2535 67.049 58.279 66.5595C58.279 65.859 57.6589 65.3358 57.3447 64.7113C56.7163 63.4707 57.3873 61.7151 56.4022 60.7277C56.1263 60.4885 55.7938 60.3231 55.4359 60.2464C55.078 60.1696 54.7062 60.184 54.3555 60.2888C53.6577 60.5124 53.0032 60.852 52.4195 61.2931C51.2816 59.698 49.252 59.0399 47.3243 58.5251C47.1603 58.4708 46.9862 58.4535 46.8147 58.4744C46.6469 58.5344 46.4956 58.6325 46.3731 58.7612L42.127 62.6773C41.8407 63.6291 41.2726 64.4732 40.4966 65.0995C39.3672 66.2895 37.278 66.7873 36.1146 65.6649C35.8953 65.3949 35.6509 65.1464 35.3844 64.9223C35.1222 64.774 34.834 64.6763 34.5352 64.6351C33.2529 64.3819 31.8177 64.1627 30.7137 64.8547C30.391 65.0573 30.0259 65.3443 29.6777 65.184C29.5046 65.0728 29.3708 64.9102 29.2954 64.7195C28.0726 62.2468 27.2234 59.5462 25.5165 57.3688C25.0896 56.8782 24.7008 56.3562 24.3532 55.8074C24.0645 55.2842 23.8945 54.7103 23.6058 54.1871C23.3054 53.6581 22.8908 53.2022 22.3915 52.8519C21.8921 52.5017 21.3207 52.2658 20.7186 52.1617C20.5081 52.0983 20.2836 52.0983 20.0732 52.1617C19.7863 52.3374 19.5609 52.5967 19.4277 52.9043C18.7127 54.0548 17.6272 54.9311 16.3475 55.3908C15.0678 55.8504 13.6693 55.8664 12.3793 55.4361C12.1563 53.5264 12.4495 51.5924 13.2285 49.8326C13.7358 48.9303 14.1214 47.9652 14.375 46.9628C14.46 46.2317 14.4341 45.4924 14.2985 44.7689C14.2441 43.6715 13.9175 42.6044 13.3475 41.663C12.6994 40.9059 11.8862 40.3055 10.9697 39.9075C10.1069 39.3993 9.17432 39.0185 8.20126 38.7768C7.04634 38.5574 5.82337 38.7346 4.69392 38.4055C3.68193 38.0576 2.83973 37.3422 2.3358 36.4032C1.83187 35.4642 1.70348 34.3709 1.9765 33.3418C1.48098 32.7293 1.14559 32.0045 1 31.2319C2.13161 31.2658 3.25734 31.0569 4.30063 30.62C5.34392 30.1831 6.28023 29.5285 7.04624 28.7001C7.45513 28.0786 8.03197 27.5839 8.71066 27.2735V27.2735Z" fill="white" stroke="black" stroke-miterlimit="10"/>
</svg>
