<svg width="70" height="113" viewBox="0 0 70 113" fill="none" xmlns="http://www.w3.org/2000/svg">
<path d="M62.466 57.2696L57.3939 55.3581V52.15L53.8689 53.8565H45.5591L40.487 48.9927V41.9107L33.6566 40.0846L32.7353 35.3062L34.5696 27.6696V20.6643L32.0336 12.4216L29.4976 7.77982L28.1534 6.32076L26.9615 6.92655L26.1162 6.07328H25.2708C24.4255 6.07328 23.5801 5.21999 22.7348 4.56297C21.8895 3.90595 22.7348 3.50513 22.7348 3.50513L21.8895 0.945312L19.3534 2.65186L17.4345 4.3584H13.436C12.5231 4.81768 11.6711 5.39102 10.9 6.06494C10.0546 6.91822 8.36395 6.06494 6.67327 6.91822C4.98258 7.77149 6.67327 6.91822 4.13723 6.91822C1.6012 6.91822 2.44655 8.62476 1.6012 8.62476C0.755859 8.62476 0.755859 10.3313 0.755859 10.3313L2.29444 12.4132L3.29189 13.7527C4.56491 13.7586 5.83655 13.6674 7.09594 13.4798C7.80968 13.3052 8.56213 13.4023 9.2093 13.7527H11.7453C12.1589 14.5557 12.4442 15.4197 12.5907 16.3125C12.5907 17.1658 10.0546 16.3125 10.0546 16.3125H5.82792C4.13723 16.3125 5.82792 16.3125 4.13723 15.4593H2.44655V17.1658L3.29189 18.8724L4.98258 19.7256C6.67327 20.5789 5.82792 20.5789 5.82792 20.5789L7.09594 22.3963L7.51861 23.992L7.09594 25.1523C6.67327 26.3128 6.67327 26.5519 7.09594 27.0638C7.21387 27.2145 7.27797 27.401 7.27797 27.593C7.27797 27.785 7.21387 27.971 7.09594 28.1217L8.36395 27.4051L9.2093 26.5518C10.0546 25.6985 9.2093 23.992 9.2093 23.992V22.2854H10.9L13.436 23.992C13.6602 23.992 13.8752 24.0819 14.0337 24.242C14.1922 24.402 14.2814 24.619 14.2814 24.8453C14.2814 25.6985 12.5907 25.6985 12.5907 25.6985L10.0546 27.4051V29.1116L10.9 29.9649H12.5907C12.5907 29.9649 14.2814 29.1116 14.2814 28.2583C14.3701 27.6113 14.6671 27.0117 15.1267 26.5518L16.8174 24.8453L17.6627 23.992L20.1988 24.8453V25.6985L19.3534 27.4051L17.6627 28.2583L18.5081 31.6714L19.1167 32.286H21.6527L22.7517 33.378L21.061 35.0845H19.3703L16.8343 35.9378L15.989 37.2431V39.3509H12.6076L10.9169 39.1546L8.38088 41.0574L10.9169 40.8524V43.6172L10.0716 45.3238L7.53553 47.0303L8.38088 48.7369L9.22622 50.4434V52.15H8.38088L6.69019 50.4434V52.0391L4.9995 53.8482C4.9995 53.8482 5.84485 56.3653 4.9995 56.8175C4.15416 57.2698 5.84485 60.3156 5.84485 60.3156L6.69019 63.0208V65.094L5.72638 68.2767V73.3963L4.76278 76.579V79.7617L5.72638 89.1477L7.51861 100.786V103.619L8.36395 105.906H12.5907L15.972 106.759L18.5081 108.466V110.172C18.5081 111.026 20.1988 110.172 20.1988 110.172L25.2708 111.879L26.1162 107.613L28.9566 105.053H34.5696L40.487 103.346L43.7753 100.786H47.2498L50.9861 98.2266H54.8579L55.7032 92.2537L57.3939 85.4276L59.0846 78.6014L62.466 76.8948L63.0154 72.6285H67.538L69.2287 70.0687L68.6878 68.1317L66.6927 68.3621L68.6878 68.1317C68.1552 66.2119 67.3774 63.379 67.1154 62.1588C66.6927 60.2219 62.466 57.2696 62.466 57.2696Z" fill="white" stroke="black" stroke-miterlimit="10"/>
</svg>
