<svg width="79" height="51" viewBox="0 0 79 51" fill="none" xmlns="http://www.w3.org/2000/svg">
<path d="M73.1859 29.556L72.3326 24.5762V19.1457L70.9586 16.9769L68.0659 14.8081L65.5059 13.7843V10.4705L64.1661 4.39783L61.2392 2.66278L55.2658 3.5303L51.221 4.39783H45.8792L42.2354 1.16198L41.6125 1.79526L36.4925 3.5303H31.4833L28.8124 5.26535L25.3991 6.23708H20.3559L16.8657 0.927734H13.4524L7.86299 1.50044C7.66423 1.85993 7.53399 2.25419 7.47903 2.66278C7.42144 3.13382 7.46826 3.61203 7.61591 4.06234C7.76355 4.51265 8.00829 4.92365 8.33237 5.26535C9.11078 5.95052 9.97086 6.53345 10.8924 7.0004L9.1857 8.73544C9.1857 8.73544 3.21235 7.86792 2.35902 8.73544L1.50568 9.60297L0.652344 11.338V14.8081C0.741912 15.4659 1.04175 16.0756 1.50568 16.5432L3.21235 18.2782L5.77236 16.5432V15.6756L4.06569 13.9406L4.91902 11.338H5.77236L12.599 12.2055L13.4524 14.8081L15.1591 16.5432L16.0124 15.6756V14.8081C16.0124 13.9406 17.7191 14.8081 17.7191 14.8081H19.4257L21.1324 15.6756L22.8391 18.2782L24.5458 20.8808V24.3509C24.5458 24.5809 24.6357 24.8015 24.7958 24.9642C24.9558 25.1269 25.1728 25.2184 25.3991 25.2184L26.2524 24.3509L27.1058 23.4833H29.6658C30.5191 23.4833 29.6658 25.2184 29.6658 25.2184L32.2258 26.0859H33.0791V27.821H28.8124L27.9591 29.556L29.6658 30.4235V31.291C29.2897 32.7107 29.0439 34.1628 28.9318 35.6287C29.0513 36.4962 30.5191 36.4962 30.5191 36.4962H33.0791C33.3054 36.4962 33.5224 36.5877 33.6824 36.7503C33.8425 36.913 33.9324 37.1336 33.9324 37.3637L37.3458 40.8338V41.7013L35.6391 44.3039L36.4925 47.774L38.1991 48.6415L40.7591 47.774L43.3191 48.6415L45.8792 49.509H50.9992L52.7058 47.774V45.1714L53.5592 44.3039L56.9725 43.4364L58.6792 42.5688C59.7887 42.175 60.9312 41.8846 62.0925 41.7013H65.5059C66.3592 41.7013 66.3592 39.9663 66.3592 39.9663L67.2125 38.2312L70.6259 36.4962L74.0392 35.6287L74.8926 34.7611H78.3059L77.4526 32.1586L73.1859 29.556Z" fill="white" stroke="black" stroke-miterlimit="10"/>
</svg>
