<svg width="37" height="35" viewBox="0 0 37 35" fill="none" xmlns="http://www.w3.org/2000/svg">
<path d="M31.609 27.9228C35.0695 26.7389 35.0099 22.1818 35.6221 19.158C35.6221 15.3421 32.8758 15.9298 29.9085 15.998C29.1858 14.6437 26.3119 10.1976 24.807 8.92841C23.6676 6.83305 22.9109 2.47167 20.5047 1.39844C19.2633 5.12921 13.4817 5.72557 10.3527 7.48023C9.40046 11.3558 9.40896 15.5295 4.401 14.9162C5.11521 17.6504 3.01509 18.1786 1 19.0815C2.31789 21.228 1.0511 24.3881 4.06098 25.2398C5.14554 26.9162 6.11143 28.6665 6.95174 30.4782C7.73736 30.7543 8.45088 31.2039 9.03959 31.7937C9.6283 32.3834 10.0771 33.0982 10.3527 33.8853C15.3692 31.3299 17.6394 34.5667 21.406 33.0335C23.9567 32.9483 26.7966 28.9024 29.0582 30.904C29.1764 30.2232 29.4757 29.5871 29.9247 29.0624C30.3736 28.5377 30.9554 28.144 31.609 27.9228V27.9228Z" fill="white" stroke="black" stroke-miterlimit="10"/>
</svg>
