<svg width="103" height="102" viewBox="0 0 103 102" fill="none" xmlns="http://www.w3.org/2000/svg">
<path d="M102.369 31.8971L99.8281 28.4776L98.9811 27.6227C98.6154 26.9229 98.3312 26.1827 98.1341 25.417V18.2189C96.7403 17.8502 95.3262 17.5648 93.8992 17.364C92.4632 17.1066 91.0478 16.7437 89.6642 16.2783V14.7993H87.1232L82.8883 14.1498V12.2347L78.6534 13.0896L76.9594 13.9444L75.2654 18.2189H72.7244L71.0305 17.364L69.3365 17.5523V19.0738L68.4895 20.7836H65.9485L65.1015 19.0738H60.8666L58.3256 17.364L60.0196 14.5773V7.96021L55.7846 7.10532L54.9377 4.54065H52.3967L51.5497 2.83087H47.3148L43.9268 1.12109L42.2328 3.68576L39.6919 2.83087L38.8449 1.97598L36.3039 1.12109L32.069 4.54065L29.528 5.39554L26.14 6.25043L23.5991 7.34451L21.9051 10.5249C21.4907 11.3294 21.2049 12.195 21.0581 13.0896C21.257 14.5299 21.5398 15.9572 21.9051 17.364L23.5991 21.6385L21.9051 22.4933L18.5171 20.7836H15.9762L14.2822 24.2031H10.0472L8.35327 26.7678L7.41302 27.7166L10.8518 30.4524V33.3848L6.6169 42.1304L1.76367 42.1813L5.75296 46.7893H6.59995L6.27819 47.4133L9.20026 50.7047H18.8898V57.313H27.3173L29.528 62.6732L32.9159 71.2221L41.1826 75.4452H47.5096L53.2437 81.4808L49.0087 87.465L46.6626 89.1748H50.4571L53.2437 90.4826L56.3521 89.1748L59.1726 86.6101L60.9851 89.1748L63.9328 90.4826V96.8688L70.1072 100.579L70.1835 100.288L71.0305 98.5786L75.4178 95.159H80.3473L81.1943 92.5943L77.8064 88.3199C77.8064 88.3199 79.5003 84.0454 79.5003 83.1905V78.9161L81.1943 77.2063V73.7867L78.6534 70.3672C77.6506 69.3396 76.7772 68.191 76.053 66.9476C75.5495 66.188 75.2759 65.2969 75.2654 64.383H76.9594L80.1525 66.9476H82.0413L84.5823 64.7678L85.4293 63.5281V62.6732L84.5823 60.1085L82.8883 59.2536C82.8883 59.2536 80.3473 58.3987 80.3473 57.5438C80.3473 57.3171 80.258 57.0997 80.0992 56.9394C79.9403 56.7791 79.725 56.6889 79.5003 56.6889C79.5003 56.4622 79.5896 56.2448 79.7485 56.0845C79.9073 55.9242 80.1227 55.8341 80.3473 55.8341H82.0413L84.5823 57.5438L85.4293 56.6889L84.5823 54.9792L83.7353 53.2694L81.1943 50.7047C80.8727 50.368 80.6297 49.963 80.4832 49.5192C80.3366 49.0755 80.2902 48.6042 80.3473 48.14V46.4303H81.1943L84.5823 48.14L87.1232 51.5596V56.6889H89.6642C90.5112 56.6889 90.5112 60.1085 90.5112 60.1085C90.5297 61.5374 90.4475 62.9658 90.2655 64.383C90.0284 65.2378 92.2052 64.383 93.0522 64.383C93.8992 64.383 94.7461 62.6732 94.7461 62.6732L97.2871 60.1085L98.1341 58.3987L98.9811 56.6889V51.5596C99.488 50.4887 99.776 49.3257 99.8281 48.14C99.8281 46.4303 101.522 43.8656 101.522 43.8656L100.59 40.446L99.8281 37.0265L102.369 35.8381V31.8971Z" fill="white" stroke="black" stroke-miterlimit="10"/>
</svg>
