<svg width="100" height="96" viewBox="0 0 100 96" fill="none" xmlns="http://www.w3.org/2000/svg">
<path d="M98.5789 62.9917C98.6384 60.4403 98.9188 57.4466 95.682 56.8938C94.6812 55.3968 93.3461 54.1535 91.7825 53.2622C87.5347 55.6351 92.6321 59.6919 86.9655 62.1923C76.2101 62.1498 77.4165 63.196 75.522 53.3814C73.5935 56.6303 68.5131 52.0546 65.4462 52.4118C58.5902 50.8044 62.0479 41.9339 63.2542 37.2223C70.2971 37.5199 68.5979 35.6488 67.9013 30.2992C68.4312 29.651 69.0919 29.1221 69.84 28.7469C70.588 28.3717 71.4067 28.1587 72.2426 28.1219C72.2001 21.6498 64.0529 15.7217 57.8001 16.9124C55.107 16.0109 52.2525 11.8097 49.3045 14.1401C39.6451 20.7483 42.3212 5.9414 39.5856 1.38281C34.4883 3.08378 36.5697 7.28516 33.6387 10.7381C32.2879 10.9592 28.2016 10.1513 27.5135 11.9968C21.9913 17.1848 30.6057 27.9179 22.0847 30.2992C24.4804 24.652 18.1767 11.665 11.89 18.5029C11.7116 20.5526 12.85 23.4273 9.76607 22.6449C9.46088 25.8414 8.74708 28.9856 7.64217 32.0002C7.92252 41.8913 -0.122793 27.9264 5.0935 50.7108C8.72961 55.3885 -1.80492 52.4118 1.69526 57.5147C3.7427 63.4255 2.79119 66.4022 0.845703 71.9729C1.38942 78.7257 0.845703 88.8209 7.64217 92.3844C12.8415 97.7425 18.7544 91.4574 24.6333 92.3844C24.9817 90.2412 25.9077 89.4758 28.0316 89.833C32.6022 93.2349 32.3558 91.8231 35.6776 88.132C37.861 89.0931 38.6341 88.8975 39.0758 86.4311C39.3817 83.3098 38.2263 79.0064 39.9254 76.2253C33.8765 73.6738 40.588 70.6886 43.3236 68.5709C46.6029 66.1726 53.136 65.8749 56.9166 66.87C57.2649 70.476 57.9785 74.5243 61.1644 76.2253C56.9166 81.3282 60.7311 84.3729 66.2617 82.1787C79.243 81.6003 75.369 68.9707 81.5538 71.9729C81.8341 75.2982 85.4023 76.7611 88.3502 76.2253C88.3695 74.8109 88.7757 73.4286 89.5246 72.2291C90.2735 71.0296 91.3365 70.0586 92.598 69.4214C100.32 68.0521 94.4586 68.86 98.5789 62.9917Z" fill="white" stroke="black" stroke-miterlimit="10"/>
</svg>
