<svg width="77" height="79" viewBox="0 0 77 79" fill="none" xmlns="http://www.w3.org/2000/svg">
<path d="M75.6589 31.5926C73.3738 28.1341 73.5522 22.245 74.8095 18.4635C73.068 18.0641 68.8631 19.7211 69.7126 16.7639C67.3425 18.5315 61.9058 19.4237 62.9167 15.0644C66.4845 8.2662 64.4883 7.5267 58.6693 11.4611C60.1389 5.92063 51.9499 7.84981 48.4756 7.41643C46.921 7.22948 43.4551 7.04253 43.3787 4.86711C39.3012 4.28076 37.5427 10.1613 32.9725 6.22683C34.3572 9.6939 28.9375 7.82413 27.4339 8.29151C27.4339 5.59773 26.1172 -1.34492 22.1416 1.49332C12.8738 7.69667 15.6601 2.23263 6.85099 1.49332C-0.352608 2.07117 -0.276155 9.23476 4.30255 13.3901C8.54995 13.3901 9.00867 17.8005 9.39943 21.0381C10.2489 27.4114 12.3811 20.5877 16.1953 21.8879C17.7923 25.6014 22.6343 26.4852 25.5396 28.6861C25.8964 33.9037 30.0078 31.142 28.9375 37.1075C29.5916 38.807 27.4084 41.1692 26.3891 42.2824C27.1621 44.3304 27.0942 49.1316 27.6973 51.0266C23.3904 54.8591 29.3962 62.2011 23.8406 67.7756C27.4934 70.8858 33.6266 69.0758 37.4323 68.6254C35.0283 64.2831 39.0293 65.2263 41.6797 66.0761C43.7609 69.2287 46.2839 73.8855 49.325 76.2734C48.535 66.348 58.5079 91.6373 65.4652 66.9259C70.3242 66.0761 65.737 62.7705 71.4115 59.2779C70.2987 49.3016 71.6664 53.8988 74.8095 45.6815C69.1434 32.5695 76.2281 40.0734 75.6589 31.5926Z" fill="white" stroke="black" stroke-miterlimit="10"/>
</svg>
