<svg width="71" height="98" viewBox="0 0 71 98" fill="none" xmlns="http://www.w3.org/2000/svg">
<path d="M15.6537 62.3344L12.8018 68.2602V74.3046L18.2644 79.1805L24.0458 75.1851L29.4394 76.7257C29.9968 78.4582 30.6645 80.1546 31.4384 81.8049C32.0243 82.6515 35.6171 92.0143 35.6171 92.0143L37.1939 96.1962L39.477 92.0143L42.3721 89.1783H46.2235L53.2972 92.0143L58.1309 94.1476L67.4449 96.1962V81.8049L69.9349 77.5722V69.5131L66.4884 68.2519L63.9036 62.3261L68.0825 58.9399V55.5538L64.7652 50.4745L58.1309 53.3018H52.3323L51.8411 55.562C51.8411 55.562 45.9996 50.4828 45.9048 50.4828C45.81 50.4828 46.2235 47.6806 46.2235 47.6806L48.8083 43.5326L50.2385 39.8249H53.6334L52.7027 36.0915L51.8411 33.5518L55.2876 31.0122L58.1309 28.1423V18.1871L59.4061 14.9196L60.371 13.5481L61.3188 10.6951L61.6806 7.13121L61.3188 7.30895L59.4492 5.61586L56.1492 2.22968L52.7027 1.38313L50.2298 0.773438L46.6715 4.76931L42.3635 3.07622L39.477 5.61586H36.3323L33.6957 7.73222V13.5481L30.1546 14.9196V18.1871H26.6219L21.7969 20.5573V24.2399L13.1207 29.3191L11.3457 31.0122L8.76089 34.4575L6.17607 36.0915L5.31447 39.4777L2.72965 41.1708L1.23047 47.7993L4.76313 50.4828L8.76089 52.1758V55.562L7.70976 57.0517L14.0855 58.9482L15.6537 62.3344Z" fill="white" stroke="black" stroke-miterlimit="10"/>
</svg>
