<svg width="124" height="136" viewBox="0 0 124 136" fill="none" xmlns="http://www.w3.org/2000/svg">
<path d="M7.82529 84.7464L11.6443 79.3344H14.2017L16.9381 82.7598L20.5611 84.7464H25.224C25.224 84.7464 27.1676 87.8981 28.6339 88.4119C30.1001 88.9257 28.9067 94.7489 28.6339 96.5473C28.3611 98.3456 32.4102 97.532 32.4102 97.532L42.6398 99.9982C42.6398 99.9982 55.3502 97.3178 55.802 96.5728C56.4004 95.8713 57.0882 95.2523 57.8478 94.7317V87.8808L62.5364 90.0987L64.6676 85.3118L69.7823 87.0245L74.4026 92.7877L77.8125 94.7317L82.9273 96.5301L87.5902 106.721V111.859L93.0973 113.957V116.141L94.8023 124.601V134.981H97.0612L104.503 131.555L106.438 127.273L109.592 124.601L112.559 120.774V109.29L114.963 104.152L112.559 97.5149L116.378 94.7317L112.559 87.9666L119.131 84.7293V79.3173L112.559 74.1791L116.378 70.9423V62.9779L122.917 59.621L116.378 54.4829V11.4082L112.968 11.8105L107.291 14.234H100.693L95.1773 11.8105C95.1773 11.8105 90.7871 9.3615 90.0625 7.94851C89.3379 6.53552 86.2435 4.80574 86.2435 4.80574H83.2769L81.1628 6.61254H79.0402L77.77 1.38867H75.6472L70.9842 4.8141L66.3469 1.38867L62.2126 3.10139L62.9285 4.77145L66.3384 6.04721V14.234L63.8748 18.5158V33.0739L54.6596 31.0016L49.8772 28.8436L42.8785 25.9747H39.0936L36.2293 28.8436L34.746 31.6267L37.4994 38.2121V42.4939L34.942 45.0115L28.5997 45.1658V48.7794H19.6915L22.2489 51.9138L22.6666 54.4829L19.7001 58.191L15.4377 54.4829L13.3151 58.191L15.4377 66.4292L10.1098 68.1846L6.12889 70.9423L2.91508 76.0804L0.775391 76.8853L1.88364 82.0235L7.82529 84.7464Z" fill="white" stroke="black" stroke-miterlimit="10"/>
</svg>
