<svg width="48" height="28" viewBox="0 0 48 28" fill="none" xmlns="http://www.w3.org/2000/svg">
<path d="M45.6391 22.0931C46.8208 21.7192 47.4754 18.1838 45.6391 19.0252C46.4893 17.266 42.9442 17.1725 42.0771 16.7051C33.9072 18.5238 31.6797 9.57452 36.2705 4.19486C34.2812 4.97674 33.108 2.43575 32.3089 1.12695C29.5034 1.97682 25.5076 1.70463 22.5831 1.73863C19.4205 7.62821 12.747 8.83535 6.74494 9.51524C5.72476 10.7815 3.41241 13.6114 2.32422 14.8522C3.81197 14.2488 5.62272 16.348 6.50687 17.2234C9.14233 18.0733 15.493 18.7957 18.29 19.0252C23.9095 17.3255 24.8786 25.3651 29.6989 26.7504C33.4225 25.5266 40.9208 17.4952 43.3012 23.0193C44.0154 22.5665 44.8085 22.2524 45.6391 22.0931V22.0931Z" fill="white" stroke="black" stroke-miterlimit="10"/>
</svg>
