<svg width="87" height="69" viewBox="0 0 87 69" fill="none" xmlns="http://www.w3.org/2000/svg">
<path d="M80.6725 8.16061C74.9887 8.4071 72.0913 0.400407 65.8383 2.21084C60.146 4.21676 67.4951 11.3905 64.4536 15.8103C60.4095 13.9319 54.3433 12.147 50.0104 14.1104C48.787 12.2235 46.612 9.99654 44.0632 10.7105C42.7123 13.7534 38.9656 13.4303 39.8152 9.75845C38.8429 9.0943 38.0253 8.22814 37.4182 7.21892C36.8112 6.2097 36.4291 5.08129 36.298 3.91077C37.6828 -1.62252 31.3022 1.73479 28.5665 2.56776C29.2547 3.65572 30.8688 5.96769 30.8009 7.31064C28.7194 9.52906 24.2591 11.994 21.124 11.5605C22.22 14.7564 18.1929 16.4563 16.0264 17.5103C12.1948 18.1817 5.63585 15.6997 3.28246 19.482C-3.02156 21.9894 3.94515 24.123 6.68086 26.0099C4.22552 28.5598 -1.72167 29.6648 3.28246 33.0051C4.42093 29.8943 8.12518 32.4527 10.0793 33.0051C11.1497 36.0055 6.68086 39.4481 10.0793 41.301C7.91278 42.712 5.07512 43.6469 4.13206 46.4008C0.886597 48.4323 1.81266 48.1008 4.98166 48.1008C6.35801 48.1008 8.99177 48.2368 10.0793 47.2508C12.5516 50.7782 17.3263 51.8066 21.124 53.2006C20.1045 57.5609 22.9592 59.5838 27.0712 60.0003C29.3142 60.0003 32.5851 61.8703 34.7176 61.7003C36.2299 64.5646 37.6827 71.8999 39.8152 65.1001C39.093 53.1411 42.364 61.5388 51.7096 51.5006C53.4088 54.2715 57.7417 53.532 56.8072 49.9111C58.0306 49.2991 62.1681 49.7071 61.0552 47.1657C58.4214 45.8738 58.2345 42.066 58.5064 39.6011C59.6023 39.8306 61.7518 39.1506 62.7544 38.7511C65.3032 39.9581 68.4807 40.2386 69.5511 37.0512C73.4933 35.8272 71.9385 30.1495 74.6487 27.7016C75.9231 26.9961 79.5169 25.0493 80.7488 26.3158C87.8005 20.2045 86.8321 14.7394 80.6725 8.16061Z" fill="white" stroke="black" stroke-miterlimit="10"/>
</svg>
