<svg width="91" height="63" viewBox="0 0 91 63" fill="none" xmlns="http://www.w3.org/2000/svg">
<path d="M29.2198 51.0836V46.0936L33.5335 43.6455H40.6165V51.0836L47.1561 52.7837L51.0125 57.8841H69.035L72.0459 62.1345H83.5722L85.2977 60.4343L81.9158 57.8841L81.4845 52.7837L84.4868 51.0836L82.7613 46.0936L84.0468 38.3326L83.5636 34.0823L84.4781 30.9539L90.06 29.101V26.0066L87.0232 22.1813L80.984 17.2681V12.8306L73.6853 11.1728L68.5089 9.40503L65.4547 0.929688L60.6665 3.47989L57.6901 6.03009H55.5333L51.9787 3.47989H47.7945L46.1898 6.03009H42.0056L38.4597 3.47989H35.2589L33.3092 6.03009L29.1939 7.73022V15.6527L24.8802 17.914L20.4113 20.4642L18.4788 22.1643L19.7729 25.9896L20.5665 32.3651L18.4788 34.3629L15.416 36.6325V40.8828L11.9651 43.6455L5.35657 46.0936C5.33327 46.7695 5.39115 47.4459 5.52907 48.1084C5.92593 49.3835 2.07812 52.7837 2.07812 52.7837L8.51411 51.0836H11.1023L15.416 52.7837V55.0363L22.3179 52.7837L29.2198 51.0836Z" fill="white" stroke="black" stroke-miterlimit="10"/>
</svg>
