<svg width="116" height="90" viewBox="0 0 116 90" fill="none" xmlns="http://www.w3.org/2000/svg">
<path d="M28.949 79.5344L33.5716 76.0917H35.6759L36.9351 81.3419H39.0393L41.1354 79.526H44.0763C44.0763 79.526 47.1693 81.2473 47.8623 82.6846C48.5553 84.1219 52.9329 86.5661 52.9329 86.5661L58.4006 89.0018H64.9162L70.5614 86.5661L78.1673 85.7054L85.3168 81.402L87.852 76.1518L94.5453 73.5698L98.3567 70.1271L105.278 67.7001V59.4892H111.388L105.278 54.4542L107.222 47.7495L94.9933 43.6184L92.8044 37.3613L97.4693 34.7793L94.934 28.6255L100.41 20.1478H105.481L112.242 23.909V21.0084L115.267 15.3624L110.551 12.2294V9.81965L108.016 8.95897L106.326 6.37695L102.946 5.51627L102.1 3.79492C101.186 3.79869 100.295 3.4963 99.5651 2.93424C98.7943 2.25448 97.9425 1.67615 97.0299 1.21289C97.0299 1.21289 94.4946 2.93424 93.6495 2.93424C92.5137 3.04271 91.385 3.21789 90.2691 3.45914V6.37695C90.2691 8.0983 88.5789 9.81965 88.5789 9.81965H87.7338L85.1985 8.95897L83.5083 8.0983L77.5927 7.23762L76.7476 6.37695L75.0574 5.51627L68.2966 6.37695C67.8412 5.90903 67.2473 5.60661 66.6064 5.51627C65.7613 5.51627 65.7613 4.65559 64.9162 4.65559C63.7661 4.47378 62.6347 4.1857 61.5359 3.79492L59.8457 5.51627C59.462 6.63534 59.1791 7.78766 59.0006 8.95897C59.0006 9.81965 57.3104 10.6803 56.4653 10.6803C55.6202 10.6803 54.7751 14.123 54.7751 14.123H52.2398L50.0089 15.8444H48.961L45.4791 14.123L43.7889 13.2624C43.7272 12.6015 43.4259 11.9877 42.9438 11.541C42.0987 10.6803 42.0987 7.23762 42.0987 7.23762C42.0987 7.23762 38.7183 7.23769 36.183 7.30654C33.6477 7.3754 36.183 5.51627 36.183 5.51627L34.4928 4.65559L31.9575 3.79492L31.1124 3.67431V6.37695L28.5772 8.0983L26.887 9.81965L26.0419 10.6803L25.1968 11.541V13.2624L26.887 14.803V16.7051L26.0419 19.2871H25.1968L21.8164 17.5657L20.9713 16.7051L19.3234 15.8444L16.2556 17.385L15.9007 21.0084L14.971 23.909L14.0246 25.3034L12.7739 28.6255V38.7468L9.98507 41.6647L6.60469 44.2467L7.44978 46.8287L8.35409 50.6244H5.02426L3.62148 54.3941L1.08619 58.6113C1.08619 58.6113 0.680652 61.4602 0.773613 61.4602C0.866573 61.4602 6.59623 66.6243 6.59623 66.6243L7.07799 64.3347H12.7655L19.2727 61.4602L22.5264 66.6243V70.067L18.4276 73.5097L20.2444 77.813L24.3432 76.0917L28.949 79.5344Z" fill="white" stroke="black" stroke-miterlimit="10"/>
</svg>
