<svg width="57" height="92" viewBox="0 0 57 92" fill="none" xmlns="http://www.w3.org/2000/svg">
<path d="M20.1612 86.1271L23.657 91.2849H28.7083L32.1272 90.3409L34.8023 88.6553H39.8196L44.9479 86.9698L45.8026 86.1271L47.512 82.756C47.512 82.756 50.0762 79.3849 50.0762 78.5422C50.2567 77.3952 50.5428 76.2669 50.9309 75.1711L54.3498 74.3283C54.3498 74.3283 56.0592 73.4856 56.0592 72.6428C56.0592 71.8 53.495 69.2718 53.495 69.2718L49.2215 67.5862L46.6573 65.0579L45.8026 59.1586L47.512 52.9304V46.4327C47.512 45.4973 48.4095 41.4605 48.4095 41.4605H50.9309L53.495 38.9322L50.0762 37.2467L49.2215 33.0329L45.8026 31.1284V22.9197L43.2385 21.2342L42.3838 17.0203H33.9562L31.2725 11.9638L29.563 10.2782L28.7083 13.6493H26.9989L25.4432 11.2136V5.98004L21.0159 6.0644L19.3064 6.90717L17.597 6.0644H15.8876L14.8277 4.80025H13.1183L11.614 2.69334L9.90457 1.85058L8.19514 1.00781H4.43448L3.06685 4.37887C3.06685 4.37887 2.21214 11.121 2.21214 11.9638C2.30185 12.6028 2.60218 13.1951 3.06685 13.6493L3.92157 15.3348V17.8631L4.77628 21.2342L5.631 22.0769H12.4687L10.7593 23.7625L8.19514 26.2908L4.34893 28.3977L4.77628 30.5046L2.21214 33.8756L1.35742 37.2467L3.06685 38.0895L9.04986 37.2467V38.9322L12.4687 41.4605L15.0329 43.9888L17.597 44.8316L20.1612 43.9888L22.7253 44.8316L23.58 46.5171L21.0159 47.3599L17.597 46.5171L15.8876 47.3599L14.1782 49.0454H10.7593L9.90457 51.5737L8.19514 50.7309H6.48571L7.34043 54.102L8.19514 54.9448L9.04986 56.6303L9.90457 59.1586H11.614L13.3234 60.0013L14.1782 64.2152L15.0329 68.429L14.1782 70.1145L13.3234 71.8L12.4687 73.4856V76.0139C12.0506 76.807 11.7621 77.6603 11.614 78.5422C11.614 78.7657 11.7041 78.98 11.8644 79.138C12.0247 79.2961 12.242 79.3849 12.4687 79.3849L14.1782 80.2277V82.756L12.4687 84.4415C11.9842 85.1633 11.5419 85.9119 11.1439 86.6834L16.7423 86.1271H20.1612Z" fill="white" stroke="black" stroke-miterlimit="10"/>
</svg>
