<svg width="87" height="86" viewBox="0 0 87 86" fill="none" xmlns="http://www.w3.org/2000/svg">
<path d="M83.6345 29.2235L77.7002 27.5156V25.8077L72.919 21.7855H68.519L61.5929 24.0997H57.3541L56.1504 21.7855L54.8109 14.4755V9.96679L50.1312 3.60458H45.4856L44.0359 1.5293L42.0945 2.75062L36.1603 4.45855L32.7693 3.60458L31.9215 6.70437L30.3278 9.96679L25.9872 12.0162C25.9872 12.0162 23.7152 16.3288 23.5795 16.7985C23.4439 17.2682 25.9872 26.0295 25.9872 26.0295L22.5962 30.0775L19.2052 32.6394V34.7401L14.1187 36.0553L13.2709 39.8981L12.4231 44.5949V55.9783L11.5754 60.8202L9.03213 63.3821C9.03213 63.3821 3.09785 65.944 3.09785 66.798C3.09785 67.652 1.40234 69.3599 1.40234 70.2139C1.40234 71.0678 3.09785 74.4837 3.09785 74.4837L5.64111 76.1916H10.2953C10.7276 76.1916 14.4832 75.3376 14.7205 76.1916C14.9579 77.0456 16.416 81.8875 16.416 81.8875L18.1625 85.3033L20.9007 83.8773V80.4614H22.5962L24.2917 79.6075C25.0895 79.1897 25.9479 78.9015 26.835 78.7535C27.0598 78.7535 27.2754 78.6635 27.4344 78.5033C27.5933 78.3432 27.6827 78.126 27.6827 77.8995H30.226L31.9215 76.1916L31.0737 75.3376C30.9599 75.2269 30.8694 75.0941 30.8076 74.9474C30.7457 74.8006 30.7138 74.6431 30.7138 74.4837C30.7138 74.3243 30.7457 74.1667 30.8076 74.02C30.8694 73.8733 30.9599 73.7404 31.0737 73.6297V72.7757C31.0737 72.5493 31.1631 72.3321 31.3221 72.172C31.4811 72.0118 31.6967 71.9218 31.9215 71.9218L33.617 70.2139L34.4648 69.3599H36.1603L37.008 71.9218L38.7035 72.7757H47.1811L48.0288 71.0678C48.7151 70.3018 49.2863 69.4387 49.7243 68.5059C50.5721 66.798 49.7243 68.5059 49.7243 67.652C49.7243 66.798 51.4198 66.798 51.4198 65.944C51.5088 65.2965 51.8067 64.6963 52.2676 64.2361V63.3821L51.4198 61.6742L52.2676 59.9663L53.9631 58.2583C54.5167 57.521 54.8146 56.6209 54.8109 55.6964H55.6586L57.439 56.1489L59.6176 51.196L61.5759 49.3943H65.5349L67.5272 43.7409H72.707L74.8095 39.8981L77.7002 36.0553L85.5589 33.7752L83.6345 29.2235Z" fill="white" stroke="black" stroke-miterlimit="10"/>
</svg>
