<svg width="84" height="60" viewBox="0 0 84 60" fill="none" xmlns="http://www.w3.org/2000/svg">
<path d="M57.3408 57.443L55.611 51.4366C55.611 51.4366 56.4759 46.4608 55.611 45.5231C54.7461 44.5853 58.2058 39.6685 58.2058 39.6685L64.0959 36.2893L66.855 32.9101H82.5014C81.9709 31.4134 81.9709 29.7861 82.5014 28.2894C83.4442 26.2027 77.3119 23.2206 77.3119 23.2206C76.9368 23.147 76.5818 22.9966 76.2702 22.7796C75.9587 22.5627 75.6977 22.284 75.5042 21.9617C74.4945 19.9611 73.0122 18.2237 71.1796 16.8929C71.1796 16.8929 66.855 9.28977 66.855 6.75539C66.855 4.22101 59.9356 2.53143 59.9356 2.53143L53.6476 0.892578C53.7578 1.14718 53.8362 1.41374 53.8812 1.68663C53.7904 2.32724 53.4865 2.92092 53.0163 3.37622C53.0163 3.37622 47.8267 4.22101 46.9618 4.22101C46.0969 4.22101 43.5021 5.06581 42.6372 4.22101C41.3694 3.30224 39.8794 2.72012 38.3126 2.53143C37.4477 2.53143 38.3126 4.22101 38.3126 4.22101L36.5828 7.60018L38.3126 15.2033L36.5828 16.8929L33.1231 19.4273C33.1231 19.4273 31.3933 21.1169 31.3933 21.9617C31.3933 22.8065 28.7985 24.496 28.7985 24.496L27.0687 27.8752L24.4739 29.5648L22.7441 28.72L19.2844 29.5648L18.4195 31.2544L14.9598 35.4784L10.6352 38.0127L8.04045 40.5471L3.71585 42.2367L1.12109 43.0815L2.85093 44.7711V46.4607L1.98601 49.8398C1.98601 49.8398 3.71585 52.3742 4.58077 52.3742C5.48584 52.5206 6.36156 52.8057 7.17553 53.219L8.04045 55.7534L9.77029 56.5982C9.77029 56.5982 16.6896 58.2878 17.5546 57.443C18.4195 56.5982 23.609 56.5982 23.609 56.5982C23.609 56.5982 28.7985 55.7534 29.6634 55.7534H35.7179C36.5828 55.7534 44.3671 56.5982 44.3671 56.5982L46.9618 58.2878C46.9618 58.2878 46.7889 58.7945 46.5986 59.4197H55.4727L57.3408 57.443Z" fill="white" stroke="black" stroke-miterlimit="10"/>
</svg>
