<svg width="80" height="84" viewBox="0 0 80 84" fill="none" xmlns="http://www.w3.org/2000/svg">
<path d="M64.0694 52.0128L62.3678 47.7972L63.2186 46.1109L65.7114 44.374H69.7698L71.7267 40.8076L73.4284 37.6796V35.1502C73.4284 34.3071 75.4449 34.3071 75.4449 34.3071H77.6824L79.384 32.6209V28.4052L77.5549 26.9717H71.7267L69.3018 24.8726H64.9202L63.2186 21.6602L64.9202 19.4174V16.6014L62.5379 13.4735L62.3678 14.0721H60.1556L56.4121 15.2272L53.8597 17.4446L48.7548 18.2877L47.0532 16.6014L42.7991 15.7583L37.1413 16.9049L35.1418 12.3858L33.4402 9.0133L31.7386 6.48392V4.11468L33.4402 3.11141L34.291 0.582031H30.8878L28.3354 1.42516L27.4845 3.11141L25.7829 3.95454L24.9321 7.32705L23.2305 9.0133L18.9764 9.14833L15.5732 9.0133L12.1699 6.83797L11.3191 3.11141H9.61751L7.06507 5.64079H4.55522C4.55522 5.64079 3.66183 9.67929 3.66183 10.6152V17.1156L1.9602 23.3465L2.81102 29.2484L5.36345 31.7777L9.61751 33.464C9.61751 33.464 12.1699 35.9934 12.1699 36.8365C12.1699 37.6796 10.4683 38.5228 10.4683 38.5228L7.06507 39.3659C6.67877 40.4621 6.39399 41.591 6.21426 42.7384C6.21426 43.5815 3.66183 46.954 3.66183 46.954L1.9602 50.3265L1.73047 50.5542L5.36345 53.699H10.6895L14.7224 52.8559L20.6781 52.0128L23.5963 53.699L24.9321 59.6009V62.8215L27.4845 63.8166L30.3687 65.9244L31.7386 68.0322V73.31L32.5894 78.1497L36.8435 80.6791L37.6943 83.2085C37.9199 83.2085 38.1363 83.1196 38.2958 82.9615C38.4554 82.8034 38.5451 82.589 38.5451 82.3654V77.3066L39.3959 72.2478L40.2467 68.0322C40.7559 66.976 41.0453 65.8291 41.0975 64.6597L42.7991 62.9734H44.5008L46.2024 63.8166H49.6056C50.0642 63.3582 50.6621 63.0619 51.3073 62.9734C52.1581 62.9734 51.3073 62.1303 51.3073 62.1303L53.0089 60.4441C53.1192 60.3308 53.2514 60.2408 53.3975 60.1793C53.5437 60.1178 53.7009 60.0863 53.8597 60.0863C54.0185 60.0863 54.1757 60.1178 54.3219 60.1793C54.468 60.2408 54.6002 60.3308 54.7105 60.4441L57.2629 59.6009L59.8154 60.4441L60.6662 61.2872H64.9202L65.2775 61.1184L65.7711 56.2284L64.0694 52.0128Z" fill="white" stroke="black" stroke-miterlimit="10"/>
</svg>
