<svg width="66" height="79" viewBox="0 0 66 79" fill="none" xmlns="http://www.w3.org/2000/svg">
<path d="M16.4381 46.8997V52.2637L11.0048 56.2504L9.30424 60.1948L11.3534 64.5979L16.4551 68.4402L19.8563 73.2517L21.5569 75.8019H28.4697L32.6108 74.1018C32.6108 74.1018 32.6108 71.5516 34.3113 71.5516C36.0119 71.5516 43.3839 75.8019 43.3839 75.8019H45.2801L53.0178 74.1018L58.9699 77.5021L62.3711 74.9519C62.3711 74.9519 61.5208 70.6335 62.3711 69.3924C63.2214 68.1513 64.6328 63.85 64.6328 63.85L61.7759 60.0757L59.5565 57.1005C58.5607 57.9576 57.7007 58.9608 57.0057 60.0757C56.402 61.3508 51.6149 60.0757 51.6149 60.0757C51.6149 60.0757 49.183 55.4003 49.3871 53.7002C49.5911 52.0001 48.7493 48.5998 48.7493 47.7498C48.7493 46.8997 50.4499 45.1996 50.4499 45.1996L51.3002 42.6494C51.3002 42.6494 49.5996 40.9492 49.5996 40.0992C49.7793 38.9423 50.0639 37.8042 50.4499 36.6989C50.4499 36.6989 52.3377 38.399 52.2441 36.6989C52.1506 34.9988 51.9294 30.7484 51.9294 30.7484V25.8352C51.0281 25.2657 49.7442 24.4747 48.7493 23.9732C47.0487 23.1231 47.0487 20.5729 47.0487 20.5729L44.4979 16.3226L40.2464 14.5548V1.84616C40.2464 0.996094 38.5458 0.996094 38.5458 0.996094L34.2943 2.48371V6.09649L32.5937 12.047L26.6417 11.1969L21.5399 12.047L18.989 14.5972L15.5878 17.1474L10.6901 18.8475H7.08488L6.04754 16.7817L2.76531 19.1111L1.13281 22.2478L3.39452 26.9742C3.39452 26.9742 3.68362 31.5987 3.39452 32.2107C3.10542 32.8228 2.12759 37.549 2.12759 37.549L5.38429 40.0992L6.91486 42.6494H11.9571L16.4381 46.8997Z" fill="white" stroke="black" stroke-miterlimit="10"/>
</svg>
