<svg width="42" height="68" viewBox="0 0 42 68" fill="none" xmlns="http://www.w3.org/2000/svg">
<path d="M40.9685 14.69V12.3642H37.6103L32.5732 8.94382L24.9083 4.66839V6.82321H18.8385L15.0018 3.31735L13.2472 4.66839L7.37052 1.24805L3.17288 2.18864V7.66974L0.654297 10.654V14.4762L1.91359 19.2048L4.01241 21.7701L3.17288 24.8997L4.01241 27.6616L5.69147 30.3381V34.4681L9.04958 36.3066L10.4852 41.0779L11.5682 44.6778L13.2052 46.5676L12.3657 45.55L11.6101 46.5676L7.4125 47.4227V49.5689C7.4125 50.843 5.73344 55.1184 5.73344 55.1184L7.4125 57.6837L9.93109 60.4114V66.2346L11.6101 67.0896L12.4497 66.2346L11.5682 64.0284V58.5388L14.0868 56.8286L20.803 55.1184L22.482 55.9735L26.6797 58.5388L30.0378 57.6837L33.3959 59.3939L35.9145 60.249V56.8286L38.4331 53.4083L36.754 48.2778H33.3959L32.5564 42.2922V38.8718L30.8773 36.3066L30.0378 32.0311L29.1983 28.6108L28.3587 26.0455L28.0229 22.6252H31.7168L30.8773 18.3498L33.3959 17.4947L35.755 19.2048L37.6271 17.6657C37.6271 17.6657 37.6271 15.7845 37.6271 14.69C37.6271 13.5955 40.9685 14.69 40.9685 14.69Z" fill="white" stroke="black" stroke-miterlimit="10"/>
</svg>
