<svg width="109" height="75" viewBox="0 0 109 75" fill="none" xmlns="http://www.w3.org/2000/svg">
<path d="M106.795 50.5978L105.954 43.7787L96.8026 42.3977L95.5744 34.1298L91.6549 29.0154V24.1737L96.8026 21.4118V16.2974L98.3839 10.5355L102.026 6.01801V2.01162L102.085 1.94336L99.225 2.86401L94.0101 6.01801H89.9726V9.96447L88.2904 16.5022L84.9259 23.3213L81.5614 25.8785L79.8791 30.1404L75.6735 25.5459L73.9912 28.4357L70.6267 26.7309L66.2866 26.8162V30.1404H55.4107L51.2808 36.9595V40.1731H44.4257L41.7676 34.7691L36.9817 31.5809L35.2994 30.9928C35.2994 30.9928 36.1406 34.2747 35.2994 34.7691C34.2054 35.283 33.0819 35.7297 31.9349 36.1072L29.4116 36.9595L26.8882 36.1072L24.3648 40.3691H20.5797L19.318 38.6643V33.175L15.9535 31.8452L12.589 32.6976H8.38341L5.86004 34.4024L2.49553 36.1072V40.3691L1.13281 46.3358H1.65441L2.49553 48.0406V50.5978L3.33666 58.2693V61.6788L7.54229 62.5312L8.38341 64.236L9.22454 66.7931L11.7479 70.2027L15.9535 71.9075L18.4769 71.0551H22.6826L25.2059 68.4979H28.5704L31.0938 67.6455L35.2994 70.2027L36.9817 71.9075H42.0284L46.2341 72.7599L48.6564 74.4646H52.122L55.4865 73.6123L56.706 69.3503H60.6846L63.0566 68.4979L63.8977 67.6455L65.58 69.3503L67.2622 67.6455L68.1033 66.7931L68.9445 65.0884C68.9445 65.0884 71.4678 63.3836 71.4678 62.5312C71.4678 62.3051 71.5565 62.0884 71.7143 61.9285C71.872 61.7687 72.0859 61.6788 72.309 61.6788V57.4169L74.8323 58.2693L76.5146 59.1217L77.3557 58.2693L78.1969 57.4169H84.9259L85.767 58.2693C85.767 58.2693 87.4492 59.974 88.2904 59.974C89.1315 59.974 89.1315 61.6788 89.1315 61.6788L91.6549 63.3836L93.3371 64.236L95.0194 63.3836C95.0194 63.3836 97.5427 61.6788 98.3839 61.6788C99.225 61.6788 98.3839 60.8264 98.3839 60.8264C98.3839 60.8264 100.066 59.974 100.066 59.1217C100.066 58.2693 103.153 58.2693 103.153 58.2693H105.954V55.7121L107.636 54.8597H108.006L106.795 50.5978Z" fill="white" stroke="black" stroke-miterlimit="10"/>
</svg>
