<svg width="108" height="90" viewBox="0 0 108 90" fill="none" xmlns="http://www.w3.org/2000/svg">
<path fill-rule="evenodd" clip-rule="evenodd" d="M8.6506 13.3286C8.74686 13.1104 8.89889 12.8656 9.09055 12.7281C9.28222 12.5905 9.50651 12.5084 9.74002 12.4899C10.6938 12.6067 11.6199 12.8943 12.476 13.3396L13.6153 12.4899V9.53314L12.6839 8.24164L13.6153 6.99246C13.6153 6.99246 13.5986 7.45128 14.7046 6.99246C15.4182 6.67982 16.0716 6.23978 16.6339 5.69267L21.6234 3.99335C21.6234 3.99335 25.7813 5.69267 25.7813 6.54233C25.9254 7.43143 26.2061 8.29169 26.6129 9.0913L28.0765 6.59336L32.434 8.24164H34.405L38.1221 3.5092H41.5815L44.3257 2.29404H53.2237L56.3421 0.705078L61.5395 2.29404L63.2027 7.20488L66.529 9.94096L68.1922 16.7382L68.1995 16.7538L69.8384 16.5416L73.8749 19.5099H76.2021L80.5094 16.2321C80.5094 16.2321 80.5516 16.1484 80.6109 16.0063L84.2497 17.085L91.5609 27.9557L88.3961 33.8091L95.6737 36.3177V39.6625L99.1348 43.8435H105.431L100.734 46.3521L97.8147 48.8608H95.6991L92.2126 46.3521H88.1085L86.5344 48.8608H82.4304L78.9523 46.3521H75.8128L73.9004 48.8608L69.8639 50.5332V58.3432L65.6327 60.5676L61.2494 63.0762L59.3538 64.7486L60.6232 68.5115L61.4016 74.7831L59.396 76.8152L56.3497 78.9976V83.1786L52.9648 85.8963L46.4828 88.3044C46.4489 86.1387 46.652 83.1786 46.652 83.1786C46.652 83.1786 43.631 86.5234 41.5747 85.8963C39.5183 85.2691 41.5747 80.67 41.5747 80.67V77.3252L40.7485 78.1472L40.6396 78.6317L35.802 83.3315H27.4035C28.2783 83.3315 27.4035 77.0649 27.4035 77.0649L20.0199 73.4401L20.4048 72.3224L25.6538 74.0162L27.4035 72.3224C27.4035 72.3224 24.779 67.2413 24.779 66.3945C24.7783 66.1632 24.8682 65.9402 25.0306 65.7705C25.1929 65.6008 25.4155 65.4969 25.6538 65.4798V61.3134L23.0293 60.4665L20.4048 57.0791L18.9789 55.3432L19.3833 54.7552L18.9194 54.1872H14.6263C14.6263 54.1872 10.1614 53.7666 10.3332 52.7153C10.5049 51.664 9.30286 50.4024 9.30286 50.4024L5.0527 48.3585V44.9943L3.22371 39.3508L1.57521 38.0892V34.725L2.43384 28.9472H5.00972C5.00972 28.9472 4.93245 25.1709 5.00972 24.2709C5.087 23.371 1.57521 24.2709 1.57521 24.2709L1 22.328L5.86835 20.9654L7.5856 16.7601V14.1696C7.65993 13.8751 7.77543 13.5921 7.92897 13.3286H8.6506Z" fill="white" stroke="black" stroke-miterlimit="10"/>
</svg>
