<svg width="148" height="66" viewBox="0 0 148 66" fill="none" xmlns="http://www.w3.org/2000/svg">
<path d="M69.2598 57.6974C70.5924 57.4598 72.7822 57.6977 73.5037 59.0128C74.0384 58.4274 75.7021 57.8078 75.2522 56.7557C79.9715 58.2915 84.9793 52.7423 82.0425 48.4489C79.8526 44.8767 85.0727 48.4064 83.7401 38.8693C87.0418 35.7129 92.8135 35.1615 91.3791 29.0524C99.7311 28.2887 93.7048 26.4134 99.8669 22.1455C105.936 22.4 100.987 16.4266 104.96 15.3575C110.757 23.3079 116.316 17.9709 123.633 23.8425C127.147 24.8182 127.724 20.4061 128.726 17.903C132.537 16.3418 141.788 11.5987 144.004 17.0545C152.797 12.3114 135.94 4.32704 131.272 7.72103C128.861 7.37314 126.035 8.92589 123.633 8.56952C122.122 7.88224 120.289 6.53313 118.54 6.87253C114.593 3.21551 112.87 4.47128 107.506 4.32704C106.199 -1.35789 99.434 1.0179 95.623 2.63005C93.9254 2.55368 92.2279 5.82039 90.5303 6.87253C85.0557 10.4447 81.5163 12.0144 76.9498 6.02403C74.5562 4.87008 73.9366 5.31978 71.8571 6.02403C68.4262 3.42308 64.2771 1.94175 59.9742 1.78155C53.7271 1.10275 57.0798 6.79617 51.4864 8.56952C49.5426 10.1902 48.7957 8.23861 46.3937 8.56952C44.6961 9.25681 42.9985 10.5465 41.301 10.2665C41.3858 7.16102 34.1372 -0.0512032 33.6619 5.17554C31.6673 3.69067 29.5199 2.02761 26.8717 2.63005C26.7698 4.41189 17.5351 7.61072 14.9887 8.56952C13.9617 9.58772 14.1399 12.6509 14.1399 13.9406C12.5527 14.5769 9.1576 16.1466 8.19847 13.6605C7.45154 11.7174 5.90676 10.6568 3.95456 11.9635C3.95456 13.355 4.73544 16.5793 2.257 15.3575C1.12812 17.2751 0.109581 19.6 2.257 21.297C2.01934 23.6643 2.72383 26.6764 4.80335 28.085C9.53955 30.8935 13.5967 21.0424 14.1399 32.3274C14.9293 33.3881 15.7102 37.7663 15.8375 39.1154C18.0274 40.8124 19.5552 44.8937 19.2326 47.6004C25.0723 48.0925 23.5614 55.1775 26.8717 50.9944C28.6371 49.7047 29.766 48.0416 31.9644 47.6004C35.4529 46.2088 32.0238 40.6088 38.7546 41.6609C45.5873 43.8924 33.7638 52.8017 37.9058 57.7823C47.9639 59.683 41.4368 60.3872 48.0912 64.5703C49.6275 64.9946 50.7649 63.4673 50.6376 62.0248C51.6137 61.8127 54.4231 62.5085 54.8815 61.1763C57.3175 58.7327 62.6309 57.1375 64.2181 61.1763C65.2875 64.4685 67.9866 59.0295 69.2598 57.6974Z" fill="white" stroke="black" stroke-miterlimit="10"/>
</svg>
