<svg width="76" height="61" viewBox="0 0 76 61" fill="none" xmlns="http://www.w3.org/2000/svg">
<path d="M8.80137 33.0885L10.9261 40.0864L19.8074 44.6925L23.2495 48.2463L26.802 51.8084L24.9493 58.3515H26.802L29.1988 54.7475V51.8084L33.7458 50.1324L37.6977 48.2463L40.2473 49.9305L41.9471 54.141L40.5194 58.3515L45.3467 60.0357H48.1259L47.8964 56.6673V54.9831L50.446 51.6147L52.4772 49.72L54.6955 46.5621L52.4772 43.8504V41.8043V36.4569L54.6955 39.8002L57.8486 41.8043L59.9648 39.8002L62.081 36.4569H64.1887L69.2625 33.7958L73.1891 30.3686L72.2287 30.0149V24.5832L74.7615 17.0886L73.9116 13.0636L69.2625 16.2465H65.9821H62.9224L60.8147 10.3518V7.82552L59.6079 5.25728L56.3953 4.45712H50.446L48.7463 3.61502L46.0096 1.50977L44.4968 5.29922L41.3608 7.82552V13.0636L38.4031 16.2465L35.4455 13.0636L32.6409 10.3518H27.4139H25.2977L21.4987 16.2465H18.1161H15.575L12.2009 13.0636L8.80137 10.3518H6.27722L4.18652 11.8424V19.1433V22.0738H2.24023L10.9261 27.5137L8.80137 33.0885Z" fill="white" stroke="black" stroke-miterlimit="10"/>
</svg>
