<svg width="87" height="104" viewBox="0 0 87 104" fill="none" xmlns="http://www.w3.org/2000/svg">
<path d="M81.9967 23.1751V17.0141L83.7887 9.37627H80.0067V4.80193H77.2672L75.3375 1.73842V1L69.936 1.73842L66.9811 2.88418L62.2688 4.28437L59.3914 3.24055L55.4113 6.7031L50.2424 9.37627H48.1059L45.9608 12.7709L43.8157 14.7905L40.6455 12.7709L38.3883 9.37627V16.8272L40.6455 19.5601L38.3883 22.7425L36.3381 24.652L33.7536 28.0465V29.7438L33.9863 33.1384H31.1692L26.276 31.4411L27.7233 27.1979L26.0003 22.9547L23.4158 21.2574L19.41 23.1585L14.801 24.8558V27.8174L12.3715 31.4494H10.8467L9.77847 33.1467C9.32376 34.2407 8.98603 35.3784 8.7706 36.5413C8.62134 37.4294 8.3306 38.2886 7.90912 39.0873V41.6332C7.90912 42.3461 9.0808 42.4143 9.47708 42.4143H14.801L22.3131 44.9603L29.3859 46.5047V52.335L29.4462 53.5483L27.7233 56.0942H14.801L12.3715 61.8483L10.4936 66.2358C10.4936 66.2358 9.63209 67.9331 10.4936 68.7817C11.3551 69.6304 17.3854 71.5991 17.3854 71.5991L18.3159 75.401V80.4929L14.8269 82.0717L5.30742 80.4929H1V83.9724C1 83.9724 5.30742 88.3259 6.1689 89.1746L10.4763 93.4178L12.3543 99.1719L10.2696 102.38C10.4763 102.422 10.4763 102.753 10.4763 102.753H15.6452C16.5067 102.753 15.6452 101.904 15.6452 101.904L16.5067 101.056L17.3682 100.207H19.0912L19.9526 99.3584L20.8141 97.6611H23.3986L25.983 96.8124L29.429 97.6611L32.8749 96.8124C32.8749 96.8124 34.5979 96.8124 34.5979 95.9638V95.1151C34.5979 95.1151 34.5979 92.5692 33.7364 91.7205C32.8749 90.8719 34.5979 90.0232 34.5979 89.1746V88.3259L36.3208 87.4773L37.1823 86.6286H38.3713L39.7668 80.6881V76.4448L43.2127 74.7475L45.7972 73.0502H50.1046L53.5505 72.2016L56.9965 73.5255V78.9655L58.2887 80.6628H62.1654L64.7498 76.4195L67.3343 77.2682L69.9187 76.4195C71.0934 76.0438 72.2441 75.599 73.3647 75.0873C73.4735 74.998 73.5613 74.8864 73.6223 74.7604C73.6833 74.6344 73.7158 74.4967 73.7178 74.3572L69.936 62.8412L72.5204 58.5979L78.5508 53.506L75.1049 48.9147L80.0067 46.4624V42.4056H84.1505L86.3042 37.5176V28.8952L81.9967 23.1751Z" fill="white" stroke="black" stroke-miterlimit="10"/>
</svg>
