<svg width="56" height="89" viewBox="0 0 56 89" fill="none" xmlns="http://www.w3.org/2000/svg">
<path d="M10.1332 22.4689C10.1332 22.4689 7.05806 25.8846 7.48048 27.5924C7.70567 29.2926 7.70567 31.0156 7.48048 32.7158L7.4382 35.2776L2.56348 36.9854V42.0405L1.30469 45.9515L5.52886 53.7476L7.50585 56.4803L13.8421 53.7476L17.2976 56.4803C17.2976 56.4803 20.6008 57.1634 19.7559 58.1881C18.9111 59.2128 21.7496 65.0194 21.7496 65.0194L24.4448 68.0164V70.8688L28.669 72.6617L33.2818 72.8923L35.8163 75.454V80.7313L34.1266 84.847H45.0502L49.3421 87.9554V80.2702C49.3421 80.2702 46.6639 77.1276 46.309 75.4198C46.1213 73.8972 46.1213 72.3572 46.309 70.8346L50.3051 72.201L54.8589 67.547C53.8113 66.3686 51.0232 63.0725 50.981 61.3732C50.9219 59.2726 49.3421 56.4886 49.3421 56.4886L50.3051 53.7564L52.6115 50.5371L49.3421 45.9598L50.7698 42.0493H49.2998L43.3859 38.7016L40.8514 36.9937L42.5411 32.7242H45.0756V28.4546L44.2308 26.7468V24.1851L43.3859 21.6233L40.8514 22.0845L39.1618 20.7694V16.5599L41.6963 13.0842L41.6455 9.06231H39.1618V1.97501L35.7824 1.12109H31.1612L31.5752 4.53674L28.6521 7.20939L26.4893 11.368L28.6352 15.279C28.6352 15.279 26.4893 16.6111 26.4893 16.9869C26.4893 17.3626 21.7245 17.4138 21.7245 17.4138L17.1961 17.3454V15.6376L14.1715 19.7362L10.1332 22.4689Z" fill="white" stroke="black" stroke-miterlimit="10"/>
</svg>
