<svg width="88" height="85" viewBox="0 0 88 85" fill="none" xmlns="http://www.w3.org/2000/svg">
<path d="M85.1489 68.9878L82.573 64.0565L80.8557 61.2423L82.573 59.5211V47.6189L81.7144 47.4727L79.1385 46.612C78.7184 45.8021 78.4286 44.9308 78.2799 44.0302C78.2799 43.1696 77.4213 42.3089 76.5626 41.7237C75.704 41.1385 76.5626 38.8666 76.5626 38.8666L74.8454 37.1454L72.2695 36.2848C72.2695 36.2848 71.4109 33.7031 70.5523 32.9457C69.6937 32.1884 70.5523 31.1212 70.5523 30.2606C70.3506 28.8106 70.0639 27.3737 69.6937 25.9575L68.835 24.2363L67.1178 21.6545C66.0014 21.2638 64.8518 20.9757 63.6833 20.7939C62.7848 20.6448 61.9155 20.3544 61.1074 19.9333L57.673 18.2121L52.5212 17.3515H45.6522L40.5005 16.4909C39.0379 15.9997 37.6045 15.425 36.2074 14.7697C34.4902 13.9091 36.2074 14.7697 35.3488 14.7697C34.0565 14.5578 32.8588 13.9576 31.9143 13.0485C31.7968 12.9382 31.7031 12.8049 31.6391 12.6568C31.575 12.5088 31.542 12.3492 31.542 12.1879C31.542 12.0265 31.575 11.8669 31.6391 11.7189C31.7031 11.5709 31.7968 11.4375 31.9143 11.3273H26.7626L24.1867 10.2599V7.88484H19.8936C19.6659 7.88484 19.4475 7.7941 19.2865 7.63271C19.1255 7.47131 19.035 7.25248 19.035 7.02423C17.7261 5.72957 16.5733 4.28534 15.6005 2.72121L11.3074 1L8.7315 2.72121L7.87288 4.44242L7.01426 7.02423L4.43839 8.11722L2.72115 9.60605L1.00391 11.3273L4.43839 14.7697L2.21449 15.8799L3.57977 17.3515L6.15564 22.0331L8.7315 30.3467V37.4122L6.86836 45.1144L7.80412 49.9339L14.7419 51.7757V58.9185L19.8936 63.8241H28.3339L31.9143 62.1029V65.3386L37.066 67.2666C37.066 67.2666 41.3591 70.2272 41.7884 72.1894C42.0546 73.4287 42.8446 76.2859 43.3856 78.2136L46.5109 77.8518V75.8726L47.3695 75.012H49.9454L51.6626 73.2908L52.5212 70.709L57.4841 69.8484V72.1978C57.4841 72.1978 61.1074 75.0206 62.8247 76.2685C64.5419 77.5163 62.8247 80.184 62.8247 80.184L67.1178 83.6265L71.4109 80.184L74.8454 76.7416L78.2799 75.0204L80.8557 72.1978H86.3081L85.1489 68.9878Z" fill="white" stroke="black" stroke-miterlimit="10"/>
</svg>
