<svg width="45" height="48" viewBox="0 0 45 48" fill="none" xmlns="http://www.w3.org/2000/svg">
<path d="M3.28208 28.9118C6.59325 28.8607 5.4131 33.6015 5.59988 35.5847C3.31602 36.8614 1.29536 40.0957 1.35479 42.7683C9.88741 49.5775 9.64969 47.9433 15.7881 40.2149C17.7502 39.2389 19.8854 38.6611 22.0709 38.5151C24.2565 38.369 26.4493 38.6575 28.5233 39.3637C30.527 38.6743 33.8212 38.2828 35.3155 40.2149C36.4701 37.3806 41.1312 37.3041 43.5254 36.3423C41.4453 34.0272 40.3841 29.5329 37.0135 28.2988C34.9759 24.358 29.7799 17.8552 33.6174 13.8292C32.7684 8.04139 28.0649 4.09206 23.4292 1.06196C20.7124 -1.07443 18.2078 12.9781 18.3351 15.5315C14.8881 16.255 11.2883 18.4254 8.14693 17.2338C2.65379 21.3619 1.21048 20.8088 3.28208 28.9118Z" fill="white" stroke="black" stroke-miterlimit="10"/>
</svg>
