<svg width="73" height="84" viewBox="0 0 73 84" fill="none" xmlns="http://www.w3.org/2000/svg">
<path d="M35.1064 78.6445L36.8758 78.2582L36.0292 79.9741L35.1064 83.4058H37.7223L39.4153 82.5478L41.2101 78.2582H49.5737L50.4202 74.8265L50.6827 73.1107H59.732L67.7316 72.107L71.524 71.9868L72.4299 67.783V59.3668L66.6989 58.1398C66.6989 58.1398 66.5042 56.7932 66.6989 56.9648C66.8936 57.1364 65.6746 52.5034 65.6746 52.5034L62.7118 53.3613H60.5785L58.0389 51.6455L56.3459 50.7876L52.9598 48.2138L52.1132 46.498L49.5737 43.9242L48.7271 44.7821L46.1876 46.498L44.4945 45.5542V40.4925L45.341 37.3784V35.345L46.1876 32.7712L49.5737 29.9746L52.1132 27.6237L51.2667 25.0499L49.5737 20.7603L53.8063 19.0445L52.9598 17.3286V14.7549L59.732 12.1811L56.3459 7.03358L53.8063 4.45981H50.4202C50.4202 4.45981 46.1876 3.60189 45.341 2.74397C44.7927 2.16347 44.3357 1.50078 43.9865 0.779297H40.2619V15.6128C39.0852 16.2919 38.1157 17.2863 37.4598 18.4869C36.3593 20.4944 35.7668 18.4869 35.7668 18.4869H34.3362L33.0749 20.6229H34.3362V22.4762H29.257L27.7756 24.192L26.7174 26.7658V29.3395L24.1779 28.4816L19.9452 27.6237L17.4057 25.7361V27.6237L13.173 28.7304V27.6237L8.9404 26.7658L5.5543 28.4816L3.01472 30.4375V36.2029L1.2793 37.3784L2.16819 39.6346V49.9296L8.09387 59.2038L12.7837 56.9648L15.9412 59.2038L21.0203 67.783L27.9703 72.0726L30.1036 77.3831L29.8241 77.6747L32.6431 79.099L35.1064 78.6445Z" fill="white" stroke="black" stroke-miterlimit="10"/>
</svg>
