<svg width="103" height="110" viewBox="0 0 103 110" fill="none" xmlns="http://www.w3.org/2000/svg">
<path d="M5.5332 29.331C5.27809 36.0206 4.46174 45.0052 13.1865 36.9811C16.656 39.4886 22.6851 39.8031 26.7923 39.5311C27.9318 44.3337 33.7058 43.9682 34.4456 48.0313C35.3177 52.9918 36.7439 57.8389 38.6974 62.4815C38.6974 64.6406 36.2059 66.1026 34.4456 66.7316C33.1105 69.8341 30.8571 76.3283 32.7449 79.4818C31.6574 80.7886 30.1583 81.6876 28.4931 82.0319C29.3434 85.6954 27.158 85.6529 24.2412 85.4319C21.6901 85.5339 21.418 87.5824 21.6901 89.682C21.3484 91.7033 21.6586 93.7811 22.5758 95.6147C23.493 97.4482 24.9696 98.9426 26.7923 99.8822C30.8486 105.101 31.4013 97.6041 35.296 97.3321C36.7076 98.9556 40.1091 99.2956 42.0989 99.0321C44.3609 100.919 48.8253 105.586 48.9018 108.382C60.7559 104.812 57.7201 98.0971 59.9566 87.982C71.7426 77.0848 62.142 108.323 80.3654 96.4821C79.0303 101.506 84.8893 101.582 87.1683 98.1821C89.4558 98.6921 91.6327 98.7686 93.9712 97.3321C100.077 97.4256 97.0921 84.9474 101.931 81.1818C96.7605 75.9798 97.7978 68.9161 99.0734 62.4815C90.2381 55.8599 83.2651 42.9907 74.4128 36.1311C69.7188 32.442 61.3172 17.9493 56.5551 16.5807C56.283 14.2262 55.2286 10.4266 53.1537 8.93061C53.561 7.26898 53.3269 5.5148 52.4978 4.01812C51.6688 2.52144 50.3058 1.39225 48.6807 0.855469C45.2793 3.58402 36.8862 -0.164548 35.296 4.68053C28.0594 4.13652 18.9094 10.6306 12.4806 6.57605C11.8343 14.4982 6.4856 11.5146 1.69804 14.9911C2.43786 19.8277 -0.844545 28.4214 5.5332 29.331Z" fill="white" stroke="black" stroke-miterlimit="10"/>
</svg>
