<svg width="47" height="88" viewBox="0 0 47 88" fill="none" xmlns="http://www.w3.org/2000/svg">
<path d="M40.6376 75.674L39.0399 71.2649L40.6376 68.4592L44.8868 65.0479L45.7367 61.8669V53.8248L44.139 51.6501L41.5894 48.2389L40.6376 45.5525L41.5894 42.2692L45.7622 41.4163V37.681L39.2099 15.8318L36.8558 12.8896L34.1363 3.89241L27.8814 0.822266L27.1421 2.18677L26.2922 3.03959L23.7427 2.18677C23.7427 2.18677 21.8645 2.18677 21.958 3.03959C21.8395 4.20321 21.5827 5.34844 21.1931 6.45086L18.6436 8.15649L17.7938 9.00931L14.3944 8.15649H10.1452L9.4313 7.16722L5.89594 9.86212L3.34641 11.5678L0.796875 14.1262V15.4054L6.74579 17.5034L2.49656 25.1787L9.4313 26.8843L8.58146 34.2783L6.6608 38.0051L8.36049 41.4163L8.46247 43.122L6.76278 46.5332L5.06309 48.2389H4.21325V51.6501L8.13953 55.0614L9.4313 57.4322L7.59563 60.1783L4.19625 63.5896L3.28692 64.6471L4.19625 66.3527L6.74579 67.8707V72.9876L5.89594 78.1045L6.74579 80.663H13.2046L17.1564 83.8781L18.6436 81.5158C18.6473 80.5926 18.3488 79.6937 17.7938 78.9573C16.9439 78.1045 17.1224 75.9042 17.1224 75.9042L20.3433 74.6932V70.4292C20.4905 69.5368 20.7774 68.6733 21.1931 67.8707L22.043 66.1651L22.8928 63.6066L22.043 61.901C22.0871 60.717 22.3765 59.5552 22.8928 58.4897C23.7427 56.7841 22.8928 58.4897 22.8928 56.7841V55.0785C22.8928 53.3728 22.8928 53.3728 22.043 52.52C21.9289 52.4094 21.8381 52.277 21.7761 52.1304C21.7141 51.9839 21.6822 51.8264 21.6822 51.6672C21.6822 51.508 21.7141 51.3505 21.7761 51.204C21.8381 51.0574 21.9289 50.9249 22.043 50.8144C21.5344 49.7461 21.2453 48.5859 21.1931 47.4031C21.1491 46.4738 21.4521 45.5615 22.043 44.8447C22.043 44.8447 22.8928 43.139 23.7427 43.139C24.5925 43.139 23.7427 40.5806 23.7427 40.5806L26.2922 39.7278L27.1421 42.2862L26.2922 43.9918C25.4424 45.6975 26.2922 45.6975 26.2922 45.6975V48.2559L27.1421 50.8144C27.6025 52.1943 27.888 53.627 27.9919 55.0785L28.8417 58.4897C28.8858 59.6737 29.1753 60.8355 29.6916 61.901C30.5414 63.6066 29.6916 61.901 28.8417 62.7538C28.3569 63.1965 28.0539 63.8046 27.9919 64.4594V72.9876C27.9919 75.5461 27.9919 74.6932 28.8417 76.3989C29.6916 78.1045 27.1421 78.1045 27.1421 78.1045V79.8101H29.6916C30.5414 79.8101 31.3913 81.5158 31.3913 81.5158V84.927L33.9408 85.7799H35.6405L39.0399 86.6327L39.1759 86.7094L40.6376 80.5692V75.674Z" fill="white" stroke="black" stroke-miterlimit="10"/>
</svg>
