<svg width="73" height="125" viewBox="0 0 73 125" fill="none" xmlns="http://www.w3.org/2000/svg">
<path d="M10.0754 71.9291C14.4156 75.1826 16.021 81.5792 19.5203 85.5208C19.4354 87.5001 19.4778 91.8154 20.531 93.5908C23.5037 96.7679 30.1456 105.569 34.3159 99.9619C37.7133 99.5882 36.745 103.36 36.864 105.399C42.4697 108.635 43.5569 115.813 43.3191 121.878C45.8671 124.112 49.4938 125.081 52.3901 122.898C53.749 120.137 59.5247 121.496 61.1554 119.5C61.2998 118.345 61.7585 114.072 62.8541 113.554C61.045 104.592 58.7942 112.296 56.9087 103.36C60.3061 101.228 59.1595 95.5616 58.6074 92.3166C59.7115 90.3034 61.8434 86.2174 61.1554 83.8218C59.3293 82.2588 58.463 83.8218 57.758 85.5208C52.8913 82.6495 54.6664 84.1701 50.9632 86.3703C49.2645 82.9723 51.3285 79.5744 54.3606 77.8755C57.6136 75.2081 56.9766 70.6379 54.3606 67.6817C53.4264 65.8468 54.8702 56.7149 54.3606 54.09C68.3239 48.1437 55.0571 46.3088 71.3476 43.8963C71.6364 42.1973 70.7616 37.9499 70.4983 36.2509C72.1205 34.8663 72.4518 31.4259 72.197 29.4551C66.345 24.732 71.8827 21.5549 62.0048 22.6593C49.4939 17.2651 67.3047 10.7156 42.4697 12.4655C40.5502 9.53479 38.0532 5.55939 38.274 1.80469C34.7747 4.75238 30.0522 8.13315 31.4282 13.315C24.2342 16.7129 25.2363 23.6616 22.6118 30.3046C20.9641 33.7874 18.8324 31.9526 16.5901 30.3046C15.6086 31.8844 14.2958 33.232 12.7425 34.2546C13.3286 37.6525 10.9419 43.9302 11.0438 47.2942C0.995995 40.184 2.68609 58.6094 2.64362 64.2415C-1.78149 72.1162 3.22118 71.9291 10.0754 71.9291Z" fill="white" stroke="black" stroke-miterlimit="10"/>
</svg>
