<svg width="88" height="100" viewBox="0 0 88 100" fill="none" xmlns="http://www.w3.org/2000/svg">
<path d="M1.80469 35.0657L4.73696 37.4358L6.83145 38.4277L9.34483 40.9493V44.4878L10.6686 46.2107L12.696 47.6734L16.0472 46.8328L16.885 45.9923H20.2361L21.9117 49.3544L22.7495 50.1949L26.1007 51.0354L26.9385 52.7164L27.7763 55.2379L31.1275 57.7595L35.4252 61.1215L36.1542 62.8025L41.3653 61.1215L43.6944 64.4836C43.6944 64.4836 43.6944 69.5266 42.8566 70.3671C42.0693 71.4037 41.4109 72.5327 40.896 73.7292L39.5054 76.6291C39.4862 77.4202 39.1896 78.179 38.6676 78.7722C37.9034 79.4361 37.0589 80.0009 36.1542 80.4533L34.4786 82.1343V83.8153H38.3911L42.0188 84.6558C42.0188 84.6558 42.8566 84.6558 42.8566 86.3368V94.7419L43.6944 95.5824H46.3585L49.5589 94.9521L51.2345 97.2466L52.9101 98.0871L57.9368 98.9277L58.7746 98.0871C58.2732 97.0343 57.9883 95.8908 57.9368 94.7251C57.9454 93.697 58.2352 92.6911 58.7746 91.817L59.6124 89.682L61.288 88.001L62.1258 86.32L63.8014 82.1175V76.3012L66.3148 74.5529V73.7123L67.9904 68.6693L71.3415 66.9883L73.0171 64.4667L75.5892 63.206H77.4575V59.5246L79.7195 57.7427L82.2328 58.5832C82.2328 58.5832 83.0706 59.4237 83.0706 58.5832C83.0706 57.7427 83.0706 57.7427 83.9084 56.9021C84.3433 56.4226 84.9407 56.1229 85.584 56.0616L86.4218 54.3806L84.7462 53.5401L83.9084 52.6996L83.0706 50.1781C83.0095 49.5327 82.7108 48.9333 82.2328 48.497C81.3951 47.6565 80.5573 45.135 80.5573 45.135C80.1018 44.682 79.8074 44.0913 79.7195 43.454V40.0919L78.0439 39.2514L77.2061 37.5704V35.8894L76.3683 33.3679V28.3248L78.0439 25.8033L81.3951 23.2817L85.0645 22.021L87.1089 19.4994L83.0706 17.415L81.3951 18.2555L78.8817 19.9365L74.2319 19.096H71.3415L68.6019 18.2555H66.3148V14.0529L62.1258 14.8935L59.6124 12.3719L58.7746 13.6577H53.7479V10.6909L52.9101 8.16937L51.2345 4.80733L48.185 5.64784H47.0455L44.5321 3.96682V1.44529L44.3814 1L40.3432 1.44529L38.6676 3.48788V5.64784L37.8298 8.16937L36.0454 9.85039H33.6408L31.9652 11.5314L30.2897 14.0529H29.4519L26.9385 13.2124C26.15 13.6237 25.3018 13.9073 24.4251 14.0529C23.5873 14.0529 21.7526 16.5745 21.7526 16.5745L18.5606 18.2555L17.7228 16.5745C17.7228 16.5745 15.2094 17.4148 15.2094 17.0534V18.2555L14.3716 20.777L13.5338 22.458L12.453 23.2986L11.8582 25.8201L10.1826 28.3416L7.45141 30.0226H6.23665L4.31807 33.3847L1.80469 35.0657Z" fill="white" stroke="black" stroke-miterlimit="10"/>
</svg>
