<svg width="60" height="86" viewBox="0 0 60 86" fill="none" xmlns="http://www.w3.org/2000/svg">
<path d="M44.5461 1.3503L42.5704 1.46932L41.9691 3.04888V4.02548C41.9691 3.89809 41.5397 5.36743 41.5397 5.36743V6.21672L43.0429 7.066H44.5461V7.77928H43.0429V9.19794L43.3692 10.8965L43.0429 11.6691H39.2807L38.5333 12.3488L37.6743 14.0473L36.8153 16.5952V18.871H29.3509L27.3666 20.0347L25.6486 20.884H23.9307V22.8799L24.7897 25.6484L27.3666 27.6783L29.0845 29.3769L29.9435 31.0754L31.5755 33.3347V34.5236L29.0845 35.3219L27.3666 33.6233L24.7897 32.774V31.9247L21.5771 31.5001L21.3538 33.6233H19.6358L17.9179 32.774L15.0918 31.5001L14.482 30.2262L12.764 28.5276L10.1871 29.3769V30.2262L9.4827 31.5001L5.89225 35.3219L4.1743 37.0205L2.45635 38.719L1.59738 40.4176L0.910156 44.6641L1.59738 48.0612L4.60379 49.5728H6.51928L6.75122 53.157L7.61019 55.7048L9.32814 56.5541L10.1871 54.8556L11.0461 52.3077V50.6091H19.6358V48.0612L20.4948 45.5134H21.3538L23.9307 46.3627L24.7897 48.0612V49.7598C24.7897 49.7598 26.5076 49.7598 26.5076 50.6091V51.4584L25.6486 53.157L23.9307 54.0063V60.8006H20.615L19.6358 62.4992L21.3538 65.8963H24.6265L25.6486 67.5949V68.4442L20.4948 69.2935L21.3538 72.6906L22.7282 74.9159H27.3666V76.9371L23.9307 77.7864L22.7282 79.8246V81.5659L25.6486 82.8821L26.5076 84.5807H28.6293L29.9435 83.7314L30.8025 81.2515L33.3794 81.1835L35.0974 79.9859L34.2384 77.7864L32.5204 76.9371L34.2384 76.0878H37.6743L38.5333 74.3892L37.6743 71.8413L35.0974 68.4442V66.5416L35.9563 64.223H40.2512L41.9691 62.5245L41.1102 59.1273V56.5794H43.6871L50.8424 57.0381V58.9407L52.2768 61.6499H56.5717L54.8538 58.2527L53.1358 54.8556L52.2768 53.157L53.9948 51.4584V50.6091C53.5318 50.1474 52.9282 49.849 52.2768 49.7598H47.123L47.982 47.2119L50.8424 46.3627L53.1358 48.0612H54.8538V47.2119L53.9948 45.5134L53.6255 42.9655H55.8673L57.4307 39.5683V37.5301L58.2896 35.3219L55.7127 37.0205L53.9948 36.1712L53.1358 37.8698L52.2768 39.5683L50.8424 40.5366L48.8409 39.5683L47.123 37.8698L47.982 36.1712L50.8424 34.048V32.621L52.8265 31.5001L52.6633 29.9968L50.8424 28.6549V23.7462L53.1358 23.4318L51.4179 20.884L52.2768 18.3361L55.7127 17.4868L53.9948 15.7882H52.2768L50.8424 17.4105L47.982 16.6375L46.264 14.0896L47.3721 10.9388L48.8409 8.14462L49.6999 7.29533L52.2768 4.74746L50.8424 1.46932L48.9783 0.806641L44.5461 1.3503Z" fill="white" stroke="black" stroke-miterlimit="10"/>
</svg>
