<svg width="69" height="73" viewBox="0 0 69 73" fill="none" xmlns="http://www.w3.org/2000/svg">
<path d="M59.1035 38.6625V32.1906L59.0356 24.5784V16.6147L56.923 10.7597H51.4676L46.377 6.47349L42.1349 8.18796L38.7412 7.66517L36.6371 10.7597H32.8361L29.7902 16.6147L27.3468 19.332L24.3942 16.6147L20.8901 13.0656V10.7597L17.4964 6.47349V3.04455L14.1027 1.33008L12.4058 5.61626L11.7355 8.18796L9.8605 10.7597V13.9144L7.51882 16.6147V19.332L3.27666 21.4324V21.4835L2.32653 24.5784L1.41016 28.7616L2.25859 31.3333L3.27666 34.5735C3.65846 34.6678 3.95545 34.7623 3.95545 34.7623H5.65231L7.34918 38.1912L9.04604 39.0485V39.9057C9.04604 40.133 8.95659 40.351 8.79748 40.5118C8.63837 40.6725 8.42263 40.7629 8.19761 40.7629V44.1919L9.89447 45.0491V55.3359L12.4398 56.1932L13.2882 58.7649V62.1938C13.9397 62.2563 14.5447 62.562 14.9851 63.0511C15.4254 63.5401 16.0305 63.8458 16.6819 63.9083L19.2272 65.6228C19.2272 65.6228 20.9241 64.7655 20.9241 63.9083C20.9241 63.0511 23.4694 61.3366 23.4694 61.3366H26.0147V63.9083C26.1617 64.8053 26.448 65.6733 26.8631 66.48L27.7115 67.3372C28.1728 67.7992 28.4709 68.4017 28.56 69.0517V71.6234H31.9537L32.8021 70.7662C33.6506 69.9089 32.8021 71.6234 32.8021 71.6234L35.3474 72.4806H36.1959L37.8927 71.6234L41.2864 72.4806H42.9833L45.5286 70.7662L46.377 68.1945V61.3366L45.5286 58.7649H48.0739L49.7708 59.6221C50.5692 60.0415 51.4282 60.3308 52.3161 60.4793C53.1645 60.4793 54.8614 62.1938 54.8614 62.1938L57.4066 61.3366L59.1035 64.7655L61.6488 68.1945L62.4972 65.6228V62.1938H65.0425L67.5878 60.4793L65.891 58.7649V57.9076L63.3457 57.0504V53.6215L64.1941 51.907H66.0436L63.3457 45.9063L59.1035 38.6625Z" fill="white" stroke="black" stroke-miterlimit="10"/>
</svg>
