<svg width="90" height="113" viewBox="0 0 90 113" fill="none" xmlns="http://www.w3.org/2000/svg">
<path d="M41.7505 98.8492L40.3168 96.4562L36.9432 90.9652V86.968C36.9432 86.968 37.4914 83.5734 40.3168 83.3952L45.9675 86.968L45.7988 83.3952L48.329 78.7276H53.558L57.1509 77.0813L61.3678 74.077V64.0543L63.4679 59.811H66.2089L70.4259 54.7191L73.0656 52.1731L78.9694 57.1971H86.9649V46.886L85.2781 48.1167C85.2781 48.1167 83.9709 44.5352 84.0215 42.8379C84.0721 41.1406 83.9708 38.5946 83.9708 38.5946L86.9816 36.473L89.0565 34.7757L86.9816 28.9113V25.5167H83.608L81.0778 19.0585H76.4814L75.2163 10.572L64.5812 8.026V3.78272C64.5812 2.08541 57.5979 1.23675 57.5979 1.23675L54.2834 0.888672L53.558 4.64837L49.1808 6.34568L44.306 4.64837L33.8058 7.35553L33.5527 8.04299L37.0105 12.3455V19.0755L32.2876 16.3854H22.226L21.5935 19.0755L23.2211 22.4702L25.7513 33.5027L22.5379 36.473L20.6656 38.5946C20.6656 38.5946 19.8222 43.6866 19.8222 44.5352C19.6242 45.9651 19.3426 47.382 18.9788 48.7785L18.1355 52.1731L14.7619 54.7191H8.46175L4.53985 59.1998L1.26758 62.0089V67.4489L2.11097 69.1463L5.48455 70.8436L6.32794 73.3895C6.90468 74.7279 7.19216 76.1742 7.17134 77.6328C7.17134 80.1788 8.01473 79.3301 8.01473 79.3301L8.85812 81.0274L7.17134 83.5734L3.79776 85.2707C3.41483 86.3742 3.13253 87.5104 2.95437 88.6654C2.95437 89.514 4.64115 89.514 4.64115 89.514L3.79776 91.2113L2.95437 92.9086C3.36699 93.7073 3.65163 94.5666 3.79776 95.4546C3.79776 96.3033 6.32794 96.3033 6.32794 96.3033L8.85812 95.4546H10.5449L11.3883 98.0006L13.0751 99.4348V105.036L15.6053 103.941L17.2921 103.093L18.9788 103.941L21.509 105.638L22.3524 104.79H24.0392L25.726 107.336L28.2562 110.73L29.0996 111.579C29.5541 111.118 30.1468 110.819 30.7864 110.73C31.4259 110.641 32.0186 110.343 32.4732 109.882L33.3165 110.73H35.0033L38.3769 109.882L41.6576 109.033L43.6988 103.16L41.7505 98.8492Z" fill="white" stroke="black" stroke-miterlimit="10"/>
</svg>
