<svg width="67" height="63" viewBox="0 0 67 63" fill="none" xmlns="http://www.w3.org/2000/svg">
<path d="M60.9658 27.9001C59.9005 27.311 59.0256 26.4199 58.4472 25.3349L58.0274 17.0748L50.0519 15.9289L45.8543 9.08826L38.2985 8.23317L34.7557 1.5293L27.9639 6.523H22.0872V9.94334L18.3345 13.3637H13.969V15.6895C13.969 15.6895 10.6696 14.595 10.6109 15.6895C10.5521 16.784 10.6109 18.6652 10.6109 18.6652L8.73871 20.2044L6.37963 18.4942L3.86104 19.3493L4.70057 23.6247H1.02344L1.35925 27.0451L2.19878 29.6103L3.03831 33.0307L3.87784 37.3061L5.55689 39.8713V43.2917L6.39642 49.2773H9.75453L11.4336 54.4078L8.91501 57.8282V59.6067L9.75453 60.3934L21.0882 61.676C21.0882 61.676 21.0882 61.676 21.0882 61.6247C21.4827 61.1459 21.0882 60.3507 21.0882 60.3507L29.92 59.4956L34.9572 57.7854L36.4935 55.6306C36.4935 55.6306 36.6362 52.6549 36.4935 52.0136C36.3508 51.3722 36.4935 46.6693 36.4935 46.6693H40.8171L43.3357 44.9591L49.4642 43.933H57.02L61.3855 40.8889L61.8305 39.0163L62.67 37.3061C62.67 37.3061 64.3491 33.0307 64.3491 32.1756C64.3473 31.9668 64.4206 31.7646 64.5552 31.6071C64.6897 31.4496 64.8762 31.3476 65.0795 31.3205C63.8171 30.0509 62.4398 28.9057 60.9658 27.9001V27.9001Z" fill="white" stroke="black" stroke-miterlimit="10"/>
</svg>
