<svg width="86" height="66" viewBox="0 0 86 66" fill="none" xmlns="http://www.w3.org/2000/svg">
<path d="M81.24 43.9253H78.1215L78.9712 40.5054L81.24 38.6586L82.3702 37.6839V35.3754L77.6456 32.8105L68.2389 29.9805L67.2872 24.6881L69.8364 19.7719V14.0777L67.933 9.72578L67.2617 6.30583H62.4266L60.2768 3.74087L57.7275 2.03089H52.629L50.0798 2.97993L49.23 2.03089L45.831 1.1759H41.5823L39.0331 2.88588L35.7021 0.970703L33.0848 2.03089L24.5874 5.45084L17.7894 8.87079L10.1417 11.4358L4.19342 13.1457L1.40625 14.0777C1.54221 15.2661 1.64418 16.275 1.64418 16.5657C1.73337 17.214 2.03195 17.8149 2.49393 18.2757L4.19342 19.9856V21.6956C4.19342 21.6956 6.59821 26.552 7.36298 28.5868L13.5406 30.2455C13.5406 30.2455 20.3386 31.9555 20.3386 34.5204C20.3386 37.0854 24.5874 44.7803 24.5874 44.7803C26.3878 46.1272 27.8441 47.8855 28.8361 49.9102C30.5356 53.3302 39.186 49.9102 39.186 49.9102L44.1316 47.3453V41.8904L50.0798 43.1644L53.4788 49.0552L57.7785 51.4321H63.2764C63.2764 51.4321 62.894 55.9464 64.9759 56.7758C67.0577 57.6051 73.8302 64.4707 73.8302 64.4707L82.4637 62.4016C82.6591 61.6834 83.0245 59.9991 82.3702 59.3237C81.5204 58.4687 82.3702 55.707 82.3702 55.707C82.3702 55.707 81.6139 53.8432 81.9878 53.1421L82.3702 52.4581L83.2199 49.8931C83.5548 49.8939 83.8895 49.8768 84.2226 49.8418L82.3447 47.8412L81.24 43.9253Z" fill="white" stroke="black" stroke-miterlimit="10"/>
</svg>
