<svg width="60" height="55" viewBox="0 0 60 55" fill="none" xmlns="http://www.w3.org/2000/svg">
<path d="M51.1475 42.2215C46.1866 38.6858 38.2407 34.9381 33.3392 31.1989C30.8969 21.6431 36.8839 -0.31742 20.9921 3.21831C18.1766 8.58549 9.44214 7.51714 7.05074 2.37041C1.02983 -0.665057 -0.131954 4.4308 1.96264 9.15358C4.26925 15.2076 -2.27743 16.2929 3.65867 22.7199C4.32861 25.1279 2.07292 32.0468 4.96465 32.0468C3.99791 35.2264 4.43037 39.203 7.89875 40.5257C8.74677 45.7064 3.0905 53.4138 12.1388 49.0047C15.2256 48.3773 19.559 50.4716 22.315 49.0047C22.9595 46.2321 23.5022 42.4674 26.5551 41.3736C26.8434 39.6015 28.497 39.5252 29.9471 39.6778C38.1475 42.8066 38.2153 49.6661 43.5154 51.5484C56.0067 58.1789 66.1828 51.9639 51.1475 42.2215Z" fill="white" stroke="black" stroke-miterlimit="10"/>
</svg>
