<svg width="75" height="73" viewBox="0 0 75 73" fill="none" xmlns="http://www.w3.org/2000/svg">
<path d="M12.0414 41.1286L14.6072 44.5965V58.1278C14.6072 59.8278 17.173 57.2779 17.173 57.2779H18.8836C20.5941 57.2779 20.5941 58.1278 20.5941 58.1278V61.5277L23.1599 63.6443V66.6275L24.8705 69.1774L27.4363 68.3274L30.0021 70.0274L34.2784 71.6592L35.9889 69.1774V66.5852H34.2784V63.2276L36.8442 62.3777L40.2653 64.0776L43.6864 66.5852H48.0738V64.4686L51.7686 60.6777H58.2259L61.5102 56.4279V54.728H64.2128L65.0681 51.3281L61.647 47.5543L65.9233 44.5965L69.3444 42.8285L68.7629 39.2755L65.9233 35.1788L70.4649 30.929L73.6807 27.1892C73.2359 26.5177 72.7655 25.8124 72.7655 25.7869V16.4796C72.7655 15.6296 71.9102 15.9525 71.9102 15.9525V4.58008L70.1997 2.88015L65.9233 3.73011L63.3575 2.88015L62.126 1.65625L61.5102 2.31904H52.7352C52.4928 3.05392 52.3265 3.81162 52.239 4.58008C52.239 5.43004 53.9496 7.12997 53.9496 7.12997C53.9496 7.12997 54.8048 10.5298 55.6601 11.3798C56.5154 12.2298 53.9496 14.7797 53.9496 14.7797L52.239 13.0797V10.5298C52.239 9.67987 50.5285 7.97994 50.5285 7.97994L48.818 6.28001L46.2522 4.58008H42.8311L41.1206 5.43004L40.2653 6.28001C39.8003 6.7381 39.4998 7.33541 39.41 7.97994C39.41 8.8299 38.5548 7.97994 38.5548 8.8299C38.5548 9.67987 38.5548 10.5298 37.6995 10.5298C36.8442 10.5298 37.6995 12.2298 37.6995 12.2298L38.5548 13.9297V17.3295L37.6995 18.1795H36.8442V17.3295C36.8442 17.3295 35.9889 13.0797 35.9889 12.2298C35.9889 12.0043 35.8988 11.7882 35.7384 11.6288C35.578 11.4694 35.3605 11.3798 35.1337 11.3798L33.4231 10.5298C32.0157 10.8964 30.5878 11.1802 29.1468 11.3798H28.2915L25.7257 13.9297L23.1599 13.0797H19.7389L18.0283 13.9297L16.3178 17.3295L13.752 15.6296L12.0414 16.4796V19.0295L7.7651 24.9792C7.7651 24.9792 5.19929 30.079 5.19929 30.929C5.19929 31.7789 3.48876 35.1788 3.48876 35.1788L1.77822 37.7287L1 39.2755H7.7651L12.0414 41.1286Z" fill="white" stroke="black" stroke-miterlimit="10"/>
</svg>
