<svg width="94" height="109" viewBox="0 0 94 109" fill="none" xmlns="http://www.w3.org/2000/svg">
<path d="M83.1809 62.5084V56.1006L78.5138 55.1128C77.6102 54.4781 76.6662 53.9042 75.6881 53.3949C75.408 53.3949 81.0595 52.5359 81.0595 52.5359V50.818L79.3624 49.1L72.5739 46.5231L71.7253 45.6642L68.3311 43.0872L65.7854 41.3693L63.2397 37.9334C63.2397 37.9334 61.5426 34.4975 60.694 34.4975C59.8455 34.4975 58.9969 32.7796 58.9969 32.7796V26.7668C58.9969 26.7668 61.5426 25.0489 61.5426 24.1899C61.5426 23.3309 63.2397 23.3309 63.2397 23.3309L64.0883 21.613L63.2397 20.754L61.5426 19.8951C61.5389 18.9652 61.837 18.0598 62.3912 17.3181C63.2397 16.4592 62.3912 16.4592 62.3912 15.6002C62.4802 14.9489 62.7784 14.3452 63.2397 13.8823L64.0883 13.0233C65.2664 12.9788 66.4223 12.6862 67.4825 12.1643C69.1797 11.3054 67.4825 9.58742 67.4825 9.58742L66.4048 8.72845C65.6581 8.72845 63.2397 8.59961 63.2397 7.86948C63.2397 7.01051 59.8455 7.01051 59.8455 7.01051L61.5426 6.15154H63.2397L59.0394 2.78445L58.42 1.28125L50.5113 3.57463L47.6178 7.44L45.5134 11.3054H40.3286L38.3344 16.9918H34.3886L32.4284 18.8042L30.2478 23.786L31.8599 24.1899L32.7085 25.9078C32.7085 25.9078 34.4056 28.4848 34.4056 29.3437C34.4056 30.2027 36.9513 28.4848 36.9513 28.4848L39.497 29.3437L41.1941 27.6258L42.0427 26.7668C42.8912 25.9078 43.7398 25.9078 43.7398 25.0489C43.7398 24.1899 47.9826 25.0489 48.8312 25.0489C49.6797 25.0489 48.8312 26.7668 48.8312 26.7668V32.7796L50.5283 33.6386L52.2254 36.2155L50.5283 37.0745L48.8312 37.9334L47.9826 39.6514V42.2283L46.2855 45.6642L44.5884 46.5231H41.1941L39.497 44.8052V35.3565L37.7999 34.4975L36.9513 35.3565C36.1028 36.2155 33.5571 36.2155 33.5571 36.2155C33.0997 36.6825 32.5034 36.9843 31.8599 37.0745C31.0114 37.0745 31.0114 38.7924 30.1628 39.6514C29.3143 40.5103 31.0114 40.5103 31.0114 40.5103L31.8599 42.2283V43.0872L29.3143 44.8052L28.4657 46.5231L27.6171 49.959L25.0715 50.818L21.6772 52.5359L19.1315 55.1128L16.5858 57.6897C15.7373 58.5487 16.5858 61.9846 16.5858 63.7025C16.5858 65.4205 14.8887 67.1384 14.0402 67.1384C13.1916 67.1384 12.343 63.7025 12.343 63.7025C11.8863 64.6301 11.3161 65.4959 10.6459 66.2794C9.79735 67.1384 8.94879 69.7153 8.94879 69.7153L8.10023 70.5743L5.55454 74.0102L3.85742 77.446L4.70598 78.305H6.40311L7.25167 81.7409L8.94879 82.5999L11.4945 83.4588L13.1916 84.3178L15.7373 83.4588L16.5858 81.7409C16.6932 81.5115 16.8453 81.3065 17.0329 81.1382C17.2205 80.9699 17.4398 80.8418 17.6776 80.7615C17.9154 80.6813 18.1669 80.6507 18.4168 80.6714C18.6667 80.692 18.9097 80.7636 19.1315 80.8819L21.6772 81.7409L24.2229 82.5999L26.7686 80.8819C26.7686 80.8819 28.4657 82.5999 28.4657 83.4588C28.4657 84.3178 31.0114 84.3178 31.0114 84.3178L33.5571 85.1768L35.2542 86.0357L37.7999 87.7537V93.7665L39.497 94.6254H42.0427L43.6294 98.0613H45.4199L46.2685 95.4844L47.9656 93.7665L51.3599 91.1896L53.9056 92.0485L57.2998 92.9075L58.9969 91.1896L58.8103 88.6126H63.2397C63.2397 88.6126 62.3912 86.0357 62.6033 85.1768C62.8154 84.3178 64.0883 83.4588 64.0883 83.4588C64.4461 84.0307 64.9513 84.4928 65.5494 84.7955C66.1476 85.0982 66.8159 85.2302 67.4825 85.1768C70.0282 85.1768 69.1797 83.4588 69.1797 83.4588V76.5871H62.3912C62.3912 76.5871 64.0883 74.0102 64.0883 72.2922C64.0883 71.8366 63.9096 71.3998 63.5913 71.0776C63.273 70.7554 62.8413 70.5743 62.3912 70.5743C62.7764 69.4574 63.0605 68.3074 63.2397 67.1384C63.2397 66.2794 65.7854 67.1384 65.7854 67.1384C67.2335 67.2135 68.663 67.5029 70.0282 67.9974C72.5739 68.8563 70.0282 68.8563 70.0282 68.8563H74.0334C73.7619 68.8563 76.0021 65.4205 76.0021 65.4205L76.8507 67.1384L80.2449 68.8563L83.2149 67.8342L85.3363 64.5615L83.1809 62.5084Z" fill="white" stroke="black" stroke-miterlimit="10"/>
<path d="M77.1622 80.4474H75.773L78.0414 78.7675V77.7176L76.9072 76.2559H71.887V78.3557L71.1836 80.4556L72.7134 82.2113H75.773L74.6126 85.0334L72.7662 87.1669L71.1836 88.9981L72.7662 91.3666C72.8202 92.5315 73.1192 93.6742 73.6454 94.7263L73.1442 97.2462L73.6454 98.926H78.0414L79.7998 99.766L81.5582 104.806V108.006H85.075L88.5918 105.083L91.2294 104.806L92.9878 102.286L89.9106 99.4383L88.5918 97.2462L85.9542 93.0465L82.877 94.4323L80.679 94.7263H76.283L75.4038 93.0465L75.1136 90.6694H82.0858L82.877 89.6281L84.1958 87.1669L82.0858 85.0252L78.0414 83.8071L78.1732 82.2027L77.1622 80.4474Z" fill="white" stroke="black" stroke-miterlimit="10"/>
<path d="M29.1044 91.651L26.5286 97.3308V100.749L24.7882 103.984L22.5953 105.713L16.0862 103.85L14.3458 103.984L12.6576 105.713H6.37478V103.027L3.90332 101.489L1.17969 98.1624V95.5763L4.21669 91.651L6.37478 93.0981L8.25434 94.0044L11.1435 93.0981L14.1718 91.651L15.1463 90.4121H20.881L21.7425 91.651L26.72 90.4121L29.1044 91.651Z" fill="white" stroke="black" stroke-miterlimit="10"/>
</svg>
