<svg width="69" height="70" viewBox="0 0 69 70" fill="none" xmlns="http://www.w3.org/2000/svg">
<path d="M4.16923 18.6936L1.85216 21.8576L0.884766 24.5434C0.884766 24.5434 2.47173 27.2792 2.53114 29.3437C2.59055 31.4083 6.82547 35.8398 6.82547 35.8398H15.151L18.7069 33.7249L21.2529 33.0786L25.0549 38.6428L21.9064 43.1497L24.0451 53.2209L25.0549 52.3816H27.2871L31.437 58.2564H33.983L37.6323 62.9478L44.1671 64.1313L49.7599 68.5792L52.6538 65.793V61.5967L61.1405 60.3378L64.5352 57.9208V54.0433L68.1166 48.8397L68.21 46.49L68.1421 38.626C68.1278 38.5881 68.1278 38.5467 68.1421 38.5088C68.3373 38.0808 63.3979 38.5088 63.3979 38.5088L61.166 35.823L58.62 30.544L62.7359 26.9268L68.1081 24.409L65.3839 18.7944L62.7444 14.1784V9.22688L61.1405 8.24501L56.9991 5.72723L53.5025 6.19727L48.4954 10.3264L45.0157 7.88398L40.7724 7.04472L37.6323 7.40575L36.529 5.3662L33.1343 2.89022L29.7396 2.05096L27.1936 2.89022V5.408L22.9503 6.28947L18.7069 4.61095V2.48739L17.0095 1.25391V3.77169L13.6149 5.45021L11.0688 7.12873L6.82547 8.32861V10.4186H2.31897L0.884766 14.2624L4.16923 18.6936Z" fill="white" stroke="black" stroke-miterlimit="10"/>
</svg>
