<svg width="69" height="64" viewBox="0 0 69 64" fill="none" xmlns="http://www.w3.org/2000/svg">
<path d="M49.5535 52.913L45.3095 48.5909C44.4607 47.7264 40.2168 43.292 40.2168 43.292V39.7478H44.4607L53.84 41.3555L57.2776 39.7478V34.5612L56.3609 30.6886C56.3609 30.6886 50.4193 28.6832 49.5705 27.8188C48.7217 26.9544 49.5705 25.2255 49.5705 25.2255L51.4208 20.713L53.7975 14.8781H66.5294L68.227 12.2848L68.1675 11.0485V5.11019L61.199 3.53665L53.7975 0.943359H48.7047L49.5535 1.98085V4.50492C48.5468 4.86349 47.5175 5.15229 46.4725 5.36935C45.9377 5.36935 45.3095 7.01168 45.3095 7.01168V8.82707L44.4607 12.0083V14.8781L43.6119 15.7425L39.368 15.3103L36.8216 14.0137L35.124 11.4204H32.5776C31.9318 11.3367 31.3332 11.0319 30.88 10.5559L27.9262 7.96264L25.7617 8.94821L24.0642 11.4204L25.7617 15.7425C24.8303 15.7418 23.9231 16.0448 23.1729 16.6069C22.4525 17.1642 21.5736 17.4676 20.669 17.4714L17.2738 19.2002C17.2738 19.2002 13.8786 18.3358 13.8786 17.4714C13.6524 16.1097 13.3204 14.7684 12.8856 13.4603C12.8076 12.4938 12.8076 11.5225 12.8856 10.5559H4.56735L2.86976 14.0137L5.41614 16.6069L4.56735 19.2002L1.9275 20.7387L2.02096 20.9291V26.1157H6.26494L7.96253 27.8445V29.5734C7.96253 29.8027 8.05202 30.0225 8.2112 30.1846C8.37038 30.3467 8.58621 30.4378 8.81132 30.4378L9.66012 31.3023C9.66012 31.3023 10.5089 43.4043 10.5089 44.2687C10.5089 45.1332 9.66012 45.1332 8.81132 45.9976C7.96253 46.862 6.26494 46.862 5.41614 47.7264C5.3061 47.8425 5.17425 47.9348 5.02842 47.9978C4.88259 48.0609 4.72577 48.0932 4.56735 48.0932C4.40892 48.0932 4.2521 48.0609 4.10627 47.9978C3.96044 47.9348 3.82859 47.8425 3.71855 47.7264C2.79968 47.7227 1.90503 48.0264 1.17216 48.5909C0.323369 49.4553 1.17216 49.4553 1.17216 50.3197C1.17216 51.1842 2.86976 52.0486 2.86976 52.0486H7.11373C8.03034 52.5139 8.88585 53.0947 9.66012 53.7775C10.2144 54.5238 10.5126 55.435 10.5089 56.3708H16.4505C16.9119 55.9049 17.2102 55.2974 17.2993 54.6419V52.913L18.9969 52.0486L22.3921 54.6419H24.0896L24.9384 53.7775H27.4848C27.4848 53.5482 27.5743 53.3284 27.7335 53.1663C27.8927 53.0042 28.1085 52.913 28.3336 52.913H30.88L35.124 53.7775L38.5192 54.6419H40.2168L41.9143 55.5063L42.7631 58.0996C43.1292 59.5221 43.4126 60.9653 43.6119 62.4218C43.6119 63.2862 44.4607 62.4218 44.4607 62.4218L46.1583 63.2862C47.0772 63.29 47.9718 62.9863 48.7047 62.4218C49.0188 62.1019 49.2225 62.0155 49.3498 62.0415L51.4038 58.7737L49.5535 52.913Z" fill="white" stroke="black" stroke-miterlimit="10"/>
</svg>
