<svg width="69" height="107" viewBox="0 0 69 107" fill="none" xmlns="http://www.w3.org/2000/svg">
<path d="M44.2479 105.869C49.6655 106.719 49.3004 98.8735 56.1362 100.775C55.3464 96.6151 65.5364 98.2284 68.0244 95.6219C66.6743 92.7098 63.0059 89.0248 61.2311 86.3419C59.9574 82.9458 60.0083 71.2718 55.287 70.2105C56.5862 67.6634 53.5887 66.237 51.8903 65.1163C52.1536 56.694 47.0926 54.5969 43.3987 48.1359C41.55 44.1623 40.9576 39.7195 41.7004 35.4005C37.2508 30.2299 33.2937 21.6548 31.5105 15.0239C31.136 10.6168 29.3491 6.44811 26.4155 3.13759C25.7362 1.11691 25.6343 -0.0377612 23.868 2.28856C19.5373 9.19113 16.7181 0.590666 17.0747 6.68666C17.7636 8.44744 18.045 10.3411 17.898 12.226C17.7509 14.111 17.1791 15.9383 16.2255 17.571C16.1576 22.3085 18.5607 27.2244 14.5272 31.1554C11.9797 33.2864 7.78487 34.5514 5.60252 35.2985C5.25437 37.7522 3.82778 40.2908 4.33728 42.9397C1.16141 45.2151 1.78979 49.4347 1.78979 52.8648C2.04454 54.7326 0.88119 57.0591 2.63895 58.3581C0.414151 63.8089 0.541608 69.8115 7.81893 66.8484C13.9074 73.1396 7.53862 87.9721 19.6222 86.3759C23.0188 84.8137 21.0318 91.4699 21.5498 92.7689C25.405 89.602 32.0624 88.5238 36.6054 90.6633C35.994 110.581 44.0696 99.0773 44.2479 105.869Z" fill="white" stroke="black" stroke-miterlimit="10"/>
</svg>
