<svg width="85" height="61" viewBox="0 0 85 61" fill="none" xmlns="http://www.w3.org/2000/svg">
<path d="M83.244 27.9629L81.5327 27.1108L80.6771 25.4066L76.3991 22.8502L79.8215 21.146C79.8215 21.146 78.3755 16.1015 78.1103 14.6359L73.5157 15.1812L70.4098 17.3541L68.6558 15.1812L67.843 11.7728L66.1317 10.9207L64.4205 13.477L61.8537 10.9207C61.2241 10.2598 60.6517 9.54715 60.1424 8.79038H57.5756C57.5756 8.79038 54.1532 7.51221 55.0088 6.54932C55.8644 5.58644 52.4419 3.58397 52.4419 3.58397L52.5959 3.25165H45.8879L40.4634 1.54742L33.3361 0.695312L29.3404 4.10376L24.2067 7.51221L21.6399 10.0685C21.6399 10.0685 19.9287 11.7728 19.9287 12.6249C19.9287 13.477 22.4955 15.1812 22.4955 15.1812V16.8854L19.9287 19.0498L18.2174 23.7023L16.5062 25.4066C16.5062 25.4066 13.0838 25.4066 13.0838 26.2587V30.9282L15.6506 34.7883L13.0838 36.6544H9.92657L5.38327 41.5967V49.5384L1.49023 53.2962L1.96082 53.5263H2.81643L1.61858 54.7874V56.9688L1.95226 58.6219H2.80788C2.80788 58.6219 4.5191 57.7698 4.5191 56.9177C4.5191 56.0656 5.37471 57.7698 5.37471 57.7698L7.08594 59.474H7.94155L9.65277 58.6219L11.364 57.7698L12.2196 56.9177L13.0752 57.7698L14.7864 58.6219H19.0645L22.487 60.3261L23.3426 59.474V58.6219L21.6313 56.9177L22.487 54.7874V51.805L21.6313 48.3965C21.6313 48.3965 26.765 47.5444 27.6206 47.5444H31.0431L34.4655 49.2487L36.1767 50.1008L34.2944 54.7874H41.319V50.1008C41.319 49.2487 43.8858 49.2487 43.8858 49.2487L44.7414 47.5444V44.136H47.3083L51.5863 47.5444C51.5863 47.5444 51.8002 48.0813 52.1168 48.797L57.5756 47.0246L62.7093 43.2839L65.2761 39.8754L70.4098 38.8103H72.2237L71.6419 37.3191H64.797L64.4376 35.6149L67.0044 33.9106H68.7157L71.2825 34.7627L72.9937 35.6149H75.5606L76.4162 37.3191L78.983 36.467L79.8386 34.7627L81.5499 33.0585L84.1167 31.3543L83.244 27.9629Z" fill="white" stroke="black" stroke-miterlimit="10"/>
</svg>
