<svg width="68" height="46" viewBox="0 0 68 46" fill="none" xmlns="http://www.w3.org/2000/svg">
<path d="M62.7393 15.562C55.032 14.3444 58.924 19.9641 55.1172 21.948C49.4198 21.948 51.0464 16.7966 52.9626 13.4333C53.448 10.6746 54.5977 4.6123 55.1172 1.89612C54.0101 -0.104823 53.2947 0.457145 51.9321 1.89612C49.2154 0.755158 48.9854 5.04655 48.2616 6.57919C46.0729 7.03898 43.9438 6.21306 43.1518 4.02479C38.3656 4.82517 30.5647 8.17995 28.2142 1.89612C25.4804 4.81666 23.3684 12.1648 18.4545 10.8365C13.6854 8.81855 8.32873 11.8157 5.33951 15.5196C-5.97013 15.7495 10.858 26.6738 15.048 27.8659C17.6029 29.5007 22.6105 32.9746 25.0376 34.8223C25.4379 34.5924 28.2908 41.9066 28.6741 39.7864C28.2908 35.3332 30.965 40.4334 31.6548 41.3871C35.0613 42.2385 39.9583 45.091 43.467 44.8952C46.6947 35.9122 45.1701 43.8394 48.2616 39.7864C46.8308 37.0702 48.517 33.9709 49.1132 31.2717C48.2616 26.759 54.1208 24.5366 57.6295 23.6085C60.4228 29.8072 64.8172 33.3493 64.4425 23.6085C67.6872 18.9595 67.6872 18.1334 62.7393 15.562Z" fill="white" stroke="black" stroke-miterlimit="10"/>
</svg>
