<svg width="70" height="149" viewBox="0 0 70 149" fill="none" xmlns="http://www.w3.org/2000/svg">
<path d="M49.6922 98.9832L47.2119 100.669L46.3852 101.512C45.9357 101.966 45.6452 102.558 45.5584 103.198V104.883C45.5584 104.942 43.9049 105.785 43.9049 105.785C43.6856 105.785 43.4754 105.874 43.3203 106.032C43.1653 106.19 43.0781 106.404 43.0781 106.628C43.2214 107.51 43.5004 108.363 43.9049 109.156L45.5584 109.999C45.5584 109.999 46.3852 110.842 46.3852 111.272V121.336C46.3852 121.336 45.5584 122.962 46.3852 123.224C46.8161 123.35 47.2018 123.602 47.4953 123.947C47.7888 124.293 47.9777 124.718 48.0387 125.171V126.857L47.2119 128.542C47.2119 128.542 48.0387 130.228 47.2119 131.071C46.3852 131.914 46.3852 132.133 46.3852 132.445C46.3852 132.757 45.5584 133.599 45.5584 133.599L47.2119 135.285V140.342L51.3457 141.185L52.9992 142.028L52.1725 143.714C52.1725 143.714 51.8335 143.714 51.5855 144.978C51.3375 146.242 53.2389 146.242 53.5448 146.664C53.8507 147.085 56.3063 147.928 56.3063 147.928L57.133 146.242H61.2668V147.44C61.2668 147.086 63.6975 147.928 63.7471 147.928L67.0541 147.085L68.7076 145.4L67.8809 139.499L66.2274 137.814L63.7471 138.657L62.0936 137.814L62.9203 134.442L64.5738 133.599V131.071L61.2668 128.542V127.699L61.4569 123.485C61.2664 122.843 60.916 122.262 60.44 121.799C59.6859 121.134 58.8526 120.567 57.9598 120.114L57.133 118.428L56.3063 115.056L57.133 113.371V109.999L54.6527 109.156L53.826 108.314L52.9992 107.471L55.4795 106.628L55.8929 103.518V102.161L58.7865 103.256V99.8849L57.9598 98.1992H55.8929V99.1182L54.6527 99.8849L53.5448 98.1992H50.2378L49.6922 98.9832Z" fill="white" stroke="black" stroke-miterlimit="10"/>
<path d="M52.5131 89.7851L50.6746 78.1292L49.6951 68.7432V65.5605L50.6746 62.3778V57.2582L51.6539 54.0755V52.0023L50.7948 49.297C50.7948 49.297 49.0766 46.2426 49.9357 45.7989C50.7948 45.3552 49.9357 42.8296 49.9357 42.8296L51.6539 41.0205V39.4419L51.1728 38.9727V36.882C51.0135 36.7883 50.8761 36.6623 50.7692 36.5121C50.6624 36.3619 50.5887 36.1909 50.553 36.0104C50.5173 35.83 50.5203 35.6442 50.562 35.4651C50.6037 35.2859 50.683 35.1171 50.7948 34.9705C51.0309 34.6273 51.1571 34.2216 51.1571 33.806C51.1571 33.3904 51.0309 32.9843 50.7948 32.6411H49.9873L46.989 31.7878H44.781L43.9992 29.6634H43.0627V27.496H44.781L47.3583 26.6427L46.4992 24.9362L44.8583 24.0829H46.4992L49.9873 22.8542C49.9873 22.8542 49.9358 19.8165 49.9873 18.9633C50.0388 18.11 48.269 18.9633 48.269 18.9633H42.2036C42.2036 18.9633 41.3445 17.2567 42.2036 16.4034C42.9139 15.5822 43.5277 14.6832 44.0334 13.724C43.9784 12.6638 43.9784 11.6015 44.0334 10.5413C44.1107 8.94571 44.0334 6.16413 44.0334 6.16413C44.0334 6.16413 43.0971 3.60431 42.238 1.89776C41.3789 0.191205 39.6606 3.60431 39.6606 3.60431L38.8015 5.31086L36.2241 6.16413V7.01741L37.0832 8.72396V10.4305C37.4537 11.8346 37.7406 13.2592 37.9424 14.6969V15.5502L37.0832 19.8165V21.5231L38.8015 22.3764V23.2296L36.2241 24.0829C36.2279 25.0066 35.926 25.906 35.365 26.6427C34.6864 27.4211 34.1092 28.2811 33.6467 29.2026L32.7876 28.3493H31.0694C30.8415 28.3493 30.623 28.4393 30.4619 28.5993C30.3008 28.7593 30.2102 28.9763 30.2102 29.2026V30.9091L29.3511 32.6157V33.4689L28.492 34.3222L27.6329 35.1755V31.7624L26.7737 30.9091L25.9146 30.0558C25.6868 30.0558 25.4683 29.9659 25.3072 29.8059C25.1461 29.6458 25.0555 29.4289 25.0555 29.2026C25.0555 28.3493 24.1964 29.2026 24.1964 29.2026C23.7293 28.7427 23.4274 28.1431 23.3372 27.496V26.6427C23.3372 25.7895 24.1964 26.6427 24.1964 26.6427L25.0555 25.7895H25.9146V24.0829L28.492 23.2296C28.492 23.2296 29.3511 21.5231 30.2102 21.5231C31.0694 21.5231 31.0694 19.8165 31.0694 19.8165L30.2102 18.9633L26.7737 21.5231L23.3372 22.3764H21.619L19.9007 23.2296L19.0416 24.9362L18.1825 26.6427H15.6051L13.8869 27.496L15.6051 28.3493L18.1825 29.2026V32.6157L19.0416 34.3222V36.882L17.3234 39.4419L16.4642 40.2951L15.6051 42.0017L16.4642 44.5615L17.3234 47.1214L19.0416 47.9746L19.9007 48.8279V51.3877L19.0416 53.9476L18.1825 53.0943H17.3234V51.3877L15.6051 47.1214H14.746L13.8869 45.4148V42.0017C13.4198 41.5418 13.1179 40.9422 13.0277 40.2951C13.0277 39.4419 13.8869 40.2951 13.8869 40.2951L14.746 39.4419V37.7353H13.0277L12.1686 36.882H10.4504L9.59125 37.7353V40.2951L10.4504 42.0017V42.855L9.59125 43.7082L8.73212 46.2681L7.873 47.1214V51.3877L7.01387 53.0943L5.29562 52.241V53.9476L6.15475 54.8008L3.57737 55.6541L1 55.7395V57.3607L1.95351 57.4373L2.71825 59.0672L1.95351 61.8999L3.57737 61.627L6.15475 62.4803V63.3336L5.29562 65.8934L2.71825 68.4532V69.8527C2.71825 69.8527 1 73.5729 2.71825 72.7196C4.4365 71.8663 4.4365 71.1326 4.4365 71.1326L6.15475 70.1598L8.73212 69.3065C9.10261 67.9024 9.38948 66.4778 9.59125 65.0401C9.44239 64.1472 9.15245 63.2833 8.73212 62.4803L10.4504 60.7738L13.8869 59.9205L16.4642 60.7738C16.9313 61.2336 17.2332 61.8333 17.3234 62.4803C17.3234 63.3336 19.0416 65.0401 19.0416 65.0401L22.4781 64.1869L21.619 65.0401C21.0579 65.7769 20.7561 66.6762 20.7599 67.6H25.0555L24.1964 70.1598C24.1964 70.1598 21.619 72.7196 19.9007 72.7196C18.1825 72.7196 19.0416 71.8663 19.0416 71.8663C19.0416 71.8663 13.0277 71.0131 12.1686 70.1598C11.3095 69.3065 11.3095 71.0131 11.3095 71.0131L10.4504 72.7196L9.59125 73.5729C9.59125 73.5729 9.59125 76.1327 8.73212 76.986C7.873 77.8393 7.873 76.986 7.873 76.986L4.4365 77.1739V79.5458C4.4365 80.3991 6.15475 81.2524 6.15475 81.2524H9.59125L13.8869 80.3991H14.746L19.0416 79.5458L20.7599 78.6925L21.619 76.986L23.3372 76.1327H25.0555C25.4456 75.0233 25.7331 73.8808 25.9146 72.7196C25.9146 71.8663 26.7737 71.8663 26.7737 71.0131C26.7737 70.1598 28.492 70.1598 28.492 70.1598H31.0694L31.9285 69.3748V67.6254L33.6467 66.7721L34.5059 67.6254L35.365 68.4786L34.5059 73.5983L33.6467 75.3048L31.9285 78.1551V81.2524L36.2241 80.9965L38.8015 82.9589L40.5197 84.6655V94.9048H37.9424V95.758L38.8015 98.3179V100.024L42.238 100.878H44.8154L45.6745 98.3179C46.1415 97.858 46.4434 97.2584 46.5336 96.6113C46.5336 95.758 49.111 96.6113 49.111 96.6113H50.8292L53.4066 94.9048L52.5475 92.6178L52.5131 89.7851Z" fill="white" stroke="black" stroke-miterlimit="10"/>
</svg>
