<svg width="58" height="60" viewBox="0 0 58 60" fill="none" xmlns="http://www.w3.org/2000/svg">
<path d="M45.414 18.4958L45.6695 15.466L46.4696 12.4117H49.6534L51.9773 15.4576L53.8842 18.4958L52.8286 20.4057L52.4796 21.229C52.4796 21.229 54.1822 23.6988 55.0335 23.6988C55.8847 23.6988 56.4295 24.7938 56.4295 24.7938L53.3309 26.1521H49.4405L46.4696 23.8636L43.9669 22.0358L43.1156 24.7773L39.0891 26.1521L34.6455 24.7773L33.7942 22.859L32.3301 18.4793V16.4951L35.7352 12.3787L36.1608 10.4934L39.7617 6.15472L42.3155 4.73047H47.5848L46.5207 6.85459L45.6695 8.39421L44.4011 9.30793V10.5099L43.1582 12.1564L42.307 14.6263L41.4557 17.0961L41.8558 18.4793L42.9199 20.3892L45.414 18.4958Z" fill="white" stroke="black" stroke-miterlimit="10"/>
<path d="M51.4566 46.7804L49.4824 42.2658L49.7547 38.2138L51.4566 34.4445V32.2171L49.4824 29.6471H46.2999L44.1897 27.8911H38.897L36.14 29.6471L34.4382 30.9321L32.1067 32.6455L29.7837 33.0738H25.929L27.2565 29.6471L26.8395 27.8911L19.6408 26.2205L20.8235 22.7938L19.6408 20.2238L18.4494 17.2339V15.7435L20.9086 15.0839L23.3762 9.08722L24.7207 3.94724L23.6571 0.90625H12.8673L11.4634 3.09057L10.3316 5.42925V9.94388H8.00007L5.50693 10.8005L4.18797 15.0839V15.9405L1.63521 18.2194L0.580078 20.2067V23.822L2.28192 29.63L4.39218 32.6283L5.49841 37.3399L8.05117 39.9099L8.90209 41.6233L6.34933 43.3366L5.49841 45.0499L5.66856 46.7632L7.20025 49.3332H8.41701C8.90203 49.3332 9.75301 51.0466 9.75301 51.0466L10.6039 52.7599H13.0715L14.8585 54.0792H19.4195L19.964 52.7599L20.815 51.0466V46.7632L19.964 45.0499V44.1933L21.1129 42.2486H30.0049L29.3241 45.0499L28.4732 46.7632L27.6223 51.0466L28.4732 51.9032L29.3241 52.7599L28.0989 54.0792L30.1836 57.0603H31.2813L34.4382 57.917L35.2891 56.2037L36.9909 55.347L39.5437 56.2037H40.3946L41.2455 53.6337L46.2999 55.5867L44.1897 56.8633V59.4333H48.8442L49.7547 57.917C49.7547 57.917 50.6056 55.347 49.7547 55.347C48.9038 55.347 48.0529 53.6337 48.0529 53.6337L47.202 51.9204V51.0637L48.0529 50.207L48.9038 49.3504L49.7547 48.4937L51.4566 46.7804Z" fill="white" stroke="black" stroke-miterlimit="10"/>
</svg>
