<svg width="74" height="91" viewBox="0 0 74 91" fill="none" xmlns="http://www.w3.org/2000/svg">
<path d="M18.998 39.6564L16.7641 35.8402L14.2479 32.5219L8.77914 30.0332H1.41016V32.8124L8.77914 35.8402C8.77914 35.8402 8.72771 39.9881 10.1998 40.4029C11.6718 40.8177 14.2051 43.8043 14.2051 43.8043H16.439L19.0065 42.0621L18.998 39.6564Z" fill="white" stroke="black" stroke-miterlimit="10"/>
<path d="M9.0605 72.1113H5.78986H3.70508V70.242V66.7559H6.37871L9.0605 69.0737V72.1113Z" fill="white" stroke="black" stroke-miterlimit="10"/>
<path d="M16.596 82.0586L20.933 84.1986H24.3615V86.0355L19.2188 89.7092H16.596L14.0332 86.0355V82.0586H16.596Z" fill="white" stroke="black" stroke-miterlimit="10"/>
<path d="M46.9181 29.5075H54.5833L56.4749 24.6073L58.8846 19.707H61.9523L62.232 22.9739L60.7186 24.6073L62.232 31.0265L58.9422 32.7744L56.4749 33.8606H53.3578H50.5946H46.9181L45.7832 29.5075" fill="white"/>
<path d="M46.9181 29.5075H54.5833L56.4749 24.6073L58.8846 19.707H61.9523L62.232 22.9739L60.7186 24.6073L62.232 31.0265L58.9422 32.7744L56.4749 33.8606H53.3578H50.5946H46.9181L45.7832 29.5075" stroke="black" stroke-miterlimit="10"/>
<path d="M43.3381 36.5153L38.0415 33.8594L35.4551 35.3528L38.0415 38.9301H43.3381V41.613L45.1036 43.9383L46.8691 48.7676L48.9526 52.1033L51.283 54.1335H53.9313V50.109L56.5795 46.4335V42.5073L57.2593 39.4668L56.5795 36.5153H52.2453H50.6032L47.6373 38.9301H45.1036L43.3381 36.5153Z" fill="white" stroke="black" stroke-miterlimit="10"/>
<path d="M70.2627 52.0637L66.4325 54.133H64.8145V48.6635L62.2324 45.6096L64.8145 43.8047H66.2432L68.6876 46.9681L72.5607 50.4867V52.0637" fill="white"/>
<path d="M70.2627 52.0637L66.4325 54.133H64.8145V48.6635L62.2324 45.6096L64.8145 43.8047H66.2432L68.6876 46.9681L72.5607 50.4867V52.0637" stroke="black" stroke-miterlimit="10"/>
<path d="M51.2768 1.89451L48.71 5.30296L43.5763 9.04373L38.1004 10.8246C38.6209 12.1882 39.3046 13.4842 40.1368 14.6847C40.3776 14.9794 40.5289 15.3364 40.5729 15.7138C40.6169 16.0912 40.5516 16.4733 40.3849 16.815L36.7143 19.7974H34.1475L30.725 18.9453L28.1582 21.5016L29.8694 24.0579L35.0031 26.6143L38.4255 27.4664L39.4266 30.0227L42.7036 28.3185L43.5592 24.0579H45.2704V27.4664L46.4512 30.0227H52.1325L53.8437 26.6143V24.91C53.8437 24.91 52.1325 20.6495 52.1325 19.7974C52.2807 18.9057 52.5695 18.043 52.9881 17.241L54.7677 15.5368H57.2661L60.988 12.9805L56.4105 12.1284V7.86781L55.5549 5.31148L58.9774 2.75514L58.2244 0.837891H56.4105L51.2768 1.89451Z" fill="white" stroke="black" stroke-miterlimit="10"/>
</svg>
