<svg width="91" height="76" viewBox="0 0 91 76" fill="none" xmlns="http://www.w3.org/2000/svg">
<path d="M11.1141 26.912V31.1859L21.8643 33.7503L23.1431 42.2981H27.7892L30.3467 48.8029H33.7567V52.2221L35.8539 58.1287L33.7567 59.8383L30.7218 61.9582C30.7218 61.9582 30.8241 64.5225 30.773 66.2321C30.7218 67.9417 32.0432 71.549 32.0432 71.549L35.8368 68.7964H38.3943L41.8043 71.549L45.2144 74.7799H51.1819L54.9926 68.7964H62.3583L65.1714 71.549L68.1382 74.7799L71.1051 71.549V66.2321L74.2508 63.6677L75.7768 59.8212L78.5133 61.9582L80.2183 62.8129H86.1858L89.4083 63.6252L87.6436 59.8212V52.2049L89.7663 47.5295L87.6436 44.3925H82.2472V39.5885L79.5875 42.2981L74.4724 39.5885V35.2036L71.5057 31.1859L68.539 33.7503L63.424 36.0496L62.3157 31.1859L58.863 28.6216V15.5861L56.1179 14.945L49.4428 9.68818V4.55948L43.0746 1.24301L39.2554 6.37172L35.2486 0.986328L34.9928 1.24301L27.8148 1.58484H22.1967V7.2265L20.4917 14.0648H5.99911L1.73658 18.3387L0.705078 23.9716L4.05537 24.3222C4.05537 24.3222 11.1141 25.2024 11.1141 26.912Z" fill="white" stroke="black" stroke-miterlimit="10"/>
</svg>
