<svg width="84" height="52" viewBox="0 0 84 52" fill="none" xmlns="http://www.w3.org/2000/svg">
<path d="M43.0979 48.3888L50.7366 45.8775L57.5265 42.5291L66.0139 39.1808L70.2576 37.5066L73.6525 34.9953L75.35 33.3211L76.1987 31.0526L77.8962 29.9727V26.6244L79.5937 24.1131C79.5937 24.1131 82.9886 20.7647 82.9886 20.3294V15.7422L77.0475 11.5567L73.6525 5.69706L71.361 1.62891L70.2576 2.34869L65.1651 4.02288L62.6189 5.69706L60.9214 8.20834L58.5194 9.04543H51.5853L49.8878 9.88252L48.1904 12.3938L47.5198 14.068H50.7366L49.0391 16.5793L46.4929 19.9276H45.6442L41.4005 19.0905L39.703 19.9276H34.6106C33.7618 19.9276 32.9131 20.7647 32.0643 20.7647C31.2156 20.7647 26.9719 22.4389 26.1232 22.4389H1.50977L2.3585 24.1131V29.1357L3.20724 31.6469L4.05598 33.3211L5.75346 32.484V30.8098H9.99715L11.6946 29.9727H15.9383L18.4845 29.1357L21.0307 30.8098C20.6155 31.5976 20.3291 32.4452 20.182 33.3211V43.3662C20.2711 44.001 20.5693 44.5893 21.0307 45.0404H33.7618V45.8775C33.7618 45.8775 34.1268 48.757 34.3814 50.9753L37.1568 50.063L43.0979 48.3888Z" fill="white" stroke="black" stroke-miterlimit="10"/>
</svg>
