<svg width="56" height="67" viewBox="0 0 56 67" fill="none" xmlns="http://www.w3.org/2000/svg">
<path d="M42.8071 62.5808L46.2323 60.0458H50.9591C50.9591 60.0458 50.5395 56.7335 50.9591 56.6659C51.3786 56.5983 50.5138 50.7509 50.5138 49.9059C50.5138 49.0609 53.939 47.371 53.939 47.371L55.1635 45.7486C54.5898 45.0219 54.1959 44.4051 54.3072 44.1854C54.7011 43.5432 54.3072 39.1154 54.3072 39.1154V34.3159C54.3072 34.3159 52.1921 31.3161 52.1921 30.0909V25.4012L47.1999 24.2267V19.0638L44.5197 16.9513L43.4922 11.8814H42.6359L39.3905 9.34639L34.6809 7.65641L30.8275 5.12144V3.43146L27.8219 2.16397L23.1123 0.896484H20.5434L16.9127 1.31898L14.5151 2.16397L11.9462 5.12989L10.4648 10.1407L6.8512 11.8814V15.1853L5.03585 14.0783V19.0638L7.69894 23.7112L10.4648 29.3727L5.03585 31.9076L0.882812 35.5411L3.4517 40.8561L5.66951 43.5685C5.66951 43.5685 10.6532 43.1376 10.4648 43.5685C10.2764 43.9995 14.5151 46.4077 14.5151 46.4077L21.9648 51.6044C23.2662 52.3563 24.5085 53.2037 25.6812 54.1393C26.5375 54.9843 30.819 60.0543 30.819 60.0543L34.6723 61.533L37.6351 64.1525L38.0119 64.482L37.6351 64.1525L36.7788 64.913L41.0603 65.9692L42.8071 62.5808Z" fill="white" stroke="black" stroke-miterlimit="10"/>
</svg>
