<svg width="77" height="53" viewBox="0 0 77 53" fill="none" xmlns="http://www.w3.org/2000/svg">
<path d="M3.96826 20.3739C3.87575 20.9129 3.96826 23.6667 3.96826 23.6667L1.2434 25.4016V36.3491L3.96826 39.0186C3.96826 39.0186 7.23128 39.3977 8.07229 39.3977C8.91329 39.3977 14.8004 37.7135 14.8004 37.7135L19.0054 38.5556L23.2104 41.9241L24.8925 46.9768L23.732 48.9135C23.732 48.9135 22.3694 48.8462 22.3694 50.0168C22.3694 51.1873 24.0515 52.0295 24.0515 52.0295H27.18L30.7795 50.3453L33.4539 52.0295C33.4539 52.0295 34.5304 52.8717 35.178 52.0295C35.8256 51.1874 36.6666 49.5032 37.5076 49.5032C39.4078 49.103 41.2835 48.594 43.1255 47.9789L43.3947 46.1347H52.6458L54.6809 43.8945C55.9137 43.7176 57.1655 43.7176 58.3983 43.8945L61.0643 47.0019H62.7463L63.1079 43.7934H67.1868L68.5157 40.686L71.1564 36.8964L74.5204 32.6858L76.2024 28.627V23.4225L73.6794 20.8961L69.0875 20.6687L64.8825 18.9002V16.0877L62.1997 13.1316C62.1997 13.1316 59.3738 7.42201 60.2148 6.39462C61.0558 5.36724 57.7676 4.71038 57.7676 4.71038L54.3278 2.01584L48.0202 4.71038L47.1119 3.46406L43.1255 5.54428L38.357 9.10644L32.47 10.7907L28.2649 8.26431C28.2649 8.26431 24.0599 7.42219 23.2189 6.58007C22.3779 5.73795 23.2189 4.05371 23.2189 4.05371L24.9009 1.52734L17.3318 2.36947L15.6498 6.68945V9.10644L13.8333 13.317L9.76272 14.1592L8.0807 12.4749L6.39869 13.9149V16.6855C6.39869 17.5276 5.06983 17.216 5.06983 17.216H1.70579L1.22656 20.3571C1.22656 20.3571 4.06918 19.8265 3.96826 20.3739Z" fill="white" stroke="black" stroke-miterlimit="10"/>
</svg>
