<svg width="66" height="73" viewBox="0 0 66 73" fill="none" xmlns="http://www.w3.org/2000/svg">
<path d="M65.4207 46.994C64.9615 43.7436 64.6128 39.3361 60.3185 39.3361C56.4408 33.5757 54.0428 28.0195 49.2637 22.3187C54.5275 19.4938 52.5886 17.4687 51.8148 12.1082C50.2756 8.16017 50.2756 3.0209 46.0408 1.04688H42.0696C43.9745 2.85923 42.2737 13.2569 39.9097 7.00298C37.2565 2.26362 35.4708 6.54351 31.406 4.45036C29.3226 2.15301 28.8124 7.00298 27.7834 8.27929C27.0946 17.6984 17.8001 15.6055 10.9972 15.682C11.3033 21.97 17.9702 30.1467 9.29647 33.38C11.737 38.7405 11.5414 41.5229 6.06504 44.4413C5.08712 46.7812 1.20949 46.7047 0.792806 49.5466C0.112513 51.1377 2.57857 52.7967 3.54799 53.6306C5.70792 50.9844 10.9632 50.3124 14.152 50.3975C14.8748 51.4781 14.3902 56.3536 16.9498 54.6518C17.6726 50.2188 22.7153 43.5905 26.3038 49.5466C27.6559 51.1462 30.8788 50.7889 31.406 52.9501V70.5974C35.1646 73.2351 40.0967 69.7036 43.8893 70.2737C43.9914 69.9674 46.4405 62.0204 46.7126 61.4588C49.842 53.6223 58.1926 59.3316 65.4207 46.994Z" fill="white" stroke="black" stroke-miterlimit="10"/>
</svg>
