<svg width="54" height="71" viewBox="0 0 54 71" fill="none" xmlns="http://www.w3.org/2000/svg">
<path d="M51.6215 35.482C51.6215 33.792 47.3401 31.2571 47.3401 31.2571C47.3401 31.2571 41.346 27.0321 40.4897 26.1871C39.6334 25.3421 34.6069 21.5397 34.6069 21.5397C35.31 20.2027 36.1324 18.9301 37.0645 17.7372C37.9208 16.8922 35.6002 13.5123 35.6002 13.5123L29.923 7.59733L25.9326 6.75234L24.22 5.06236C24.22 5.06236 22.3276 3.18648 21.1631 1.75L19.9386 3.37238C19.9386 3.37238 16.5134 5.06236 16.5134 5.90735C16.5134 6.75234 17.3697 12.6673 16.9586 12.6673C16.5476 12.6673 16.9586 16.0472 16.9586 16.0472H12.2319L8.8067 18.5822L7.0941 21.9622L2.81262 20.9059L0.671875 22.8832V30.1417L3.45484 34.2821L6.23781 41.4899L7.9504 49.0019C7.9504 49.0019 3.24077 46.957 4.31114 52.2044C4.97132 55.3941 6.20378 58.4417 7.9504 61.2035L13.2252 64.93L13.9445 64.2117V59.1418L14.8008 58.2968L16.5134 59.1418L17.3697 60.8318C16.9507 61.627 16.6617 62.4825 16.5134 63.3667C16.6032 64.0075 16.9041 64.6013 17.3697 65.0567C17.7443 65.8354 18.2446 66.5488 18.8511 67.1692C19.2927 67.5189 19.6619 67.9492 19.9386 68.4367L20.7949 70.1266H25.9326C25.9326 70.1266 27.6452 69.2817 27.6452 68.4367C27.8586 67.1657 28.4555 65.9878 29.3578 65.0567C30.0341 64.2859 30.6095 63.4342 31.0704 62.5217L33.6393 65.0567C33.6393 65.0567 34.4956 65.9017 35.3519 64.2117L37.0645 62.5217L38.7771 60.8318C39.2215 60.3497 39.8322 60.0484 40.4897 59.9868L42.2023 58.2968L43.0586 57.4518L46.4838 55.7618L48.1964 54.0718H50.7652L53.3341 48.9427V40.552C53.3341 40.552 51.6215 37.172 51.6215 35.482Z" fill="white" stroke="black" stroke-miterlimit="10"/>
</svg>
