<svg width="114" height="113" viewBox="0 0 114 113" fill="none" xmlns="http://www.w3.org/2000/svg">
<path d="M106.984 60.4787L104.859 58.7729H101.081C101.081 58.7729 99.395 57.0669 99.395 56.487C99.395 55.907 97.7085 54.5082 97.5062 53.4676C97.0976 52.0781 96.6019 50.7166 96.0221 49.3909L92.6492 51.0967L91.806 54.5084L90.1195 57.0671L85.9034 56.2142L84.217 55.3613L81.0212 54.7387C81.0212 54.7387 80.0009 52.8025 80.8441 51.9496C81.6873 51.0967 79.2252 48.8537 79.2252 48.8537H76.628V46.8322C76.628 46.8322 74.9416 41.7147 74.9416 40.8618C74.9416 40.0089 73.2552 38.3031 73.2552 38.3031L72.4119 34.0385L69.8823 28.0682C69.8823 28.0682 68.1958 21.2449 68.1958 20.392C68.1958 19.5391 65.6662 16.0762 65.6662 16.0762C65.6662 16.0762 63.9797 14.4215 64.4014 13.2189C64.823 12.0163 65.6662 8.75818 65.6662 8.75818V5.89252L64.1061 1.69628L63.9797 1.62798L61.4501 0.962891L58.9204 4.18671L55.5475 7.59834L53.8611 10.1571C53.8611 10.1571 45.4288 12.7157 45.5638 12.4172C45.6315 11.3806 45.6315 10.3407 45.5638 9.30416H41.2128L38.4555 4.03303L36.1535 6.74543V19.1043H31.0942C31.0942 19.1043 31.0942 22.9507 31.0942 24.6565C31.0942 26.3624 31.9374 32.3327 31.9374 32.3327L36.1535 37.8766L31.0942 40.4354L27.7213 37.4672L20.1323 35.7614V40.4354L13.3866 44.2905L11.1352 46.798L14.2298 51.9496L12.5434 56.2142L11.1352 57.92V61.9288L7.48404 66.4491L5.89888 72.2404V77.3578L0.738281 80.0956V84.9657L4.66761 90.0832L5.89888 98.3566L15.073 99.7126L15.9162 106.536L17.1304 110.8H17.6027C18.4915 111.255 19.4542 111.544 20.4444 111.653H22.662C22.662 111.653 22.662 109.947 22.4343 109.947C22.2066 109.947 21.8188 109.095 21.8188 109.095C21.4359 107.986 21.1537 106.844 20.9755 105.683V103.977C20.9755 103.124 21.8188 102.271 21.8188 101.418C21.8188 100.565 23.5052 98.0067 23.5052 98.0067L24.3484 97.1538C25.3454 96.3576 26.4934 95.777 27.7213 95.448C30.251 94.5951 31.0942 95.448 31.0942 95.448L32.7806 93.7422C33.6238 92.8893 34.4671 93.7422 34.4671 92.8893V92.0364L36.1535 91.1835H36.9967L38.6832 92.0364L39.5264 92.8893H42.056L43.7425 92.0364L44.5857 92.8893H47.9586V92.0364H49.645C49.645 92.0364 48.8018 92.0364 51.3314 93.7422C53.8611 95.448 53.0179 93.7422 53.8611 95.448C54.7043 97.1538 55.5475 96.3009 55.5475 96.3009H57.234L59.7636 97.1538L60.6069 98.8597V102.271C60.6106 103.195 60.3143 104.094 59.7636 104.83L58.9204 105.683L59.7636 108.242L60.6069 109.095H62.2933L64.6881 109.947H68.9042C68.744 109.947 69.0559 108.242 69.0559 108.242H74.1153C74.3389 108.242 74.5533 108.152 74.7114 107.992C74.8696 107.832 74.9585 107.615 74.9585 107.389V106.536L76.6449 104.83V103.977L78.3314 103.124L80.0178 102.271L81.7042 103.124L83.3907 104.83H85.9203C86.7635 104.83 88.45 106.536 88.45 106.536L91.8229 107.389L93.5093 108.242L96.039 109.095L98.5686 109.947C98.5686 109.947 99.4117 106.536 99.5214 106.536H101.081L101.925 105.683V102.271L103.611 101.418V98.0067L104.454 92.8893L105.297 92.0364L106.141 87.7718L105.297 85.2131L106.984 83.5073L107.827 81.8015V78.3898L106.141 75.8311L108.67 74.1253C108.67 74.1253 108.67 71.5666 109.514 70.7136L110.357 69.8607L111.2 68.1549C111.583 67.0459 111.865 65.904 112.043 64.7433C112.165 63.7845 112.386 62.8414 112.701 61.9288L106.984 60.4787Z" fill="white" stroke="black" stroke-miterlimit="10"/>
</svg>
