<svg width="26" height="31" viewBox="0 0 26 31" fill="none" xmlns="http://www.w3.org/2000/svg">
<path d="M3.24887 3.82224H1.71875L5.92658 1.14453H7.07417L9.94314 2.67465L10.8995 3.43971L12.2383 4.20477L13.3859 4.77857L14.5335 5.35236L15.2986 5.54363L16.0636 5.35236L17.0199 5.1611L17.5937 4.96983L18.3588 4.77857H19.1239V7.26501L18.7413 9.17766L18.1675 13.1942L16.4462 14.9156V16.0632L16.8287 17.0195L17.4025 18.1671L22.5666 21.4186L24.8618 22.1837L19.8889 26.774L17.4025 30.2168H15.8724L13.9597 29.4517L13.7684 28.3042L13.3859 26.5828L12.8121 24.4789H7.64796L6.69164 23.9051L5.92658 22.5662L5.35278 21.0361L5.54405 19.506L6.69164 15.6807L7.26543 14.3418L7.64796 12.8117L7.26543 10.7078L5.54405 6.69122L4.77899 5.1611L3.82266 3.82224H3.24887Z" fill="white" stroke="black" stroke-miterlimit="10"/>
</svg>
