<svg width="77" height="99" viewBox="0 0 77 99" fill="none" xmlns="http://www.w3.org/2000/svg">
<path d="M72.0864 37.4426L69.5232 34.0603L67.8144 30.678L66.8573 26.915H68.6517C67.9521 25.0366 67.3531 23.1231 66.8573 21.1822C66.7548 20.1422 66.0029 20.2351 66.0029 20.2351L62.6879 19.6855L60.9791 20.5311L58.4159 23.9134L57.5615 25.6046L54.9042 28.1413H42.1822L39.619 24.759L37.9102 21.3767L34.9711 19.136L29.3662 17.1488L27.0508 14.7137L25.1027 7.77978L25.6751 2.70632C25.1995 2.77323 24.7201 2.80985 24.2397 2.81615L22.5309 1.50567L17.4045 1.125H11.3296V1.92846L4.58846 4.46519H1L2.02524 9.53864L4.69943 11.6526V16.8189L9.71488 17.9944V22.7041C9.71488 23.9133 11.8167 26.932 11.8167 26.932V31.7688C11.8167 31.7688 12.2183 36.1658 11.8167 36.8423C11.4151 37.5188 15.6957 41.6705 15.6957 41.6705L17.4045 43.3617L21.386 44.2072L27.0508 50.1263C27.0508 50.1263 29.3662 53.5086 28.5118 54.3541C27.5818 55.5479 26.7611 56.8213 26.0595 58.1592C26.0595 58.1592 31.075 61.9643 31.9294 62.8099C32.7838 63.6555 38.7646 67.8833 38.7646 67.8833C38.7646 67.8833 43.0366 70.4201 43.0366 72.1112C43.0366 73.8024 44.7454 77.1847 44.7454 77.1847V85.6404L42.1822 90.7646C42.6003 91.5604 42.8886 92.4165 43.0366 93.3014C43.1263 93.9426 43.4265 94.5368 43.891 94.9925L46.4543 97.5293C47.3087 98.3748 47.3087 97.5293 47.3087 97.5293L50.7263 96.6837L53.2895 95.8381L54.9983 94.147C55.4858 93.7081 55.7904 93.1051 55.8527 92.4558H57.5615V95.8381H64.3967L66.1056 94.9925L67.8144 93.3014L69.5232 91.6102L70.3776 90.7646V89.0735L71.232 86.5368L72.0864 85.6912L72.9408 82.3089L72.0864 79.7722L69.5232 77.2354H70.3776L72.9408 75.5443L74.4959 75.0286L73.7952 72.1112C73.789 71.7068 73.8495 71.3039 73.9746 70.9188C74.02 70.1841 73.9596 69.4468 73.7952 68.7289L71.232 65.3466L68.6688 62.8099V61.1187L70.4716 58.1592L69.5232 56.0453L71.232 52.663L66.8573 50.1263L65.2511 46.744L69.19 44.7147L73.7952 46.744L76.3584 45.002V40.8249L72.0864 37.4426Z" fill="white" stroke="black" stroke-miterlimit="10"/>
</svg>
