<svg width="102" height="118" viewBox="0 0 102 118" fill="none" xmlns="http://www.w3.org/2000/svg">
<path d="M90.1282 73.6457L89.2784 71.0872L90.1282 65.9703V60.8534L87.5787 59.3354L86.6694 57.6298L87.5787 56.5723L90.9781 53.161L92.8137 50.4149L91.522 48.0441L87.5957 44.6328V41.2216H88.4455L90.1452 39.5159L91.8449 36.1047L91.7429 34.399L90.0433 30.9878L91.9384 27.2951L92.7882 19.9012L85.8535 18.1955C85.8535 18.1955 85.0037 17.3427 85.0037 18.1955C85.0037 19.0483 82.3522 18.8351 82.3522 18.8351L80.7544 19.0483L79.9046 20.754L77.3551 21.6068H65.4572L63.4601 22.0503L60.3837 25.8879L56.9843 25.0351C56.9843 25.0351 54.4348 22.4767 54.4348 21.6238C54.4348 20.771 49.3357 19.0654 49.3357 18.2126C49.3357 17.3598 45.0865 15.6541 45.0865 15.6541L41.6871 12.2429L33.1886 11.39H27.2397L24.6902 13.9485L23.8403 15.6541L22.1407 17.3598L19.5911 15.6541L17.8914 12.2429L16.1917 9.68442L15.3419 6.27315L14.492 4.56752L12.7924 3.7147L11.0927 2.00907L9.39298 1.15625L8.54313 2.86188L5.9936 5.42033V8.8316C5.85731 10.5586 5.57298 12.2705 5.14376 13.9485L3.44407 15.6541L2.59422 17.3598C2.59422 17.3598 0.894531 20.771 0.894531 21.6238C0.894531 22.4767 2.59422 25.615 2.59422 25.615V31.8576L5.9936 32.6167L8.54313 33.5633V36.1217L5.9936 38.6802L7.69329 42.0914C8.6133 42.0877 9.50906 42.3873 10.2428 42.9443C11.0927 43.7971 12.7924 45.3407 12.7924 45.3407C12.5523 45.9055 12.4285 46.5133 12.4285 47.1273C12.4285 47.7414 12.5523 48.3491 12.7924 48.914L17.0416 48.0612L21.2908 48.914L26.3899 51.7027V55.7365C26.3899 56.5893 28.9394 57.4421 28.9394 57.4421L30.6391 55.7365L33.1886 52.3252C34.6114 52.3268 36.032 52.438 37.4379 52.6578C39.1375 52.9904 37.4379 54.8837 37.4379 54.8837L40.9307 58.0647V59.975L44.2366 60.8278L45.9363 64.2391L45.0865 65.9447L43.3868 67.6504C43.3868 67.6504 43.3868 70.2088 41.6871 70.7631C39.9874 71.3175 41.6871 73.9441 41.6871 73.9441L44.2366 75.3257L41.6871 77.8842C41.6871 77.8842 42.265 78.3191 43.0638 78.9587C44.3666 79.9712 45.6095 81.0589 46.7862 82.2165L53.5849 81.2954H55.2846L53.5849 85.5595L54.4348 87.2651L51.8852 89.8236C51.0354 90.6764 50.1855 88.9708 50.1855 88.9708L48.4858 91.5292L49.3357 94.9405L46.7862 95.9042V102.616L50.1855 100.057L54.8002 100.987L56.9843 110.317C56.9843 110.317 54.4348 112.875 54.8512 112.466C55.2676 112.057 54.8512 117.139 54.8512 117.139H56.9843L58.684 115.434L61.2335 113.105L64.6329 110.317L71.4317 113.105V110.317L73.1313 103.878V93.2604L77.3806 89.8492L81.6298 87.2907L84.9697 83.8795H88.1396L96.0772 79.6154L98.6267 78.7626L100.488 76.9461L100.539 76.8608L96.5871 73.6457H90.1282Z" fill="white" stroke="black" stroke-miterlimit="10"/>
</svg>
