<svg width="67" height="61" viewBox="0 0 67 61" fill="none" xmlns="http://www.w3.org/2000/svg">
<path d="M32.1539 6.93753V9.92327L30.2826 12.0268L25.5956 11.1786L23.6903 12.0268L24.9577 14.5715L26.0295 17.1162L22.627 18.2526L17.5232 17.1162L14.1207 12.8751L11.4243 9.62632L9.30625 11.1869V18.9907L8.25148 21.3572L3.06258 23.0537L4.22804 26.0224L5.61446 28.143L6.46508 30.6876L3.06258 32.3841L1.36133 34.0805V36.7101L5.61446 38.3216L5.70812 43.0547L9.86759 45.9556L10.7182 49.3485H14.8098C16.3279 49.8751 17.8037 50.5157 19.2245 51.2652C20.0751 51.8929 24.3282 51.2652 24.3282 51.2652L27.7307 50.1967C27.8488 51.7618 28.0532 53.3192 28.3432 54.8619C28.5251 55.8406 28.6049 56.8355 28.5814 57.8306L31.1332 59.5271H34.4846L35.3864 56.9824L37.0876 54.8619H42.0977L43.8926 51.8931V49.5775L42.1914 46.8038L43.8926 43.0547L42.7357 40.8663L43.042 39.1698L45.5939 36.6252L44.8454 32.3841H47.5759L50.6976 34.0805L54.1001 34.9287L60.9051 33.5462L63.457 34.1824L66.0089 34.8695V32.4093L64.3076 29.7545L63.457 27.0065L64.3076 23.9019L62.1811 21.3572L60.9051 16.6751V12.8751L63.457 9.92327V4.47778L59.9694 5.24109H58.0725C58.0725 5.24109 50.6976 1 48.9964 1C47.2951 1 47.2951 3.54466 47.2951 3.54466L43.1525 5.24109H36.237L34.5357 2.69644L34.3401 2.41646L32.1539 3.54466V6.93753Z" fill="white" stroke="black" stroke-miterlimit="10"/>
</svg>
