<svg width="65" height="68" viewBox="0 0 65 68" fill="none" xmlns="http://www.w3.org/2000/svg">
<path d="M25.9604 44.8534L25.1162 47.4116L23.4279 49.9699V51.6753L23.85 54.8648L25.9604 55.9391L28.4928 57.005V58.4973L29.337 63.6138H31.8695L32.7136 65.3193L35.9637 66.5301C35.9637 66.5301 38.6227 66.172 38.6227 65.3193C38.6227 64.4665 40.3111 63.6138 40.3111 63.6138L43.6877 65.3193L45.0974 66.5301H47.0643L48.3475 63.6138H49.5968C49.5968 63.6138 50.441 59.35 50.441 58.4973C50.441 57.6446 47.9085 57.5167 47.9085 57.5167V49.1171L49.2928 43.7279V38.8842L50.0865 37.5797L52.8638 38.8842H57.1943L58.8826 35.8996L62.8332 33.0345L61.3137 31.5334V20.4477L64.0489 18.691C64.0489 18.691 63.9476 15.9029 64.0489 15.3571C64.1502 14.8113 61.3221 15.3571 61.3221 15.3571L61.8033 12.1764H61.3221L60.5709 10.7436L58.8826 8.18538L56.3501 5.62715L52.1293 3.06892L50.1285 1.5L49.5968 2.21617L47.6637 8.18538L46.4059 10.0187L42.8435 10.7436L41.1552 13.3018L36.9344 14.1546H31.135L26.8045 13.3018L25.1162 11.5964L23.5798 14.1546L21.7396 15.0073H19.4857L17.5188 16.7128H15.3915L12.4538 14.1546L10.7655 15.8601L9.07716 16.7128H6.72193L4.00376 18.4183L1.69922 18.8872L2.31544 20.1238V21.8293H5.69208C5.91596 21.8293 6.13061 21.9192 6.28892 22.0791C6.44723 22.239 6.53624 22.4559 6.53624 22.682L7.3804 26.093L9.91287 26.9458L10.757 27.7985L12.4454 30.3567L13.2895 33.7677L14.1337 34.6205H20.0428L21.7311 33.7677L22.094 35.8996L21.7311 38.0314L20.0428 38.8842H17.5103L19.1986 40.5897L20.8869 42.2952L20.2707 43.2245L25.1162 44.8534H25.9604Z" fill="white" stroke="black" stroke-miterlimit="10"/>
</svg>
