<svg width="64" height="115" viewBox="0 0 64 115" fill="none" xmlns="http://www.w3.org/2000/svg">
<path d="M19.7016 112.956L21.4288 114.274C21.4288 114.274 24.0197 114.274 24.8833 113.424C25.6711 112.752 26.5415 112.181 27.4741 111.724L30.065 110.023L32.6559 107.473V104.073C32.6559 104.073 33.5195 100.673 34.3831 99.8227C34.8758 99.3815 35.1837 98.7753 35.2467 98.1225L36.1103 95.5723C36.4435 94.3345 37.0314 93.1771 37.8376 92.1721L38.7012 88.4402V83.6544C38.7012 82.8044 43.2438 81.8692 43.2438 81.8692V79.4041L45.6015 78.554L47.3287 76.0038V73.4536C48.0856 72.3032 48.9532 71.2273 49.9196 70.2406C50.7832 69.569 51.3963 64.953 51.3963 64.953L49.9196 60.7027L54.2377 58.1525L56.9753 53.0521L59.7907 50.2213L57.4071 49.6771H53.3827V47.977L55.11 46.2769C56.0426 45.8193 56.913 45.2481 57.7008 44.5767C58.2389 43.9767 58.5447 43.2093 58.5644 42.4092L59.998 39.4763C60.5287 38.2663 61.2074 37.1245 62.0189 36.0761C62.8825 35.226 62.8825 30.1256 62.8825 30.1256L60.4816 26.7254L55.11 28.4255L54.3585 26.7254L49.9282 23.3251L46.4738 20.7749L45.6101 18.2247L44.7465 16.5246L41.292 15.6745L40.4284 14.8244L38.7012 11.4242H35.2467L34.3831 12.2743L30.9286 13.1243L28.8387 11.6454L27.4741 9.90295V6.29847L24.8833 3.74828L22.7242 2.74505L20.5998 1.04492L16.2817 2.03113L17.4993 7.0041V15.4026L12.3176 17.7914V26.7L8.67313 30.5083V34.6312L12.3176 39.468L8.67313 41.4317H6.74728V44.5514L5.54694 49.9407L2.42918 52.3722V55.6023L1.67773 55.9933L5.88366 58.1525L13.8116 64.953V81.2316L17.1107 83.6544L19.7016 87.9981L17.9743 92.1551H13.8116L8.37943 97.2555V101.064L5.02004 103.206L8.37943 106.606V112.557H14.5199L19.7016 112.956Z" fill="white" stroke="black" stroke-miterlimit="10"/>
</svg>
