<svg width="91" height="123" viewBox="0 0 91 123" fill="none" xmlns="http://www.w3.org/2000/svg">
<path d="M6.65397 99.0934L13.5965 104.136L22.0817 107.697L23.7959 110.253C23.7959 110.253 25.5101 115.364 26.3672 116.216C27.2243 117.068 30.4985 121.328 30.4985 121.328L34.0811 117.92H36.6524V114.657L46.9375 113.661L52.0801 109.401L50.3659 105.142L56.4428 95.7711L53.8715 93.2155L59.7854 86.4004H64.0709L65.7851 84.6966L72.102 82.141L78.6415 80.4372L82.0699 84.6966L89.7838 83.8448L87.2125 79.5853L83.9297 77.0297C83.9297 77.0297 84.9154 72.2934 85.2068 71.6801C85.4982 71.0667 85.2068 66.4323 85.2068 66.4323L82.9356 61.6788L84.5811 58.5354L87.8896 56.201L87.2211 54.8637L85.5069 49.7524C83.8207 49.3211 82.1 49.0361 80.3643 48.9005C78.6501 48.9005 76.0788 46.3449 76.0788 46.3449L71.7933 47.1968L67.5078 48.0487L63.5823 49.7524C63.0391 48.6698 62.6305 47.5256 62.3653 46.3449C62.3653 45.493 60.6511 47.1968 60.6511 47.1968L59.3139 49.7524H52.9372L52.0801 48.0487L49.5088 47.1968H45.2233L44.3662 45.493L43.5091 43.7892L46.0804 42.0855L48.6517 41.2336L52.9372 40.3817L53.7943 37.8261L52.0801 32.5442V25.8997L49.5088 21.6403L45.2233 20.2602V18.2328L42.9006 13.9734H40.9378L37.5095 12.2101V5.45455L34.9382 3.75078L31.3899 2.04702L30.5328 1.5957L28.4413 4.15135L24.653 5.45455L21.2246 8.01019L19.5104 10.5658V15.6771L20.3675 18.2328V19.9365L21.2246 21.6403L22.9388 22.4922V25.8997C23.0288 26.5457 23.3299 27.1444 23.7959 27.6035C23.7959 27.6035 24.653 30.1591 25.5101 31.011C25.9991 31.4532 26.3047 32.0606 26.3672 32.7148L27.2243 35.2704L28.0814 36.1223L29.7956 36.9742L28.9385 38.6779C28.2804 38.7401 27.6692 39.0438 27.2243 39.5298C26.3672 40.3817 26.3672 40.3817 26.3672 41.2336C26.3672 42.0855 25.5101 41.2336 25.5101 41.2336L22.9388 40.3817L20.6247 42.1878V45.9189H18.7134L16.082 47.1968L14.3678 49.7524L10.9395 51.4562L9.22526 56.5675V57.4194L6.65397 59.1913V65.0863L4.93978 69.3457L4.08268 71.0495L2.36849 72.7532L1.51139 74.917C0.959571 75.803 0.663095 76.8226 0.654297 77.8645C0.706942 79.046 0.998435 80.2049 1.51139 81.2721L1.43418 81.3486L6.65397 88.0871V99.0934Z" fill="white" stroke="black" stroke-miterlimit="10"/>
</svg>
