<svg width="71" height="100" viewBox="0 0 71 100" fill="none" xmlns="http://www.w3.org/2000/svg">
<path d="M69.9843 6.69132L66.1514 1.00391L63.5847 1.66248L60 3.81776H51.6069L51.2048 3.38135L46.5932 8.04271L42.5465 6.6742C42.3563 8.19922 42.3563 9.74205 42.5465 11.2671C42.9058 12.9776 45.618 16.1251 45.618 16.1251V23.8225L41.2717 20.7092H30.2179L26.7957 24.9855L24.1093 28.8342L22.7575 31.9901H18.6079L18.2401 35.2144H16.529L13.8255 32.084C12.5714 31.9044 11.2979 31.9044 10.0438 32.084L7.97338 34.3592L6.48472 37.1814L6.26226 38.6355L5.20994 44.0749L3.69558 47.1881L1.12891 50.6092L3.69558 54.0302L4.55114 59.1618L3.9266 60.5044L1.12891 66.8592V83.1092L2.65183 88.2408H7.11782L8.82894 89.9513L10.0438 94.6127L13.8255 97.6487L17.0167 98.9316L18.6079 95.2282L24.1093 92.7994L26.5904 95.2282L30.7399 92.7994L34.239 94.9288L38.7735 93.7657V91.6618L42.1957 89.096L45.618 85.0419C45.618 85.0419 43.0512 76.2673 43.1881 75.7969C43.325 75.3265 45.618 71.0073 45.618 71.0073L49.9985 68.9548L51.6069 65.6874L52.4625 62.5829L55.8847 63.4381L61.8736 61.7276L63.8329 60.5044L63.5847 60.1541V54.4579L67.8625 44.0749V22.3855L68.9662 21.5302L66.8102 11.2671L69.9843 6.69132Z" fill="white" stroke="black" stroke-miterlimit="10"/>
</svg>
