<svg width="130" height="83" viewBox="0 0 130 83" fill="none" xmlns="http://www.w3.org/2000/svg">
<path d="M128.112 30.7415C126.139 28.098 120.775 29.7811 117.909 29.3391C114.135 28.4466 110.929 24.4853 107.707 22.9723C104.613 24.8253 100.056 28.0724 96.655 25.5223C94.1045 25.2588 90.2361 28.489 89.5389 24.579C85.8661 23.5164 85.9088 18.0172 82.202 16.7591C83.0522 12.4666 79.2179 7.46842 75.4006 11.506C67.2304 17.1585 64.7818 15.8241 60.4884 8.02956C54.8688 7.68106 46.0355 8.56493 42.0992 3.8559C38.4448 3.87139 34.7956 3.57562 31.1914 2.97186C28.5303 -3.28419 13.9243 4.2382 10.7871 8.11423C4.53833 17.0988 3.76467 8.47973 6.53625 23.4143C2.88049 26.2024 -1.01332 23.2018 1.43519 29.3644C5.44802 33.0279 -2.8157 35.0424 7.38642 32.7644C8.95075 26.2194 10.4046 30.5884 15.038 30.2144C16.4578 27.7154 18.8808 24.7744 22.086 25.1144C22.7066 22.6748 27.8843 23.5333 29.5931 23.4143C31.4295 17.7533 35.6973 16.4443 40.5433 20.0143C43.995 19.8443 48.45 19.8189 51.3831 21.9609C48.2714 22.3179 50.2098 22.8109 50.9495 24.7404C49.8357 26.6954 50.0993 31.1664 46.9367 30.2144C52.8879 32.9004 55.4384 33.4022 52.0377 40.2447L54.1547 35.3144C54.0526 37.1334 54.6223 41.46 53.3045 42.9645C51.7742 45.625 55.0049 44.2824 56.3482 44.6139C61.4492 49.7139 53.483 52.4421 49.0536 51.4646C46.9027 53.3941 47.6423 56.0716 49.0536 58.2646C47.7358 61.3331 48.9176 65.9827 50.958 68.4647C45.0748 68.3542 44.1566 72.7657 44.8027 77.8148C57.3598 77.0327 52.2588 81.2148 58.4055 82.0648C67.3239 84.3428 69.9339 71.0147 76.2593 67.6147C80.5782 66.8582 85.1436 72.0687 88.1617 66.7647C98.4149 69.0087 95.3967 60.0752 95.8133 53.0712C96.7291 53.1847 97.6585 53.1002 98.5386 52.823C99.4188 52.5458 100.229 52.0823 100.914 51.4646C103.278 49.7645 103.065 45.6165 102.615 42.9645C100.46 42.5871 98.4228 41.7141 96.6635 40.4145C97.0886 34.7619 99.129 35.7057 103.465 33.8356C112.97 34.5581 110.215 36.3858 113.123 43.9253C121.625 45.7698 132.192 41.8426 128.112 30.7415Z" fill="white" stroke="black" stroke-miterlimit="10"/>
</svg>
