<svg width="65" height="82" viewBox="0 0 65 82" fill="none" xmlns="http://www.w3.org/2000/svg">
<path d="M60.9685 51.8071C59.9557 50.1645 57.8279 46.5132 56.7129 44.9982C53.9894 44.079 50.0912 43.296 52.4574 47.5516C49.4104 48.4027 45.0271 48.275 41.3928 48.4027C37.4777 47.1515 40.1672 44.7173 41.3928 42.4449C41.2652 39.5171 41.8865 34.9296 40.5417 32.2315C43.1717 30.7591 42.2865 27.9079 42.2439 25.4226C40.1076 19.218 45.3505 19.4648 43.9462 11.8048C40.2608 11.6431 41.3928 6.82583 37.9883 5.84705C32.2518 4.78316 31.222 -2.96176 25.2727 3.07262C24.7195 -4.18737 18.0892 11.541 8.19921 10.1026C3.76489 15.4391 -5.1293 44.9471 8.19921 39.8915C8.99909 40.6388 9.51953 41.6368 9.67433 42.7204C9.82913 43.804 9.609 44.908 9.05033 45.8493C19.4936 49.8836 18.4892 38.8191 19.2637 55.2116C21.1938 54.8952 23.1739 55.1264 24.9793 55.8786C26.7846 56.6308 28.3428 57.8739 29.4772 59.4671C35.5882 61.0162 41.112 67.1272 39.6906 73.9872C38.3969 75.2979 31.3411 81.0598 37.1372 80.7449C39.7842 75.0765 50.2189 86.6174 49.0529 78.4297C48.406 75.953 51.6999 73.7147 54.1596 73.936C57.3938 75.0084 56.6449 74.5487 56.7129 71.8677C56.3299 70.1655 59.8791 71.2806 62.6708 67.1271C63.1474 61.9098 66.7817 55.2116 60.9685 51.8071Z" fill="white" stroke="black" stroke-miterlimit="10"/>
</svg>
