<svg width="62" height="69" viewBox="0 0 62 69" fill="none" xmlns="http://www.w3.org/2000/svg">
<path d="M7.43698 63.212H11.7669L15.2308 64.0642L16.0968 65.01L18.6947 64.0642H23.8906L26.4886 65.7686L28.6882 68.3253H36.0143L42.0762 66.6208L41.2102 64.9164L40.3443 63.212L42.9422 60.6553L45.7046 63.212H49.0041L51.602 61.5075L54.1999 57.2464L55.9319 52.9853L57.6639 44.4632C57.6639 44.4632 59.3958 36.7932 59.3958 35.762C59.3958 34.7308 61.1278 29.1232 61.1278 28.271C61.1278 27.9642 60.8939 26.6179 60.5995 25.0498L60.2618 25.7143C60.2618 25.7143 58.5299 24.0099 58.5299 23.1577C58.5299 22.3055 56.7979 22.3055 56.7979 22.3055H53.334C52.3988 21.8468 51.526 21.2741 50.736 20.601C49.87 19.7488 49.6882 19.7488 49.6882 19.7488L48.1381 18.8966L47.2721 17.1922L46.4061 13.7833V12.0788L48.1381 10.3744L49.0041 8.66997L45.5401 7.81775L44.6742 6.96553L42.9422 4.40887L41.2102 6.11331L39.4783 6.96553C39.0075 6.50623 38.7032 5.90733 38.6123 5.26109C38.4623 4.36931 38.17 3.50646 37.7463 2.70444L35.1484 3.55666H30.8185L28.5237 1H23.8906L22.1587 2.70444L20.773 4.40887L18.6947 6.11331L16.0968 6.96553L14.3648 5.26109L12.6329 4.40887L10.9009 5.26109L9.16894 6.24106V8.66997L7.43698 10.2209V12.0788L6.571 19.6806V22.3055L5.70502 24.8621L4.23289 25.8338L6.571 29.9754L10.0349 35.941L16.0968 40.2021V44.8722C16.0968 45.3154 12.6329 48.7242 12.6329 48.7242L10.9009 51.2809V54.6898L9.16894 55.7892L8.30296 58.0986L6.571 59.8031L3.10707 62.3597L1.45312 63.016L4.83903 64.9164L7.43698 63.212Z" fill="white" stroke="black" stroke-miterlimit="10"/>
</svg>
