<svg width="73" height="83" viewBox="0 0 73 83" fill="none" xmlns="http://www.w3.org/2000/svg">
<path d="M9.87247 71.3098C9.87247 72.1708 10.7196 77.3368 10.7196 77.3368L13.261 81.6418H17.107C17.107 81.6418 19.7077 80.7808 19.8771 80.7808C20.4055 79.7003 20.7464 78.5352 20.8852 77.3368C20.8852 76.4758 22.5794 75.6148 22.5794 75.6148C23.6809 75.2239 24.8151 74.9357 25.968 74.7538C26.8151 74.7538 27.6622 75.6148 28.5094 75.6148C29.1517 75.7052 29.7471 76.0077 30.2036 76.4758C30.2036 76.4758 31.8979 77.3368 32.745 76.4758C33.5921 75.6148 33.5921 74.7538 34.4393 74.7538C35.2864 74.7538 37.8278 75.6148 37.8278 76.4758C37.8278 77.3368 40.3692 77.3368 42.0635 77.3368C43.5053 77.2315 44.9284 76.9423 46.2991 76.4758C46.2991 76.4758 47.0191 73.8928 46.6548 73.8928C47.9187 73.2526 49.2137 72.6779 50.5348 72.1708L53.0762 73.0318L55.6176 71.3098V67.5904C55.6176 67.0049 53.9233 66.1438 53.9233 65.2828V62.6998C53.9233 62.6998 54.7704 60.1168 53.9233 60.1168C53.0762 60.1168 52.229 60.1168 52.229 59.2558C52.229 58.3948 52.229 58.3948 53.0762 57.5338C53.9233 56.6728 56.4647 56.6728 56.4647 56.6728C56.4647 56.6728 56.4647 53.2288 57.3118 52.3678C58.159 51.5068 60.7004 49.604 60.7004 49.604L59.8532 47.2018V43.7578L64.0889 42.8968L67.9095 41.1748L69.1717 42.0358L71.7131 40.7098V36.4048L67.4774 31.7294L60.7004 29.5596L57.3542 28.2681H51.8733L48.8405 30.8511V26.1156L45.1302 21.983H40.0474V18.4011L42.9106 13.6227V11.0397L40.0726 4.69401L37.2349 1.31055L36.9807 1.56868L33.5921 3.29068V5.11611L35.2864 11.0397V18.7887L33.5921 21.3717L31.8979 19.6497L29.3565 17.9277L27.6622 17.0667L25.968 16.2057L23.4266 11.9007L21.7323 11.0397H16.6495L15.8024 13.6227L12.4139 14.4837L11.5667 15.3447L10.1606 21.3717V30.5758L11.5667 32.5647C11.5667 32.5647 9.02534 35.4663 9.02534 36.1723C9.02534 36.8783 7.33107 39.4527 7.33107 39.4527H3.83252C3.42639 39.4448 3.02585 39.354 2.65489 39.1858C2.4503 39.8318 2.3168 40.4989 2.25676 41.1748C2.25676 41.4031 2.34608 41.622 2.50495 41.7835C2.66381 41.945 2.87922 42.0358 3.10389 42.0358L3.95103 44.6188C3.95103 44.6188 4.79805 47.2018 4.47614 48.0628C4.15423 48.9238 2.25676 48.0628 1.40963 48.0628C0.5625 48.0628 0.5625 50.6458 0.5625 50.6458L1.40963 54.0898C1.87018 54.5538 2.16785 55.1589 2.25676 55.8118C2.25676 56.6728 1.40963 56.6728 1.40963 57.5338C1.40963 57.7621 1.49895 57.9811 1.65781 58.1425C1.81668 58.304 2.03209 58.3948 2.25676 58.3948L5.64529 60.1168C6.05975 60.9271 6.34565 61.7988 6.49242 62.6998C6.49242 63.5608 4.79816 62.6998 4.79816 62.6998L2.25676 63.5608L3.10389 66.1438H5.64529V68.2189C6.18938 68.4527 6.75775 68.623 7.33955 68.7268C8.17821 68.7268 9.87247 70.4488 9.87247 71.3098Z" fill="white" stroke="black" stroke-miterlimit="10"/>
</svg>
