<svg width="110" height="149" viewBox="0 0 110 149" fill="none" xmlns="http://www.w3.org/2000/svg">
<path d="M1.93635 100.973C0.439822 107.695 -2.06006 118.818 8.73875 113.72C11.8083 114.153 13.2709 117.969 13.8406 120.518C16.604 122.218 20.643 126.959 24.0442 124.767C26.7559 125.982 29.6142 126.839 32.5472 127.316C36.2715 125.404 36.7987 128.837 40.1999 129.866C36.9602 136.197 40.3019 143.462 45.4972 147.711C49.9868 148.774 52.5887 143.462 56.3556 142.613C58.1072 138.933 60.9557 130.512 65.7089 135.814C66.8228 139.001 67.8176 144.941 72.5113 143.462C78.2083 147.975 79.9429 139.927 81.652 135.814C85.0532 136.103 89.9084 135.092 87.8167 130.716C97.3826 125.26 86.5923 140.522 103.972 128.166C102.569 122.821 99.2191 115.64 101.957 110.32C105.885 111.34 106.209 108.374 106.523 105.222C110.29 99.613 109.925 89.9254 104.491 85.4469C96.7279 86.0248 90.036 85.9653 87.8167 77.1785C89.1347 71.1619 97.085 69.5303 101.422 66.1311C98.7771 61.7122 91.9577 57.0298 92.0682 51.6846C95.682 48.8548 96.9999 44.4867 94.6191 40.4331C96.8129 30.465 84.7556 32.972 79.5433 36.8385C80.8187 28.791 77.1369 30.5587 70.8107 29.59C69.0506 23.7944 69.8159 15.8743 65.794 10.8945C62.7754 12.713 58.0052 11.2683 59.3316 7.03637C63.3961 -2.31137 55.2501 2.78743 49.5106 2.39652C46.4155 4.09611 49.0175 4.94589 44.0177 4.504C43.5415 9.44131 46.1095 7.63109 44.0177 12.8488C42.2491 13.6136 40.8971 16.2482 38.9159 15.9932C37.9806 15.3389 38.6778 19.588 38.4737 19.724C39.8512 28.0349 35.9228 35.87 27.5984 38.1049C28.6952 44.9968 25.4131 52.1775 23.1683 58.5C22.7262 62.1626 24.5033 66.794 25.0645 70.3971C22.4115 71.3404 23.704 75.2494 24.0186 77.1955C32.1985 84.1808 24.9795 99.919 16.3659 85.6934C16.9526 91.642 15.1755 95.5086 8.71322 94.1914C10.3373 99.2052 5.65216 100.123 1.93635 100.973Z" fill="white" stroke="black" stroke-miterlimit="10"/>
</svg>
