<svg width="55" height="114" viewBox="0 0 55 114" fill="none" xmlns="http://www.w3.org/2000/svg">
<path d="M52.1107 56.3118C52.1107 56.3118 50.6659 51.4763 50.411 50.6235C50.156 49.7707 46.4082 50.6235 45.9748 50.6235H41.3176L38.7681 48.9179C38.7681 48.9179 37.0684 45.5066 37.0684 44.6538C37.0684 43.801 38.7681 42.0954 38.7681 41.2425C38.7681 40.3897 44.717 37.8313 44.717 37.8313L47.2666 35.2728L48.1164 30.4374V19.0693L48.9662 14.3788L49.8161 10.5411L50.411 10.3876L46.9351 8.26412L42.8134 10.6861L40.3488 8.26412L34.8843 10.6861L33.3036 14.3788L30.1337 13.0996L26.3774 10.1147L25.1706 5.42424L23.4709 3.71861H19.0347L18.2784 1.16016H16.6721L14.9725 2.86579L14.1226 6.27706V7.6842L12.4229 10.5411H7.74878L5.59018 12.2468C5.59018 12.2468 3.04064 14.8052 3.04064 15.658C2.86111 16.8187 2.57666 17.9605 2.1908 19.0693V21.0478L1.23047 22.8217L7.48533 25.8918L10.2048 34.8891L12.5589 37.8313L19.1112 59.6804V63.4158L14.9385 64.2686L13.9866 67.5519L14.9385 70.2383L17.488 73.6496L19.1112 75.8243V83.8834L18.2614 87.0644L14.0121 90.4757L12.4144 93.2814L14.0121 97.6905V102.569L12.5504 108.709C12.9498 108.922 14.1141 109.63 14.1141 110.338C14.1141 111.191 16.6637 112.043 16.6637 112.043L19.2132 112.896V110.338L18.9242 108.632C18.1163 108.14 17.3591 107.569 16.6637 106.926C15.8138 106.074 19.2132 106.074 19.2132 106.074H26.0119L28.0091 108.632H31.9609L32.0288 106.074C32.0288 106.074 30.2612 106.926 30.2612 106.074V99.2511C30.2612 97.5455 32.8107 98.3983 32.8107 98.3983C32.8107 98.3983 37.0599 106.926 36.8899 104.368C36.72 101.81 37.9098 101.81 37.9098 101.81L39.6095 102.662L40.4593 100.957C40.0435 100.154 39.7567 99.2907 39.6095 98.3983C39.6095 97.5455 37.9098 95.8399 37.9098 95.8399C37.9538 94.6559 38.2433 93.4941 38.7596 92.4286C39.6095 90.723 38.7596 91.5758 38.7596 91.5758L37.0599 89.0173C37.0599 89.0173 35.3602 87.3117 35.3602 86.4589C35.3602 85.6061 37.0599 84.7533 37.0599 84.7533H41.3092C43.8587 84.7533 42.159 83.0476 42.159 83.0476V79.6364L44.7085 80.4892V77.9307H42.159C41.3092 77.9307 39.6095 76.2251 39.6095 75.3723C39.6095 74.5195 42.159 73.6666 42.159 72.8138C42.159 71.961 43.0088 71.1082 43.8587 70.2554L45.5584 68.5497L44.7085 66.8441L41.3092 65.9913H37.9098L34.5104 64.2857C34.9262 63.4831 35.213 62.6196 35.3602 61.7272C35.3602 60.8744 37.0599 62.58 37.0599 62.58C37.8597 62.9973 38.7202 63.2851 39.6095 63.4328C40.4988 63.5806 41.3592 63.8684 42.159 64.2857H45.5584L47.2581 63.4328L48.1079 62.58L52.3571 61.7272L53.207 60.0216L53.8529 59.6975L52.1107 56.3118Z" fill="white" stroke="black" stroke-miterlimit="10"/>
</svg>
