<svg width="72" height="93" viewBox="0 0 72 93" fill="none" xmlns="http://www.w3.org/2000/svg">
<path d="M11.9636 73.6248C11.9636 73.6248 12.0233 71.8609 12.0489 70.6567C11.9779 70.4584 11.9488 70.2476 11.9636 70.0376C12.0488 69.1302 12.0659 69.7153 12.0489 70.6567C12.6111 72.3951 15.9932 73.6248 15.9932 73.6248H21.4966L26.2505 76.3386L29.2322 79.315C29.2322 79.315 32.214 84.8189 32.214 85.6669C32.214 86.5149 35.7494 87.8549 35.7494 87.8549L39.8813 92.4341H42.7949V87.8379L47.5487 83.9539L45.9726 79.4338L44.9929 76.3216L47.5487 72.9295L49.2526 72.0815V68.8592L52.3281 66.4335L53.5122 61.0571V57.928H55.4035L58.9986 55.969L55.4035 51.1438V47.0307L58.9986 43.2316V34.3783L64.1102 31.9952V23.6168L62.8834 18.6558L67.1431 17.672L66.2912 16.9598L68.8469 15.2637L70.7979 11.8716H69.6989L68.8469 10.1755C68.3884 9.25976 67.8159 8.40502 67.1431 7.63146C66.2912 6.78343 65.4392 6.78343 65.8311 6.78343C64.8648 6.44734 63.8808 6.16424 62.8834 5.9354L61.0689 6.78343H60.3276L59.4757 5.9354L56.9199 5.08738L56.068 4.23935C56.068 4.23935 55.216 1.69547 55.4035 1.47498C55.4546 1.40714 55.2076 1.06793 54.8413 0.626953H51.1609L52.0128 7.67369H48.6051L46.0493 11.7614H43.7832L39.6939 7.67369H36.0221L32.1884 11.7614V15.3825L36.0221 18.3419V23.4301L32.1884 25.1261L27.0768 28.8661L25.373 34.8023V40.3144L22.749 43.2656V45.3769L25.3985 49.1848L25.3133 54.2729L24.5466 55.969H16.0273V55.511L13.4715 56.817L12.2022 55.969L8.35995 57.665L4.10031 58.5131V61.9052L4.95224 64.2712C4.95224 64.2712 2.39645 66.1453 1.54452 66.9933C1.06579 67.7572 0.806607 68.6371 0.794922 69.5374L4.95224 73.6334L11.9636 73.6248Z" fill="white" stroke="black" stroke-miterlimit="10"/>
</svg>
