<svg width="101" height="118" viewBox="0 0 101 118" fill="none" xmlns="http://www.w3.org/2000/svg">
<path d="M85.1725 110.912C84.5044 106.812 84.2199 102.659 84.3227 98.5061C82.5635 96.2969 80.9998 91.6152 80.9233 88.8197C79.0027 86.8145 77.6686 84.4693 79.7422 82.0223C73.6829 81.4785 72.9944 75.3097 75.8244 70.9763C76.7677 65.7338 69.0257 68.0024 70.7254 62.4795C72.3316 58.5709 74.0483 52.1558 76.7763 48.8845C78.4759 49.1564 80.9488 48.8079 81.7732 47.049C81.5692 44.364 81.7307 40.5491 85.1725 40.3876C87.671 37.8386 92.1157 36.445 95.4725 38.1614C95.294 35.6123 97.563 32.749 99.6026 31.517C99.2541 29.6392 100.707 24.7196 97.274 24.8556C96.2032 22.4085 96.3051 17.9815 97.6139 15.6364C95.0644 15.5854 95.2769 13.3421 95.3704 11.4983L93.6708 13.1977C82.759 16.6729 83.4728 8.94927 80.9233 1.3021C69.3827 -1.9522 77.796 19.103 69.0257 20.8449C67.5725 21.0233 63.026 25.2972 63.9268 21.6946C61.3773 19.7148 60.0091 15.6788 57.1281 14.0474C53.7883 15.1265 50.6779 11.4389 47.78 13.1977C45.7064 20.454 40.9814 13.8775 37.5821 11.4983C37.3441 7.99762 33.4008 7.53861 31.7607 10.4615C28.8968 9.43341 28.8204 13.0787 28.234 14.8971L25.7696 14.1835C25.7696 -4.86649 12.5887 17.7179 14.7218 26.1977C5.49264 28.237 19.4893 34.9836 4.03938 35.7144C-2.88672 42.1125 5.14416 49.7512 9.13835 54.4075C13.5999 62.9893 15.0871 74.7235 20.611 82.0223C17.7216 84.4693 15.3931 83.0844 12.9626 85.421C13.0051 87.3668 12.4697 90.6126 15.2911 90.961C18.019 96.8408 12.4527 97.6225 20.611 98.4127C21.0423 98.2828 21.4952 98.2396 21.9432 98.2862C22.3913 98.3327 22.8255 98.4678 23.2209 98.6836C23.6163 98.8995 23.9648 99.192 24.2462 99.5437C24.5277 99.8954 24.7363 100.299 24.8602 100.732C25.795 102.865 28.3275 103.621 29.1093 105.83C37.7691 106.918 45.698 104.547 52.9045 99.8827C55.2076 102.959 60.349 102.262 63.1025 104.981C68.4904 112.067 67.3516 109.476 75.8499 110.929C81.2548 109.9 80.031 112.798 80.8723 116.876C83.1158 115.568 86.2603 114.174 85.1725 110.912Z" fill="white" stroke="black" stroke-miterlimit="10"/>
</svg>
