<svg width="83" height="76" viewBox="0 0 83 76" fill="none" xmlns="http://www.w3.org/2000/svg">
<path d="M5.14852 48.0476L9.34023 47.2032L11.0169 48.8921V60.1905C11.0169 60.1905 11.8553 59.8697 11.8553 60.7141V70.0028C11.8553 70.0451 13.5319 72.5782 13.5319 72.5782L15.2086 73.4226L19.4003 74.267L21.9154 73.4226V68.8459L25.2687 69.2005L26.1071 70.0449C26.1071 70.0449 27.2891 71.6157 27.113 72.5192C26.9988 73.3785 26.9428 74.2445 26.9454 75.1115H30.0304C30.0304 75.1115 31.1371 74.267 31.1371 73.4226V71.3623L33.6521 70.8893L34.4905 69.2005C34.4905 69.2005 36.1672 69.2005 36.1672 70.0449C36.1672 70.8893 37.8439 70.8893 37.8439 70.8893H41.1972L44.5506 70.0449H45.3889V63.4923C45.3889 62.4452 44.5506 62.445 44.5506 61.6006C44.5506 60.7562 46.571 59.0673 46.4033 59.4895C46.2356 59.9117 49.0442 58.5523 49.0442 58.5523L49.5806 56.534C49.5806 56.534 49.5806 54.0007 50.419 54.0007C51.2573 54.0007 52.0957 52.3119 52.934 52.3119C53.7723 52.3119 53.7723 50.623 54.6107 51.4674C55.2728 52.2377 55.8361 53.0888 56.2874 54.0007C56.2874 54.0007 55.449 55.5377 56.2874 55.6137C57.1257 55.6897 58.8024 55.6896 59.6407 55.6896C60.4791 55.6896 62.9941 54.0007 62.9941 54.8451C62.9941 55.6896 64.6205 55.9432 64.6708 57.0832C64.7211 58.2232 66.0877 59.0673 67.0685 59.4895C68.0494 59.9117 67.211 59.9117 68.0493 60.7562L70.5644 63.2894H81.4628V60.7562H78.9478L78.1094 58.2229L80.6245 57.3784C80.6245 57.3784 82.3011 58.2229 82.3011 57.3784C82.1559 56.4948 81.873 55.6398 81.4628 54.8451L78.1094 53.1563C77.8871 53.1563 77.6739 53.0677 77.5167 52.9093C77.3595 52.7509 77.2711 52.5358 77.2711 52.3119C77.2711 51.4674 78.1094 51.4674 78.1094 50.623C78.0214 49.9827 77.7269 49.3892 77.2711 48.9341L76.4327 45.5564C76.4327 45.5564 76.4327 43.0231 77.2711 43.0231C78.1094 43.0231 79.9872 43.8676 80.3058 43.0231C80.6243 42.1787 79.7861 39.6454 79.7861 39.6454L78.9478 37.1121C78.7254 37.1121 78.5123 37.0235 78.355 36.8651C78.1978 36.7068 78.1094 36.4916 78.1094 36.2677C78.1688 35.6048 78.301 34.951 78.5034 34.3174C78.3887 34.2683 78.2901 34.1875 78.2189 34.0845C78.1477 33.9814 78.1069 33.8598 78.101 33.7344C78.101 32.89 77.2627 29.5122 77.2627 28.6678C77.2627 27.8234 75.586 23.6012 75.586 23.6012L73.071 21.9124C73.071 21.9124 73.1128 21.786 73.1715 21.5833L64.6708 23.5592C64.6708 23.5592 57.9641 16.8036 55.9269 16.0014C53.8898 15.1991 54.2503 10.7237 54.2503 10.7237H48.8346L44.5506 8.35943L41.1972 2.54119L35.3288 1.2832V6.67057L30.4496 9.20386C30.4496 9.20386 25.0926 11.3234 22.0662 10.5212C22.0662 10.5212 27.9346 13.4767 27.0963 15.5878C26.582 17.0839 26.582 18.7105 27.0963 20.2066H11.8553L9.181 23.5843L3.47184 26.962C3.47184 26.962 0.118473 31.9021 0.956814 32.8141C1.79516 33.7261 0.956814 38.7251 0.956814 38.7251L2.6335 44.7289L1.42633 46.0463L2.6335 47.2032L5.14852 48.0476Z" fill="white" stroke="black" stroke-miterlimit="10"/>
</svg>
