<svg width="49" height="48" viewBox="0 0 49 48" fill="none" xmlns="http://www.w3.org/2000/svg">
<path d="M44.6452 17.84C43.3029 16.2802 42.1609 14.5567 41.2462 12.7101L40.1926 11.077L36.1478 12.7101L33.8534 11.077L31.7376 3.3052L30.1995 1.59522H22.5518L17.1559 3.3052L12.3548 0.740234H8.53097L8.95585 1.59522L3.00762 3.3052H0.611328L1.28263 6.72515L3.18606 11.077V16.7713L0.63682 21.6874L1.58854 26.9798L10.9952 29.8098L15.7198 32.3748V34.6833L14.5897 35.658L12.3208 37.5047L11.4711 40.9247H14.5897L15.7198 44.8405L17.6063 46.8412C18.3116 46.7471 19.1273 46.5334 19.1273 46.0546C19.1273 45.1996 21.6766 43.4896 21.6766 43.4896L22.5263 40.0697L27.6248 39.1036L31.8735 37.5047L34.4228 33.2298L35.2725 31.5198C36.1717 31.6252 37.0396 31.9163 37.8218 32.3748C39.5213 33.2298 41.2208 34.0848 42.0705 33.2298C42.9203 32.3748 43.77 29.8098 43.77 29.8098L45.4695 25.5349L48.0187 22.1149C47.012 20.5998 45.8837 19.17 44.6452 17.84V17.84Z" fill="white" stroke="black" stroke-miterlimit="10"/>
</svg>
