<svg width="76" height="106" viewBox="0 0 76 106" fill="none" xmlns="http://www.w3.org/2000/svg">
<path d="M7.35355 75.7202V78.258L4.51066 82.9444V86.4636H9.60226L13.3192 90.5238V95.1764L16.3573 92.6386H21.8477L25.1997 93.9075L31.9885 96.0393L36.2315 100.633V105.327H44.7175L45.4811 103.636L45.5661 98.5601L42.9523 94.7282V92.6386L45.5661 89.6949V84.1794L47.2633 78.258L52.3549 74.5274L56.1736 72.8355V67.76L52.3549 64.808V61.1959L56.1736 57.1183H59.8311L63.9042 61.1959H66.1616L68.7074 57.1183H72.1018L71.2532 50.089H75.4962V42.7632L71.6945 39.3036H65.7543L67.4515 35.074L65.3385 29.8039C65.3385 29.8039 61.7065 27.4604 61.9441 26.0985C62.1817 24.7365 61.9441 17.8338 61.9441 17.8338L55.8765 11.6166L54.8752 13.1222H52.3294C51.868 12.6663 51.5699 12.0718 51.4808 11.4303C51.4808 10.5844 49.7836 11.4303 49.7836 11.4303C49.7836 11.4303 48.0864 12.2763 48.0864 13.1222C48.0864 13.9681 46.3892 13.1222 46.3892 13.1222C46.1641 13.1222 45.9483 13.033 45.7892 12.8743C45.6301 12.7157 45.5406 12.5006 45.5406 12.2763C45.5406 11.4303 43.8434 11.4303 43.8434 11.4303L42.1462 12.2763L41.2976 11.4303C41.2976 11.4303 39.6004 10.5844 39.6004 9.7385V8.04666L38.0729 5.5089L37.0546 2.79353V1.2793H36.206L34.5088 2.97114L30.0451 5.5089L25.1742 3.81706V2.65805L23.477 4.68817V8.07185L20.0826 10.6096C20.0826 10.6096 18.3854 11.4555 18.3854 12.3015V22.588L20.0826 26.6821L18.3854 31.1149L15.8396 32.6035V39.9463L13.7945 42.831L11.5966 51.1886L9.05075 53.7263V57.592L7.35355 60.4937L4.80775 61.3396L3.11055 63.8774L2.26195 65.5692L1.66797 66.1615L4.51066 69.4857L7.35355 75.7202Z" fill="white" stroke="black" stroke-miterlimit="10"/>
</svg>
