<svg width="63" height="71" viewBox="0 0 63 71" fill="none" xmlns="http://www.w3.org/2000/svg">
<path d="M32.0397 70.3554L35.8211 65.5978H39.3403L42.132 64.3761H51.1838L56.2597 61.8136L52.2328 58.4824L51.1838 54.9801L54.5677 53.2718H58.8822L61.3524 50.9399C61.3524 50.9399 58.8145 49.0009 58.8145 47.2925V43.8758L61.3524 41.3132L59.1951 36.043L52.2498 31.7721L47.174 23.2303L44.0185 21.001L39.3318 23.2303L33.41 13.9966V3.7464L32.5217 1.5L31.7181 2.03803L30.0262 4.60058H26.6423C24.9778 5.03199 23.2796 5.31777 21.5665 5.45476C19.8745 5.45476 20.7205 6.30894 20.7205 6.30894L19.0286 8.0173V9.72566L22.4124 11.434L24.1044 13.1424H22.4124C21.6536 13.8338 20.7985 14.4094 19.8745 14.8507C18.1826 15.7049 18.3941 16.4653 18.3941 16.4653V18.6946H14.4011L13.1152 16.542L11.8802 18.6775L10.5773 20.8129L7.19347 21.6671L5.50153 22.5213L2.96362 22.6068V26.7922L2.11765 28.5602V31.0631L1.67773 31.7379L5.50153 34.4798L4.65556 38.7507L2.96362 41.3132L6.47431 42.1674H10.5773L9.73137 45.5841L10.1035 49.0009H13.9612V51.5634L17.3451 52.4176L20.3568 53.2718L23.8336 56.6885L22.4209 60.9594V62.6678L25.8048 63.5219L27.1415 66.0845L25.6018 68.6983L30.0346 70.3554H32.0397Z" fill="white" stroke="black" stroke-miterlimit="10"/>
</svg>
