<svg width="59" height="60" viewBox="0 0 59 60" fill="none" xmlns="http://www.w3.org/2000/svg">
<path d="M53.3127 12.8028V15.8647L55.0003 17.0439L57.5318 19.5885L58.3756 22.1332L57.5318 22.9814V23.8296L58.3756 25.9924V26.9425H55.3631L55.0003 27.2225C55.0003 27.2225 53.3127 27.2819 54.1565 27.6806L55.0003 28.0707L55.8441 29.7672L56.688 30.6154L55.8441 32.0066L54.1565 33.0581C54.3885 33.0852 54.6025 33.197 54.7581 33.3721C54.9136 33.5472 54.9998 33.7735 55.0003 34.0083V39.0976L53.3127 39.8099V40.8619C53.3127 41.6423 51.6251 43.3387 51.6251 43.3387L50.7812 46.7315L49.9374 47.5797H48.0219L47.406 44.1869L45.7183 42.4904L41.4993 45.0351V46.8757L40.6554 50.1244L36.4364 49.2762H34.7487L33.9049 52.3638L30.5297 53.5173L29.6858 55.2137H26.5131L25.4668 56.0619L24.0997 57.3343L21.2477 59.4548H15.8051L15.0709 57.3343L12.8095 56.0619H8.59044L10.2781 51.8208L7.74662 50.9726L4.37136 51.8208V49.9376L2.68373 45.8833L0.996094 45.0351V38.2493L3.32503 36.1288L6.90281 35.7047V33.16L6.05899 31.4636L10.2781 29.7672L11.1219 27.2225H14.4972L17.0286 26.3743L17.8724 23.8296C17.8724 23.8296 17.0286 22.1332 17.8724 21.285C18.601 20.7311 19.4904 20.433 20.4039 20.4368L24.6229 19.5885L25.4668 18.7403V16.1957C25.5186 15.0192 25.8056 13.8653 26.3106 12.8028H27.5594L29.6858 12.1749L32.2173 7.71348L31.3735 6.86526L28.842 4.32061L29.6858 2.04723L30.5297 0.927734H33.9049L36.4364 1.77595C36.918 2.09638 37.4229 2.37993 37.9468 2.62417C38.124 2.62417 40.6554 3.47239 40.6554 3.47239L43.1869 5.16883V9.40992C43.1869 10.2581 44.8745 11.1064 44.8745 11.1064L46.5622 11.9546L50.7812 10.2581L51.6251 11.9546L53.3127 12.8028Z" fill="white" stroke="black" stroke-miterlimit="10"/>
</svg>
