<svg width="47" height="29" viewBox="0 0 47 29" fill="none" xmlns="http://www.w3.org/2000/svg">
<path d="M24.9127 4.60789V6.24966L22.3941 5.39457L19.036 3.6844L15.6779 4.53948L11.4803 1.97423L9.80122 1.11914L3.08499 2.82931L0.566406 4.53948V10.0291L1.40593 12.2353V10.5251L3.08499 8.81491L4.76405 9.67L7.28263 11.3802V13.0903L10.6407 14.8005L11.4803 13.0903L10.6407 10.5251H15.6779L16.5174 12.2353C16.5174 12.2353 17.357 19.0759 17.357 20.7861C17.357 22.4963 18.0202 21.2137 18.0202 21.2137H19.7412L20.7151 23.3514H23.2337L24.1236 21.2137L25.7523 22.4963V25.9166L28.2708 27.6268H29.9499L31.629 25.9166C32.4685 25.0615 34.9871 25.9166 34.9871 25.9166L36.6661 26.7717H40.8638L42.4421 26.2758L40.8638 22.4963L42.9122 21.2137L45.9009 18.2209L44.5829 14.8005H40.8638C40.0242 14.8005 36.8005 7.40402 37.0523 6.6772L25.7523 5.39457L24.9127 4.60789Z" fill="white" stroke="black" stroke-miterlimit="10"/>
</svg>
