<svg width="101" height="77" viewBox="0 0 101 77" fill="none" xmlns="http://www.w3.org/2000/svg">
<path d="M73.0437 24.0051C72.1979 24.0051 71.3522 23.1588 69.6608 22.3124C69.6608 22.3124 66.278 24.8513 64.5865 24.5043C64.5865 24.5043 62.0494 20.6196 62.2608 18.9523C62.4722 17.2851 61.635 16.8113 61.635 16.8113C61.635 16.8113 61.2037 13.0029 60.7893 12.5797C60.3749 12.1565 59.5122 5.38593 58.6665 4.5396C57.747 3.46847 56.8995 2.33756 56.1294 1.1543H53.5923L52.6957 2.84695L48.1205 4.5396H35.8323V7.07858L34.9866 12.1565L32.8215 11.8772C32.8215 11.8772 27.3751 13.0028 26.504 12.9351C25.6329 12.8674 23.1212 14.6955 23.1212 14.6955L19.7383 18.9271L18.0469 22.3124L15.5098 26.5441H7.05262L5.44585 27.3904L3.34003 32.0873H1.03125L2.00374 35.8537L3.69516 39.239L6.2323 42.6243L10.4609 46.0096V51.0875L13.8437 50.4019L18.0723 49.3949L22.3009 50.2412L23.1466 51.9338L24.838 58.7044L29.9123 59.5508L34.9866 57.0118L39.2151 57.8581L41.2278 59.5508L43.2915 62.3943L46.8265 62.0897L49.8543 59.5508H52.7465L55.1146 61.1335L57.8208 63.3592V67.6586L55.1146 69.7067L57.8208 72.9226L61.9563 76.1302L62.8951 73.5912L65.4322 71.4415V69.7488C65.4322 69.7488 62.8951 68.0562 62.8951 67.2099C62.8951 66.3635 64.5865 64.6709 64.5865 64.6709L67.1237 62.1319L72.1979 58.7466L76.1474 55.3613L83.1922 56.2076L88.5541 57.9003H95.1844L96.3346 55.3613L98.4151 53.1781V50.2412L99.3791 46.0096L100.106 40.0853L99.5145 38.0286C99.132 38.0336 98.7542 37.9434 98.4151 37.7661C97.0025 37.0183 95.5352 36.3791 94.0259 35.8537H89.9579L89.1122 32.4683L84.9768 29.574L84.8836 24.8514L81.7715 23.6749L79.8094 24.0051H73.0437Z" fill="white" stroke="black" stroke-miterlimit="10"/>
</svg>
