<svg width="64" height="59" viewBox="0 0 64 59" fill="none" xmlns="http://www.w3.org/2000/svg">
<path fill-rule="evenodd" clip-rule="evenodd" d="M54.4786 17.4411L54.6095 17.6072L57.7558 16.9746L58.5146 15.957L57.7558 15.0848L56.6558 11.4845L55.1978 6.71264L51.7871 4.87412V3.2235L49.229 2.53953L46.671 1.89816L39.8496 3.29198L36.4389 2.43681L33.3097 0.751953H30.5726L31.3229 5.00231L28.7648 7.56781L28.4578 9.27814L29.6175 11.4845L27.9122 15.2643L29.6175 18.0607V20.3953L28.5001 22.2492L28.3942 22.1256L27.7481 23.2037H22.6736L20.9505 25.3598L20.0372 27.9472H16.6427L14.0581 26.2223C14.0819 25.2104 14.0011 24.1988 13.8168 23.2037C13.5231 21.6351 13.3161 20.0516 13.1965 18.4602L9.7503 19.5467C8.41032 19.7484 7.05589 19.8379 5.70104 19.8141L6.30409 21.91L5.56306 27.9472L4.58098 32.2595V35.209L2.46159 37.4342L1.13477 40.358C1.13477 40.358 4.58098 42.3848 3.71943 43.3594C2.85787 44.3339 6.30409 45.6275 6.30409 45.6275H8.88875C9.40323 46.3922 9.97953 47.1133 10.6119 47.7836L13.1965 50.371L14.9196 47.7836L16.6427 48.6461L17.4612 52.0959L19.2274 54.295L22.3892 52.0959L27.0159 51.5438C27.0106 51.4404 27.0106 51.3369 27.0159 51.2335C27.0159 50.371 23.5696 46.9212 22.7081 46.9212C21.8465 46.9212 22.7081 44.3338 23.5696 44.3338C25.147 44.6512 26.699 45.0836 28.2133 45.6275L29.6005 43.4714L31.3236 42.6089L34.7698 46.9212L36.088 45.6275C36.088 45.6275 38.2161 43.4714 38.2161 42.6089C38.2161 41.7465 41.6623 40.884 41.6623 40.884V46.0587C41.6623 46.9212 45.1085 46.9212 45.1085 46.9212C46.5262 47.2931 47.9647 47.5811 49.4162 47.7836C50.2778 47.7836 50.2778 49.5086 50.2778 49.5086L45.97 51.2335C45.97 51.2335 45.1085 52.9584 44.2469 52.9584C43.3854 52.9584 41.6623 54.6833 41.6623 54.6833V55.5457C41.6623 56.4082 43.3854 57.2706 44.2469 57.2706C44.4754 57.2706 44.6945 57.3616 44.8561 57.5233C45.0176 57.6851 45.1085 57.9044 45.1085 58.1331H49.4162L51.1394 57.2706H52.8625L55.4471 56.4082L57.1702 54.6833H61.478L62.3396 52.9584L59.7204 52.0959C59.7204 52.0959 54.5511 52.0959 53.6895 51.2335C52.828 50.371 56.2742 50.371 56.2742 50.371L58.8588 48.6461L57.9973 46.9212L55.4989 45.6275L54.5511 44.3338L53.6895 43.4714V40.884C53.2983 39.7626 53.01 38.6079 52.828 37.4342C52.828 37.2054 52.9188 36.9861 53.0804 36.8244C53.2419 36.6627 53.461 36.5717 53.6895 36.5717H56.2742V30.7072L53.6895 27.9472L51.9664 25.3598C51.9664 25.3598 53.6895 21.0473 53.6895 19.7623V17.5977L54.4786 17.4411Z" fill="white"/>
<path d="M54.4786 17.4411L54.8714 17.1317L54.6818 16.891L54.3812 16.9507L54.4786 17.4411ZM54.6095 17.6072L54.2167 17.9166L54.4068 18.158L54.708 18.0974L54.6095 17.6072ZM57.7558 16.9746L57.8543 17.4648L58.0421 17.4271L58.1566 17.2735L57.7558 16.9746ZM58.5146 15.957L58.9154 16.2559L59.1563 15.9329L58.8918 15.6289L58.5146 15.957ZM57.7558 15.0848L57.2776 15.2308L57.3087 15.3326L57.3785 15.4129L57.7558 15.0848ZM56.6558 11.4845L57.134 11.3384L57.134 11.3384L56.6558 11.4845ZM55.1978 6.71264L55.6759 6.56654L55.6159 6.37002L55.435 6.27251L55.1978 6.71264ZM51.7871 4.87412H51.2871V5.17261L51.5498 5.31425L51.7871 4.87412ZM51.7871 3.2235H52.2871V2.83962L51.9162 2.74047L51.7871 3.2235ZM49.229 2.53953L49.3582 2.05644L49.3506 2.05455L49.229 2.53953ZM46.671 1.89816L46.7926 1.41317L46.6823 1.38552L46.5709 1.40828L46.671 1.89816ZM39.8496 3.29198L39.728 3.77697L39.8383 3.80462L39.9497 3.78186L39.8496 3.29198ZM36.4389 2.43681L36.2019 2.87706L36.2568 2.90663L36.3173 2.9218L36.4389 2.43681ZM33.3097 0.751953L33.5467 0.311711L33.4357 0.251953H33.3097V0.751953ZM30.5726 0.751953V0.251953H29.9766L30.0802 0.838867L30.5726 0.751953ZM31.3229 5.00231L31.6769 5.35535L31.8604 5.17132L31.8153 4.9154L31.3229 5.00231ZM28.7648 7.56781L28.4108 7.21477L28.3004 7.32552L28.2727 7.47946L28.7648 7.56781ZM28.4578 9.27814L27.9657 9.18979L27.9353 9.35879L28.0152 9.51077L28.4578 9.27814ZM29.6175 11.4845L30.0733 11.6902L30.1736 11.4678L30.0601 11.2519L29.6175 11.4845ZM27.9122 15.2643L27.4564 15.0587L27.3479 15.2993L27.4853 15.5246L27.9122 15.2643ZM29.6175 18.0607H30.1175V17.9203L30.0444 17.8004L29.6175 18.0607ZM29.6175 20.3953L30.0458 20.6534L30.1175 20.5343V20.3953H29.6175ZM28.5001 22.2492L28.1205 22.5746L28.5711 23.1001L28.9284 22.5073L28.5001 22.2492ZM28.3942 22.1256L28.7738 21.8002L28.3221 21.2733L27.9654 21.8686L28.3942 22.1256ZM27.7481 23.2037V23.7037H28.0313L28.1769 23.4607L27.7481 23.2037ZM22.6736 23.2037V22.7037H22.4331L22.283 22.8915L22.6736 23.2037ZM20.9505 25.3598L20.5599 25.0477L20.5071 25.1137L20.479 25.1934L20.9505 25.3598ZM20.0372 27.9472V28.4472H20.3909L20.5087 28.1136L20.0372 27.9472ZM16.6427 27.9472L16.3652 28.3631L16.4912 28.4472H16.6427V27.9472ZM14.0581 26.2223L13.5582 26.2105L13.5517 26.4855L13.7805 26.6382L14.0581 26.2223ZM13.8168 23.2037L14.3084 23.1126L14.3083 23.1117L13.8168 23.2037ZM13.1965 18.4602L13.6951 18.4227L13.6478 17.7936L13.0462 17.9833L13.1965 18.4602ZM9.7503 19.5467L9.82475 20.0411L9.86338 20.0353L9.90064 20.0235L9.7503 19.5467ZM5.70104 19.8141L5.70984 19.3142L5.03349 19.3023L5.22053 19.9523L5.70104 19.8141ZM6.30409 21.91L6.80036 21.9709L6.81278 21.8697L6.78459 21.7717L6.30409 21.91ZM5.56306 27.9472L6.05057 28.0582L6.05623 28.0334L6.05933 28.0081L5.56306 27.9472ZM4.58098 32.2595L4.09346 32.1484L4.08098 32.2032V32.2595H4.58098ZM4.58098 35.209L4.94304 35.5538L5.08098 35.409V35.209H4.58098ZM2.46159 37.4342L2.09953 37.0893L2.04122 37.1506L2.00628 37.2276L2.46159 37.4342ZM1.13477 40.358L0.679454 40.1514L0.493583 40.561L0.881296 40.789L1.13477 40.358ZM3.71943 43.3594L4.09403 43.6905L4.09403 43.6905L3.71943 43.3594ZM6.30409 45.6275L6.12837 46.0956L6.21334 46.1275H6.30409V45.6275ZM8.88875 45.6275L9.30359 45.3484L9.15498 45.1275H8.88875V45.6275ZM10.6119 47.7836L10.2481 48.1267L10.2531 48.1319L10.2581 48.137L10.6119 47.7836ZM13.1965 50.371L12.8428 50.7244L13.2743 51.1563L13.6127 50.6482L13.1965 50.371ZM14.9196 47.7836L15.1434 47.3365L14.7483 47.1388L14.5035 47.5065L14.9196 47.7836ZM16.6427 48.6461L17.1292 48.5307L17.0753 48.3035L16.8665 48.199L16.6427 48.6461ZM17.4612 52.0959L16.9747 52.2113L17.0007 52.3211L17.0713 52.409L17.4612 52.0959ZM19.2274 54.295L18.8376 54.6081L19.1298 54.9719L19.5129 54.7055L19.2274 54.295ZM22.3892 52.0959L22.33 51.5994L22.2061 51.6142L22.1037 51.6854L22.3892 52.0959ZM27.0159 51.5438L27.0751 52.0403L27.5391 51.9849L27.5152 51.5183L27.0159 51.5438ZM27.0159 51.2335L27.5152 51.259L27.5159 51.2462V51.2335H27.0159ZM23.5696 44.3338L23.6683 43.8436L23.6195 43.8338H23.5696V44.3338ZM28.2133 45.6275L28.0443 46.0981L28.4186 46.2325L28.6338 45.898L28.2133 45.6275ZM29.6005 43.4714L29.3767 43.0243L29.2542 43.0856L29.18 43.2008L29.6005 43.4714ZM31.3236 42.6089L31.7142 42.2968L31.4616 41.9807L31.0998 42.1618L31.3236 42.6089ZM34.7698 46.9212L34.3792 47.2333L34.7249 47.6659L35.1201 47.278L34.7698 46.9212ZM36.088 45.6275L36.4383 45.9844L36.4439 45.9787L36.088 45.6275ZM41.6623 40.884H42.1623V40.2435L41.5409 40.399L41.6623 40.884ZM45.1085 46.9212L45.2354 46.4376L45.173 46.4212L45.1085 46.4212L45.1085 46.9212ZM49.4162 47.7836L49.3472 48.2788L49.3815 48.2836H49.4162V47.7836ZM50.2778 49.5086L50.4637 49.9727L50.7778 49.8469L50.7778 49.5086L50.2778 49.5086ZM45.97 51.2335L45.7842 50.7693L45.6077 50.84L45.5227 51.01L45.97 51.2335ZM41.6623 54.6833L41.3085 54.3299L41.1623 54.4763V54.6833H41.6623ZM44.8561 57.5233L45.2098 57.17L45.2098 57.1699L44.8561 57.5233ZM45.1085 58.1331H44.6085V58.6331H45.1085V58.1331ZM49.4162 58.1331V58.6331H49.5344L49.64 58.5802L49.4162 58.1331ZM51.1394 57.2706V56.7706H51.0212L50.9156 56.8235L51.1394 57.2706ZM52.8625 57.2706V57.7706H52.9437L53.0207 57.7449L52.8625 57.2706ZM55.4471 56.4082L55.6054 56.8825L55.7174 56.8451L55.8009 56.7616L55.4471 56.4082ZM57.1702 54.6833V54.1833H56.963L56.8165 54.3299L57.1702 54.6833ZM61.478 54.6833V55.1833H61.7872L61.9253 54.9067L61.478 54.6833ZM62.3396 52.9584L62.7869 53.1818L63.0453 52.6644L62.4959 52.4835L62.3396 52.9584ZM59.7204 52.0959L59.8768 51.621L59.8006 51.5959H59.7204V52.0959ZM53.6895 51.2335L53.3358 51.5868L53.3358 51.5868L53.6895 51.2335ZM56.2742 50.371V50.871H56.4257L56.5517 50.7869L56.2742 50.371ZM58.8588 48.6461L59.1364 49.062L59.5032 48.8172L59.3061 48.4227L58.8588 48.6461ZM57.9973 46.9212L58.4446 46.6978L58.3718 46.5521L58.2272 46.4772L57.9973 46.9212ZM55.4989 45.6275L55.0955 45.923L55.1648 46.0176L55.269 46.0715L55.4989 45.6275ZM54.5511 44.3338L54.9544 44.0383L54.9318 44.0075L54.9048 43.9805L54.5511 44.3338ZM53.6895 43.4714H53.1895V43.6783L53.3358 43.8247L53.6895 43.4714ZM53.6895 40.884H54.1895V40.7993L54.1616 40.7193L53.6895 40.884ZM52.828 37.4342H52.328V37.4727L52.3339 37.5108L52.828 37.4342ZM53.0804 36.8244L53.4341 37.1778L53.4341 37.1778L53.0804 36.8244ZM56.2742 36.5717V37.0717H56.7742V36.5717H56.2742ZM56.2742 30.7072H56.7742V30.5096L56.6391 30.3654L56.2742 30.7072ZM53.6895 27.9472L53.2734 28.2243L53.2963 28.2588L53.3246 28.289L53.6895 27.9472ZM51.9664 25.3598L51.5021 25.1743L51.4046 25.4183L51.5503 25.637L51.9664 25.3598ZM53.6895 17.5977L53.5922 17.1073L53.1895 17.1872V17.5977H53.6895ZM54.0858 17.7505L54.2167 17.9166L55.0022 17.2978L54.8714 17.1317L54.0858 17.7505ZM54.708 18.0974L57.8543 17.4648L57.6572 16.4844L54.5109 17.117L54.708 18.0974ZM58.1566 17.2735L58.9154 16.2559L58.1137 15.6581L57.3549 16.6757L58.1566 17.2735ZM58.8918 15.6289L58.133 14.7566L57.3785 15.4129L58.1373 16.2852L58.8918 15.6289ZM58.234 14.9387L57.134 11.3384L56.1776 11.6306L57.2776 15.2308L58.234 14.9387ZM57.134 11.3384L55.6759 6.56654L54.7196 6.85875L56.1776 11.6306L57.134 11.3384ZM55.435 6.27251L52.0243 4.43399L51.5498 5.31425L54.9605 7.15277L55.435 6.27251ZM52.2871 4.87412V3.2235H51.2871V4.87412H52.2871ZM51.9162 2.74047L49.3582 2.0565L49.0999 3.02257L51.6579 3.70653L51.9162 2.74047ZM49.3506 2.05455L46.7926 1.41317L46.5494 2.38315L49.1074 3.02452L49.3506 2.05455ZM46.5709 1.40828L39.7495 2.8021L39.9497 3.78186L46.7711 2.38804L46.5709 1.40828ZM39.9712 2.80699L36.5605 1.95183L36.3173 2.9218L39.728 3.77697L39.9712 2.80699ZM36.676 1.99657L33.5467 0.311711L33.0726 1.1922L36.2019 2.87706L36.676 1.99657ZM33.3097 0.251953H30.5726V1.25195H33.3097V0.251953ZM30.0802 0.838867L30.8305 5.08923L31.8153 4.9154L31.065 0.665039L30.0802 0.838867ZM30.9688 4.64927L28.4108 7.21477L29.1189 7.92085L31.6769 5.35535L30.9688 4.64927ZM28.2727 7.47946L27.9657 9.18979L28.9499 9.36649L29.257 7.65616L28.2727 7.47946ZM28.0152 9.51077L29.1749 11.7172L30.0601 11.2519L28.9004 9.04551L28.0152 9.51077ZM29.1618 11.2789L27.4564 15.0587L28.3679 15.4699L30.0733 11.6902L29.1618 11.2789ZM27.4853 15.5246L29.1906 18.321L30.0444 17.8004L28.3391 15.004L27.4853 15.5246ZM29.1175 18.0607V20.3953H30.1175V18.0607H29.1175ZM29.1893 20.1372L28.0719 21.9911L28.9284 22.5073L30.0458 20.6534L29.1893 20.1372ZM28.8797 21.9237L28.7738 21.8002L28.0146 22.451L28.1205 22.5746L28.8797 21.9237ZM27.9654 21.8686L27.3192 22.9466L28.1769 23.4607L28.8231 22.3827L27.9654 21.8686ZM27.7481 22.7037H22.6736V23.7037H27.7481V22.7037ZM22.283 22.8915L20.5599 25.0477L21.3411 25.672L23.0642 23.5158L22.283 22.8915ZM20.479 25.1934L19.5657 27.7808L20.5087 28.1136L21.422 25.5262L20.479 25.1934ZM20.0372 27.4472H16.6427V28.4472H20.0372V27.4472ZM16.9203 27.5313L14.3356 25.8064L13.7805 26.6382L16.3652 28.3631L16.9203 27.5313ZM14.5579 26.2341C14.5826 25.1878 14.499 24.1417 14.3084 23.1126L13.3252 23.2947C13.5032 24.256 13.5813 25.2331 13.5582 26.2105L14.5579 26.2341ZM14.3083 23.1117C14.018 21.5612 13.8133 19.9958 13.6951 18.4227L12.6979 18.4976C12.8188 20.1073 13.0283 21.7091 13.3253 23.2957L14.3083 23.1117ZM13.0462 17.9833L9.59996 19.0698L9.90064 20.0235L13.3469 18.937L13.0462 17.9833ZM9.67585 19.0522C8.3634 19.2499 7.03682 19.3375 5.70984 19.3142L5.69225 20.314C7.07496 20.3383 8.45723 20.247 9.82475 20.0411L9.67585 19.0522ZM5.22053 19.9523L5.82358 22.0483L6.78459 21.7717L6.18155 19.6758L5.22053 19.9523ZM5.80781 21.8491L5.06678 27.8863L6.05933 28.0081L6.80036 21.9709L5.80781 21.8491ZM5.07554 27.8362L4.09346 32.1484L5.0685 32.3705L6.05057 28.0582L5.07554 27.8362ZM4.08098 32.2595V35.209H5.08098V32.2595H4.08098ZM4.21892 34.8641L2.09953 37.0893L2.82365 37.779L4.94304 35.5538L4.21892 34.8641ZM2.00628 37.2276L0.679454 40.1514L1.59008 40.5646L2.9169 37.6408L2.00628 37.2276ZM1.13477 40.358C0.881296 40.789 0.881241 40.789 0.8812 40.789C0.881204 40.789 0.881176 40.7889 0.881183 40.7889C0.881198 40.789 0.881264 40.789 0.881381 40.7891C0.881616 40.7892 0.882056 40.7895 0.882698 40.7898C0.883982 40.7906 0.886071 40.7918 0.888937 40.7935C0.894668 40.797 0.903503 40.8022 0.915205 40.8093C0.938614 40.8234 0.973467 40.8446 1.01789 40.8721C1.10679 40.9271 1.23365 41.0073 1.38352 41.1067C1.68479 41.3064 2.07226 41.579 2.43 41.8773C2.79615 42.1825 3.09525 42.4855 3.2536 42.7419C3.33209 42.8691 3.35414 42.9503 3.35729 42.9901C3.35893 43.0108 3.35791 43.0134 3.34482 43.0282L4.09403 43.6905C4.29633 43.4617 4.37608 43.1877 4.35416 42.9111C4.33375 42.6534 4.22792 42.4165 4.10449 42.2166C3.85897 41.8189 3.45806 41.4324 3.07036 41.1092C2.67423 40.7789 2.254 40.4839 1.93603 40.2732C1.77628 40.1673 1.64064 40.0815 1.54444 40.0219C1.49631 39.9921 1.45796 39.9688 1.43131 39.9528C1.41798 39.9447 1.40757 39.9385 1.40031 39.9342C1.39669 39.932 1.39384 39.9303 1.39182 39.9292C1.39081 39.9286 1.39 39.9281 1.3894 39.9277C1.38911 39.9275 1.38886 39.9274 1.38866 39.9273C1.38857 39.9272 1.38846 39.9272 1.38841 39.9271C1.38832 39.9271 1.38824 39.927 1.13477 40.358ZM3.34482 43.0282C3.15612 43.2416 3.05952 43.5017 3.08521 43.7822C3.109 44.042 3.23249 44.2622 3.36588 44.4328C3.62824 44.7685 4.04664 45.0604 4.43441 45.2894C4.83483 45.5259 5.25831 45.727 5.57738 45.8677C5.7379 45.9384 5.8742 45.9949 5.97089 46.0338C6.01928 46.0533 6.05786 46.0685 6.08472 46.0789C6.09815 46.0841 6.10867 46.0881 6.11602 46.0909C6.1197 46.0923 6.12258 46.0934 6.12465 46.0942C6.12569 46.0946 6.12652 46.0949 6.12714 46.0951C6.12745 46.0953 6.12771 46.0954 6.12791 46.0954C6.12802 46.0955 6.12813 46.0955 6.12818 46.0955C6.12829 46.0956 6.12837 46.0956 6.30409 45.6275C6.4798 45.1594 6.47986 45.1594 6.47991 45.1594C6.47991 45.1594 6.47994 45.1595 6.47994 45.1595C6.47994 45.1595 6.47988 45.1594 6.47978 45.1594C6.47957 45.1593 6.47915 45.1592 6.47853 45.1589C6.47729 45.1585 6.47525 45.1577 6.47243 45.1566C6.4668 45.1545 6.45806 45.1511 6.44647 45.1466C6.42327 45.1376 6.38865 45.124 6.34449 45.1062C6.25608 45.0706 6.12987 45.0184 5.98078 44.9526C5.68061 44.8203 5.29638 44.6371 4.94293 44.4284C4.57685 44.2122 4.29524 43.998 4.15374 43.817C4.0852 43.7293 4.08081 43.6885 4.08104 43.691C4.08317 43.7143 4.06734 43.7207 4.09403 43.6905L3.34482 43.0282ZM6.30409 46.1275H8.88875V45.1275H6.30409V46.1275ZM8.4739 45.9066C9.00365 46.694 9.59705 47.4365 10.2481 48.1267L10.9756 47.4405C10.362 46.7901 9.80281 46.0904 9.30359 45.3484L8.4739 45.9066ZM10.2581 48.137L12.8428 50.7244L13.5503 50.0176L10.9656 47.4303L10.2581 48.137ZM13.6127 50.6482L15.3358 48.0608L14.5035 47.5065L12.7804 50.0939L13.6127 50.6482ZM14.6958 48.2308L16.4189 49.0932L16.8665 48.199L15.1434 47.3365L14.6958 48.2308ZM16.1562 48.7615L16.9747 52.2113L17.9477 51.9805L17.1292 48.5307L16.1562 48.7615ZM17.0713 52.409L18.8376 54.6081L19.6172 53.9819L17.851 51.7828L17.0713 52.409ZM19.5129 54.7055L22.6747 52.5064L22.1037 51.6854L18.9419 53.8845L19.5129 54.7055ZM22.4485 52.5924L27.0751 52.0403L26.9566 51.0474L22.33 51.5994L22.4485 52.5924ZM27.5152 51.5183C27.5108 51.4319 27.5108 51.3454 27.5152 51.259L26.5165 51.2079C26.5104 51.3284 26.5104 51.4489 26.5165 51.5694L27.5152 51.5183ZM27.5159 51.2335C27.5159 50.9922 27.4072 50.7494 27.3056 50.5622C27.1933 50.355 27.0391 50.1273 26.8626 49.8941C26.5085 49.4261 26.0344 48.8967 25.5388 48.4005C25.0432 47.9044 24.5143 47.4298 24.0468 47.0753C23.8138 46.8986 23.5864 46.7443 23.3793 46.6318C23.1923 46.5302 22.9495 46.4212 22.7081 46.4212V47.4212C22.6821 47.4212 22.7355 47.42 22.9018 47.5104C23.0481 47.5899 23.2313 47.7119 23.4425 47.8721C23.8635 48.1914 24.3577 48.6331 24.8313 49.1073C25.305 49.5814 25.7463 50.0761 26.0652 50.4976C26.2253 50.709 26.3471 50.8924 26.4266 51.0389C26.5169 51.2054 26.5159 51.2591 26.5159 51.2335H27.5159ZM22.7081 46.4212C22.7434 46.4212 22.8086 46.4429 22.8512 46.4956C22.8771 46.5276 22.8629 46.5325 22.855 46.4618C22.8393 46.3204 22.8706 46.0754 22.9671 45.7855C23.0612 45.503 23.1989 45.2332 23.3452 45.0449C23.5121 44.8301 23.5978 44.8338 23.5696 44.8338V43.8338C23.1107 43.8338 22.7657 44.1609 22.5556 44.4313C22.3249 44.7282 22.1396 45.1052 22.0183 45.4695C21.8995 45.8265 21.823 46.2283 21.8611 46.5721C21.8802 46.7439 21.9333 46.9509 22.0736 47.1244C22.2307 47.3186 22.4574 47.4212 22.7081 47.4212V46.4212ZM23.471 44.824C25.0244 45.1366 26.5529 45.5624 28.0443 46.0981L28.3823 45.1569C26.845 44.6048 25.2695 44.1658 23.6683 43.8436L23.471 44.824ZM28.6338 45.898L30.021 43.7419L29.18 43.2008L27.7928 45.357L28.6338 45.898ZM29.8243 43.9185L31.5474 43.056L31.0998 42.1618L29.3767 43.0243L29.8243 43.9185ZM30.933 42.9211L34.3792 47.2333L35.1604 46.609L31.7142 42.2968L30.933 42.9211ZM35.1201 47.278L36.4383 45.9844L35.7378 45.2706L34.4196 46.5643L35.1201 47.278ZM36.088 45.6275C36.4439 45.9787 36.444 45.9787 36.444 45.9786C36.444 45.9786 36.4441 45.9785 36.4441 45.9785C36.4443 45.9784 36.4444 45.9782 36.4446 45.9781C36.4449 45.9777 36.4454 45.9772 36.446 45.9766C36.4472 45.9754 36.4489 45.9736 36.4511 45.9714C36.4556 45.9669 36.4619 45.9604 36.4701 45.9519C36.4865 45.9351 36.5103 45.9106 36.5403 45.8794C36.6002 45.8168 36.6855 45.727 36.7875 45.6167C36.9912 45.3966 37.2641 45.0925 37.5382 44.7592C37.8106 44.428 38.0926 44.0579 38.3091 43.7069C38.4174 43.5314 38.5151 43.3514 38.587 43.1764C38.6565 43.0075 38.7161 42.81 38.7161 42.6089H37.7161C37.7161 42.6234 37.7091 42.682 37.6622 42.7961C37.6178 42.9041 37.5492 43.034 37.458 43.1819C37.2755 43.4778 37.0255 43.8084 36.7659 44.124C36.508 44.4376 36.2488 44.7265 36.0535 44.9376C35.9561 45.0429 35.8751 45.1282 35.8187 45.187C35.7905 45.2164 35.7685 45.2391 35.7538 45.2542C35.7464 45.2618 35.7408 45.2675 35.7372 45.2712C35.7353 45.2731 35.734 45.2744 35.7332 45.2753C35.7327 45.2757 35.7325 45.276 35.7323 45.2762C35.7322 45.2763 35.7322 45.2763 35.7321 45.2763C35.7321 45.2763 35.7321 45.2763 35.7321 45.2763C35.7322 45.2763 35.7322 45.2763 36.088 45.6275ZM38.7161 42.6089C38.7161 42.6724 38.6853 42.6786 38.738 42.6192C38.788 42.5629 38.8785 42.4878 39.0197 42.3994C39.3005 42.2238 39.6946 42.0489 40.1149 41.8911C40.53 41.7353 40.9479 41.6045 41.2639 41.5122C41.4214 41.4662 41.5525 41.4301 41.6437 41.4057C41.6893 41.3935 41.7249 41.3842 41.7488 41.378C41.7607 41.3749 41.7697 41.3726 41.7756 41.3711C41.7786 41.3703 41.7807 41.3698 41.7821 41.3694C41.7827 41.3693 41.7832 41.3692 41.7835 41.3691C41.7836 41.3691 41.7837 41.369 41.7837 41.369C41.7837 41.369 41.7837 41.369 41.7837 41.369C41.7837 41.369 41.7837 41.369 41.6623 40.884C41.5409 40.399 41.5408 40.399 41.5407 40.399C41.5407 40.399 41.5406 40.399 41.5405 40.3991C41.5403 40.3991 41.5401 40.3992 41.5398 40.3992C41.5392 40.3994 41.5385 40.3996 41.5375 40.3998C41.5355 40.4003 41.5327 40.401 41.5292 40.4019C41.522 40.4037 41.5117 40.4064 41.4984 40.4098C41.4718 40.4167 41.4333 40.4268 41.3847 40.4398C41.2875 40.4659 41.1492 40.5039 40.9837 40.5523C40.6535 40.6487 40.2099 40.7873 39.7634 40.9549C39.3222 41.1206 38.8547 41.323 38.4893 41.5517C38.3075 41.6655 38.1288 41.7992 37.9903 41.9552C37.8545 42.108 37.7161 42.3298 37.7161 42.6089H38.7161ZM41.1623 40.884V46.0587H42.1623V40.884H41.1623ZM41.1623 46.0587C41.1623 46.354 41.3159 46.575 41.4809 46.7195C41.6395 46.8584 41.8371 46.9549 42.025 47.0254C42.404 47.1677 42.8815 47.2542 43.3233 47.3095C43.7726 47.3657 44.2183 47.3935 44.5492 47.4073C44.7153 47.4142 44.8539 47.4177 44.9515 47.4194C45.0003 47.4203 45.0389 47.4207 45.0656 47.421C45.079 47.4211 45.0894 47.4211 45.0966 47.4212C45.1002 47.4212 45.103 47.4212 45.105 47.4212C45.106 47.4212 45.1068 47.4212 45.1074 47.4212C45.1077 47.4212 45.1079 47.4212 45.1081 47.4212C45.1082 47.4212 45.1083 47.4212 45.1083 47.4212C45.1084 47.4212 45.1085 47.4212 45.1085 46.9212C45.1085 46.4212 45.1085 46.4212 45.1086 46.4212C45.1086 46.4212 45.1086 46.4212 45.1086 46.4212C45.1085 46.4212 45.1085 46.4212 45.1083 46.4212C45.1081 46.4212 45.1076 46.4212 45.107 46.4212C45.1057 46.4212 45.1035 46.4212 45.1006 46.4212C45.0948 46.4211 45.0858 46.4211 45.074 46.421C45.0502 46.4208 45.0148 46.4204 44.9693 46.4196C44.8784 46.418 44.7478 46.4147 44.5908 46.4082C44.2756 46.395 43.8597 46.3688 43.4475 46.3173C43.0277 46.2647 42.6436 46.1895 42.3765 46.0892C42.2413 46.0385 42.1697 45.9935 42.1398 45.9673C42.1164 45.9468 42.1623 45.9791 42.1623 46.0587H41.1623ZM44.9816 47.4048C46.4184 47.7817 47.8761 48.0736 49.3472 48.2788L49.4853 47.2884C48.0532 47.0886 46.6341 46.8045 45.2354 46.4376L44.9816 47.4048ZM49.4162 48.2836C49.435 48.2836 49.4612 48.2822 49.5142 48.353C49.5777 48.4378 49.6382 48.5796 49.685 48.7672C49.7301 48.9478 49.7539 49.1346 49.7661 49.2805C49.772 49.3524 49.775 49.4118 49.7764 49.4523C49.7772 49.4725 49.7775 49.4878 49.7777 49.4975C49.7777 49.5023 49.7778 49.5058 49.7778 49.5076C49.7778 49.5086 49.7778 49.5091 49.7778 49.5093C49.7778 49.5094 49.7778 49.5093 49.7778 49.5092C49.7778 49.5092 49.7778 49.5091 49.7778 49.509C49.7778 49.5089 49.7778 49.5088 49.7778 49.5088C49.7778 49.5087 49.7778 49.5086 50.2778 49.5086C50.7778 49.5086 50.7778 49.5084 50.7778 49.5083C50.7778 49.5082 50.7778 49.5081 50.7778 49.508C50.7778 49.5078 50.7778 49.5075 50.7778 49.5073C50.7778 49.5067 50.7778 49.5061 50.7778 49.5053C50.7778 49.5038 50.7778 49.5019 50.7778 49.4996C50.7777 49.4949 50.7777 49.4887 50.7775 49.4809C50.7773 49.4653 50.7768 49.4436 50.7758 49.4166C50.7739 49.3628 50.7701 49.2874 50.7626 49.1976C50.7478 49.02 50.7178 48.7756 50.6552 48.5249C50.5944 48.2813 50.4933 47.992 50.3145 47.7534C50.1252 47.5007 49.8283 47.2836 49.4162 47.2836V48.2836ZM50.0919 49.0444L45.7842 50.7693L46.1559 51.6976L50.4637 49.9727L50.0919 49.0444ZM45.97 51.2335C45.5227 51.01 45.5228 51.01 45.5228 51.0099C45.5228 51.0099 45.5228 51.0098 45.5229 51.0098C45.5229 51.0097 45.5229 51.0097 45.5229 51.0097C45.5229 51.0096 45.5229 51.0097 45.5228 51.0099C45.5226 51.0102 45.5223 51.011 45.5217 51.0121C45.5205 51.0144 45.5186 51.0182 45.5158 51.0235C45.5104 51.0341 45.5019 51.0504 45.4905 51.0717C45.4677 51.1142 45.4336 51.1763 45.39 51.2512C45.302 51.4022 45.178 51.6005 45.0314 51.7961C44.8827 51.9946 44.7231 52.1736 44.5671 52.2986C44.4041 52.4291 44.2981 52.4584 44.2469 52.4584V53.4584C44.6265 53.4584 44.9513 53.272 45.1922 53.0791C45.44 52.8807 45.6574 52.6284 45.8317 52.3957C46.0083 52.1601 46.1535 51.9272 46.254 51.7547C46.3045 51.668 46.3445 51.5953 46.3722 51.5435C46.386 51.5176 46.3969 51.4969 46.4045 51.4822C46.4083 51.4748 46.4112 51.4689 46.4134 51.4647C46.4145 51.4626 46.4153 51.4609 46.416 51.4595C46.4163 51.4589 46.4166 51.4583 46.4168 51.4579C46.4169 51.4577 46.417 51.4575 46.4171 51.4573C46.4172 51.4572 46.4172 51.4571 46.4172 51.4571C46.4173 51.457 46.4173 51.4569 45.97 51.2335ZM44.2469 52.4584C43.8933 52.4584 43.5273 52.6246 43.2313 52.7939C42.917 52.9737 42.5982 53.207 42.319 53.4306C42.0378 53.6557 41.7863 53.8796 41.6056 54.0465C41.515 54.1303 41.4416 54.2002 41.3905 54.2496C41.3649 54.2744 41.3449 54.294 41.331 54.3076C41.3241 54.3145 41.3187 54.3198 41.3149 54.3236C41.313 54.3254 41.3116 54.3269 41.3105 54.328C41.3099 54.3285 41.3095 54.3289 41.3092 54.3293C41.309 54.3294 41.3089 54.3296 41.3088 54.3297C41.3087 54.3297 41.3087 54.3298 41.3086 54.3298C41.3086 54.3299 41.3085 54.3299 41.6623 54.6833C42.016 55.0367 42.016 55.0367 42.0159 55.0367C42.0159 55.0367 42.0159 55.0367 42.0159 55.0367C42.0159 55.0368 42.0159 55.0367 42.016 55.0367C42.0161 55.0366 42.0163 55.0364 42.0166 55.0361C42.0172 55.0355 42.0182 55.0345 42.0196 55.0331C42.0224 55.0303 42.0267 55.026 42.0326 55.0202C42.0444 55.0086 42.0623 54.9911 42.0855 54.9687C42.1319 54.9238 42.1999 54.859 42.2843 54.781C42.4536 54.6245 42.6867 54.4172 42.9441 54.2111C43.2033 54.0035 43.4768 53.8055 43.7279 53.6619C43.9974 53.5077 44.1698 53.4584 44.2469 53.4584V52.4584ZM41.1623 54.6833V55.5457H42.1623V54.6833H41.1623ZM41.1623 55.5457C41.1623 55.9291 41.3512 56.2572 41.567 56.5064C41.7869 56.7605 42.0755 56.9809 42.3741 57.1602C42.9568 57.5103 43.6931 57.7706 44.2469 57.7706V56.7706C43.9392 56.7706 43.3831 56.5998 42.889 56.303C42.649 56.1589 42.453 56.002 42.323 55.8518C42.1887 55.6967 42.1623 55.5936 42.1623 55.5457H41.1623ZM44.2469 57.7706C44.3425 57.7706 44.4344 57.8087 44.5023 57.8767L45.2098 57.1699C44.9546 56.9145 44.6083 56.7706 44.2469 56.7706V57.7706ZM44.5023 57.8767C44.5703 57.9447 44.6085 58.0369 44.6085 58.1331H45.6085C45.6085 57.7718 45.465 57.4254 45.2098 57.17L44.5023 57.8767ZM45.1085 58.6331H49.4162V57.6331H45.1085V58.6331ZM49.64 58.5802L51.3632 57.7178L50.9156 56.8235L49.1925 57.686L49.64 58.5802ZM51.1394 57.7706H52.8625V56.7706H51.1394V57.7706ZM53.0207 57.7449L55.6054 56.8825L55.2889 55.9339L52.7042 56.7964L53.0207 57.7449ZM55.8009 56.7616L57.524 55.0367L56.8165 54.3299L55.0934 56.0548L55.8009 56.7616ZM57.1702 55.1833H61.478V54.1833H57.1702V55.1833ZM61.9253 54.9067L62.7869 53.1818L61.8922 52.735L61.0307 54.4599L61.9253 54.9067ZM62.4959 52.4835L59.8768 51.621L59.564 52.5708L62.1832 53.4333L62.4959 52.4835ZM59.7204 52.0959C59.7204 51.5959 59.7204 51.5959 59.7204 51.5959C59.7204 51.5959 59.7204 51.5959 59.7203 51.5959C59.7202 51.5959 59.72 51.5959 59.7198 51.5959C59.7193 51.5959 59.7184 51.5959 59.7173 51.5959C59.715 51.5959 59.7116 51.5959 59.7069 51.5959C59.6975 51.5959 59.6834 51.5958 59.6649 51.5957C59.6278 51.5955 59.5729 51.5951 59.5025 51.5943C59.3616 51.5926 59.1589 51.5893 58.9127 51.5826C58.4198 51.5693 57.7555 51.5427 57.0664 51.4896C56.3746 51.4363 55.6705 51.3573 55.0935 51.2418C54.8046 51.184 54.5595 51.1193 54.369 51.049C54.1678 50.9748 54.0741 50.911 54.0433 50.8801L53.3358 51.5868C53.5203 51.7716 53.7766 51.8964 54.023 51.9873C54.2801 52.0821 54.5803 52.1589 54.8972 52.2223C55.5316 52.3494 56.2814 52.4321 56.9897 52.4866C57.7006 52.5414 58.3824 52.5686 58.8857 52.5823C59.1376 52.5891 59.3455 52.5925 59.4907 52.5942C59.5633 52.5951 59.6203 52.5955 59.6594 52.5957C59.6789 52.5958 59.6939 52.5959 59.7042 52.5959C59.7093 52.5959 59.7133 52.5959 59.716 52.5959C59.7173 52.5959 59.7184 52.5959 59.7191 52.5959C59.7195 52.5959 59.7198 52.5959 59.72 52.5959C59.7201 52.5959 59.7202 52.5959 59.7203 52.5959C59.7203 52.5959 59.7204 52.5959 59.7204 52.0959ZM54.0433 50.8801C53.9795 50.8163 54.0693 50.8716 54.0482 51.0194C54.0281 51.1601 53.9333 51.196 53.9873 51.1635C54.0934 51.0998 54.3505 51.028 54.7296 50.9738C55.0834 50.9232 55.4689 50.8972 55.7709 50.884C55.9208 50.8775 56.0478 50.8742 56.1369 50.8726C56.1814 50.8718 56.2164 50.8714 56.2399 50.8712C56.2517 50.8711 56.2606 50.8711 56.2663 50.871C56.2692 50.871 56.2714 50.871 56.2727 50.871C56.2733 50.871 56.2738 50.871 56.274 50.871C56.2742 50.871 56.2742 50.871 56.2743 50.871C56.2743 50.871 56.2743 50.871 56.2743 50.871C56.2742 50.871 56.2742 50.871 56.2742 50.371C56.2742 49.871 56.2741 49.871 56.274 49.871C56.274 49.871 56.2739 49.871 56.2738 49.871C56.2736 49.871 56.2734 49.871 56.2731 49.871C56.2725 49.871 56.2717 49.871 56.2707 49.871C56.2687 49.871 56.2659 49.871 56.2623 49.871C56.2551 49.8711 56.2448 49.8711 56.2315 49.8712C56.205 49.8715 56.1667 49.8719 56.1187 49.8728C56.0227 49.8745 55.8872 49.878 55.7274 49.885C55.4102 49.8988 54.988 49.9266 54.588 49.9838C54.2132 50.0375 53.7703 50.1274 53.4725 50.3062C53.3246 50.395 53.1019 50.5724 53.0582 50.8781C53.0136 51.1911 53.1841 51.435 53.3358 51.5868L54.0433 50.8801ZM56.5517 50.7869L59.1364 49.062L58.5813 48.2302L55.9966 49.9551L56.5517 50.7869ZM59.3061 48.4227L58.4446 46.6978L57.55 47.1446L58.4115 48.8695L59.3061 48.4227ZM58.2272 46.4772L55.7288 45.1835L55.269 46.0715L57.7674 47.3652L58.2272 46.4772ZM55.9022 45.332L54.9544 44.0383L54.1477 44.6293L55.0955 45.923L55.9022 45.332ZM54.9048 43.9805L54.0433 43.118L53.3358 43.8247L54.1973 44.6872L54.9048 43.9805ZM54.1895 43.4714V40.884H53.1895V43.4714H54.1895ZM54.1616 40.7193C53.7804 39.6266 53.4994 38.5013 53.3221 37.3576L52.3339 37.5108C52.5205 38.7145 52.8163 39.8987 53.2174 41.0487L54.1616 40.7193ZM53.328 37.4342C53.328 37.338 53.3662 37.2458 53.4341 37.1778L52.7266 36.471C52.4714 36.7265 52.328 37.0729 52.328 37.4342H53.328ZM53.4341 37.1778C53.5021 37.1098 53.5939 37.0717 53.6895 37.0717V36.0717C53.3281 36.0717 52.9818 36.2156 52.7266 36.471L53.4341 37.1778ZM53.6895 37.0717H56.2742V36.0717H53.6895V37.0717ZM56.7742 36.5717V30.7072H55.7742V36.5717H56.7742ZM56.6391 30.3654L54.0545 27.6054L53.3246 28.289L55.9092 31.049L56.6391 30.3654ZM54.1057 27.67L52.3826 25.0827L51.5503 25.637L53.2734 28.2243L54.1057 27.67ZM51.9664 25.3598C52.4307 25.5453 52.4307 25.5453 52.4308 25.5452C52.4308 25.5452 52.4308 25.5451 52.4308 25.545C52.4309 25.5449 52.431 25.5447 52.4311 25.5444C52.4313 25.5438 52.4317 25.5429 52.4321 25.5418C52.433 25.5396 52.4343 25.5364 52.436 25.5322C52.4393 25.5237 52.4443 25.5112 52.4507 25.495C52.4635 25.4626 52.4823 25.415 52.5061 25.3542C52.5537 25.2325 52.6216 25.0576 52.7029 24.8438C52.8656 24.4165 53.0828 23.8325 53.3002 23.2072C53.5173 22.583 53.7366 21.912 53.9022 21.3121C54.063 20.7298 54.1895 20.1593 54.1895 19.7623H53.1895C53.1895 20.0078 53.1006 20.4583 52.9383 21.0459C52.7809 21.6161 52.5694 22.2642 52.3557 22.8787C52.1424 23.4922 51.9288 24.0666 51.7684 24.488C51.6882 24.6986 51.6215 24.8706 51.5748 24.9898C51.5515 25.0494 51.5332 25.0958 51.5208 25.1271C51.5146 25.1428 51.5099 25.1547 51.5067 25.1627C51.5052 25.1666 51.504 25.1696 51.5032 25.1715C51.5028 25.1725 51.5025 25.1732 51.5023 25.1737C51.5023 25.1739 51.5022 25.1741 51.5021 25.1742C51.5021 25.1742 51.5021 25.1743 51.5021 25.1743C51.5021 25.1743 51.5021 25.1743 51.9664 25.3598ZM54.1895 19.7623V17.5977H53.1895V19.7623H54.1895ZM53.7869 18.0882L54.5759 17.9315L54.3812 16.9507L53.5922 17.1073L53.7869 18.0882Z" fill="black"/>
</svg>
