<svg width="92" height="76" viewBox="0 0 92 76" fill="none" xmlns="http://www.w3.org/2000/svg">
<path d="M22.5316 69.6725V67.517L30.2317 71.76L35.2921 75.1544H43.0935L46.8634 71.76V68.3656H52.7672L59.7759 63.274L65.3506 61.5768L69.0532 58.1824L70.8076 54.6351L68.1845 52.2422C68.1845 52.2422 69.1545 46.302 70.7822 47.1506C72.41 47.9992 75.8426 46.302 76.686 47.1506C77.5294 47.9992 80.903 43.7562 80.903 43.7562V39.6914L79.2162 32.7244H82.9946L86.773 25.4433H82.556L81.7126 20.8693L86.773 20.8187L90.9899 12.1375V9.2267L87.5657 6.51101L85.0524 8.96358L79.1486 9.0825V5.56918L76.6185 2.17477L70.7147 1.32617L67.3411 2.17477L64.8109 3.87197L63.1241 3.02337L60.5939 7.26638L54.6902 14.0552L53.0034 11.5094L49.6298 12.358L45.4128 14.0552L43.8274 19.1468H38.6657C36.9789 19.1468 34.4486 17.4496 33.7571 16.601C33.0655 15.7524 29.0342 16.601 29.0342 16.601H24.328C23.4846 16.601 24.328 12.358 24.328 12.358L15.0506 11.5094L13.3638 13.2066L11.7361 16.601H4.92987L3.86718 15.9136V20.844C3.86718 20.844 4.08656 25.087 4.17934 26.7842C4.27211 28.4814 2.39968 26.7842 2.39968 26.7842C2.01675 27.8876 1.73445 29.0237 1.55629 30.1786C1.55629 31.0272 3.24308 32.7244 3.24308 32.7244L2.39968 35.2702C2.39968 35.2702 0.712891 36.9674 0.712891 37.816C0.712891 38.6646 1.55629 42.059 1.34544 43.7562C1.13459 45.4534 3.55523 50.1207 3.55523 50.1207C3.55523 50.1207 8.30341 51.3936 8.90222 50.1207C9.59159 49.0077 10.4447 48.0063 11.4324 47.1506L13.6338 50.1207L16.4675 53.8885C16.4675 53.8885 15.0675 58.1824 14.2241 59.4213C13.3807 60.6603 14.2241 64.9712 14.2241 64.9712L12.6133 66.1932L16.4675 69.6555L22.5316 69.6725Z" fill="white" stroke="black" stroke-miterlimit="10"/>
</svg>
