<svg width="66" height="99" viewBox="0 0 66 99" fill="none" xmlns="http://www.w3.org/2000/svg">
<path d="M4.70435 15.1631L6.42573 13.633L5.08688 13.0592C4.7681 12.8679 4.0923 12.4471 3.93929 12.2941C3.78627 12.1411 2.98296 11.9753 2.60043 11.9116L1.64411 11.3378L1.07031 10.5727V9.80767C1.26158 9.29763 1.68236 8.20105 1.83537 7.89502L2.40917 6.74743C2.66419 6.61992 3.21248 6.32665 3.36549 6.17364C3.5185 6.02062 3.81178 4.83478 3.93929 4.26099C4.25806 4.00597 4.93386 3.41942 5.08688 3.1134C5.23989 2.80737 5.66067 2.47585 5.85194 2.34834L7.38206 1.96581L8.33838 2.92213L8.91218 3.87846L9.29471 4.64352L9.67724 5.02605L11.0161 4.64352L11.2074 4.26099L11.9724 3.87846L13.3113 4.26099L14.0763 5.02605L15.0327 5.79111L15.2239 6.55617H15.7977H16.3715L17.1366 6.3649C17.2641 6.30115 17.5574 6.13538 17.7104 5.98237C17.8634 5.82936 17.9016 5.40858 17.9016 5.21731C18.0291 4.83478 18.2842 4.03147 18.2842 3.87846C18.2842 3.72545 18.4117 3.17715 18.4754 2.92213L19.0492 1.58328L19.623 1.20075L21.1531 0.626953H22.3007L23.6396 1.20075V2.92213C23.6396 3.07514 23.5121 3.49593 23.4483 3.68719L22.1095 5.40858L21.5357 6.17364L21.1531 8.27755L20.3881 9.04261C20.1331 9.4889 19.623 10.4197 19.623 10.5727V11.1465V12.1028V12.8679L20.0055 13.4417L20.3881 14.398V14.7806L20.5793 15.1631L20.7706 15.7369L21.5357 16.3107L21.7269 16.6932H22.1095L22.3007 16.3107L22.6833 15.7369L23.0658 14.9718V14.5893L23.6396 13.633V13.0592L24.0221 12.1028L24.4046 11.9116L24.9784 12.1028L25.361 12.2941V13.0592L24.5959 13.633L24.4046 14.0155L24.2134 14.9718L23.4483 17.267L22.6833 19.3709H23.6396L24.4046 19.1797L25.361 18.9884L26.126 19.1797L26.6998 19.7534V20.7098V23.1962C26.9548 23.1325 27.5414 23.005 27.8474 23.005C28.1534 23.005 28.995 22.4949 29.3775 22.2399H30.1426L30.7164 21.2836L30.9076 19.7534V18.4146C30.9076 18.2616 31.6727 17.9683 32.0552 17.8408L33.7766 17.6495L34.3504 18.2233L33.9679 19.1797L34.3504 20.5185V24.3438L32.0552 27.0215L33.0116 29.8905L34.3504 31.6119V32.5682L34.9242 33.3333L37.7932 34.0983L38.5582 32.1857L37.7932 30.4643L39.3233 27.404L43.7224 24.7263L44.87 23.1962L49.4603 24.7263H50.4167L49.4603 27.404L47.9302 29.6992V30.4643L48.3128 34.6721L48.504 34.8634L53.0944 36.776V38.3061L53.8594 43.279H54.0507H56.3459L57.1109 45.0004L60.5537 46.148L62.6576 45.5742L63.614 47.4869L61.7013 50.3558L61.51 50.9296L61.3188 52.4598V53.9899L61.51 55.7113L62.0838 56.6676L63.0402 58.7715L63.614 60.1104H62.6576H59.7887H58.8323L57.4935 59.9191L56.3459 59.5366L55.3896 59.3453L55.007 59.5366L54.8158 60.1104L55.3896 61.2579L56.9197 62.9793L58.8323 65.0832L64.7615 71.0125V79.2368L63.2314 86.1224L61.7013 88.4176L57.4935 90.1389L59.0236 93.0079L57.1109 97.2158L54.8158 97.9808H53.4769L52.3293 97.2158L50.2254 96.2594L49.6516 95.1118L48.1215 91.8603L46.7826 89.3739L45.0613 87.6525L43.7224 86.1224L40.8534 83.8272L37.4107 80.9582H38.5582L38.1757 80.3844L37.7932 79.2368C37.6019 78.8543 37.2194 78.051 37.2194 77.898C37.2194 77.745 36.5818 77.1967 36.2631 76.9417H35.498L34.7329 76.1766L33.7766 74.8378L33.3941 74.264V72.5426V71.395L32.8203 71.0125L32.4378 70.6299H31.6727L30.9076 70.2474V69.6736V68.7173L31.0989 68.3347L32.0552 67.3784L33.7766 65.657L34.3504 64.5094L34.7329 63.3619L35.1155 62.7881L33.3941 60.1104L31.0989 59.3453V58.9628L32.629 57.6239V56.0938L31.6727 54.1811V49.9733L32.4378 49.2082L29.1863 47.4869V44.2354L28.4212 42.514L28.2299 40.6013L28.0387 41.1751L26.8911 41.7489L26.6998 42.1314L26.8911 42.514L27.4649 45.1917L26.5086 45.9567L26.8911 47.1043V48.6345L27.8474 49.5908L28.4212 50.7384L27.8474 51.6947L28.4212 53.2248V54.5637V56.6676L28.2299 58.1977L27.8474 58.7715H26.6998L25.9348 58.9628L25.1697 59.3453L24.9784 59.9191L24.4046 60.6841L24.0221 60.4929L23.257 60.1104H22.1095L20.5793 59.7278H19.2405V59.3453L19.0492 57.0501L18.6667 56.285L15.989 54.9462L16.754 53.2248L16.3715 52.8423L15.2239 51.6947L13.8851 50.7384L12.5462 49.5908L11.2074 48.2519L12.3549 46.7218L13.5025 44.8092L13.8851 44.2354L15.0327 44.0441L15.7977 44.6179L16.9453 45.5742L18.2842 46.3393L19.8143 46.7218H21.1531H22.492L23.257 46.3393L24.0221 45.5742L24.5959 44.8092L25.1697 43.8528V43.0878V42.514H22.492L21.5357 41.7489H20.1968V41.3664L25.1697 39.0712L27.4649 38.3061L29.7601 36.011L31.0989 34.4808L32.0552 32.1857L31.0989 30.8468L29.3775 28.1691L27.2736 27.0215L25.5522 28.9342H24.5959L23.4483 24.7263H21.5357L20.1968 23.5787L21.1531 21.4748V19.7534L19.4317 17.8408L17.5191 17.267L16.1802 18.6059L15.989 20.5185V22.2399L15.2239 23.005V23.9613L15.989 25.1089V26.4477L13.5025 27.0215L12.5462 24.9176V23.9613L10.4423 24.3438V23.77L9.67724 19.1797L7.76459 17.8408L3.36549 18.0321L2.60043 16.8845L2.40917 14.2068L3.36549 14.398L4.70435 15.1631Z" fill="white" stroke="black" stroke-miterlimit="10"/>
</svg>
