<svg width="82" height="73" viewBox="0 0 82 73" fill="none" xmlns="http://www.w3.org/2000/svg">
<path d="M21.5245 64.0058L22.3855 64.863L24.9687 65.7202L25.8297 66.5775H26.5789L28.4129 65.7202C29.4209 65.9516 30.4155 66.2377 31.3921 66.5775C30.996 66.5775 31.8571 66.5775 32.7181 67.4347C33.3982 68.2167 33.9768 69.0807 34.4402 70.0064L35.3013 71.7209H37.6606L40.4676 70.0064L42.1897 67.4347L42.801 64.863L43.9118 64.0058L44.7729 62.2913L45.6339 59.7196V58.4936C45.6339 58.8622 48.2171 58.0051 48.2171 58.0051L49.0781 59.7196L52.3588 58.0051C52.3588 58.0051 54.2444 55.4334 55.1055 55.4334C56.0065 55.2849 56.8783 54.9956 57.6886 54.5762L60.2718 55.4334H61.1328L62.855 52.8617L64.5771 51.1472H67.0484L68.8823 49.4328L69.7434 46.861V44.6581L71.4655 42.5749L75.6158 42.1207L74.9097 40.0032L75.7707 36.5742L78.3539 34.0025L80.937 32.288C80.5158 31.4813 80.2252 30.6134 80.076 29.7163C80.076 28.8591 78.3539 27.1446 78.3539 26.2874C78.3539 25.4301 76.9589 23.2444 76.9589 23.2444L74.0486 18.5723V12.5716H72.3265L71.4655 11.7144L69.7434 9.14267L68.0213 8.28543L65.4381 9.14267L64.5771 9.99991C63.1601 10.3696 61.7225 10.6558 60.2718 10.8571H58.5497L56.8276 13.4288L55.1055 14.2861C53.9859 14.6753 52.8331 14.9622 51.6613 15.1433C50.8002 15.1433 49.0781 11.7144 49.0781 11.7144L48.2171 9.99991H43.9118L41.3287 9.14267C39.9117 8.773 38.4741 8.48675 37.0234 8.28543C36.1623 8.28543 36.1623 6.57113 36.1623 6.31396V3.14202L33.5792 2.28478L31.8571 3.14202L30.996 4.85649L30.135 7.4282H29.2739L26.6908 2.28478C26.6908 2.28478 24.9687 0.570296 24.1076 0.76746C23.2415 0.841002 22.3692 0.774435 21.5245 0.570312L19.8024 1.42755L18.9413 5.71373L20.6634 7.4282H23.2466L24.1076 9.99991L22.3855 10.8571H18.9413V12.5716L19.8024 14.2861L18.9413 16.8578H18.0802L17.2192 15.1433L15.4971 12.5716L12.9139 10.8571H11.1918C10.9635 10.8571 10.7445 10.7668 10.583 10.606C10.4216 10.4452 10.3308 10.2273 10.3308 9.99991C10.3308 9.14267 6.88657 9.14267 6.88657 9.14267C6.88657 9.14267 5.16447 7.4282 4.30342 7.4282H2.58131L1.72026 8.28543V9.99991L2.58131 12.5716V18.5723L1.72026 20.2867L0.988281 21.3754L7.14493 27.6762C7.14493 27.6762 7.40324 34.6713 7.14493 36.0514C6.88661 37.4316 10.5891 39.806 10.5891 39.806L12.7331 45.1466L11.011 49.4328H17.0384L20.8959 52.9387V60.3625H20.3277C20.6979 60.7997 20.9476 61.1426 20.8959 61.2197C20.6634 61.4341 21.5245 64.0058 21.5245 64.0058Z" fill="white" stroke="black" stroke-miterlimit="10"/>
</svg>
