<svg width="101" height="92" viewBox="0 0 101 92" fill="none" xmlns="http://www.w3.org/2000/svg">
<path d="M13.9097 80.8515L10.9532 84.8256L19.8225 90.9976V85.6624L24.3922 82.7287H29.4604L34.5285 84.4198L38.752 78.2898L34.5285 73.0645L38.752 70.156L40.9398 68.169L43.305 66.478H50.0203L50.2314 63.9415L54.2268 66.478L58.4503 70.1391L62.0825 72.3965L66.0187 74.8653L68.9582 76.624V86.5079L74.7275 87.6156L77.2616 86.7701L79.8548 82.7287V79.7777L83.1744 80.8515L85.7085 78.2729V73.4703L78.5709 70.1391V66.478L82.7943 63.9415L85.7339 61.2695V57.279L89.1126 54.6409C89.1126 54.6409 91.6467 57.0675 92.4914 57.1266C93.3361 57.1858 95.8702 57.279 95.8702 57.279V54.6409L92.4914 52.4343L90.802 50.4134L92.4914 46.896L94.1808 41.1636L92.4914 35.9721L95.8702 35.1943L98.4042 33.5033L100.051 28.3374V17.1852L99.7305 17.447L96.9007 14.065H92.466L89.0873 10.683L84.8638 8.14644L82.9717 2.51567L75.3695 0.664062L74.812 2.51567L71.3487 6.60778V2.51567L68.9328 6.60778V11.2329L65.9933 14.065H55.4854V10.8101L53.796 8.14644L48.3901 12.1543L50.0118 14.065L47.917 17.447H35.7281L32.4844 25.902L32.7886 28.3457L35.8717 33.5033L38.6761 38.3311L36.142 41.1636L30.6769 38.3311L27.7374 35.1943L24.7977 38.3311H18.4963L16.8069 35.1943L14.2728 38.3311L12.178 41.8737L7.67594 44.8668H5.87664L2.08398 47.8769H7.70956L10.5309 51.6734L12.2203 57.1266L10.9617 63.9415L10.117 69.0145L9.01887 67.6872L10.9617 74.8653L13.9097 80.8515Z" fill="white" stroke="black" stroke-miterlimit="10"/>
</svg>
