<svg width="85" height="63" viewBox="0 0 85 63" fill="none" xmlns="http://www.w3.org/2000/svg">
<path d="M30.2695 4.12093L34.2861 1.25195L35.2424 2.78207L40.2153 3.1646L43.0843 2.20828L46.3358 1.25195L50.3524 2.20828L54.1777 5.26852L55.7078 10.0501L55.134 11.1977H54.5602L53.4126 11.9628L53.0301 12.7279L53.4126 14.258L55.134 15.5968H59.3418L62.4021 14.258L65.271 15.9794H67.1837L69.0963 13.3016L75.4081 11.5803L75.7906 10.0501H83.2499L81.9111 11.9628L80.9548 18.6571L79.2334 22.0998L76.7469 25.3513V26.1164L79.2334 29.3679L79.9984 34.1495L76.7469 41.6089V42.1827V57.4839L72.9216 57.1013L68.7138 59.5878L63.7409 60.3528L62.4021 59.014L59.9156 56.5275L59.5331 55.5712L53.4126 54.4236L52.6475 53.6586L49.9698 55.5712H46.7183L44.6144 54.4236V51.7459L43.6581 47.7293L42.128 44.8604L39.4503 43.5215H36.9638L34.2861 45.2429L36.9638 52.511L35.625 56.5275L35.0512 55.1887H28.3569V51.7459L26.0617 48.3031H22.2364L18.0286 49.2595L15.9247 52.511L14.7771 55.5712L13.8208 61.3092L11.143 61.8829V59.014L5.97889 53.6586L1.77106 49.0682L1.19727 48.1119L1.77106 47.7293L2.91865 48.4944H4.2575H7.12648H9.03913H10.378L7.89154 43.5215L7.50901 41.6089L7.89154 38.7399L9.03913 37.0185L9.99545 35.1059L9.42166 33.9583H9.99545V33.3845L10.378 32.6194L11.143 32.0456L14.7771 33.9583L15.9247 35.1059H18.2198L19.5587 32.0456H21.2801L22.0451 26.3077L21.2801 25.5426L19.5587 24.9688V17.1269L20.8976 12.1541V6.9899L21.2801 6.22484L23.9578 7.37243H28.3569L30.2695 4.12093Z" fill="white" stroke="black" stroke-miterlimit="10"/>
</svg>
