<svg width="106" height="70" viewBox="0 0 106 70" fill="none" xmlns="http://www.w3.org/2000/svg">
<path d="M102.407 32.8268L99.1381 30.4077V14.154L91.2834 7.36394L87.1164 5.20805L86.1496 5.70869L83.5827 9.10374L84.5666 12.219L86.1496 16.7003L81.3751 20.5877V25.1879H78.4489L74.2989 20.5877C74.2989 20.5877 70.7481 19.2466 70.7481 18.3978C70.7481 17.5491 67.7534 12.0404 67.7534 12.0404L64.7586 9.06146L59.9841 6.34526H54.491C54.491 6.34526 51.0685 5.11456 50.5295 3.3746C50.5295 4.57984 50.4438 6.34526 50.4438 6.34526H43.3677L39.1923 2.24609C39.0896 3.17124 39.0895 3.94362 39.0895 3.94362C39.0895 3.94362 36.5226 3.94362 35.667 4.79238C34.8113 5.64114 34.8113 5.64114 34.8113 6.4899C34.8113 7.33866 35.667 7.33866 36.5226 7.33866C37.3782 7.33866 36.5226 9.88494 36.5226 9.88494V12.4312C36.5226 13.28 38.2339 14.1285 38.2339 14.7056V18.3978L35.667 20.0954L33.1 19.2466C33.1 19.2466 30.747 20.1802 29.6775 20.664L31.8937 27.7342L29.7717 31.2482L26.3491 35.3221H23.7822L18.5114 37.5882L15.0888 43.8607L11.6663 45.6092L8.91113 50.7017L3.10988 56.6431L0.542969 61.7356V62.5844L4.82116 64.2819L9.09935 63.3905V60.8442L11.6663 59.9954L15.0888 60.8442L18.5114 63.3482L19.6409 65.4531L22.8067 65.088L27.0849 65.9367L30.5931 68.4155L35.6413 64.2392L39.1666 63.7643L43.342 66.3106L46.7646 68.4238V65.0797L50.3753 63.3399L51.9241 58.2896L54.491 55.3189L56.8868 54.4702L60.5147 54.0458H63.0816L67.7876 55.3189L70.7824 56.5838V58.2813L74.6327 60.8276L79.3387 62.5251L82.5817 65.0714H87.0052L93.7561 62.4824V55.6924L90.4278 52.2973L93.7561 50.2011V46.3987L99.1381 41.3061H103.262L104.974 37.1555L102.407 32.8268Z" fill="white" stroke="black" stroke-miterlimit="10"/>
</svg>
