<svg width="66" height="69" viewBox="0 0 66 69" fill="none" xmlns="http://www.w3.org/2000/svg">
<path d="M60.8779 27.5522C57.8751 25.0047 57.0693 20.2323 57.4849 16.513C54.8723 13.6003 52.9553 8.64111 50.699 5.47369C48.1542 1.51654 41.9621 3.61385 38.2553 1.28711C36.8388 6.56048 33.7596 4.39525 30.8078 9.31197C29.9595 3.72441 24.217 5.45671 20.0436 5.2614C20.3829 7.57964 20.0436 10.1866 17.4989 10.9933C9.61873 4.77737 15.8023 13.957 1.06836 23.9602C6.15781 31.883 0.152349 39.9416 13.8854 37.0204V38.7615C12.5536 43.0074 18.347 48.0258 20.9766 50.4629C22.3168 47.7456 23.5213 49.0193 25.2178 50.4629C31.639 55.8637 32.6738 64.1347 41.3344 67.4464C48.027 70.9705 48.6207 61.9438 49.8168 57.2563C54.4566 53.5964 54.058 47.2106 54.9062 41.9712C56.6017 39.8957 58.0268 37.613 59.1474 35.1778C65.84 33.8021 67.2312 31.1188 60.8779 27.5522Z" fill="white" stroke="black" stroke-miterlimit="10"/>
</svg>
