<svg width="24" height="21" viewBox="0 0 24 21" fill="none" xmlns="http://www.w3.org/2000/svg">
<path d="M21.8928 12.5415C21.1149 10.3921 18.6102 11.0488 17.0715 10.9464C14.071 3.39816 17.0714 1.5643 7.3603 0.822266C6.09512 1.50459 3.22277 2.67328 1.76097 2.30653C-0.350513 6.86108 1.55585 9.46246 6.50545 9.98273L6.9671 15.9531C8.91616 15.3646 8.23217 17.2836 8.35185 18.4265C9.64268 18.5288 12.3099 18.6313 13.3443 17.6589C13.5593 18.3532 14.0154 18.948 14.6307 19.3369C15.246 19.7257 15.9801 19.8831 16.7011 19.7804C17.4221 19.6776 18.0826 19.3215 18.5642 18.7763C19.0457 18.2311 19.3167 17.5326 19.3282 16.806C24.0214 19.4586 22.7476 16.6269 21.8928 12.5415Z" fill="white" stroke="black" stroke-miterlimit="10"/>
</svg>
