<svg width="76" height="117" viewBox="0 0 76 117" fill="none" xmlns="http://www.w3.org/2000/svg">
<path d="M13.5481 115.159C17.1551 118.364 19.7183 115.091 18.929 111.103H24.9887C31.6595 109.624 26.5163 119.801 33.2211 111.103C42.6672 108.026 37.3459 91.7105 41.1566 84.1098C43.6518 79.3488 48.4554 86.2523 47.9462 82.4094C49.423 76.9852 48.9053 70.7449 53.4883 67.1061C55.6949 68.8065 57.859 70.5068 59.497 67.1061C62.1025 60.4746 61.1521 53.5031 68.3152 50.1024C66.6178 44.5847 72.5587 41.6005 75.1048 38.1998C72.007 32.9371 75.7753 22.8965 70.8613 19.4957C67.7635 17.2172 68.5952 23.3896 64.9203 19.4957C59.8281 17.3277 54.8122 22.3098 50.4923 24.5968C48.3451 25.7871 47.0466 20.5244 46.2488 19.4957C34.3075 15.6954 45.9602 -1.75892 36.913 2.49201C36.913 6.48788 28.8843 13.3829 25.8798 9.29349C23.9787 7.73765 18.9629 4.19245 20.3633 1.07227C11.1633 14.1906 33.0938 35.8874 8.3964 33.6089C2.65066 38.1829 21.7551 43.3265 9.91562 52.7891C-2.81498 48.4957 1.92072 57.1758 4.30558 65.3206C6.69893 70.2602 13.8537 71.7651 14.8467 77.3083C14.261 84.2033 8.90576 81.3211 5.77403 86.1502C7.64968 87.1959 7.2083 91.7528 7.2083 93.4701C7.62416 117.08 -1.32123 96.7436 13.5481 115.159Z" fill="white" stroke="black" stroke-miterlimit="10"/>
</svg>
