<svg width="109" height="142" viewBox="0 0 109 142" fill="none" xmlns="http://www.w3.org/2000/svg">
<path d="M10.4507 80.2002C-5.4805 87.5697 0.97187 105.309 14.7012 112.5C16.9455 121.765 19.3514 142.556 34.2539 134.6C33.5228 117.15 42.0239 124.145 48.7058 133.75C56.4929 134.49 65.5466 144.554 74.6343 140.125C69.2021 133.257 67.6124 120.992 63.1578 112.5C54.9967 106.185 50.5251 90.6977 66.9833 92.5252C65.6231 93.0607 63.7274 82.0532 68.6835 84.8752C68.386 82.7757 69.6101 69.184 75.8329 64.9085C82.9654 62.0695 76.8871 73.3237 82.2854 72.9752C82.8209 71.1477 82.9654 67.484 85.8132 68.538C91.084 62.7325 91.084 73.1197 90.7865 59.3752C92.3082 58.5252 95.8872 58.4232 97.5874 58.5252C97.2219 56.3747 97.5874 54.4282 100.138 54.2752C101.217 53.3402 102.306 52.2437 100.988 50.8752C101.09 48.0957 102.144 42.2392 103.538 39.8252C105.196 39.2472 107.84 37.7002 107.789 35.5752C105.349 30.6027 104.346 23.7772 102.688 18.5752C99.7637 18.2012 96.8988 15.2517 95.8872 12.6252C93.4644 12.8377 87.8876 12.6252 85.6858 11.7752C83.0675 9.77768 81.2057 10.6022 78.8849 12.6252C69.7632 16.3482 79.3099 0.597578 70.5367 0.623078C64.943 4.32908 63.3023 4.34618 60.0209 11.3502C58.3207 13.6962 58.7627 17.4362 60.0209 19.8502C57.8446 26.3867 47.9492 18.0057 42.33 27.0752C40.8253 38.5162 24.01 28.3927 16.8265 33.0252C13.5621 27.9252 10.2699 40.2719 8.91823 42.3374C1.48823 55.0703 18.1612 67.7902 10.4507 80.2002Z" fill="white" stroke="black" stroke-miterlimit="10"/>
</svg>
