<svg width="79" height="62" viewBox="0 0 79 62" fill="none" xmlns="http://www.w3.org/2000/svg">
<path d="M70.3594 8.61004C71.2089 1.95722 70.9795 4.47427 65.2624 1.8301C65.2509 2.55205 64.9816 3.24615 64.5031 3.78785C64.0246 4.32955 63.3681 4.68345 62.6517 4.78556C61.9352 4.88767 61.2057 4.73121 60.5943 4.34485C59.9828 3.95849 59.5295 3.36746 59.3159 2.67759C52.0951 5.91501 56.1556 0.296135 52.6727 0.982603C46.5902 9.45753 44.8913 -0.127612 45.7238 14.5425C45.9786 19.8393 42.0454 18.7799 38.0783 18.7799C37.0079 20.2122 34.9096 21.9241 32.9812 21.3224C23.968 14.4832 19.3891 29.416 13.7909 34.0348C9.33948 35.4332 -1.55957 29.2211 1.54961 37.4248C7.0459 37.5858 10.3505 42.9504 13.4427 46.7472C16.6368 49.9677 13.4427 49.4253 10.8942 50.1372C11.8201 52.9763 11.5398 56.968 13.4427 59.4596C16.9511 59.5952 21.1562 62.1461 24.4862 59.4596C31.6305 65.4768 47.5247 47.3828 51.6703 56.0696C56.453 54.8577 61.5585 51.7305 66.1119 50.9847C67.0653 48.9102 68.2025 46.9248 69.5099 45.0522C71.2939 44.3488 73.4007 41.6622 74.2162 39.9673C75.2526 40.3995 77.2319 38.7638 78.0049 38.2723C74.6834 36.4332 79.0668 32.9926 78.0049 30.0009C75.9406 29.4416 72.3727 26.8906 71.2089 30.0009C66.2138 26.6703 72.1094 25.5768 74.6069 23.0174C59.5197 15.229 78.6081 20.4156 70.3594 8.61004Z" fill="white" stroke="black" stroke-miterlimit="10"/>
</svg>
