<svg width="64" height="61" viewBox="0 0 64 61" fill="none" xmlns="http://www.w3.org/2000/svg">
<path d="M4.77308 1.88158L0.882812 3.90817L2.46916 7.31437L6.7898 9.86902L5.10209 13.2752L6.03886 15.4041L4.25823 18.3845V20.0876L6.7898 22.6423L9.32137 26.0485C9.48377 26.7715 9.5434 27.5139 9.49854 28.2539C9.37504 28.6417 9.31522 29.0474 9.32137 29.4547L10.0134 32.3416L11.0091 32.0093L10.1652 33.7124C10.5484 34.8197 10.8308 35.9598 11.0091 37.1186C11.0091 37.9702 12.6968 39.6733 12.6968 39.6733V41.3764L14.3845 43.9311H15.2284L16.9161 42.228L19.4476 41.3764L21.9792 44.7826L22.823 43.0795L23.6669 42.228H27.0423C27.4802 42.1981 27.8925 42.0089 28.2028 41.6957C28.5132 41.3826 28.7004 40.9667 28.73 40.5249C28.5518 39.366 28.2693 38.2259 27.8862 37.1186L26.1985 33.7124H23.6669L20.2915 32.0093L21.1353 28.6031L24.5108 29.4547L27.0423 30.3062C27.0423 30.3062 30.4177 30.3062 30.4177 29.4547C30.4177 28.6031 29.5739 26.9 29.5739 26.0485V23.4938L32.1055 21.7907L32.9493 20.9392L35.4809 19.2361H38.0124L38.8563 22.6423L35.4809 24.3454L33.7932 26.0485L32.9493 27.7516L33.7932 32.0093V33.7124L36.3247 36.2671L34.637 37.9702C34.637 37.9702 33.7932 39.6733 32.9493 39.6733C32.1055 39.6733 32.9493 42.228 32.9493 42.228L36.3247 46.4857L35.4809 48.1888C35.4809 48.1888 32.9493 49.8919 32.9493 50.7435C32.9493 50.9693 32.8603 51.1858 32.7021 51.3455C32.5438 51.5052 32.3293 51.595 32.1055 51.595L32.9493 55.0012L35.4809 57.5559L36.3247 58.4074L37.1686 59.259H44.7633L45.9868 59.8806L49.8264 56.1251V48.1888L54.3073 43.2413H57.4211L59.9527 41.3764L57.4211 37.5191V32.8609C57.4211 32.0093 60.7965 32.0093 60.7965 32.0093L62.4842 30.3062L63.2352 28.2539L59.1088 25.0265L56.4085 21.7907L59.1088 19.73V15.4041L56.4085 13.1646L54.0457 11.5721H51.1598L48.1387 14.1268L44.6114 14.4332L42.5523 11.5721L40.544 9.86902L36.3247 9.01747L31.2616 11.5721L26.1985 10.7206L24.5108 3.90817L23.6669 2.20507L19.4476 1.35352L15.2284 2.36681L11.8529 3.05662V2.20507L9.32137 3.95931L4.77308 1.88158Z" fill="white" stroke="black" stroke-miterlimit="10"/>
</svg>
