<svg width="90" height="91" viewBox="0 0 90 91" fill="none" xmlns="http://www.w3.org/2000/svg">
<path d="M85.8672 54.3661L85.7986 54.4252C85.7986 54.4252 82.518 50.1946 81.6592 49.3485C80.8004 48.5024 79.0829 43.4257 79.0829 43.4257L77.3653 40.8874L68.8635 37.3509L61.9073 32.342V21.3677L56.6773 14.6748L55.8958 15.4449L50.7432 14.5988L49.0256 13.7527L47.3081 11.4428L44.0275 12.0774H41.2966L40.4378 11.2313V2.77015C40.4378 1.07792 39.579 1.07792 39.579 1.07792L38.2307 0.773438L35.4311 3.59106L32.7088 8.66774L28.4149 11.2061L29.8834 15.4367C29.8834 15.4367 29.2737 20.0308 28.4149 20.6992C27.4539 21.6814 26.5912 22.7527 25.8386 23.8978V26.4361L24.121 28.9745L21.7766 29.8206V32.2742C21.7766 32.2742 17.2594 33.205 17.2594 34.0512V38.7977L16.4006 42.5123C15.5989 43.5127 15.0143 44.6646 14.683 45.8967L13.8243 48.4351C13.7616 49.0848 13.4554 49.6881 12.9655 50.1273C12.1067 50.9734 11.2479 54.3579 11.2479 54.3579V57.7423L8.67159 60.2807L6.09525 61.9729C5.16786 62.4283 4.30229 62.9969 3.51891 63.6651C2.93892 64.0914 2.24795 64.3463 1.52649 64.4009L0.951172 69.4776L2.90921 76.4159L5.22788 78.9034L10.8615 80.8919L13.8157 83.134L15.5332 86.5185L18.1096 89.9029H30.8967L33.5676 87.3646L34.4264 85.6723L37.0027 82.2879L38.7203 81.4418L42.078 81.9917C42.078 81.9917 42.808 81.8987 42.9368 82.9394C43.4351 84.8816 44.0372 86.7963 44.7403 88.6759H45.2812L47.4196 83.9801L49.0514 83.134H57.6392L60.2155 78.9034L61.9331 75.519L65.3682 71.2884C65.3682 71.2884 67.893 69.4523 68.8033 69.5284C69.7136 69.6046 75.2184 68.4708 75.2184 68.4708L77.4169 68.7501L78.2757 63.6734V61.135H88.9331L85.85 57.3193L85.8672 54.3661Z" fill="white" stroke="black" stroke-miterlimit="10"/>
</svg>
