<svg width="111" height="110" viewBox="0 0 111 110" fill="none" xmlns="http://www.w3.org/2000/svg">
<path d="M64.589 108.23L68.9782 106.515L70.6696 97.0884L74.8982 92.8034H89.2753L90.9667 85.9473V80.291H96.5316L103.652 79.9482L108.727 74.8062V70.5212L110.418 67.0931V58.6515L106.629 53.3982L101.115 50.8271L99.4238 49.1131L97.3688 43.9711L97.7324 39.686L97.7917 32.83L96.5146 31.6043L95.2207 33.6698L92.6835 34.5268L86.8819 33.4041V23.3857L83.9388 21.6031L79.9979 19.1007L76.3613 16.8125L72.1327 13.1016L68.1325 10.5306L67.9211 13.1016H61.1977L58.8297 14.8156L56.5632 16.8125L52.3347 19.7606L56.5632 25.0571L52.3347 31.2704L47.2604 29.5563H42.1861L37.6107 32.5299V37.9549L28.7307 31.6989L31.6907 27.6708L28.7307 21.6031L26.7857 14.3273L23.6818 10.5306L22.3879 8.81659L19.005 7.95958C18.5016 6.5696 18.2329 5.10354 18.2101 3.62307L18.2609 1.10352L14.1085 3.62307L12.84 5.76559L11.9943 10.5306L11.5714 13.1016H4.00211L1 16.8125L2.74201 21.6031L7.81628 23.3857L14.9712 25.0571V29.5735L20.8912 34.5268L23.8427 38.3834V41.503L18.3707 43.371L17.4152 46.5249L17.8888 50.81L16.6287 58.6344L18.3202 63.6651L15.3771 65.3791L15.8 70.5212L19.1151 73.0922L17.6182 74.6091L19.8592 76.8801V80.4282L13.5841 83.2733L11.1147 90.9864V98.974H18.3202L21.6438 93.6604L23.7834 97.3453L25.8723 98.9397C25.8723 98.9397 30.9466 99.6594 31.7923 100.516C32.638 101.373 31.7923 104.699 31.7923 104.699L36.8666 106.515H39.4545V103.087L44.478 100.516L49.5522 103.087H52.3939L49.5607 108.23L49.1802 109.249L59.7008 106.515L64.589 108.23Z" fill="white" stroke="black" stroke-miterlimit="10"/>
</svg>
