<svg width="36" height="39" viewBox="0 0 36 39" fill="none" xmlns="http://www.w3.org/2000/svg">
<path d="M4.43071 29.7899C7.31625 31.3247 11.0734 35.2386 14.5851 34.6246C16.4214 36.9952 20.8133 38.7776 23.3603 36.6202C21.0841 35.4691 21.7694 33.1157 22.9034 31.342C26.2882 30.0886 29.4106 26.78 31.9661 24.2389C32.2792 22.0901 30.7476 19.3955 30.2737 17.3661C31.6131 16.3995 33.0281 15.544 34.5047 14.808C34.3016 12.4033 35.1479 8.37856 33.6585 6.2809C32.8885 2.87008 31.5176 0.610258 27.6928 1.86374C23.9018 1.98311 22.9202 -0.216717 19.2731 2.87008C20.1193 5.71812 15.8206 4.11503 14.1959 5.4282C12.9036 6.52611 12.0105 8.02605 11.6573 9.69173C8.76329 9.24832 10.1849 10.5444 10.8111 12.2498C3.71993 10.8855 2.63679 15.6605 3.19528 21.6891C2.17138 25.0232 -1.24731 28.9798 4.43071 29.7899Z" fill="white" stroke="black" stroke-miterlimit="10"/>
</svg>
