<svg width="74" height="74" viewBox="0 0 74 74" fill="none" xmlns="http://www.w3.org/2000/svg">
<path d="M27.7076 69.1875L25.1769 66.6222L26.864 63.2018H35.1563C35.0789 64.1579 35.0789 65.1187 35.1563 66.0748C35.5885 67.3688 35.9184 68.6956 36.1433 70.0426C36.1433 70.8977 39.5175 71.7528 39.5175 71.7528L42.8918 70.0426C43.7909 70.0389 44.6643 69.7388 45.3803 69.1875C46.1258 68.6314 47.0275 68.3317 47.9532 68.3324L46.266 64.0569L47.9532 61.6114L50.1043 60.6365L53.0399 63.2018C53.4903 63.6726 54.0852 63.9741 54.727 64.0569H57.2577L58.9448 66.6222L61.4755 67.9048L65.6934 68.3324L66.5369 67.4773V64.6385L67.3805 61.4916V59.6958C67.3805 59.6958 68.0046 58.0712 68.5361 58.0712C69.5746 57.8564 70.5978 57.5708 71.5983 57.2161V54.7535L70.7548 53.7272C70.7548 53.7272 69.0676 53.7956 69.0676 52.9405V50.3752C69.4803 49.5705 69.765 48.7047 69.9112 47.8099C70.1221 46.6381 70.4529 45.4918 70.8981 44.3895L71.9441 42.6793H71.573L73.4119 36.0352L69.8859 32.4181L66.4694 28.8094L57.6542 24.1322L55.5453 17.0262L57.6542 11.3654L49.033 5.84144H42.9678L37.0628 0.779297L34.4223 3.3446L30.2045 8.47522H27.4123L25.3118 12.7507V22.8495L21.094 25.8766L17.5004 27.5355H12.2788L9.74806 32.2385L9.91673 35.8385L4.26489 32.2385C1.48112 32.4181 0.890625 35.8385 0.890625 35.8385V39.866L4.26489 45.3987L5.69891 47.8099L7.64759 52.1794L5.60623 58.0966H5.69891H7.38604L8.2296 59.8068L13.291 60.6619L15.8217 62.3721L16.6653 66.6477V70.0681L19.196 70.9232H22.5702L23.4138 71.7783L24.1647 73.3006L26.864 71.7528L27.7076 69.1875Z" fill="white" stroke="black" stroke-miterlimit="10"/>
</svg>
