<svg width="44" height="41" viewBox="0 0 44 41" fill="none" xmlns="http://www.w3.org/2000/svg">
<path d="M16.7408 34.5321C32.1536 33.9037 28.3771 26.3466 36.3478 26.7541C38.3757 26.8515 40.4069 26.6484 42.3749 26.1513C41.4031 25.6164 42.8864 23.4935 43.0569 22.8652C42.2044 21.1669 42.477 16.0722 39.2376 17.4392C34.7536 14.2211 36.0408 6.23982 32.6224 2.03674C25.8708 1.83295 23.2452 -2.40426 21.0032 5.0509C21.5658 14.0854 12.1033 20.3348 8.21604 27.9768C7.42324 28.9278 3.95365 31.4581 4.80613 33.0714C3.63824 33.7337 -1.16121 32.978 1.39622 35.6188C-1.26351 38.718 9.5971 40.2719 12.308 39.8643C13.3991 38.5821 15.7349 35.8312 16.7408 34.5321Z" fill="white" stroke="black" stroke-miterlimit="10"/>
</svg>
