<svg width="115" height="152" viewBox="0 0 115 152" fill="none" xmlns="http://www.w3.org/2000/svg">
<path d="M49.4063 150.934L51.075 149.272H52.2681L54.4124 145.946H55.3802H57.7498V142.247L58.7008 139.296L59.5268 137.634L56.9154 132.646L54.4709 129.013L49.4063 127.982V129.429L52.7437 132.646L53.5781 135.14L53.7198 139.296L52.7437 140.959L51.075 144.284L49.4063 146.171L46.9033 147.609V150.934H49.4063Z" fill="white" stroke="black" stroke-miterlimit="10"/>
<path d="M44.8788 125.35L43.5575 131.53L46.2541 133.504L48.0519 135.729V140.608H43.5575C43.5575 140.608 42.1821 139.928 41.9754 139.088C41.7686 138.248 40.8608 135.729 40.8608 135.729L37.7236 132.966C37.9548 132.224 38.1024 131.461 38.1641 130.691C38.0799 129.673 37.9328 128.661 37.7236 127.659C37.7236 127.659 39.5214 125.014 40.1866 125.333C40.8518 125.652 42.8833 125.333 42.8833 125.333H46.2541" fill="white"/>
<path d="M44.8788 125.35L43.5575 131.53L46.2541 133.504L48.0519 135.729V140.608H43.5575C43.5575 140.608 42.1821 139.928 41.9754 139.088C41.7686 138.248 40.8608 135.729 40.8608 135.729L37.7236 132.966C37.9548 132.224 38.1024 131.461 38.1641 130.691C38.0799 129.673 37.9328 128.661 37.7236 127.659C37.7236 127.659 39.5214 125.014 40.1866 125.333C40.8518 125.652 42.8833 125.333 42.8833 125.333H46.2541" stroke="black" stroke-miterlimit="10"/>
<path d="M59.5273 122.385L63.7725 123.462V126.419V127.828L65.5159 129.132L69.0027 127.512L70.8071 127.828L74.2328 127.512L75.9761 126.702V124.604V120.975V119.363H72.7509L71.2342 117.37L69.0027 115.361L67.7562 117.37V119.16L64.6442 120.222L62.0292 121.032L59.5273 122.385Z" fill="white" stroke="black" stroke-miterlimit="10"/>
<path d="M4.12935 135.633L1.78138 134.744C1.78138 134.744 0.387587 132.967 1.32303 132.079C2.51128 131.118 3.76091 130.227 5.06479 129.413L6.93567 127.982C6.93567 127.982 8.24524 129.413 8.52587 129.413C8.8065 129.413 8.52587 130.63 8.52587 130.63L8.6476 133.589L4.12935 135.633Z" fill="white" stroke="black" stroke-miterlimit="10"/>
<path d="M29.7702 129.316L26.7304 127.597H25.0996L26.3804 125.525L28.4381 124.158L30.8376 125.525L32.7502 126.737V129.316V130.279L29.7702 129.316Z" fill="white" stroke="black" stroke-miterlimit="10"/>
<path d="M41.5485 110.394L36.4481 112.153L33.0904 114.79V116.074L30.4976 119.186H29.2821L26.1113 114.79H23.3656L20.2968 113.032L18.5967 106.878L21.9969 105.119H27.5904L29.2821 101.207L31.3477 101.603L33.0478 104.24L36.4481 105.119L38.5818 106.016V107.546L41.5485 110.394Z" fill="white" stroke="black" stroke-miterlimit="10"/>
<path d="M24.6321 96.8411V100.196L23.6463 101.728L18.6309 103.885L16.0589 103.005L13.624 100.363V98.2233L15.7587 93.3191L16.0589 90.6776H22.3689H24.6321L28.5501 89.3568L33.2482 83.2285H37.7234V85.9582L34.9457 89.3568L37.7234 90.5542V92.5267L33.2482 93.5568H30.2047L25.678 94.7189L25.5667 96.0311L24.6321 96.8411Z" fill="white" stroke="black" stroke-miterlimit="10"/>
<path d="M56.1566 92.4082L54.8462 94.2372C54.8462 94.2372 52.1432 94.9623 53.3299 95.7036C54.5166 96.4448 54.5908 98.709 54.5908 98.709L53.3299 100.111C53.2803 100.656 53.1781 101.196 53.0249 101.723C53.0162 102.392 53.1193 103.059 53.3299 103.696L54.5743 106.114H56.1566L59.56 104.712L62.4363 103.681H67.3809C67.3809 103.681 67.7352 104.486 68.5593 106.098L69.3834 107.709L74.328 106.098V102.504L75.9762 101.698L72.6798 98.838L71.8557 97.2265L69.3834 95.615L67.3809 97.0896L64.5211 96.2839L63.0872 94.0036H57.8048L56.1566 92.4082Z" fill="white" stroke="black" stroke-miterlimit="10"/>
<path d="M57.9971 88.4762H64.8087L66.0717 89.821L68.5892 93.556H70.6857V89.821L72.1507 88.4762V85.5878L65.0696 84.7578H62.0976L57.9971 88.4762Z" fill="white" stroke="black" stroke-miterlimit="10"/>
<path d="M35.4268 65.4054L44.7367 68.0058V70.381L49.3917 70.6061L51.8432 68.0058L52.1614 64.1311H54.1707V53.5651L52.1614 50.332H50.5011L48.6159 54.1373C48.131 54.7309 47.8554 55.5008 47.84 56.3043C47.84 57.6044 46.2884 56.3043 46.2884 56.3043H44.7988L40.8576 57.6044L38.9258 59.8145L37.9637 61.973L35.4268 65.4054Z" fill="white" stroke="black" stroke-miterlimit="10"/>
<path d="M49.1992 74.4634L55.7023 79.8687V82.2887L57.1085 83.2283L60.6237 81.9477L62.2584 78.8459L60.6237 76.9582L62.2584 75.295H64.4903L67.2763 73.3991L65.8965 71.1371L64.4903 70.3055C64.7026 69.896 64.9849 69.5222 65.3254 69.1994C65.8966 68.6422 68.3836 69.1994 68.3836 69.1994L69.4733 66.9791L67.2763 65.1247L65.8965 64.4844H61.8277L60.6237 66.1475L60.0787 66.9791L61.1686 69.1994L60.2898 70.3055L57.9785 71.1371L57.0997 70.3055H54.6038L53.5844 71.1371L51.1062 73.8564L49.1992 74.4634Z" fill="white" stroke="black" stroke-miterlimit="10"/>
<path d="M71.0981 41.832L66.7194 42.6821L65.5195 42.0105C65.5195 42.0105 65.1692 36.0089 65.5195 36.3659C65.8698 36.7229 65.003 34.1814 65.003 34.1814L60.6243 35.0315H57.9971V32.3538L61.5 29.9311L64.1272 28.2309L66.7544 27.3809L70.2574 28.2309L71.1331 29.081V33.3313L73.9091 34.2578L75.976 35.0315V36.4767L74.347 38.4317L73.7603 40.1319L71.0981 41.832Z" fill="white" stroke="black" stroke-miterlimit="10"/>
<path d="M62.6151 0.601562L63.352 7.55665L62.9834 11.6603L60.0449 10.1648L61.6983 14.5814L61.0129 18.0589L57.4748 19.7281L54.836 18.0674L53.3453 16.2505L50.621 15.3811L48.0508 13.6424L49.293 10.1648L52.0602 8.67819L53.6624 7.55665C54.7574 6.82436 55.7513 5.94725 56.618 4.94849C57.859 3.79624 59.3158 2.90924 60.9017 2.34033L61.8613 0.601562H62.6151Z" fill="white" stroke="black" stroke-miterlimit="10"/>
<path d="M73.6357 26.5936L70.0467 25.068L67.4646 24.3052L64.8825 22.7797C64.8825 22.7797 64.0218 20.9414 64.8825 20.7125C65.4437 20.5756 66.022 20.5013 66.6039 20.4913L69.2463 19.7285L71.7681 20.4913L73.4895 21.2541L75.667 22.421L77.9133 23.9466C78.133 24.0689 78.3155 24.2376 78.4445 24.4371C78.5736 24.6366 78.6454 24.8609 78.6536 25.0908V26.6163L77.7929 27.3791L73.6357 26.5936Z" fill="white" stroke="black" stroke-miterlimit="10"/>
<path d="M95.6531 13.9886L93.8859 12.8439H89.0783L88.5423 11.9058V9.32369L84.5471 8.82449L83.1903 7.71421L78.3995 6.85352H75.1414C73.4663 6.85352 73.4663 7.71421 72.4445 8.82449C71.4227 9.93478 71.0039 10.2618 71.0039 10.2618C71.0039 10.2618 71.7912 12.8439 72.4445 14.3071C73.0978 15.7703 73.4663 15.426 73.4663 15.426L75.3843 18.0855C76.6826 18.4284 78 18.69 79.3292 18.8687H83.5169L86.0296 21.4508L85.6108 24.0329L84.3545 25.7543L86.8672 30.0577H88.3999C89.0621 29.9185 89.6841 29.6239 90.2174 29.197H91.8925V28.3363L91.8422 27.4756C91.7836 26.6149 93.1907 27.4756 93.1907 27.4756C93.418 26.9304 93.5457 26.3469 93.5676 25.7543C93.5676 24.8936 93.8189 25.3239 93.8189 25.3239L93.71 24.0329L92.73 23.1722L91.8925 21.4508V20.5901H94.4051C94.4051 20.5901 94.4051 19.7294 94.648 19.7294C94.9965 19.6407 95.3338 19.5107 95.6531 19.3421L96.4906 19.2561L96.0886 17.1904L95.6531 13.9886Z" fill="white" stroke="black" stroke-miterlimit="10"/>
<path d="M83.626 71.1794L85.7299 68.5017L86.8775 69.0755L89.3639 69.8405H90.7028H92.2329L93.9543 68.5017L94.9106 67.7366V65.0589L95.2931 63.5288L97.2058 63.9113L99.501 64.6764L100.266 62.5725L99.501 61.4249L98.1621 59.7035L96.4407 57.7908L95.8669 56.6433L96.4407 55.4957L98.1621 54.9219H99.501L101.796 55.8782L103.709 56.6433H105.621H107.917H109.064H110.403V59.7035L109.829 61.4249H107.917H107.343L104.474 64.6764L103.709 66.7803L105.048 67.7366H105.621L109.064 68.5017L109.829 67.7366H113.081L114.228 68.5017V72.9008L112.316 75.7698V79.4038L106.387 80.9339V76.7261L107.917 74.6222L105.621 71.9445H101.796L100.84 69.8405L96.8233 71.1794L93.3805 73.6658H88.9814L83.626 71.1794Z" fill="white" stroke="black" stroke-miterlimit="10"/>
</svg>
