<svg width="88" height="92" viewBox="0 0 88 92" fill="none" xmlns="http://www.w3.org/2000/svg">
<path d="M75.6038 79.5217L78.5893 77.9547H83.7253L83.1182 74.7286V71.9804L84.9735 71.1425L86.7697 69.8439C85.589 69.4836 84.5687 69.0477 84.5687 69.0477L84.9735 67.7908L86.6602 66.9529L86.7866 66.8273L81.6001 63.1405C79.8809 60.3983 78.6672 57.3735 78.0159 54.2082C76.9617 49.0047 81.6001 51.0324 81.6001 51.0324L79.9134 43.5832L77.1725 36.4441L74.4317 32.3302V25.1408L77.3496 22.4176L74.4317 19.8282L70.6366 18.3536C70.6366 18.3536 66.4199 13.3261 65.5766 12.4882C64.4216 11.5604 63.1981 10.7201 61.9164 9.97444L54.5793 4.82132C54.5793 4.82132 50.953 2.75149 50.6072 2.12305L50.6747 9.97444L50.5819 12.3204L47.023 17.5157V21.387L43.6496 23.8001L35.2162 25.057V29.2466L32.3405 32.0537L26.7827 27.5707L20.289 26.3891L16.6626 21.7053H14.1326L10.0087 15.8399H7.79062L5.69914 17.5157V38.7652L1.48242 48.9376V54.5183L3.16911 56.8979H7.79062L12.4459 63.1405V67.5646L13.7784 74.7372L14.9759 77.0079H19.1926L26.0996 74.7372H30.4765L35.2162 78.6837V80.3596L41.1196 82.0354L43.6496 87.9679L47.8663 91.2525H51.2397C50.5261 89.7826 49.6793 88.3803 48.7097 87.0629C47.8663 86.225 52.0831 89.5767 52.0831 89.5767L53.7698 90.4146V87.0629C53.7698 86.225 56.2998 85.3871 56.2998 85.3871C56.3035 86.2942 56.0072 87.1774 55.4564 87.9008C54.6131 88.7388 57.1431 88.7388 57.1431 88.7388C57.9368 88.3288 58.7907 88.046 59.6732 87.9008C60.5557 87.7557 61.4095 87.4729 62.2032 87.0629L64.7332 87.9008L65.5766 87.0629L66.4199 84.5492L67.6849 80.3596L64.7332 77.8458L66.4199 78.6837H68.9499C69.1736 78.6837 69.3881 78.5954 69.5462 78.4383C69.7044 78.2811 69.7933 78.0681 69.7933 77.8458C69.7933 77.0079 71.48 75.3321 71.48 75.3321H74.4317L72.3233 78.6837L71.48 80.3596L72.3233 82.8733V85.3871C72.4118 86.0225 72.7082 86.6113 73.1667 87.0629H76.54L78.5893 82.0354L75.6038 79.5217Z" fill="white" stroke="black" stroke-miterlimit="10"/>
</svg>
