<svg width="99" height="67" viewBox="0 0 99 67" fill="none" xmlns="http://www.w3.org/2000/svg">
<path d="M74.9937 48.5853L77.7409 43.4689L81.1535 41.7122L84.5661 35.4103L89.8214 33.1335H92.3809L95.7935 29.0405L97.9093 25.5101L95.6997 18.4067C95.3329 18.5772 95.111 18.6881 95.2048 18.6881C95.5717 18.6881 94.8466 21.2464 94.8466 21.2464C93.4661 21.7083 92.0329 21.9948 90.5808 22.0991C88.8745 22.0991 86.3151 22.0991 86.3151 21.2464C86.3151 20.3936 83.7556 19.5409 82.9025 19.5409C82.0493 19.5409 82.0493 20.3936 81.1962 21.2464C80.343 22.0991 78.6367 21.2464 78.6367 21.2464C78.1769 20.7828 77.5774 20.4831 76.9304 20.3936C76.0773 20.3936 75.2241 19.5409 74.371 19.5409C73.2099 19.721 72.0676 20.0064 70.9584 20.3936C70.9584 20.3936 69.252 21.2464 69.252 22.0991C69.1123 23.286 68.7689 24.4399 68.2368 25.5101C68.0662 25.5101 65.447 26.3628 65.447 26.3628H61.531L58.9715 22.0991C58.9715 22.0991 58.1184 16.9827 58.1184 16.1299C58.1184 15.2772 56.4121 13.5717 55.5589 13.5717C54.973 13.4689 54.4006 13.3002 53.8526 13.0687V13.5717H42.7617L40.2022 11.0135C39.3491 10.1607 40.2023 10.1607 39.2041 9.73435C38.2059 9.30798 36.7896 8.45515 36.764 7.30395C36.7384 6.15275 35.0577 5.89701 35.0577 5.04427C35.0577 4.19153 32.4982 5.89701 31.6451 5.89701C30.7919 5.89701 29.0856 5.89714 28.2325 5.8204C27.3793 5.74365 28.2325 4.19153 28.2325 4.19153C27.7733 3.27065 27.2 2.41117 26.5262 1.6333C25.673 0.780557 25.673 2.48604 24.8199 2.48604C23.9667 2.48604 23.1136 4.19153 22.2604 4.19153C21.4073 4.19153 21.4073 6.74975 21.4073 6.74975L20.8613 8.78792C20.8613 8.78792 17.9946 10.1607 18.1738 9.73435C18.3529 9.30798 16.2884 11.0135 16.2884 11.8662C16.2884 12.7189 17.1415 12.7191 17.1415 13.7765V20.4448H16.2884L12.8758 21.2976H9.46315C9.46315 21.2976 7.75684 21.2976 7.75684 20.4448C7.75684 19.5921 6.05054 19.5921 6.05054 19.5921L5.19739 21.2976L2.63794 21.7752V23.8558C2.63794 24.7085 1.51172 25.5613 1.51172 25.5613L6.05054 28.1195L8.61 29.825L10.4273 33.4833C11.0511 35.1623 12.0054 36.699 13.234 38.0027C15.2986 40.2113 16.2884 39.2734 16.2884 39.2734V41.7634L20.8613 41.8229C20.8613 41.8229 25.673 41.7632 25.673 41.3966C25.673 41.0299 27.8401 39.6911 27.8401 39.6911L25.6986 35.7942L27.8657 31.6412L30.8175 28.9723L30.3995 25.5613H35.0833L38.4959 26.414V33.4833H41.0041L41.0554 37.4997L38.4959 40.9702V45.1744L40.2022 46.4876L42.7617 46.0271L43.6148 48.5853V51.1435L44.468 52.849V57.1127H41.9085L40.2022 61.3765L42.7617 63.0819L48.7337 66.4246H54.7058V64.3015L58.9715 63.0819L61.531 61.3765L64.9436 59.671V57.1127L66.6499 58.3665V59.671L69.2093 54.5545L74.9937 48.5853Z" fill="white" stroke="black" stroke-miterlimit="10"/>
</svg>
