<svg width="49" height="73" viewBox="0 0 49 73" fill="none" xmlns="http://www.w3.org/2000/svg">
<path d="M47.7271 57.684C49.4266 48.0888 41.5748 46.8724 34.1309 47.689C32.7968 42.3895 25.1319 34.8869 31.5816 30.6082C29.7426 29.3927 28.034 27.9903 26.4831 26.4231C29.4317 24.1774 30.222 19.9244 31.5816 16.777C28.9049 15.5351 29.6782 12.3196 31.5816 10.7204C31.7431 7.31787 23.8743 6.12674 30.2645 5.14851C30.8763 2.39245 32.9582 -0.235933 28.3695 1.83111C26.5085 1.31222 22.9735 2.90311 21.3845 3.73673C19.2516 5.84631 16.065 9.52099 17.1357 12.8129C13.2098 21.4469 14.0681 17.0151 14.5864 26.4231C7.78832 33.3558 11.1874 40.3225 11.1874 49.3903C8.99498 50.4706 5.79131 52.1804 6.86201 55.2002C5.51938 57.4118 1.84 58.8834 0.990234 61.2992C10.635 65.1015 0.00451194 67.092 4.38928 71.5068C12.598 75.76 8.98648 57.5479 20.5347 68.9549C26.636 66.1308 36.2723 67.781 41.7788 71.5068C41.5748 61.6734 50.2764 69.3292 47.7271 57.684Z" fill="white" stroke="black" stroke-miterlimit="10"/>
</svg>
