<svg width="74" height="70" viewBox="0 0 74 70" fill="none" xmlns="http://www.w3.org/2000/svg">
<path d="M69.0266 28.914L63.8807 25.0706L61.8138 20.6663L63.5291 16.7208L69.0094 12.733V7.35052L64.4896 3.09903H59.4038L60.4329 4.79963L52.7141 5.64993L49.2835 1.39844L42.7397 3.09903L36.4187 5.64993L34.7034 7.35052H30.4152L24.4975 14.1529L27.0704 16.7038L20.9896 26.0571L22.7049 30.3086L17.559 34.56L7.26724 35.5548V38.8115H4.69429L1.17784 42.1617L1.10938 45.1805L4.1882 49.0151H6.05803L10.6978 47.3145L11.607 45.6139H14.1799C14.9609 46.8027 15.8204 47.9389 16.7529 49.0151C17.6105 49.8654 18.4682 56.6678 18.9056 57.0929C19.343 57.5181 19.7633 61.3444 19.7633 61.3444C19.7633 61.3444 20.6209 61.8119 20.3979 63.4955C20.1749 65.1791 22.7564 69.0735 22.7564 69.0735C24.4717 69.4221 27.9023 66.8714 27.9023 66.8714C29.6176 67.7217 30.4753 68.572 31.3329 68.572H38.1941L40.1839 68.2402L39.0518 67.8068V65.1708L40.7671 63.4702L44.1977 61.7696L43.34 59.2187L41.9419 57.0929L40.7242 54.1169L45.9559 52.4163L47.0194 50.0439V42.2127L49.1549 40.6483L51.8736 43.9133L55.3042 48.1648L60.4501 49.3041L63.8807 48.1648L62.8 45.6139L61.5222 43.063L63.4433 42.2127L68.1689 43.063L70.0557 40.9543V34.56L72.2599 33.4291L69.0266 28.914Z" fill="white" stroke="black" stroke-miterlimit="10"/>
</svg>
