<svg width="126" height="88" viewBox="0 0 126 88" fill="none" xmlns="http://www.w3.org/2000/svg">
<path d="M11.0415 46.1872L17.3806 49.4619V54.5259L24.0253 59.7164L30.1947 61.1345L31.2979 57.3452L33.5467 53.7833H36.9411L41.1247 56.3153L44.6041 59.6913L54.4141 61.1094L55.6105 63.9113L64.0967 65.5993L69.6126 68.1313L72.5828 70.6633V81.2641H81.6459C81.6459 81.2641 84.4633 80.7914 85.3119 81.6354C86.1605 82.4794 85.3119 84.7246 85.3119 84.7246H101.588L108.224 86.6994L109.922 81.6354L115.726 80.9517L123.593 82.9183L125.197 80.7914C124.287 79.8482 123.437 78.8503 122.651 77.8036C121.802 76.5713 121.48 75.204 121.217 75.0437C120.954 74.8833 122.269 71.347 122.269 71.347L121.183 69.6166C121.183 69.6166 115.59 68.1313 115.726 68.1313C117.278 67.4553 118.747 66.6059 120.105 65.5993L122.651 63.0673L123.499 60.5353L123.839 59.6913H123.746V49.4788L122.048 41.1401V38.9881L116.566 36.9201V31.8561L111.924 21.8125L106.833 20.04L103.438 18.1241L98.8897 12.4271L93.798 10.7391L91.6935 15.457L87.0091 13.2711V20.0231C86.2309 20.5373 85.5259 21.1532 84.9131 21.8546C84.4633 22.5551 71.8106 25.2306 71.8106 25.2306L61.6273 22.8C61.6273 22.8 57.6047 23.5934 57.8678 21.8294C58.1308 20.0655 59.285 14.3178 57.8678 13.8114C56.4506 13.305 54.4733 10.1988 54.4733 10.1988H49.8315L46.2758 8.2071L43.5518 4.83109H41.006L37.2042 10.165L31.2639 7.48138L30.1607 2.41736L27.793 3.26136L25.3661 4.80595L20.7835 7.33796L17.3466 2.83936L14.8772 1.45508L12.7302 4.83109V10.165L9.78555 12.9418L1.7832 18.1072L5.98379 20.0231L9.78555 25.1968V33.5272L8.08832 36.9032V41.1232L3.25128 45.9342L7.23971 51.2513L11.0415 46.1872Z" fill="white" stroke="black" stroke-miterlimit="10"/>
</svg>
