<svg width="83" height="132" viewBox="0 0 83 132" fill="none" xmlns="http://www.w3.org/2000/svg">
<path d="M25.8166 77.9243L31.1478 75.6549L34.506 77.9243V74.017H41.2223L40.9284 83.896L44.5133 87.3085V93.8434L48.2744 96.8035V100.105L44.0767 97.6907L44.4965 101.718L40.9284 106.077L40.7605 111.801L43.2792 114.659L39.2493 120.58L41.1719 123.992H45.7642L51.0029 125.698L53.5216 127.405H63.3106L71.0512 130.919L71.152 130.817L71.9916 128.258L72.8311 124.845L74.6276 123.139H77.0288L78.7079 122.286L80.387 119.727L82.0661 118.584V111.196L80.387 106.93V103.518L81.2265 101.88V99.252C81.2265 99.252 78.7079 94.9864 77.8684 94.2442C77.0288 93.5019 77.8684 88.1616 77.8684 88.1616L74.1576 83.0429L70.3125 75.365C70.3125 75.365 69.4729 66.8339 69.4729 65.9808V60.8621L70.3125 56.5966L69.4729 54.8904V52.331L70.3125 51.4779C70.3125 51.4779 68.6334 47.2124 68.6334 46.3593C68.5453 45.7124 68.2503 45.1128 67.7938 44.6531V42.9468L70.3125 42.0937V39.5344L69.4729 36.122C69.4729 36.122 67.7938 33.5627 66.9543 33.5627C66.1147 33.5627 67.7938 31.8564 67.7938 31.8564L68.6334 30.1502L68.1548 27.5909L68.6334 25.8847L69.4729 25.0316L71.152 23.3253C71.152 23.3253 67.7938 19.0598 66.9543 19.0598C66.1147 19.0598 64.4357 16.5005 62.7566 15.6474C61.0775 14.7943 60.2379 15.3145 60.2379 15.3145V7.9694L59.3984 1.99764L56.8798 1.14453L51.8425 1.99764L47.6448 4.55696L45.9657 7.11629L44.2866 8.82251L42.6075 7.9694L38.4098 8.73711V10.5287L36.7307 13.088C35.8241 13.5472 34.9779 14.1205 34.2121 14.7943C33.3725 15.6474 30.8539 16.5005 30.8539 16.5005L29.1748 19.9129C29.9912 20.3144 30.7439 20.8376 31.4079 21.4654C31.9536 22.165 32.5329 23.3252 31.4079 24.2209C30.2829 25.1167 31.4079 27.6334 31.4079 27.6334H23.6757L22.9454 27.156L19.9398 32.7095V35.5846L13.2234 31.8564H8.18617L2.75434 40.2596L5.27297 46.3593L0.638672 48.9186L2.76274 55.0611L14.9025 59.1559L12.9715 65.8017L18.7393 70.545L22.937 70.7924L25.8166 77.9243Z" fill="white" stroke="black" stroke-miterlimit="10"/>
</svg>
