<svg width="74" height="76" viewBox="0 0 74 76" fill="none" xmlns="http://www.w3.org/2000/svg">
<path d="M9.92841 47.1189C9.92841 47.1189 7.47967 46.9748 7.4373 47.8985L7.38641 48.8138V54.0596C7.38641 54.746 4.4886 56.119 4.4886 56.119L2.30241 58.1359L1.45508 60.6783V63.068L4.4886 64.1782L6.53908 65.7631L10.7757 68.3055L13.3177 70.8479L15.0124 73.3902L15.758 74.7715H19.6049C19.6049 74.7715 20.9437 75.0852 20.9437 74.2377V71.4495L22.6384 70.0004L24.3331 71.6953L28.4343 70.8479L30.2644 66.6105V64.1782L31.9591 59.8308L39.5851 58.9834L37.8904 61.5258C37.8904 61.5258 37.0431 63.2207 37.8904 64.0682C38.7378 64.9156 42.9744 65.7631 42.9744 65.7631L47.2111 68.3055L53.1424 66.6105L57.9552 63.068L61.9716 60.975L60.9039 59.5172L56.6673 51.7799L57.9298 47.8985V42.8816L62.8189 41.1866L62.8613 38.6443C63.0872 36.9569 63.0872 35.2469 62.8613 33.5595C62.4376 31.8645 65.5221 28.4747 65.5221 28.4747L69.5721 25.7796L72.6056 21.712V20.9154C72.6056 20.9154 71.6227 21.8474 69.5721 19.6525C68.3519 18.3569 67.4041 16.8297 66.7846 15.1611L65.0051 11.5254L62.4631 9.8305L57.9552 7.28811H54.8371C54.8345 6.41803 54.891 5.54893 55.0065 4.68655C55.1845 3.77976 53.9898 2.20333 53.9898 2.20333L53.1424 1.35587L49.7531 1V5.59318L47.2111 6.44065L42.9744 5.59318L41.2798 4.74572L40.4918 3.55936L37.3058 7.28811L32.8064 11.5254L35.6196 15.6101L36.1958 19.1526L32.8064 20.9154L28.5697 23.8645L31.9591 27.6272L31.1118 31.0171H28.4343V32.712L25.1804 36.9493H18.7576L15.0972 40.729V42.8816H12.8262L13.3177 46.3136L9.92841 47.1189Z" fill="white" stroke="black" stroke-miterlimit="10"/>
</svg>
