<svg width="40" height="65" viewBox="0 0 40 65" fill="none" xmlns="http://www.w3.org/2000/svg">
<path d="M32.1609 13.8716L33.8534 18.1622V20.4105L37.2383 22.4527V25.4561L35.5458 27.6013L34.6996 29.1629V32.9989L35.5458 35.3243V38.7567L34.6996 42.1892V43.468L36.392 44.7719L37.2383 45.819C37.2383 45.819 38.0845 46.4198 37.2383 46.8832C36.392 47.3466 36.392 49.0624 36.392 49.0624L37.6106 50.9332C37.6106 50.9332 37.1451 52.3663 37.6106 52.864L38.9307 54.2027V55.6273L38.0845 57.6351L35.5458 59.0337V60.5354L33.8534 61.9256H25.5094V63.3071L22.0062 64.5H11.8514C11.8514 64.5 8.46649 64.5 8.46649 63.6419C8.46649 62.7838 10.1589 62.1317 8.46649 61.5997C6.77403 61.0676 6.77403 60.2094 6.77403 60.2094L5.92781 55.9189L5.08158 54.2027V52.8556L6.77403 51.6284H9.31272L13.5439 49.9121L14.3901 47.3378L13.5439 45.6216L11.8514 42.1892L11.0052 40.473C11.0052 40.473 10.1589 39.6148 9.72736 39.1858C9.29579 38.7567 9.31272 37.0405 9.31272 37.0405C8.13788 36.996 6.98508 36.7038 5.92781 36.1824C5.14883 35.7223 4.28457 35.4301 3.38912 35.3243C3.38912 35.3243 2.54289 36.1824 2.54289 32.75V26.8119C2.54289 26.8119 0.00420545 24.3492 0.850434 22.9676C1.69666 21.5861 0.68123 14.8584 0.68123 14.8584V12.7303L3.38912 11.2973L5.08158 10.4392L6.77403 7.86486C7.18805 7.0573 7.47365 6.18848 7.62026 5.29054C7.62026 4.43243 7.62026 2.71622 8.46649 2.71622H11.0052L11.8514 3.57432L14.3901 2.71622L16.9288 1C16.9288 1 20.1444 2.67349 19.8059 3.11971C19.4674 3.56593 19.8059 4.6214 19.8059 4.6214L22.0062 7.00675L22.8524 7.86486L25.3911 10.4392L26.2373 11.2973L27.9298 12.1554L29.6222 13.0135L32.1609 13.8716Z" fill="white" stroke="black" stroke-miterlimit="10"/>
</svg>
