<svg width="29" height="36" viewBox="0 0 29 36" fill="none" xmlns="http://www.w3.org/2000/svg">
<path d="M17.9154 28.3358C18.8846 25.252 18.5667 21.9326 17.0273 19.0652C18.1552 15.6435 22.0274 16.6211 25.0203 16.5368C27.8179 14.9271 29.4609 12.1375 26.4414 9.74398C19.7273 10.7806 25.5532 6.01893 24.1589 1.36678C24.7095 -1.79365 21.5833 6.71844 21.4945 6.42347C20.4949 7.14827 19.3105 7.60829 18.0622 7.75636C16.8139 7.90444 15.5465 7.73525 14.3897 7.26625C12.3204 10.9576 8.34163 14.3035 4.62045 16.5368C-3.71002 20.8013 5.88156 26.2373 8.17289 30.0214C8.29722 30.1731 16.0503 34.2353 15.1533 34.7073C21.3967 33.8308 21.0238 33.1649 17.9154 28.3358Z" fill="white" stroke="black" stroke-miterlimit="10"/>
</svg>
