<svg width="94" height="80" viewBox="0 0 94 80" fill="none" xmlns="http://www.w3.org/2000/svg">
<path d="M15.9026 46.7104L13.3055 53.0113L17.589 55.1117C17.589 55.1117 22.252 51.7512 22.8759 53.0113C23.4999 54.2715 22.8759 57.6488 22.8759 57.6488L23.1458 61.0934L26.8643 63.5129L32.9353 66.7306L36.1396 72.7543H40.4904C40.5582 73.7753 40.5582 74.7996 40.4904 75.8206C40.3555 76.1147 48.7876 73.5944 48.7876 73.5944L50.4741 71.074L53.8469 67.7135L56.3765 64.538L58.9061 65.1931L62.2789 66.8734L63.8052 70.8053L67.3382 72.7543C67.3382 72.7543 72.7515 74.7371 72.5745 75.8461C72.4791 76.88 72.4791 77.9203 72.5745 78.9543L78.2999 76.1147L80.4501 74.8964L79.1431 73.5944V71.074L79.9863 68.5536L80.6356 67.7135H82.5159L83.629 66.0333H85.0455L87.5751 64.353V61.8326L89.2615 60.1524H90.948L91.7912 58.4721L92.432 55.1117H90.1048L85.8887 53.4314L84.2023 51.7512C83.8195 50.6588 83.5372 49.534 83.3591 48.3907V45.8703L85.0455 42.5098L80.8295 38.3092L77.4567 34.9487L76.6135 32.4283L80.8295 29.0678L79.9863 28.2277C79.9863 28.2277 80.8295 24.8672 81.6727 24.0271C82.5159 23.187 79.1431 23.187 79.1431 23.187L78.2999 19.8265L78.831 16.13L68.1814 17.3061L63.4931 16.9029L61.4357 15.6258V10.5851C61.4357 9.74499 62.2789 8.0648 63.1221 6.87183C63.9654 5.67885 63.1221 3.024 63.1221 3.024L62.085 1.34375H56.3765V3.94821L52.1605 3.86412L48.7876 6.38449L47.9444 10.5851V14.6007L45.3135 17.3061L43.7284 18.1462V20.4566L40.7012 24.1867L36.9828 27.3876L33.2978 25.7073L30.2371 22.3468L29.3939 18.9863L25.1779 18.1462L20.9618 17.3061L19.2754 15.6258L15.0594 16.466C15.0594 16.466 12.2432 16.466 12.3865 17.3061C12.6294 18.1771 12.9599 19.0215 13.373 19.8265L17.589 20.6666L18.4322 24.1867L16.9988 27.3876H14.0645L10.8434 28.2277L9.15695 32.4283L8.31374 34.9487L7.47054 37.4691L6.06245 38.8384L1.56809 39.1493V40.0985L0.826172 40.88L6.06245 44.7951L15.9026 46.7104Z" fill="white" stroke="black" stroke-miterlimit="10"/>
</svg>
