<svg width="66" height="66" viewBox="0 0 66 66" fill="none" xmlns="http://www.w3.org/2000/svg">
<path d="M63.8338 12.4849C63.8338 12.4849 62.9724 9.93013 62.111 9.07852C61.2496 8.22691 61.2496 4.82049 61.2496 3.96888C61.2496 3.74302 61.1588 3.52648 60.9973 3.36677C60.8357 3.20706 60.6167 3.11728 60.3882 3.11728L58.6654 1.41406C58.6654 1.41406 57.804 3.11728 56.9426 3.11728C56.0812 3.11728 56.0812 5.6721 56.0812 5.6721L54.3583 8.22691L53.4969 9.07852L52.6355 9.93013C52.1672 10.3891 51.8645 10.9876 51.7741 11.6333C51.7741 12.4849 50.9127 12.4849 50.9127 13.3366C50.9127 13.5624 50.8219 13.779 50.6603 13.9387C50.4988 14.0984 50.2798 14.1882 50.0513 14.1882L48.3285 14.9886V16.743C48.3246 16.9579 48.2761 17.1695 48.1859 17.3651C48.0957 17.5606 47.9656 17.7357 47.804 17.8794C47.6424 18.0232 47.4526 18.1327 47.2465 18.2009C47.0403 18.269 46.8222 18.2944 46.6057 18.2757C45.7442 18.1054 46.6057 19.2978 46.6057 19.2978L44.0214 20.1494L41.4372 21.001L38.853 22.7042V24.4074L37.1301 26.1107C35.7126 25.7434 34.2745 25.459 32.8231 25.259C31.9217 25.1115 31.0495 24.8241 30.2389 24.4074L29.3775 22.7042L31.9617 20.1494L32.8231 16.743L29.8513 15.0398L27.6546 14.1882L21.5762 13.5523L19.6635 7.62308L16.0295 6.66675L10.8653 5.3279L7.23131 4.18031L1.87589 2.45892L1.08008 4.88868L2.67377 9.07852V11.9398C2.67377 11.9398 1.81236 15.1844 1.38166 16.3937C0.950951 17.603 2.67377 19.2467 2.67377 19.2467C2.67377 19.2467 5.258 22.7042 5.258 23.5558C5.258 24.4074 6.98082 31.2203 6.98082 31.2203L9.56505 37.1815L10.4265 41.4396C10.4265 41.4396 12.1493 43.1428 12.1493 43.9944C12.1493 44.846 13.8721 49.9556 13.8721 49.9556V51.974H16.5253C16.5253 51.974 19.0406 54.2137 18.1791 55.0653C17.3177 55.9169 18.36 57.85 18.36 57.85L21.6248 58.4717L23.3476 59.3233L27.6546 60.1749L29.3775 57.6201L30.2389 54.2137L33.6845 52.5105C34.2768 53.8341 34.7832 55.1936 35.2006 56.5809C35.4073 57.6199 37.1301 59.0166 37.1301 59.5957C37.1301 60.1748 38.853 61.8781 38.853 61.8781H42.7121L44.8828 63.5813L50.7232 65.0292L50.9127 64.4329L53.4969 61.8781V57.6201L52.6355 56.7685V55.0653C53.007 53.6639 53.2946 52.2421 53.4969 50.8072V49.104C53.0755 48.3026 52.7848 47.4403 52.6355 46.5492C52.5451 45.9034 52.2424 45.305 51.7741 44.846L50.9127 42.2912L51.7741 41.4396V40.588C51.7741 40.588 53.4969 38.8847 54.3583 38.8847C55.2197 38.8847 56.9426 37.1815 56.9426 37.1815L57.804 33.7751L58.6654 28.6655V26.9623C58.6654 26.9623 61.2496 24.4074 62.111 24.4074C62.9724 24.4074 63.8338 22.7042 63.8338 22.7042C64.2053 21.3028 64.493 19.881 64.6953 18.4462C64.6953 17.5946 63.8338 12.4849 63.8338 12.4849Z" fill="white" stroke="black" stroke-miterlimit="10"/>
</svg>
