<svg width="34" height="40" viewBox="0 0 34 40" fill="none" xmlns="http://www.w3.org/2000/svg">
<path d="M22.9585 2.71929C20.9637 3.15045 17.9158 2.15887 16.3919 0.86539C7.01699 -0.669533 12.9672 8.07427 2.4108 6.16855C0.0820571 7.47065 2.81319 9.97137 3.26696 12.2048C2.98443 15.654 3.62654 20.0519 4.12311 23.4149C-0.268967 29.0544 7.49646 27.4678 11.0666 27.7265C9.35432 31.5293 7.41931 34.9527 10.1162 38.9366C14.2429 34.0731 20.8695 30.9602 23.8147 25.1395C29.8078 28.2266 32.1622 21.3193 33.2324 16.7404C33.0954 16.154 21.6657 12.1444 28.0955 13.0671C31.9139 5.93573 26.6999 4.78029 30.0133 4.94413C30.6639 3.76276 24.4483 2.27088 22.9585 2.71929Z" fill="white" stroke="black" stroke-miterlimit="10"/>
</svg>
