<svg width="92" height="76" viewBox="0 0 92 76" fill="none" xmlns="http://www.w3.org/2000/svg">
<path d="M82.3354 33.9125C83.1961 32.2004 84.9175 33.9125 85.7782 33.0564C88.3603 29.6322 85.7782 25.3519 88.3603 21.9277C90.0817 19.3595 89.4122 18.4663 90.7033 15.4701C87.4755 15.5325 86.4954 16.2352 86.4954 16.2352C86.0173 14.0031 84.0568 14.2231 83.1961 13.3671C81.4747 13.3671 79.7533 13.3671 78.8927 12.511C73.7285 8.23074 70.2857 0.526217 62.5395 1.38228C60.8181 3.95045 59.0967 6.51862 58.236 9.94286C55.654 9.0868 54.7933 10.7989 53.9326 11.655C53.0719 12.511 51.3504 11.655 50.1885 11.0301L49.1988 10.3537H46.6167L43.1739 10.294V11.2098L46.6167 12.9219L48.3381 14.634L50.0595 13.778C50.4898 15.9181 51.3505 15.9181 52.2112 15.9181C53.9326 15.0621 54.7933 13.35 55.654 14.206C58.236 17.6302 60.8181 14.206 63.4002 16.7742V18.4863C60.148 20.0166 56.9869 21.7315 53.9326 23.6226C53.7777 23.8795 53.6313 24.145 53.5022 24.4018V23.1946H51.6087L50.0595 24.0507H48.3984L47.4774 24.9067L45.756 25.7628L44.8953 26.6189L44.0346 27.4749L43.1739 28.4936L42.3132 29.187L40.5918 30.0431H37.8032L37.1491 29.187L36.2884 28.331H33.7063V27.4749L32.9059 26.6189L31.9849 27.4749V28.4167L31.1242 29.187V33.2876L30.2635 34.3234L28.5422 36.0355L25.0994 36.8915H20.7959C19.6768 37.2802 18.5245 37.5668 17.3532 37.7476H13.5576L12.189 39.4597L9.60692 41.1718L7.88554 42.0279L5.30346 43.74H1.43896V44.8615L1 48.0203H2.64385L4.44277 50.5885V52.3006C4.44277 52.5276 4.53351 52.7453 4.69493 52.9059C4.85634 53.0664 5.07519 53.1567 5.30346 53.1567C6.16415 53.1567 7.88554 54.0127 8.74623 53.1567C9.23729 52.7123 9.54417 52.1019 9.60692 51.4445L11.3283 52.3006C11.3283 52.3006 12.189 53.9187 12.189 53.542C12.189 53.1654 13.0497 54.0127 13.9104 54.8688C14.7711 55.7248 13.9104 56.5809 14.7711 56.5809C15.4237 56.6707 16.0286 56.9715 16.4925 57.4369H20.0643L24.2387 54.8688L27.6815 50.5885L30.2635 49.7324L31.1242 48.0203L32.8456 46.3082L36.2884 44.5961L39.7312 43.74L44.0346 42.884L45.756 41.1718L47.116 40.3158L47.4774 39.4597V36.8915L46.6167 36.0355L45.756 34.3234L44.8953 32.6113V31.7552L46.6167 30.8991H47.4774V28.331C47.4774 28.331 46.6167 27.4749 47.4774 27.4749C47.7057 27.4749 47.9245 27.3847 48.0859 27.2241C48.2473 27.0636 48.3381 26.8459 48.3381 26.6189V25.7628H49.1988C49.8514 25.6729 50.4563 25.3721 50.9202 24.9067H52.6415L53.2957 24.847C51.5313 28.7163 52.3747 32.5941 53.9326 36.4635C54.7933 37.3196 56.5147 36.4635 58.236 35.6075C58.9081 35.6462 59.5425 35.9294 60.0186 36.4029C60.4946 36.8764 60.7792 37.5072 60.8181 38.1756C60.7278 38.8248 60.4253 39.4264 59.9574 39.8878C57.3753 39.8878 53.9326 41.5999 54.7933 44.168C56.5147 45.8802 59.9574 48.4483 57.3753 51.0165C55.8116 52.6359 54.8938 54.7659 54.7933 57.0089C53.7875 60.4206 54.0943 64.0825 55.654 67.2816C57.3753 71.5619 62.5395 77.5543 67.7037 74.1301C69.425 71.5619 70.2857 68.1377 72.8678 66.4256C74.5892 65.5695 76.3106 67.2816 78.032 67.2816C82.3354 66.4256 84.0568 62.1453 84.9175 57.865C84.9175 57.0089 86.6389 56.1529 87.4996 55.2968C87.4732 54.0086 87.551 52.7204 87.732 51.4445C87.8955 54.2182 89.4534 52.2406 87.9989 51.5557C88.5755 51.6585 89.221 51.0165 89.221 51.0165C89.221 49.3044 90.0817 45.8802 89.221 45.0241C84.9175 42.473 80.614 39.9049 82.3354 33.9125Z" fill="white" stroke="black" stroke-miterlimit="10"/>
</svg>
