<svg width="13" height="21" viewBox="0 0 13 21" fill="none" xmlns="http://www.w3.org/2000/svg">
<path d="M11.4991 5.47611L11.9733 7.19303L11.7315 9.48505L10.5691 10.6269L9.63912 12.3438V13.4085L8.70915 14.0607V15.6489L10.3366 16.696V17.7347L8.70915 19.2542C8.70915 19.2542 5.91924 20.9711 5.91924 20.1127C5.82163 19.4617 5.49486 18.8584 4.98927 18.3958V13.8545L3.21311 12.9361L2.69228 10.6696V8.56665L3.12933 6.37732H2.19937L0.953125 5.51886L2.19937 2.94348L5.91924 2.08502L6.84921 1.22656L9.63912 2.94348L11.9733 3.12373L12.429 4.6604" fill="white"/>
<path d="M11.4991 5.47611L11.9733 7.19303L11.7315 9.48505L10.5691 10.6269L9.63912 12.3438V13.4085L8.70915 14.0607V15.6489L10.3366 16.696V17.7347L8.70915 19.2542C8.70915 19.2542 5.91924 20.9711 5.91924 20.1127C5.82163 19.4617 5.49486 18.8584 4.98927 18.3958V13.8545L3.21311 12.9361L2.69228 10.6696V8.56665L3.12933 6.37732H2.19937L0.953125 5.51886L2.19937 2.94348L5.91924 2.08502L6.84921 1.22656L9.63912 2.94348L11.9733 3.12373L12.429 4.6604" stroke="black" stroke-miterlimit="10"/>
</svg>
