<svg width="124" height="124" viewBox="0 0 124 124" fill="none" xmlns="http://www.w3.org/2000/svg">
<path d="M40.2622 40.8859L37.7162 35.7855H36.0188L31.716 34.2298L30.0781 25.5847V19.8551L35.1702 17.3049L36.8675 16.217L44.5055 17.067L47.0516 18.7672C47.0516 18.7672 48.7489 21.3174 48.7489 22.1674V27.455C48.7489 28.1181 50.4462 31.5182 50.4462 31.5182L53.8409 30.6681H55.5383L56.3869 31.5182L57.2356 29.818V28.5429L55.5383 25.5677V23.0175L57.2356 20.051L53.8409 19.6172C53.8409 19.6172 52.1436 17.9171 52.9923 17.067C53.9111 15.9881 54.7615 14.8524 55.5383 13.6668V10.2665L57.2356 8.63446H61.9118L66.571 6.0332H68.0307L70.7719 8.65147L70.8144 9.43347L68.2683 10.2835H66.571L69.2952 11.8222L71.663 13.6838L75.0577 14.5339L76.7551 16.234H80.1498L82.6958 14.5339L84.7072 11.8222V16.2593L86.0905 17.1094H87.7878C87.7878 17.1094 90.3338 17.1094 90.3338 16.2593C90.3338 15.6983 91.0806 15.1287 91.5898 14.5592C91.832 14.3365 91.9882 14.0356 92.0312 13.7091C92.0312 12.8591 93.4061 10.8359 93.5673 11.8475C93.7285 12.8591 92.0312 17.9341 92.0312 17.9341C92.4464 18.7341 92.7328 19.5948 92.8798 20.4843V22.1845L90.1896 23.4596H88.2886L86.9391 24.7347L83.5444 25.5847H80.9984L79.6405 23.4596H75.2019L76.7551 19.8551L75.9064 18.7842L73.3604 17.9341L71.663 18.7842L69.117 19.6343L65.7223 20.4843H61.8269L60.6303 21.3344L59.3743 23.4596L58.933 25.5847L59.7816 28.1349H61.8269V31.0931L64.025 31.5692L66.571 29.019L67.4197 26.4688L69.9657 27.3189L73.3604 28.169C73.3604 28.169 75.9064 28.951 76.7551 28.56C77.6037 28.1689 78.4524 29.019 78.4524 29.019V31.5692L79.3011 33.2694L78.4524 35.8196V37.5197L76.7551 36.3807L75.9064 34.9695C75.8445 35.6222 75.5419 36.2284 75.0577 36.6696L74.209 37.5197L72.5117 39.2198L71.663 40.0699L69.7195 40.92L69.117 37.5197L68.2683 35.8196L66.571 33.2694L63.1763 34.1194L61.8269 34.4764C61.8269 34.4764 63.8722 36.1 61.8269 35.539L59.7816 34.9355C59.7816 34.9355 58.933 33.2353 58.0843 33.2353H54.6896L52.1436 34.0854V34.9355L53.8409 36.6356C54.3023 37.0937 54.6005 37.6911 54.6896 38.3357C54.6896 39.1858 53.8409 38.3357 54.6896 39.1858C55.5681 40.2542 56.3599 41.3912 57.0574 42.5861L57.2356 44.2862H51.3544L49.5976 40.0359L48.6132 42.5861L47.9767 44.2862L45.6598 42.5861C45.6598 42.5861 44.5055 40.8859 43.6569 40.8859H40.2622Z" fill="white" stroke="black" stroke-miterlimit="10"/>
<path d="M99.9279 37.7804H93.5781L96.4463 33.9113L105.466 31.2773L106.584 34.5244L102.877 37.7804H99.9279Z" fill="white" stroke="black" stroke-miterlimit="10"/>
<path d="M111.884 37.7808L111.027 35.431L112.742 33.8644L114.457 32.2979L113.394 30.6139L110.169 29.9481L108.454 29.1648L105.881 26.815C105.881 26.815 103.685 25.2484 103.926 25.64C104.166 26.0317 106.087 23.7522 106.087 23.7522V22.4366L108.454 21.332L110.169 22.8986L112.742 23.6819L113.6 24.4651L115.521 25.64H117.759L120.461 26.0317L121.318 26.815L122.176 27.5982V28.4989L122.639 29.5564L119.603 29.9481V30.7313L120.084 31.5146L122.176 32.2979L123.034 33.8644L122.176 34.6477H120.461L118.746 33.0812H115.315V33.8644L114.56 34.4595C114.56 34.4595 113.343 34.7104 113.471 35.0707C113.516 35.1542 113.532 35.248 113.518 35.34C113.505 35.432 113.461 35.5182 113.394 35.5878L112.742 36.2143V36.9975L111.884 37.7808Z" fill="white" stroke="black" stroke-miterlimit="10"/>
<path d="M115.868 8.97405L113.989 11.0044L111.931 7.47682V3.94928C111.931 3.94928 109.637 1.16194 110.682 1.16194C111.727 1.16194 113.132 1.05859 113.132 1.05859L115.859 1.16194L118.26 3.74301V6.32408L119.207 8.97405H115.868Z" fill="white" stroke="black" stroke-miterlimit="10"/>
<path d="M89.7523 123.084H86.9982H83.6318V117.854L86.6921 115.434H88.3097L89.7523 119.263V123.084Z" fill="white" stroke="black" stroke-miterlimit="10"/>
<path d="M84.3338 77.1821H81.451L77.9881 73.59L73.1241 75.3821V72.0872C73.1241 72.0872 75.3018 70.6567 73.1241 69.6763C70.9464 68.6958 73.1241 67.5706 73.1241 67.5706L74.5164 65.4894L75.4089 63.0785L77.9881 61.8809L80.7638 62.2748L84.3338 61.8809L87.4574 63.3759L86.1187 67.0966L85.7797 69.5075H87.4574V74.7551L84.3338 77.1821Z" fill="white" stroke="black" stroke-miterlimit="10"/>
<path d="M35.0513 76.0332V81.5776V86.2997V88.6567L32.1843 86.8852V82.3449L30.457 83.3495L27.7832 82.3449L30.457 76.0332H35.0513Z" fill="white" stroke="black" stroke-miterlimit="10"/>
<path d="M37.7287 69.975L31.8759 71.0616L30.0781 67.0307V64.5586H33.9034L37.7287 67.8103V69.975Z" fill="white" stroke="black" stroke-miterlimit="10"/>
<path d="M17.3053 71.0618L13.7741 70.1784L12.4814 67.8256V61.605L14.8934 59.5859H19.0405H23.1615L25.1049 61.605V65.3193L22.8404 67.8256H19.0405L18.7888 70.1784L17.3053 71.0618Z" fill="white" stroke="black" stroke-miterlimit="10"/>
<path d="M17.4546 75.6301L16.1701 77.6681L12.3079 82.0587L8.48023 83.686H5.87666L1.00586 82.0587L3.30761 75.6301V72.5608L9.23036 71.0625L12.3079 73.7613L17.4546 75.6301Z" fill="white" stroke="black" stroke-miterlimit="10"/>
<path d="M56.8547 64.4888L53.0506 61.8809L51.8818 65.4867V67.9199L53.0506 71.0616L56.8547 67.9199V64.4888Z" fill="white" stroke="black" stroke-miterlimit="10"/>
</svg>
