<svg width="74" height="132" viewBox="0 0 74 132" fill="none" xmlns="http://www.w3.org/2000/svg">
<path d="M11.2289 61.4518L16.5359 59.7458H24.0695L25.593 61.4518L27.6689 69.2058L29.929 70.8352L33.9218 69.2058L34.9514 70.8352C35.8524 72.6776 36.9773 74.3972 38.2996 75.9534C39.5283 77.2793 40.6482 78.7058 41.6479 80.2185L39.1367 83.6306L37.4626 87.8958C37.4626 87.8958 36.6255 90.4549 35.7884 91.3079C34.9514 92.1609 33.2772 91.3079 31.6031 90.4549C30.8326 89.9974 29.9777 89.707 29.0919 89.6018L28.2548 91.3079L25.7436 95.573L21.5583 97.1683L16.5359 98.1321L15.6989 101.544C15.6989 101.544 13.1877 103.25 13.1877 104.103C13.1877 104.956 10.6765 104.956 10.6765 104.956L9.8394 107.515L9.47114 108.198C9.09447 108.88 9.8394 110.757 9.8394 110.757C9.8394 110.757 9.00234 113.495 9.8394 114.357C10.6765 115.218 9.8394 117.769 9.8394 117.769L12.3506 119.475C12.3506 119.475 14.0247 123.74 14.0247 124.593C14.0247 125.446 14.8618 128.858 14.8618 129.711C14.8618 130.564 16.4272 130.564 16.4272 130.564H19.8842C19.8842 130.564 21.5583 128.005 21.5583 127.314C21.5583 126.623 24.0695 123.74 24.0695 123.74L22.6801 121.795V112.676L24.0695 106.705L24.9066 105.852L28.2548 104.999L29.0919 102.44H34.1143L35.7884 103.293L38.2996 107.558L39.9738 108.411L41.6479 109.264L44.1591 110.97L45.8332 112.676L47.5074 110.117V102.44L45.8332 96.571V94.72L49.1815 93.014L50.0185 92.1609L50.8556 90.4549L52.5297 87.8958L55.0409 87.0427L56.7151 84.1167V80.2185L59.2263 77.6594L61.3943 69.2058L63.4116 66.2972V58.8928L65.9228 57.3916L67.5969 52.9215L65.9228 48.793V38.42C65.9228 37.567 67.5969 36.714 67.5969 36.714L70.9452 34.1549V30.7428L72.6193 28.6956V27.3306L71.7822 25.6246C71.3727 24.8218 71.0902 23.9581 70.9452 23.0655C70.9452 22.8393 70.8569 22.6224 70.6999 22.4624C70.543 22.3024 70.3301 22.2125 70.1081 22.2125L69.2711 20.5064V18.8003L70.1081 16.2413L68.0238 12.8291C67.765 12.2263 67.744 11.5451 67.9652 10.9269C68.3419 9.87767 66.7599 9.41702 66.7599 9.41702V7.71096L67.5969 6.95165C68.434 6.18392 67.5969 5.15187 67.5969 5.15187H66.7599L65.0857 3.44581L64.2487 0.886719H63.4116L60.0633 1.54357V3.44581L59.2263 3.92356V2.59278L57.5521 1.73975L55.878 2.59278L55.0409 3.60783V5.15187L54.2039 6.0049L52.5297 6.85793H50.0185L49.1815 5.15187H47.5074L46.6703 6.0049L45.8332 6.78962V12.8291H45.1635C44.4855 12.8291 44.1591 11.9761 44.1591 11.9761C44.1591 11.9761 43.322 11.9761 42.485 10.27C41.6479 8.56399 41.6479 10.27 41.6479 10.27H40.8108C40.5888 10.27 40.376 10.1801 40.219 10.0201C40.062 9.86016 39.9738 9.64326 39.9738 9.41702L39.1367 8.56399C38.827 8.23984 38.7517 8.04364 38.7684 7.92422L37.4626 8.5894L36.6255 9.51948V11.1231L35.169 12.8291H34.1143V11.1231C33.3265 10.7057 32.479 10.4178 31.6031 10.27L30.766 11.9761L27.9869 12.8291L26.5807 11.1231L24.0695 12.1977V13.6822L21.5583 17.0943L21.0476 18.1352C21.3322 19.7047 21.5583 21.0523 21.5583 21.3594C21.5583 22.2125 19.8842 27.8169 19.8842 28.8576C19.8842 29.8983 18.2101 37.567 18.2101 37.567L16.5359 46.0973L14.8618 50.3625L12.3506 54.6276L9.8394 56.3337H6.65014L3.97995 53.7746L1.46875 56.3337L2.30582 58.0397L2.72435 58.8928H6.49114L11.2289 61.4518Z" fill="white" stroke="black" stroke-miterlimit="10"/>
</svg>
