<svg width="84" height="82" viewBox="0 0 84 82" fill="none" xmlns="http://www.w3.org/2000/svg">
<path d="M22.7832 76.6979C32.2999 69.1193 32.2318 86.0333 39.7925 79.244C44.6741 79.3543 46.9108 77.4957 47.5911 72.6498C54.0207 76.7658 63.1632 70.1802 70.4092 70.7573C71.1235 65.8435 83.3362 69.9086 83.1661 66.5139C80.6147 61.8886 70.8939 55.4812 73.811 49.5405C69.3376 50.8814 68.4616 42.8869 67.0073 40.2051C67.6111 38.7539 65.0767 39.5601 64.4559 39.3565C61.3942 35.2744 53.8336 28.5868 55.9513 23.2317C50.2872 20.6857 42.9477 8.8892 42.3438 2.86364C42.4884 0.31763 41.2553 1.59919 39.7925 2.2951H34.6897C35.353 7.3362 25.8704 5.4436 23.2765 9.653C15.6904 8.43092 9.22678 16.2472 2.37204 18.1397C-0.885241 21.6532 0.841201 26.567 3.2225 30.0211C7.40678 33.3733 15.2225 29.1724 18.5309 33.4158C21.618 38.4569 22.0178 46.2986 18.5309 51.2378C18.2587 54.3015 17.9524 57.4501 13.9638 56.3299C11.3018 61.2691 14.3805 68.1177 15.6647 73.1164C17.3571 73.5747 21.8817 75.077 22.7832 76.6979Z" fill="white" stroke="black" stroke-miterlimit="10"/>
</svg>
