<svg width="67" height="89" viewBox="0 0 67 89" fill="none" xmlns="http://www.w3.org/2000/svg">
<path d="M20.5321 83.0216C18.9535 75.3789 24.8774 79.7437 29.0191 79.6248C29.0954 80.9835 28.9596 85.6285 29.0191 86.9702C35.0618 77.9264 41.3506 86.6306 43.4469 77.9265C42.4709 69.1969 46.4175 79.7947 51.8067 80.3297C54.4546 75.4639 56.6102 68.8997 51.0852 65.1888C50.7882 63.1338 49.4557 59.4144 52.1291 58.3953C51.6337 55.6755 50.9992 52.9829 50.228 50.3281C49.9734 42.227 56.432 34.5589 54.6582 26.1435C62.9754 24.0036 66.8795 16.0044 65.5131 7.77585C66.2175 4.37913 64.2994 3.58078 62.1183 1.50029C59.3855 1.11816 56.8818 2.00131 54.48 2.34947C52.6468 2.34947 51.4417 4.58282 50.2365 5.74619C48.4627 7.00298 48.3439 6.9861 48.5391 9.45721C50.0668 15.5543 33.0164 7.34265 31.5652 15.0872C28.4759 15.4438 26.1759 13.3888 24.7756 10.8413C21.1771 8.11541 15.8558 5.44898 11.1964 5.74619C7.36028 5.1178 6.60494 11.8858 2.70942 11.6905C0.833796 12.7265 2.05592 20.3776 1.01202 22.7298C-1.48315 31.0433 6.02783 34.8051 5.25551 44.8085C3.2441 50.6508 7.52164 56.8498 8.3279 62.6412C10.3817 64.3396 13.0126 68.3392 12.8938 71.133C11.103 78.5719 11.6971 83.3103 20.5321 83.0216Z" fill="white" stroke="black" stroke-miterlimit="10"/>
</svg>
