<svg width="77" height="70" viewBox="0 0 77 70" fill="none" xmlns="http://www.w3.org/2000/svg">
<path d="M76.2161 35.4494L70.3965 29.4212H63.9751L55.5853 25.2033L52.1468 16.6649L49.8689 11.3113H41.3155V4.71119H31.516L28.6275 1.42383L25.1032 8.12655H21.2005L22.9198 15.1365V19.2265C22.9198 19.2265 19.4813 23.4956 18.6217 22.6418C17.7621 21.788 14.3236 23.4956 12.6044 22.6418C10.8851 21.788 9.95667 27.7648 9.95667 27.7648L12.6044 30.1725L10.8851 33.7417L7.11149 37.1571L1.42933 38.8647L1.24023 39.0015L4.8678 45.6955L12.6044 46.5493L16.9025 53.38L25.0688 54.524L25.4986 62.7722C26.0909 63.8557 26.9867 64.7454 28.0775 65.3337C29.5791 66.3373 30.9811 67.481 32.2639 68.7491C32.3239 68.7428 32.3844 68.7428 32.4444 68.7491H38.3929C39.0447 68.6595 39.6488 68.3595 40.1121 67.8953L40.9718 65.3337L42.4933 64.4799H46.1295L46.9891 63.6261L47.8487 62.7722C48.312 62.308 48.9161 62.008 49.5679 61.9184C50.4675 61.7705 51.3378 61.4823 52.1468 61.0646C52.5844 60.6478 52.8841 60.1088 53.0064 59.5191V57.6492L53.866 56.3259V55.0877C54.374 54.5593 54.6784 53.8702 54.7256 53.1411C54.7163 52.841 54.792 52.544 54.9439 52.2844C55.0959 52.0247 55.318 51.8127 55.5853 51.6723L56.5996 49.1108L55.5853 48.257L54.7256 46.5493H59.0237L61.6026 47.4031L64.1814 48.257L65.9007 49.1108L69.3392 48.257L71.0584 46.5493C70.6378 45.7457 70.3477 44.8813 70.1988 43.9878C70.1988 43.7487 70.5857 43.4499 71.1272 43.1339H69.5368L71.918 41.4263L76.2161 35.4494Z" fill="white" stroke="black" stroke-miterlimit="10"/>
</svg>
