<svg width="112" height="78" viewBox="0 0 112 78" fill="none" xmlns="http://www.w3.org/2000/svg">
<path d="M106.552 26.4389C102.747 26.6089 101.881 17.4627 98.9086 23.8888C88.0045 19.2732 93.0065 20.7608 81.0748 21.3388C79.198 13.2636 68.4467 8.53754 61.5425 5.18848C58.2305 4.74647 57.1689 11.1386 53.0502 9.43856C51.3517 9.16655 53.8569 13.5101 53.8994 14.5387C52.1415 15.3887 53.1096 20.4463 51.3517 21.3388C44.6937 20.8798 40.3117 28.7338 34.3671 22.8687C35.5305 7.46636 26.9447 10.5604 27.9129 1.61824C24.414 -0.455795 21.9683 5.73246 19.0809 1.54188C10.5886 6.82048 6.40193 10.7646 7.19172 21.9423C5.38285 24.0588 1.7991 28.4957 2.09633 31.5643C-1.16471 36.6644 1.77362 38.5344 4.64402 42.6145C8.21929 35.5509 2.25765 33.5108 9.06848 34.1143C13.3146 36.0779 13.2552 41.2375 14.8348 45.1646C15.6161 50.5367 17.5608 52.5087 12.2871 55.3648C22.6902 68.3105 14.2998 65.1824 25.8748 60.4649C39.3776 63.2529 29.0849 66.1345 43.7086 59.6148C45.4071 60.9239 46.647 65.3524 46.4516 67.265C48.0057 66.687 53.3304 68.7273 51.9886 65.1997C56.5575 69.1183 58.2984 63.2786 62.3917 63.8396C64.6761 68.5657 73.2873 65.1911 77.6779 67.2397C76.2087 73.6403 81.3975 67.4862 83.6225 67.2397C84.2339 71.6002 77.9241 79.5989 87.0194 76.5898C88.3527 75.6633 89.0151 75.5698 88.7179 77.4399H93.8133C96.4374 76.3603 98.9086 74.7284 98.0594 71.5408C98.9766 69.4328 101.363 65.0381 102.306 62.9896C101.635 60.091 101.346 54.2769 102.306 51.4633C99.1974 50.2138 98.1613 45.1732 94.6625 45.9893C90.1446 41.2292 102.909 41.9942 102.306 34.2845C108.564 35.3725 114.9 29.6774 106.552 26.4389Z" fill="white" stroke="black" stroke-miterlimit="10"/>
</svg>
