<svg width="47" height="74" viewBox="0 0 47 74" fill="none" xmlns="http://www.w3.org/2000/svg">
<path d="M21.451 47.4095C26.1757 42.7009 28.8792 48.4615 34.2434 47.4095C37.7145 44.3552 44.5626 43.1675 45.3302 38.0771C44.6223 33.2242 47.1211 25.8007 43.6245 21.9574C39.7698 16.0186 30.7554 23.5948 29.9793 14.3218C28.4357 10.3343 21.6813 15.4077 22.3039 7.23754C24.1716 1.78231 17.3745 -0.32165 13.9888 3.29255C8.72687 10.3682 9.25562 9.38408 9.51147 18.5638C8.04461 21.0072 7.23446 25.9534 7.62676 28.7446C4.21545 28.1677 -0.713921 29.4573 1.83603 33.835C-0.22781 39.1206 1.69105 38.7135 6.10016 40.1558C5.91254 43.2355 6.49247 48.3682 5.68229 51.2443C7.64379 52.2878 6.37307 56.0123 6.10016 57.5903C6.36454 61.9851 1.72516 68.0511 3.54168 72.0132C10.0061 74.8299 7.43912 69.3916 10.8078 66.4986C14.7564 65.6502 17.5622 69.3746 21.451 68.6196C21.7325 67.1349 22.1759 64.6236 24.0095 64.3775C24.0863 60.9839 21.741 50.9897 21.451 47.4095Z" fill="white" stroke="black" stroke-miterlimit="10"/>
</svg>
