<svg width="74" height="101" viewBox="0 0 74 101" fill="none" xmlns="http://www.w3.org/2000/svg">
<path d="M18.4163 91.919V86.4961L20.5715 83.0746L23.0845 84.503L26.5345 89.0622L31.1345 86.4961L33.5708 84.9307L38.0857 83.2199L41.2972 78.0877L45.2753 75.3763L50.625 73.623L48.5039 65.3942L50.625 61.6904L54.8843 65.3942L57.8487 61.6904L57.4313 59.1243L54.8757 55.9936H63.7776V52.3841L70.1153 52.23L72.6709 49.7153V45.4385L69.9194 38.8607L69.1272 40.3063L67.5683 36.0808C67.5683 36.0808 64.0162 26.6204 63.4369 25.765C62.6718 24.0975 62.0117 22.3834 61.4605 20.6328L56.1279 19.0674L50.412 23.105L45.0112 18.1778V12.0792L47.8309 6.09159L46.2804 2.67013L39.9768 0.753906L38.6564 2.67013L36.7568 5.23623L34.8401 8.6577H28.1615L24.8308 10.3684L23.0845 11.8056V23.105L21.4234 28.3311L18.8678 30.0419L15.4604 30.8287L17.1641 36.0808L15.4604 41.88L13.7567 45.4385L15.4604 47.4829L18.8678 49.7153V52.3841C18.8678 52.3841 16.3123 52.2813 15.4604 52.23C14.6086 52.1787 12.053 49.7153 12.053 49.7153L8.64558 52.3841V56.4212L5.68115 59.1243L1.42188 61.6904V65.3942L8.62 68.7643V73.6656L6.06444 76.2743L2.71671 75.1879V78.1734L1.4304 80.1836L2.71671 81.4065L2.65702 88.2494L2.29078 92.5262L4.36073 97.6584L6.06444 99.3692L7.40191 99.9936L15.4348 94.759L18.4163 91.919Z" fill="white" stroke="black" stroke-miterlimit="10"/>
</svg>
