<svg width="107" height="67" viewBox="0 0 107 67" fill="none" xmlns="http://www.w3.org/2000/svg">
<path d="M105.289 14.8297L101.768 14.4426H100.918L96.6657 16.9674L91.563 17.809L89.8621 16.1258L88.1612 14.4426L87.3107 12.7594L81.3575 11.5307L80.5071 11.0763L77.9557 12.7594H74.5539L72.3172 11.4634V9.35939L71.1521 4.30984L69.4512 1.78506L67.24 0.615234H65.1989L62.7496 2.29842L64.0678 5.62272L65.1989 9.36782L63.498 14.4174L62.7496 12.5406H56.0395C55.941 11.4853 55.941 10.4232 56.0395 9.36782C56.2181 8.52623 53.7093 5.62272 53.7093 5.62272H50.3075L46.4804 6.42224L44.3628 9.35939L43.0531 13.5674L42.2026 18.6169L38.8008 19.1808V23.9442L37.168 31.2408L35.6882 33.4205L31.3083 35.1458L32.8476 37.9735L31.3083 42.0553L30.3643 42.3162L27.7449 43.0231L24.3431 41.3399L24.2496 41.1548L14.9881 40.6414H8.18449L4.09381 42.1563L4.78267 43.8394V45.5226L3.93222 47.2058L1.38086 49.7306L2.23131 50.5722L3.93222 51.4138H6.48358L7.33404 48.889C8.2547 48.8927 9.1511 48.597 9.8854 48.0474C10.7358 47.2058 10.7358 48.889 10.7358 48.889L12.4368 49.7306H17.5395V51.4138L19.2404 53.097L20.0908 52.2554H20.9413L23.4927 50.5722L23.263 51.2623L22.6422 53.097V54.7802L23.4927 56.4633L26.044 57.3049L27.7449 58.9881L30.2963 59.8297L31.9972 62.3545L33.6981 63.1961L38.8008 64.8793L41.3522 65.7209L41.029 66.1248L43.0531 65.7209H54.9594L57.5108 64.8793L58.3613 63.1961L59.9601 62.9857C59.9601 62.9857 62.6135 63.1961 62.6135 62.3545C62.6135 61.5129 63.464 62.3545 63.464 62.3545V60.6713L65.1649 58.1465C65.1649 58.1465 66.0153 55.6217 65.1649 55.6217C64.9393 55.6217 64.723 55.5331 64.5635 55.3752C64.404 55.2174 64.3144 55.0034 64.3144 54.7802L61.7631 53.097V51.4138L64.3144 48.889L66.8658 47.2058L70.4037 44.5464L71.1181 45.5226H75.3703L78.7721 46.3642L79.6226 45.5226L82.174 43.8394C82.5638 42.7515 82.8208 41.6214 82.9394 40.4731C82.8458 39.6315 84.7253 39.6315 84.7253 39.6315L87.2767 40.4731L88.1271 39.6315L89.828 36.5344V34.6072C90.2142 33.5129 90.4988 32.3861 90.6785 31.2408C90.6785 30.3992 93.2299 27.8744 93.2299 27.8744L95.39 26.1912H100.033L101.734 23.3719V21.9833L102.585 18.6169L104.286 16.9337H105.893L105.289 14.8297Z" fill="white" stroke="black" stroke-miterlimit="10"/>
</svg>
