<svg width="95" height="90" viewBox="0 0 95 90" fill="none" xmlns="http://www.w3.org/2000/svg">
<path d="M93.1854 30.1795L87.0912 26.8884L83.3585 24.4266L83.0876 20.9218C83.0876 20.9218 83.7055 17.5026 83.0876 16.2033C82.4697 14.904 77.7805 18.3403 77.7805 18.3403L73.4806 16.2033L76.0876 9.79222L66.2099 7.84344L60.9537 3.8599L59.7177 5.18469H53.4034L49.8485 3.80856L48.1556 2.09895L43.9235 1.24414H41.3842L40.961 1.38939L39.6914 5.94558V10.7155L34.4605 12.3566H32.0736L30.2454 16.2033L27.8245 21.5542L22.4581 25.1788H17.6843L15.7968 21.5542H10.0665L9.2201 22.8623L7.65414 25.1788L3.22735 27.9314L0.755859 33.7268L0.984411 37.8214V43.9845L2.88039 47.0703H5.57197V51.6778H21.1969L24.3541 55.6785H30.279L32.92 61.0807L32.0736 67.9192L30.2454 72.578L37.1521 76.4672L33.7664 80.7413L37.2959 86.212L39.6914 89.0331H58.1435L63.3913 85.8701L66.269 84.9469L67.6234 83.3057L69.3162 79.0317L66.2099 73.8515L68.4698 71.3384L75.2412 67.4746V62.7903L82.859 64.4999L86.2447 67.4746L91.3233 64.9102L87.0912 59.354C87.0912 59.354 86.2447 53.3703 86.2447 51.6607C86.2447 49.9511 86.2447 46.0961 86.2447 46.0961H91.3233V33.7268L93.634 31.0084L93.1854 30.1795Z" fill="white" stroke="black" stroke-miterlimit="10"/>
</svg>
