<svg width="165" height="99" viewBox="0 0 165 99" fill="none" xmlns="http://www.w3.org/2000/svg">
<path d="M158.753 86.8943C166.031 79.9939 155.352 81.4726 157.903 77.5465C164.092 75.0566 162.86 69.3204 162.29 63.9497C158.996 64.0209 155.703 63.756 152.462 63.1592C150.022 63.4142 148.211 63.2358 147.701 60.5505C145.839 58.5959 142.132 55.1202 139.199 55.4517C137.531 55.1153 136.03 54.215 134.948 52.9023C133.248 53.9305 128.623 55.6131 127.296 57.1513C122.586 59.6497 116.244 58.7149 111.143 58.8509C109.697 56.1995 106.722 54.6019 105.523 51.4321C103.687 51.1262 94.8786 51.9079 98.5429 48.5852C98.1518 43.1975 94.0285 43.8009 94.9892 38.4386C103.27 36.1527 78.7847 29.9406 76.7102 28.6829C53.8657 -3.33759 71.6091 53.9475 45.2533 21.8845C46.8516 13.9644 37.3295 -4.38285 31.9903 3.18888C27.7394 7.66733 21.2015 4.28508 15.9218 5.68725C12.9292 9.42637 16.772 13.8197 15.9218 18.0687C13.5753 22.2072 11.5264 26.7792 6.56979 22.3177C-0.673798 23.5839 1.51118 30.6119 1.46867 36.0676C6.80785 38.1157 17.7923 38.4044 14.6551 29.9659C17.9028 25.8189 20.1048 32.7448 23.5735 33.3651C24.5597 39.5432 18.4724 42.5515 25.2739 46.9619C29.4483 46.894 32.4155 51.211 36.3263 52.0608C39.438 52.2817 43.876 48.5256 46.5286 50.3612C47.5573 53.6754 47.6848 57.0576 43.1278 56.3098C43.0853 58.9187 40.9513 59.1056 38.8769 58.8592C39.4805 61.825 37.9332 65.2072 34.626 63.1082C34.2 63.8114 33.9503 64.6073 33.8984 65.4277C33.8466 66.2481 33.9939 67.069 34.3279 67.8203C34.6619 68.5715 35.1727 69.231 35.8168 69.7423C36.4608 70.2536 37.219 70.6012 38.0267 70.7564C45.2278 73.8837 44.4201 60.0574 61.8319 69.0568C60.4461 74.1556 59.2814 74.436 65.2327 75.0054C65.1085 75.9286 65.1972 76.8682 65.4919 77.7519C65.7866 78.6356 66.2795 79.4401 66.9331 80.1042C71.2945 78.736 77.6454 79.2544 80.536 75.0054C82.0834 76.705 83.0865 80.954 86.0112 80.1042C87.8988 81.8724 90.072 83.309 92.4387 84.3532C94.0625 84.1323 96.7746 84.2597 97.5398 86.0528C100.269 86.0103 104.724 86.0528 107.427 86.0528C108.235 90.2338 114.646 90.8712 117.944 92.0014C125.324 95.7321 120.614 97.4402 129.847 96.2504C132.202 98.8933 135.705 99.2247 134.948 94.5508C134.174 92.9022 132.61 91.1006 134.098 89.452C139.131 88.7127 136.733 81.7188 140.899 84.3532C143.577 84.5912 146 87.1406 149.401 86.9026C149.724 89.8429 154.298 91.3216 154.502 94.5508C155.574 94.5508 158.753 94.7208 159.603 93.701C162.945 95.2987 163.582 93.4546 163.854 90.3018C162.773 90.2569 161.725 89.9154 160.825 89.3143C159.925 88.7131 159.208 87.8759 158.753 86.8943Z" fill="white" stroke="black" stroke-miterlimit="10"/>
</svg>
