<svg width="68" height="101" viewBox="0 0 68 101" fill="none" xmlns="http://www.w3.org/2000/svg">
<path d="M0.554688 55.2671V70.1232L11.1618 78.5394L16.1558 86.43L28.0174 89.6369V100.089L38.0053 95.1516L44.8731 100.089L47.366 95.1516H52.36V81.9588L47.9851 73.7969L52.36 67.5779V60.8924L48.6124 55.2671L58.408 51.8311L57.722 50.6095L61.7205 44.7298L59.2277 41.8792L59.395 36.1863L62.9669 31.851L62.557 27.8462L66.7145 30.2473V26.9638L62.9669 24.0201V17.521L59.395 14.1273L59.6376 4.30254H52.979V8.18837L49.6581 5.92315L44.3378 8.18837L41.477 1.09568L37.286 0.849609L37.5871 1.09568H31.5391V9.18966L24.6881 11.5821L20.9155 14.9757L14.282 17.521L11.7892 22.6965L4.7205 26.9638L0.554688 27.456V41.8792V55.2671Z" fill="white" stroke="black" stroke-miterlimit="10"/>
</svg>
