<svg width="63" height="109" viewBox="0 0 63 109" fill="none" xmlns="http://www.w3.org/2000/svg">
<path d="M11.6325 66.6222V76.3937H17.9329L14.7871 86.2333L21.2221 88.3101L22.0655 91.7148H29.4621L30.4995 93.4172C30.4995 93.4172 31.3429 96.107 30.4995 97.3156C29.6561 98.5243 28.8127 100.227 28.8127 101.078V106.185L30.8706 107.479L35.5599 107.887L46.212 106.696L46.5241 104.482V98.5242L47.3675 89.1613L49.8977 83.2031L51.5845 79.7984L53.2713 75.5425L56.6449 72.1378C57.4883 71.2867 58.3317 68.7331 58.3317 68.7331V56.8167L57.4883 52.5608L60.8619 50.8585L61.7053 48.305L60.8619 44.9003L59.1751 39.7932L58.3317 33.835L55.8015 31.2815L53.2713 24.4721V21.9186C53.2713 21.9186 54.1147 17.6627 54.1147 16.8115V12.5556L56.5436 10.1044L48.7675 6.59742H38.9335L36.4033 4.89508L31.1405 3.19273H26.5271L25.2873 1.01367L15.4112 4.46118L19.1896 10.1044V16.8115L14.7871 23.0507L19.1896 31.2391V44.4747H14.1292L11.599 49.4284L4.68292 44.4747L0.634766 46.4663L3.42627 62.1365L11.6325 66.6222Z" fill="white" stroke="black" stroke-miterlimit="10"/>
</svg>
