<svg width="95" height="77" viewBox="0 0 95 77" fill="none" xmlns="http://www.w3.org/2000/svg">
<path d="M91.1403 19.1205L93.986 14.0682H91.1403L86.0436 11.5421L80.998 14.0682V17.4364H78.3986L73.302 15.6511C73.302 15.6511 74.1514 12.3841 73.302 11.5421C72.4525 10.7 67.3559 9.99282 67.3559 9.99282L65.2578 8.42632L63.1087 4.80569L59.7619 9.99282H52.5246V2.14469L52.754 1.4375H44.5482L42.3823 4.96563V9.04963L39.1629 14.1019H34.7288L28.2815 10.7337L25.7331 12.4178L21.9446 14.1019V22.2107L18.5469 23.3644H12.9915V36.9383H9.59371L1.03125 34.5384V36.9383L1.09927 44.4156V50.756L5.34649 57.8883L8.04766 63.7827H11.2926L12.142 65.4668L12.9915 67.9929L14.6904 69.677C15.1482 69.2192 15.7451 68.9233 16.3893 68.8349C17.2387 68.8349 17.2387 67.1507 16.814 67.437C16.3893 67.7233 16.814 66.3931 16.814 66.3931C16.9271 66.1424 17.1041 65.9252 17.3275 65.7628C17.5509 65.6004 17.813 65.4983 18.0881 65.4668C18.7323 65.3784 19.3292 65.0825 19.787 64.6247L21.4859 65.4668L20.6365 67.1508C21.0521 67.9433 21.3387 68.7958 21.4859 69.677V71.3611L26.5826 72.2031H29.1309L32.5287 73.0452L33.3781 73.8872L34.2276 76.4134H37.6253C38.7814 76.2355 39.9187 75.9536 41.0231 75.5713H41.8726L42.722 73.8872C43.3743 73.8258 43.98 73.5256 44.4209 73.0452H47.8187L48.6681 72.2031V71.3611L49.5176 70.519H53.7648L55.4637 71.3611L56.3131 73.8872H58.012V74.3839L61.3077 71.5967L65.2578 67.1508H71.6031L75.0009 64.6247L75.8503 61.2565C76.2166 59.8709 76.5003 58.465 76.6997 57.0463C76.6997 56.2042 77.5492 51.152 77.5492 51.152L79.4094 49.0468L82.6459 46.0997L80.0975 35.1531L78.4582 31.7849L79.0952 29.1157H89.229L93.986 31.7849V25.1073L90.5032 20.8383L91.1403 19.1205Z" fill="white" stroke="black" stroke-miterlimit="10"/>
</svg>
