<svg width="85" height="97" viewBox="0 0 85 97" fill="none" xmlns="http://www.w3.org/2000/svg">
<path d="M4.71816 83.4822C5.70338 86.4832 9.313 90.938 11.5127 86.4577C11.6656 85.429 11.1136 83.1506 12.3621 82.632C16.3369 83.2696 18.3838 87.5374 22.639 86.4577C24.8387 85.1145 21.5008 77.344 25.1019 81.7818C27.6499 84.6809 32.1598 82.3685 35.2938 81.7818C37.0519 76.6809 44.441 73.9689 45.4856 80.9317C48.9679 86.8233 36.9075 88.6511 40.3897 94.5342C46.2585 94.0241 47.5749 99.4228 51.5752 91.9414C50.7259 88.1072 55.4481 90.1984 54.5308 85.412C58.1999 81.2038 59.7628 89.6628 64.0179 81.3227C66.7527 78.5257 68.7146 83.091 71.976 81.9093C78.1081 78.3131 75.5602 67.9072 69.1309 66.6065C68.2136 56.6597 87.3402 67.8054 83.0087 54.9085C79.7133 46.2624 78.847 37.5482 82.4312 28.8086C77.2843 27.5503 81.9556 24.3793 78.6092 21.4037C78.6942 16.3028 79.5435 14.73 73.5133 15.4527C71.6193 17.221 65.5042 18.9383 66.7187 14.6025C67.4406 11.7375 70.0735 7.27415 66.7187 5.25078C69.2667 5.25078 69.5639 3.06588 69.2667 1C61.5039 2.99787 56.0087 10.1222 48.8829 12.9022C46.4454 15.0021 47.0654 18.7852 43.5492 17.918C37.4425 13.0636 40.7464 20.7151 40.3897 23.9542C33.7735 24.5408 40.084 33.595 32.7458 35.8564C41.4089 44.9701 32.7033 40.8043 30.1978 44.358C28.151 44.9701 27.1658 43.0487 25.9512 41.8075C22.2312 44.307 20.8978 48.8808 15.7594 49.4589C13.8739 58.5726 13.8314 51.1592 16.6087 60.5109C13.3558 60.7065 14.0607 64.7616 14.0607 66.9805C14.4514 73.8583 12.1667 65.2803 4.71816 77.514C-2.37368 76.6809 3.5376 80.3706 4.71816 83.4822Z" fill="white" stroke="black" stroke-miterlimit="10"/>
</svg>
