<svg width="59" height="109" viewBox="0 0 59 109" fill="none" xmlns="http://www.w3.org/2000/svg">
<path d="M53.041 20.8466L54.3338 18.2967L53.8915 14.0469L51.3401 13.1969L49.6391 14.8968L45.3868 15.7468L43.6858 14.8968H36.882L35.1811 14.0469L31.4899 18.2967H28.3773L25.8259 15.7468L24.9754 11.497L25.8259 8.94708H23.2744L19.8725 8.09712L18.1716 4.69726V3.84729C18.1716 2.99732 19.0221 1.29739 17.3211 1.29739C16.49 1.25301 15.6688 1.09591 14.8802 0.830078L13.0687 2.14736L11.1977 2.99732V5.79374L11.8101 9.06619H6.6306L3.61989 10.6553L6.6306 13.2052L4.56401 18.305L5.41448 19.155L4.56401 21.7049L1.16211 25.1047L2.43782 27.7824L6.26495 26.8047L8.81638 27.6546L10.5173 32.7544V37.0042H13.9192C14.7697 37.0042 15.6202 39.5541 15.6202 40.4041V43.804C15.6202 43.804 13.0687 47.2038 12.2183 48.0538C11.3678 48.9038 8.81638 48.9038 8.81638 48.9038V51.4537L12.2183 53.1536L13.0687 55.7035H7.9659C7.70184 55.9014 7.4875 56.1584 7.33988 56.4534C7.19227 56.7485 7.11543 57.0735 7.11543 57.4034C7.11543 57.7333 7.19227 58.0588 7.33988 58.3538C7.4875 58.6489 7.70184 58.9054 7.9659 59.1033L8.81638 60.8033L7.11543 61.6532V63.3532C7.5732 64.271 8.14467 65.1277 8.81638 65.9031L10.5173 67.603L13.0687 66.753L14.7697 65.9031L18.1716 67.603L21.5735 69.3029H23.2744L24.1249 67.603V64.2031L22.424 62.5032L21.5735 58.2534L23.2744 57.4034C23.2744 57.4034 21.5735 55.7035 20.723 55.7035C19.8725 55.7035 19.8725 53.1536 19.8725 53.1536L21.3353 50.6037H24.1249C24.1437 50.018 24.2736 49.4411 24.5076 48.9038C24.8903 48.0538 25.8259 48.0538 25.8259 47.2038C25.8259 46.3539 27.5268 46.3539 27.5268 44.6539C27.5268 42.954 28.3773 43.804 27.5268 42.954C26.6763 42.104 27.5268 40.4041 27.5268 40.4041H30.0782L30.9287 42.104L32.6297 44.6539C32.6297 44.6539 36.0315 46.3539 36.0315 47.2038C36.0315 48.0538 37.8347 48.9038 37.8347 48.9038H41.1344L42.8353 46.3539L45.4464 44.6539H49.6391L51.3401 43.804L51.5782 41.2541H49.6391L48.7887 39.5541L47.9382 36.1543L48.7887 34.4543L49.6391 32.7544L48.7887 30.2045L51.3401 28.5046L52.1906 26.8047L51.3401 25.1047V22.5548L53.041 20.8466Z" fill="white" stroke="black" stroke-miterlimit="10"/>
<path d="M51.2877 47.8828L53.7859 49.0502L55.539 50.6097L53.7859 52.6777L52.6025 55.3879L52.9094 57.0557L55.539 60.7916L58.1598 65.9534V69.2475L56.4155 74.5677V77.0694L58.1598 78.6036V80.7804H53.9086H51.2877L49.6575 79.229L45.0206 78.7372L43.2676 75.4016H40.638L39.516 69.5643L42.7854 69.2475L42.391 67.0625L37.8857 65.9534L39.516 64.3357L47.5625 60.7916V58.3815V55.3879L48.0183 53.5617L47.6502 52.0523V51.2184L46.7737 50.3845V49.5506V48.7167L49.9817 47.8828H51.2877Z" fill="white" stroke="black" stroke-miterlimit="10"/>
<path d="M36.7373 95.1667L41.1931 96.8001V98.0088H44.5975V101.7L46.5402 102.517L52.7783 103.334L51.8872 105.784L54.5607 107.556H57.0114V105.784L56.343 102.517L54.5607 101.365V99.2503L54.1329 97.4206L50.8089 95.191C50.8089 95.191 51.8872 94.3743 50.996 93.5576C50.1048 92.7409 45.649 91.1074 45.649 91.1074H41.2734L41.1931 92.7409L40.302 93.5576L36.7373 95.1667Z" fill="white" stroke="black" stroke-miterlimit="10"/>
<path d="M27.6113 91.1076H32.1019L34.0599 89.195V85.8955L30.8355 83.457H28.9942H25.2617V85.8955L26.5615 88.2387L27.6113 91.1076Z" fill="white" stroke="black" stroke-miterlimit="10"/>
</svg>
