<svg width="81" height="71" viewBox="0 0 81 71" fill="none" xmlns="http://www.w3.org/2000/svg">
<path d="M49.8827 70.328H51.7401V68.6279C51.7401 68.6279 53.4363 66.0777 53.1225 65.2276C52.8086 64.3776 53.9706 61.4023 53.9706 61.4023H61.7737L64.4623 63.5275L66.1586 65.2276L67.0067 63.5275L68.703 60.1272L70.3993 56.727L72.3161 53.3267L73.7919 47.3762C73.7919 47.3762 77.1845 38.8757 78.0326 37.9321C78.8808 36.9886 78.0326 34.6253 78.0326 34.6253H79.7289V29.5249L78.6432 26.9747H67.0067V26.1246C67.0067 25.2745 66.1586 21.8743 66.1586 21.0242C66.1586 20.1741 61.7737 19.3241 61.7737 19.3241H58.5252L57.974 16.1533L55.9808 15.0737L52.5882 12.5235L51.7401 8.27319L49.8827 6.65814L46.6512 8.27319L43.2586 11.6735L39.0179 15.0737L34.7772 11.6735C34.7772 11.6735 36.4735 9.02991 34.7772 7.80582C33.0809 6.58172 29.5017 3.78502 29.5017 3.78502V1.47266L24.5994 2.32272L23.7513 4.87292L22.055 6.57306H19.5105L18.6624 7.42312V9.38683L15.5752 9.74379L16.118 11.6735L14.4217 14.2237H9.884L9.33279 18.474L5.9402 20.1741L4.24391 26.9747L2.54762 33.7752L1.74192 39.428L2.70023 40.5757L0.927734 45.1149V49.1357L5.09206 48.2263L6.78835 47.3762C6.78835 47.3762 7.48375 48.3367 7.98416 49.1357C8.40968 49.7391 8.90505 50.29 9.45992 50.7765V41.7317L12.6235 40.5757L16.118 39.7257L20.3587 37.1754L24.2263 36.3254L26.2957 37.1754V34.9739L29.6883 34.6253L32.2327 35.4753V38.7735C32.2327 39.7256 33.5049 42.7009 33.5049 42.7009H35.4048L36.4735 47.3762L37.3216 48.2263C38.2967 49.5627 39.1484 50.9854 39.866 52.4766V55.8769H37.7287L34.7772 58.4271L33.929 62.6774V65.2276L33.0809 67.7778L33.929 68.6279L38.1697 70.328L44.0558 70.277L49.8827 70.328Z" fill="white" stroke="black" stroke-miterlimit="10"/>
</svg>
