<svg width="85" height="75" viewBox="0 0 85 75" fill="none" xmlns="http://www.w3.org/2000/svg">
<path d="M81.3722 60.9027C85.7005 59.9173 82.5457 52.7984 82.6988 49.0097C80.3773 51.8895 76.3297 50.8446 73.345 49.8592C76.8399 37.4989 64.8415 54.1832 65.5133 33.965C72.095 17.4337 53.1321 37.3631 54.6372 23.4312C54.1866 18.7845 55.6493 12.7869 53.8805 8.47991C51.406 8.31851 49.025 6.29677 47.6985 4.31743C43.5317 3.32351 43.4466 6.23722 41.0316 8.47991C40.6575 9.89009 40.4704 12.2433 38.4806 11.9289C38.8292 4.64021 29.9771 7.51145 26.5757 10.782C26.3376 8.4374 22.7066 11.8525 18.9225 9.64383C17.9786 8.36958 15.9548 7.09539 14.2626 7.5881C10.9293 5.95705 5.86959 1.51396 2.70629 1.4375C1.5073 3.3234 -0.414345 6.41579 2.64692 7.5881C3.36121 12.031 8.38678 16.2869 9.44972 20.0502C14.5518 22.7262 17.2303 18.3511 15.4701 27.7721C15.5296 34.1179 5.20645 32.7162 12.6215 38.8156C19.0672 44.3204 28.8205 36.8023 29.2712 47.3107C29.8325 54.3021 21.7542 54.9562 18.0466 57.5047C19.1436 60.5884 17.783 63.706 21.448 63.7909C19.2201 67.1889 21.9072 71.3091 23.3273 74.4947C26.38 74.4947 31.1165 74.4947 34.2033 74.4947C41.2612 72.4559 37.4261 67.9111 41.8565 68.5482C56.9927 63.3578 40.496 60.3762 51.491 57.8701C56.0234 56.6214 53.923 61.5653 55.3346 64.3007C59.2037 66.2716 56.4825 69.8733 60.5642 69.9158C62.4179 65.7363 66.5846 68.132 68.2173 71.0967C78.6766 67.3674 87.7243 80.0845 81.3722 60.9027Z" fill="white" stroke="black" stroke-miterlimit="10"/>
</svg>
