<svg width="73" height="67" viewBox="0 0 73 67" fill="none" xmlns="http://www.w3.org/2000/svg">
<path d="M19.1183 63.8271H21.5014L23.2159 62.9952L24.9303 61.3314L27.9135 63.8271H30.0737L32.0712 62.1633H34.3599L36.2286 61.3314L37.7889 58.8357L39.5033 60.4995L43.9009 61.3314H49.7902L54.0763 60.4995L55.7908 58.0038L59.4083 57.2966L60.6856 55.5081L62.6487 49.6847L63.1887 48.986H63.146L60.077 47.8962V45.5252L60.9342 43.0294L63.146 41.0496C63.146 41.0496 66.0776 39.7017 66.0776 39.0279V33.8784L66.1291 32.9799C66.172 32.0731 68.6494 32.2146 68.6494 32.2146L72.0783 31.3827L71.581 28.0136H69.5066L66.0776 25.5594L62.6487 23.8955L60.077 24.7274V28.0551H61.7915V30.5922L60.077 33.0218L55.7908 31.4241L53.2191 29.7603L50.6474 30.5922L48.9329 28.0965V25.1601L46.3612 23.0884V19.7608C46.3612 19.7608 46.3612 18.9289 44.6468 18.9289H42.9323C42.9323 18.9289 40.3606 21.4246 40.3606 19.7608V6.50874L37.7889 3.11449L33.5027 1.30078H26.722L25.7876 3.09783L24.9303 4.76165C24.3739 5.48165 24.0731 6.35737 24.0731 7.25737C24.0731 8.15738 24.3739 9.0331 24.9303 9.7531L25.7876 12.2488L26.6448 13.9126L28.3593 15.5765L30.931 17.2403L32.6455 18.9041L33.5027 21.3998L32.6455 23.0636L30.0737 24.7274L27.502 23.8955V21.3998H29.2165L30.0737 19.736L29.2165 18.0722C29.1054 18.1839 28.9722 18.2727 28.8249 18.3334C28.6777 18.3941 28.5193 18.4252 28.3593 18.4252C28.1993 18.4252 28.0409 18.3941 27.8936 18.3334C27.7463 18.2727 27.6132 18.1839 27.502 18.0722C26.6448 17.2403 26.6448 18.0722 26.6448 18.0722H22.3586L20.6442 18.9041L18.9297 22.2317L18.0724 26.3913V33.8784L15.5007 35.5423L13.7863 37.2061H9.50009C7.78562 37.2061 8.64286 37.2061 7.78562 38.038C6.92838 38.8699 7.78562 40.5337 7.78562 40.5337V42.1975L10.3573 43.0294V46.3571L8.64286 47.189H3.49944C2.64221 47.189 1.78497 45.5252 1.78497 45.5252L0.927734 47.189V54.6761L3.49944 55.5081L4.35668 54.6761L6.07115 56.34H8.64286L9.50009 57.1719L10.3573 58.8357L12.929 56.34L15.5007 55.5081H18.0724V57.1719L15.5007 58.0038L14.6435 61.3314L12.929 62.9952V64.659L13.7863 65.491L14.0177 65.9483L16.358 65.491L19.1183 63.8271Z" fill="white" stroke="black" stroke-miterlimit="10"/>
</svg>
